<?xml version="1.0" encoding="UTF-8" standalone="no"?>
<svg
   xmlns:dc="http://purl.org/dc/elements/1.1/"
   xmlns:cc="http://creativecommons.org/ns#"
   xmlns:rdf="http://www.w3.org/1999/02/22-rdf-syntax-ns#"
   xmlns:svg="http://www.w3.org/2000/svg"
   xmlns="http://www.w3.org/2000/svg"
   xmlns:sodipodi="http://sodipodi.sourceforge.net/DTD/sodipodi-0.dtd"
   xmlns:inkscape="http://www.inkscape.org/namespaces/inkscape"
   width="270"
   height="50"
   viewBox="0 0 269.99999 50"
   version="1.1"
   id="svg3805"
   sodipodi:docname="devbox.svg"
   style="fill:none"
   inkscape:version="0.92.5 (2060ec1f9f, 2020-04-08)">
  <metadata
     id="metadata3809">
    <rdf:RDF>
      <cc:Work
         rdf:about="">
        <dc:format>image/svg+xml</dc:format>
        <dc:type
           rdf:resource="http://purl.org/dc/dcmitype/StillImage" />
        <dc:title></dc:title>
      </cc:Work>
    </rdf:RDF>
  </metadata>
  <sodipodi:namedview
     pagecolor="#ffffff"
     bordercolor="#666666"
     borderopacity="1"
     objecttolerance="10"
     gridtolerance="10"
     guidetolerance="10"
     inkscape:pageopacity="0"
     inkscape:pageshadow="2"
     inkscape:window-width="3840"
     inkscape:window-height="2038"
     id="namedview3807"
     showgrid="false"
     inkscape:pagecheckerboard="true"
     fit-margin-top="0"
     fit-margin-left="0"
     fit-margin-right="0"
     fit-margin-bottom="0"
     inkscape:zoom="7.097166"
     inkscape:cx="94.957968"
     inkscape:cy="67.945236"
     inkscape:window-x="0"
     inkscape:window-y="60"
     inkscape:window-maximized="1"
     inkscape:current-layer="svg3805" />
  <path
     d="M 0,4.8543689 C 0,2.1733738 2.1733737,0 4.8543689,0 H 45.145631 C 47.826577,0 50,2.1733738 50,4.8543689 V 45.14563 C 50,47.826577 47.826577,50 45.145631,50 H 4.8543689 C 2.1733737,50 0,47.826577 0,45.14563 Z m 10.927439,13.4492711 6.632634,6.632647 -6.632634,6.632644 -0.148179,0.221845 -0.124405,0.300242 -0.05204,0.261651 V 38.2858 l 0.200218,0.483374 0.424757,0.424757 0.483374,0.200243 h 5.933131 l 0.261529,-0.05206 0.300364,-0.124393 0.221845,-0.14818 6.632646,-6.632645 6.632645,6.632645 0.483374,0.200243 h 0.600728 l 0.483375,-0.200243 5.93313,-5.933131 0.200243,-0.483373 v -0.600728 l -0.200243,-0.483375 -6.632646,-6.632645 2.922087,-2.922088 0.0023,-0.0024 2.225,-2.224879 c 0.994539,-0.994659 1.553399,-2.343689 1.553399,-3.750242 0,-1.406675 -0.55886,-2.755705 -1.553399,-3.750364 -0.994661,-0.994611 -2.34369,-1.553386 -3.750364,-1.553386 -1.406554,0 -2.755582,0.558775 -3.750242,1.553386 l -5.149429,5.149403 -6.632646,-6.632646 -0.483373,-0.200218 h -0.600729 l -0.483374,0.200218 -5.933119,5.933131 -0.200219,0.483374 v 0.600728 z m 1.8921,18.873787 v -4.365656 l 15.949393,-15.949392 4.365656,4.365655 -15.949394,15.949393 z m 17.390534,-5.608496 c 0.432888,-0.432767 1.134587,-0.432767 1.567475,0 0.432767,0.432889 0.432767,1.134588 0,1.567476 l -1.441261,1.441141 2.140776,2.140776 4.365655,-4.365655 -5.848908,-5.848907 -4.365655,4.365655 2.140777,2.140776 z m 1.567475,-17.715169 -1.441261,1.441141 4.365654,4.365777 1.441263,-1.441263 c 0.578883,-0.578884 0.904126,-1.364077 0.904126,-2.182767 0,-0.81881 -0.325243,-1.604004 -0.904126,-2.182888 -0.578883,-0.578884 -1.364078,-0.904126 -2.182888,-0.904126 -0.818689,0 -1.603884,0.325242 -2.182768,0.904126 z m -8.284344,5.149393 -5.848908,-5.848908 -4.365656,4.365656 2.140778,2.140777 1.44114,-1.441263 c 0.432889,-0.432767 1.134588,-0.432767 1.567476,0 0.432767,0.432889 0.432767,1.134587 0,1.567477 l -1.441262,1.44114 2.140776,2.140776 z"
     id="path3794"
     inkscape:connector-curvature="0"
     style="clip-rule:evenodd;fill:#ffffff;fill-rule:evenodd;stroke-width:0.99999994" />
  <path
     d="m 101.21308,25.061329 c 0,3.953849 -0.74536,7.25956 -2.236218,9.917132 -1.49085,2.657572 -3.629841,4.650722 -6.416963,5.979447 -2.787128,1.328726 -6.109124,1.993149 -9.965746,1.993149 H 72.142273 V 8.2410957 H 83.56642 c 3.662169,0 6.805876,0.6481746 9.430999,1.9445353 2.65757,1.296398 4.683048,3.19232 6.07667,5.687768 1.425961,2.463118 2.138991,5.525762 2.138991,9.18793 z m -8.555955,0.29168 c 0,-2.365891 -0.340294,-4.310428 -1.020881,-5.833606 C 90.988106,17.996224 89.999552,16.86183 88.670827,16.116465 87.37443,15.3711 85.754023,14.998357 83.809488,14.998357 h -3.402937 v 21.146826 h 2.673736 c 3.273261,0 5.687767,-0.891205 7.243395,-2.673736 1.555628,-1.814861 2.333443,-4.521046 2.333443,-8.118438 z m 26.266055,-9.576838 c 2.5279,0 4.69934,0.46997 6.5142,1.409788 1.84731,0.907491 3.2571,2.268667 4.22936,4.083526 1.00472,1.782531 1.50702,4.002462 1.50702,6.660034 v 3.791845 h -16.86885 c 0.0648,1.750083 0.63197,3.143707 1.70147,4.180752 1.06949,1.037045 2.59267,1.555629 4.56966,1.555629 1.71763,0 3.27326,-0.162005 4.66689,-0.486135 1.39362,-0.32413 2.83573,-0.842591 4.32658,-1.555628 v 6.076673 c -1.29639,0.680589 -2.68989,1.166722 -4.18074,1.458402 -1.49086,0.32413 -3.32188,0.486135 -5.49331,0.486135 -2.68991,0 -5.08825,-0.486135 -7.19479,-1.458402 -2.07421,-0.972268 -3.71078,-2.46312 -4.90996,-4.472433 -1.16671,-2.041761 -1.75008,-4.618271 -1.75008,-7.729529 0,-3.176034 0.53475,-5.784993 1.60424,-7.826756 1.0695,-2.074211 2.57652,-3.613555 4.52105,-4.618272 1.94454,-1.037045 4.19692,-1.555629 6.75726,-1.555629 z m 0.14584,5.687768 c -1.26394,0 -2.31728,0.405071 -3.15986,1.215334 -0.81027,0.777815 -1.2964,2.025599 -1.4584,3.743231 h 9.18793 c 0,-0.939818 -0.17829,-1.782531 -0.53475,-2.527896 -0.32413,-0.745365 -0.82643,-1.328725 -1.50702,-1.750082 -0.68059,-0.453685 -1.52318,-0.680587 -2.5279,-0.680587 z m 23.33541,21.487118 -10.16081,-26.688752 h 8.55657 l 4.86133,15.459059 c 0.0972,0.356458 0.19446,0.793978 0.29168,1.312562 0.12883,0.486133 0.22605,0.988432 0.29169,1.507015 0.0972,0.486134 0.14583,0.939818 0.14583,1.361175 h 0.19445 c 0,-0.453684 0.0316,-0.923655 0.0972,-1.409789 0.0972,-0.486133 0.19445,-0.956104 0.29168,-1.409788 0.12883,-0.486134 0.25887,-0.923654 0.38891,-1.312562 l 4.95856,-15.507672 h 8.50613 L 150.6687,42.951057 Z M 176.28188,8.2410957 c 3.20848,0 5.84941,0.3078808 7.92399,0.9236545 2.07457,0.6157616 3.61319,1.5718288 4.61827,2.8681898 1.00508,1.263949 1.50701,2.916804 1.50701,4.958566 0,1.393625 -0.24307,2.625123 -0.7292,3.694618 -0.48613,1.037046 -1.13391,1.895923 -1.94453,2.57651 -0.81064,0.648138 -1.71728,1.069494 -2.72236,1.263948 v 0.243067 c 1.03669,0.226903 2.02597,0.631974 2.96543,1.215335 0.93944,0.550911 1.70146,1.377338 2.28482,2.479283 0.61618,1.101944 0.92366,2.560346 0.92366,4.375205 0,2.10654 -0.53475,3.921521 -1.60424,5.4447 -1.03669,1.523179 -2.5279,2.6899 -4.47244,3.500164 -1.94454,0.777815 -4.24517,1.166721 -6.9031,1.166721 H 164.90635 V 8.2410957 Z m 0.53475,13.5631363 c 1.84731,0 3.14407,-0.32413 3.88907,-0.972268 0.745,-0.680587 1.11811,-1.588078 1.11811,-2.72235 0,-1.134272 -0.43752,-1.976985 -1.31256,-2.527896 -0.84223,-0.550911 -2.1876,-0.826428 -4.03491,-0.826428 h -3.30571 v 7.048942 z m -3.646,6.319741 v 8.215663 h 4.13213 c 1.94454,0 3.28991,-0.388907 4.03491,-1.166721 0.77782,-0.777814 1.16673,-1.798696 1.16673,-3.062644 0,-0.777814 -0.16165,-1.458402 -0.48614,-2.041763 -0.32449,-0.615809 -0.89084,-1.085658 -1.70146,-1.409788 -0.77782,-0.356457 -1.84731,-0.534747 -3.20849,-0.534747 z m 48.70332,1.409788 c 0,2.236216 -0.30748,4.213202 -0.92365,5.930835 -0.58337,1.717632 -1.4584,3.176033 -2.62513,4.375205 -1.1339,1.199171 -2.51088,2.106539 -4.13213,2.72235 -1.58723,0.58336 -3.41874,0.875041 -5.49332,0.875041 -1.87891,0 -3.62899,-0.291681 -5.25024,-0.875041 -1.58723,-0.615811 -2.96542,-1.507016 -4.13214,-2.673737 -1.13391,-1.199171 -2.02475,-2.657573 -2.67374,-4.375206 -0.64777,-1.750081 -0.97227,-3.743231 -0.97227,-5.979447 0,-2.949252 0.51895,-5.4447 1.55563,-7.486462 1.06949,-2.041762 2.59352,-3.597391 4.56966,-4.666886 1.97735,-1.069494 4.32659,-1.604242 7.04895,-1.604242 2.5607,0 4.81272,0.534748 6.75725,1.604242 1.94454,1.069495 3.46857,2.625124 4.56966,4.666886 1.13512,2.041762 1.70147,4.53721 1.70147,7.486462 z m -17.88973,0 c 0,1.652856 0.16286,3.04648 0.48614,4.180752 0.32449,1.134272 0.84344,1.993149 1.55562,2.57651 0.71341,0.550911 1.63706,0.826428 2.77097,0.826428 1.16672,0 2.09038,-0.275517 2.77096,-0.826428 0.68059,-0.583361 1.18374,-1.442238 1.50701,-2.57651 0.3245,-1.134272 0.48614,-2.527896 0.48614,-4.180752 0,-1.652855 -0.16164,-3.030194 -0.48614,-4.132138 -0.32327,-1.101944 -0.84222,-1.928372 -1.55562,-2.479283 -0.68058,-0.550911 -1.60424,-0.826428 -2.77096,-0.826428 -1.65286,0 -2.8682,0.631975 -3.64601,1.895923 -0.745,1.231498 -1.11811,3.078807 -1.11811,5.541926 z m 28.16782,-0.194454 -8.41012,-13.077002 h 9.28516 l 4.66689,8.02121 4.71549,-8.02121 h 9.28516 l -8.50734,13.077002 8.89625,13.61175 h -9.28516 l -5.1044,-8.653183 -5.10442,8.653183 h -9.28515 z"
     id="path3796"
     inkscape:connector-curvature="0"
     style="fill:#ffffff;stroke-width:1" />
  <defs
     id="defs3803">
    <clipPath
       id="clip0_10_33">
      <rect
         width="1976"
         height="412"
         id="rect3800"
         x="0"
         y="0"
         style="fill:#ffffff" />
    </clipPath>
  </defs>
</svg>
