<?xml version="1.0" encoding="UTF-8" standalone="no"?>
<!-- Created with Inkscape (http://www.inkscape.org/) -->

<svg
   xmlns:dc="http://purl.org/dc/elements/1.1/"
   xmlns:cc="http://creativecommons.org/ns#"
   xmlns:rdf="http://www.w3.org/1999/02/22-rdf-syntax-ns#"
   xmlns:svg="http://www.w3.org/2000/svg"
   xmlns="http://www.w3.org/2000/svg"
   xmlns:sodipodi="http://sodipodi.sourceforge.net/DTD/sodipodi-0.dtd"
   xmlns:inkscape="http://www.inkscape.org/namespaces/inkscape"
   width="330"
   height="50"
   viewBox="0 0 87.312419 13.229153"
   version="1.1"
   id="svg8"
   inkscape:version="0.92.5 (2060ec1f9f, 2020-04-08)"
   sodipodi:docname="hacker-newspaper-bw.svg"
   inkscape:export-filename="/home/gus/Projects/hacker-paper-newsletter/client/assets/favicon.png"
   inkscape:export-xdpi="192"
   inkscape:export-ydpi="192">
  <defs
     id="defs2" />
  <sodipodi:namedview
     id="base"
     pagecolor="#ffffff"
     bordercolor="#666666"
     borderopacity="1.0"
     inkscape:pageopacity="0.0"
     inkscape:pageshadow="2"
     inkscape:zoom="5.6"
     inkscape:cx="133.1602"
     inkscape:cy="37.641386"
     inkscape:document-units="mm"
     inkscape:current-layer="layer1"
     showgrid="false"
     units="px"
     inkscape:window-width="3840"
     inkscape:window-height="2038"
     inkscape:window-x="0"
     inkscape:window-y="60"
     inkscape:window-maximized="1"
     inkscape:snap-center="false"
     inkscape:snap-text-baseline="false"
     scale-x="1" />
  <metadata
     id="metadata5">
    <rdf:RDF>
      <cc:Work
         rdf:about="">
        <dc:format>image/svg+xml</dc:format>
        <dc:type
           rdf:resource="http://purl.org/dc/dcmitype/StillImage" />
        <dc:title></dc:title>
      </cc:Work>
    </rdf:RDF>
  </metadata>
  <g
     inkscape:label="Layer 1"
     inkscape:groupmode="layer"
     id="layer1"
     transform="translate(0,-283.77097)">
    <path
       style="opacity:1;fill:#000000;fill-opacity:1;stroke:none;stroke-width:0.07939142;stroke-linejoin:miter;stroke-miterlimit:4;stroke-dasharray:none;stroke-dashoffset:0;stroke-opacity:1;paint-order:stroke fill markers"
       d="m 0,283.77095 v 13.22917 h 13.229167 v -13.22917 z m 6.3510536,2.46498 0.1653748,0.3307 c -0.1515844,0 -0.2962985,0.0896 -0.4341022,0.26873 -0.1240232,0.17224 -0.186015,0.43408 -0.186015,0.78549 v 2.35642 h 0.5167642 v 0.24809 l -0.5167642,0.25838 v 2.19105 c 0,0.42031 0.1412087,0.658 0.4237063,0.71313 v 0.22739 l -1.0438235,0.58913 c -0.1515843,-0.0621 -0.2928432,-0.16195 -0.4237569,-0.29976 -0.1309132,-0.14469 -0.1963604,-0.27904 -0.1963604,-0.40307 v -3.01787 H 3.725901 v 2.12903 c 0,0.25493 0.02754,0.43755 0.082662,0.5478 0.055121,0.11017 0.1687894,0.16538 0.3410442,0.16538 v 0.32035 l -2.1187338,0.88885 -0.1653241,-0.33071 c 0.1515841,0 0.2962479,-0.0896 0.4340517,-0.26872 0.1240233,-0.17226 0.1860654,-0.4341 0.1860654,-0.7855 v -5.37434 c 0,-0.42031 -0.1412589,-0.65802 -0.4237568,-0.71313 v -0.22739 l 1.043874,-0.58909 c 0.1515844,0.0621 0.2927928,0.16536 0.4237064,0.31005 0.1309133,0.13782 0.1964109,0.26871 0.1964109,0.39274 v 3.30728 l 0.5167642,-0.27907 h 0.4134115 v -1.81897 c 0,-0.25494 -0.027592,-0.43756 -0.082712,-0.5478 -0.055121,-0.1103 -0.1687894,-0.16538 -0.3410443,-0.16538 v -0.32035 z m 1.7156173,0 c 0.048231,0.0138 0.1068176,0.0344 0.17572,0.0621 0.068902,0.0206 0.1584844,0.0862 0.2687276,0.19635 0.1171333,0.1103 0.1756696,0.23768 0.1756696,0.38238 0.041341,-0.0207 0.1584642,-0.0862 0.3513896,-0.19636 0.5098742,-0.28939 0.8130726,-0.43405 0.9095354,-0.43405 0.2204859,0 0.4271919,0.14466 0.6201169,0.43405 0.192925,0.28938 0.289368,0.55468 0.289368,0.79584 v 5.19863 c 0,0.37895 0.168799,0.60288 0.50642,0.67179 v 0.2274 l -1.126537,0.63045 c -0.151584,-0.0621 -0.2928432,-0.16195 -0.4237568,-0.29975 -0.1309132,-0.14469 -0.1963603,-0.27905 -0.1963603,-0.40307 v -5.06429 c 0,-0.43408 -0.065448,-0.73038 -0.1963604,-0.88884 -0.1240233,-0.15849 -0.3686354,-0.2377 -0.7338154,-0.2377 v 5.30199 c 0,0.2756 0.034452,0.46509 0.1033534,0.56843 0.068902,0.0965 0.1757099,0.14474 0.3204039,0.14474 v 0.32035 l -2.1187338,0.88886 -0.1653745,-0.33072 c 0.1378038,0 0.2721524,-0.0827 0.4030661,-0.24807 0.144694,-0.19293 0.2170511,-0.503 0.2170511,-0.93018 v -5.09528 c 0,-0.22737 -0.048222,-0.42377 -0.144684,-0.58914 -0.096463,-0.16535 -0.217041,-0.24803 -0.361735,-0.24803 v -0.22734 c 0.048231,-0.007 0.4237367,-0.21705 1.1265361,-0.63046 z"
       id="path921"
       inkscape:connector-curvature="0" />
    <path
       style="font-style:normal;font-variant:normal;font-weight:normal;font-stretch:normal;font-size:106.36845398px;line-height:1.25;font-family:'Pirata One';-inkscape-font-specification:'Pirata One';letter-spacing:0px;word-spacing:0px;fill:#000000;fill-opacity:1;stroke:none;stroke-width:0.26458338"
       d="m 20.218159,286.24397 -2.134761,0.88889 v 0.3204 c 0.173556,0 0.2881,0.0551 0.343639,0.16537 0.05554,0.11029 0.08331,0.29287 0.08331,0.54781 v 1.81904 h -0.416516 l -0.520649,0.27908 v -3.30741 c 0,-0.12406 -0.06598,-0.25496 -0.197876,-0.39277 -0.131906,-0.1447 -0.274224,-0.24801 -0.426953,-0.31003 l -1.051731,0.5891 v 0.22741 c 0.284631,0.0551 0.426952,0.29281 0.426952,0.71313 v 5.37458 c 0,0.35142 -0.06248,0.61325 -0.187443,0.78552 -0.138845,0.17915 -0.284657,0.26868 -0.437385,0.26868 l 0.166627,0.33078 2.13471,-0.88888 v -0.3204 c -0.173554,0 -0.288098,-0.0551 -0.343638,-0.16537 -0.05553,-0.1103 -0.08326,-0.29286 -0.08326,-0.54781 v -2.12912 h 0.937168 v 3.018 c 0,0.12407 0.06597,0.25841 0.197877,0.40312 0.131905,0.1378 0.274223,0.23767 0.426951,0.29968 l 1.051732,-0.5891 v -0.22741 c -0.284632,-0.0551 -0.426953,-0.29281 -0.426953,-0.71313 v -2.19116 l 0.520699,-0.25841 v -0.24808 H 19.75996 v -2.35653 c 0,-0.35141 0.06248,-0.61323 0.187444,-0.7855 0.138844,-0.17915 0.284655,-0.26869 0.437386,-0.26869 z m 24.523418,0 c -0.70811,0.41342 -1.0865,0.62358 -1.135098,0.63048 v 0.22741 c 0.14579,0 0.267313,0.0828 0.364505,0.24807 0.09719,0.16538 0.145763,0.36171 0.145763,0.5891 v 5.0955 c 0,0.42721 -0.0729,0.73728 -0.218692,0.93021 -0.131906,0.16538 -0.267243,0.24803 -0.406088,0.24803 l 0.166578,0.33078 2.134761,-0.88888 v -0.3204 c -0.145786,0 -0.253399,-0.0482 -0.32282,-0.1447 -0.06942,-0.10341 -0.104126,-0.29286 -0.104126,-0.56848 v -5.3022 c 0.367939,0 0.614381,0.0793 0.739341,0.23774 0.131906,0.15848 0.197878,0.45479 0.197878,0.88889 v 5.06445 c 0,0.12407 0.06593,0.25841 0.197825,0.40312 0.131906,0.1378 0.274222,0.23767 0.426953,0.29968 l 1.135044,-0.63048 v -0.22736 c -0.340166,-0.0688 -0.510215,-0.29283 -0.510215,-0.6718 v -5.19887 c 0,-0.24117 -0.09719,-0.50645 -0.291573,-0.79584 -0.194381,-0.28941 -0.402677,-0.43407 -0.624829,-0.43407 -0.09719,0 -0.402628,0.14466 -0.916353,0.43407 -0.194384,0.11029 -0.312418,0.17574 -0.354071,0.19641 0,-0.1447 -0.059,-0.27221 -0.177012,-0.38245 -0.111078,-0.11029 -0.201335,-0.17569 -0.270757,-0.19636 -0.06942,-0.0275 -0.12841,-0.0483 -0.177009,-0.0621 z m -13.464443,0.0207 c -0.70811,0.41343 -1.513411,0.85439 -2.415901,1.32295 v 0.2894 c 0.15273,0 0.26034,0.0413 0.322821,0.12407 0.06248,0.0757 0.09369,0.20669 0.09369,0.39272 v 5.11618 c 0,0.12406 0.06598,0.2584 0.197878,0.40311 0.131906,0.1378 0.274224,0.23768 0.426952,0.29968 l 1.051729,-0.5891 v -0.22741 c -0.284631,-0.0551 -0.426952,-0.29281 -0.426952,-0.71312 v -1.15762 c 0.131906,0.44787 0.367924,1.00945 0.708094,1.68472 0.347111,0.66837 0.63175,1.00253 0.853904,1.00253 0.166613,0 0.572729,-0.20666 1.218358,-0.62009 v -0.29974 c -0.159672,-0.0138 -0.305433,-0.0516 -0.437336,-0.11373 -0.416536,-0.17227 -0.843495,-0.83377 -1.280855,-1.98448 0.72199,-0.27561 1.08298,-0.4513 1.08298,-0.52709 v -1.12658 c 0,-0.31007 -0.117989,-0.58917 -0.354022,-0.83722 -0.236037,-0.25494 -0.45126,-0.3824 -0.645644,-0.3824 -0.118016,0 -0.49985,0.20672 -1.145479,0.62014 v -0.95087 c 0,-0.33074 0.104127,-0.62705 0.312391,-0.88888 0.08331,-0.10342 0.187425,-0.20328 0.31239,-0.29975 0.124954,-0.10341 0.222199,-0.17224 0.291622,-0.20669 z m 22.36784,2.04647 -1.135097,0.63046 v 0.22737 c 0.340171,0.0688 0.510268,0.29282 0.510268,0.6718 v 3.12138 c 0,0.24805 0.09376,0.52025 0.281188,0.81655 0.194384,0.2894 0.392208,0.43406 0.593531,0.43406 0.201327,0 0.683841,-0.2136 1.447484,-0.64081 0.215208,0.42721 0.485938,0.64081 0.812224,0.64081 0.180498,0 0.642168,-0.14466 1.384986,-0.43406 0.742821,-0.2894 1.114228,-0.46513 1.114228,-0.52715 v -3.41078 c 0,-0.53056 -0.159675,-0.95432 -0.479017,-1.27128 -0.166615,-0.16536 -0.319363,-0.24803 -0.4582,-0.24803 -0.0069,0 -0.215187,0.10341 -0.62478,0.31008 -0.409593,0.19982 -0.621325,0.30662 -0.63521,0.3204 -0.03472,-0.15159 -0.131906,-0.29286 -0.291573,-0.42377 -0.159673,-0.13781 -0.27078,-0.20671 -0.333257,-0.20671 -0.0069,0 -0.385283,0.20672 -1.135045,0.62014 v 0.22737 c 0.340169,0.0688 0.510268,0.29282 0.510268,0.6718 v 3.27641 c -0.111078,0.0413 -0.21869,0.0621 -0.322824,0.0621 -0.409592,0 -0.614396,-0.32729 -0.614396,-0.98187 v -3.19376 c 0,-0.11719 -0.06593,-0.24459 -0.197826,-0.3824 -0.131906,-0.1447 -0.274224,-0.24805 -0.426952,-0.31006 z m -30.584012,0.0106 c -0.131906,0 -0.73584,0.18945 -1.811888,0.56843 v 0.31007 c 0.597033,0 0.999658,0.0793 1.207926,0.23774 0.208267,0.1516 0.312389,0.42375 0.312389,0.81651 l -0.551897,0.1757 c -0.360997,0.11029 -0.721985,0.25152 -1.082981,0.42378 -0.360997,0.17225 -0.541515,0.31353 -0.541515,0.42378 v 1.69505 c 0,0.28939 0.104179,0.54779 0.312441,0.77517 0.07636,0.0895 0.163132,0.17568 0.260324,0.25837 0.104139,0.0757 0.177038,0.12751 0.218693,0.15503 0.04166,0.0206 0.07286,0.0379 0.09369,0.0516 l 1.301673,-0.69247 c 0,0.11718 0.06598,0.24808 0.197876,0.39279 0.131906,0.13779 0.274223,0.23767 0.426952,0.29968 l 1.135044,-0.63048 v -0.22736 c -0.173554,-0.0413 -0.302013,-0.1103 -0.385319,-0.20669 -0.08331,-0.10341 -0.124941,-0.28255 -0.124941,-0.53749 v -2.92501 c 0,-0.31696 -0.104126,-0.62353 -0.312389,-0.91983 -0.208266,-0.29629 -0.426984,-0.44444 -0.656079,-0.44444 z m 4.57148,0 c -0.118016,0 -0.576196,0.14815 -1.374556,0.44444 -0.79141,0.28939 -1.187108,0.4582 -1.187108,0.50644 v 3.47277 c 0,0.39275 0.107609,0.73729 0.322823,1.03358 0.215209,0.28941 0.426942,0.43406 0.635211,0.43406 0.07636,0 0.683795,-0.18945 1.822322,-0.56843 v -0.29973 c -0.326284,0 -0.607433,-0.0275 -0.843473,-0.0828 -0.458186,-0.12406 -0.687276,-0.4513 -0.687276,-0.98187 v -2.85263 c 0.05553,-0.0689 0.118016,-0.10341 0.187444,-0.10341 0.09719,0 0.225601,0.28254 0.385271,0.84755 0.159671,0.55813 0.29157,0.83717 0.395703,0.83717 0.02777,0 0.222148,-0.0862 0.583146,-0.25841 0.367939,-0.17915 0.628294,-0.30315 0.781025,-0.37206 v -0.2067 c -0.22215,0 -0.374896,-0.0655 -0.458203,-0.19641 -0.07637,-0.13781 -0.152712,-0.34797 -0.229076,-0.63048 -0.06942,-0.28251 -0.131905,-0.52364 -0.187441,-0.72347 -0.05553,-0.19982 -0.104153,-0.29973 -0.145812,-0.29973 z m 8.67432,0 c -0.118016,0 -0.572756,0.14815 -1.364171,0.44444 -0.791417,0.28939 -1.187108,0.4582 -1.187108,0.50644 v 3.47277 c 0,0.39275 0.107609,0.73729 0.322822,1.03358 0.215207,0.28941 0.426946,0.43406 0.635213,0.43406 0.07636,0 0.683794,-0.18945 1.822321,-0.56843 v -0.29973 c -0.319343,0 -0.593563,-0.0275 -0.822658,-0.0828 -0.465129,-0.12406 -0.697658,-0.4513 -0.697658,-0.98187 0.02777,0 0.211728,-0.0551 0.551897,-0.16537 0.347112,-0.11718 0.704609,-0.26529 1.072547,-0.44444 0.367937,-0.17915 0.551949,-0.33074 0.551949,-0.45477 v -1.73639 c 0,-0.17915 -0.06946,-0.36172 -0.208311,-0.54776 -0.138845,-0.19294 -0.277674,-0.34109 -0.416517,-0.44445 -0.138848,-0.11029 -0.225616,-0.16536 -0.260326,-0.16536 z m 2.509599,0 -1.14548,0.62013 v 0.22738 c 0.124968,0 0.239506,0.0759 0.343639,0.22741 0.111077,0.15158 0.166629,0.37895 0.166629,0.68213 v 3.43144 c 0,0.12407 0.06597,0.25841 0.197876,0.40312 0.131905,0.1378 0.274226,0.23768 0.426954,0.29968 l 1.051729,-0.5891 v -0.22741 c -0.284633,-0.0551 -0.426951,-0.29281 -0.426951,-0.71312 v -3.29708 c 0.249919,0 0.437369,0.0447 0.562329,0.13432 0.111078,0.0828 0.166627,0.41346 0.166627,0.99226 l 0.177012,0.1447 1.072598,-0.59947 v -0.50644 c 0,-0.24116 -0.09719,-0.50644 -0.291575,-0.79584 -0.194383,-0.2894 -0.402679,-0.43411 -0.624828,-0.43411 -0.0833,0 -0.274199,0.10341 -0.572714,0.31007 -0.291574,0.19982 -0.454739,0.30662 -0.489449,0.3204 0,-0.13781 -0.05899,-0.26186 -0.177012,-0.37212 -0.111078,-0.11029 -0.201335,-0.17569 -0.270757,-0.19636 -0.06248,-0.0275 -0.118029,-0.0482 -0.166627,-0.062 z m 12.329397,0 c -0.118016,0 -0.572756,0.14815 -1.364171,0.44444 -0.791414,0.28939 -1.187108,0.4582 -1.187108,0.50644 v 3.47277 c 0,0.39275 0.107608,0.73729 0.322821,1.03358 0.215208,0.28941 0.426944,0.43406 0.635213,0.43406 0.07636,0 0.683795,-0.18945 1.822322,-0.56843 v -0.29973 c -0.319343,0 -0.593564,-0.0275 -0.822658,-0.0828 -0.465131,-0.12406 -0.697658,-0.4513 -0.697658,-0.98187 0.02777,0 0.211727,-0.0551 0.551897,-0.16537 0.347112,-0.11718 0.704608,-0.26529 1.072548,-0.44444 0.367938,-0.17915 0.551947,-0.33074 0.551947,-0.45477 v -1.73639 c 0,-0.17915 -0.06946,-0.36172 -0.20831,-0.54776 -0.138845,-0.19294 -0.277674,-0.34109 -0.416518,-0.44445 -0.138847,-0.11029 -0.225613,-0.16536 -0.260325,-0.16536 z m 10.746585,0 c -0.111077,0 -0.531108,0.16192 -1.260042,0.48577 -0.728937,0.31696 -1.093412,0.54088 -1.093412,0.6718 v 1.11625 c 0,0.37897 0.06248,0.69937 0.187444,0.96121 0.124954,0.26184 0.274213,0.39278 0.447768,0.39278 0.04859,0 0.263819,-0.0828 0.645644,-0.24808 0.381823,-0.16537 0.600493,-0.24803 0.656029,-0.24803 0.173559,0 0.260374,0.15504 0.260374,0.46511 v 1.29195 c 0,0.0965 -0.03126,0.17228 -0.09375,0.22741 -0.06248,0.0551 -0.128409,0.0826 -0.197826,0.0826 -0.09719,0 -0.225647,-0.20328 -0.385319,-0.60981 -0.152728,-0.40654 -0.281134,-0.60981 -0.385271,-0.60981 -0.03472,0 -0.270783,0.12062 -0.708142,0.36178 -0.187439,0.0965 -0.336694,0.16879 -0.447769,0.21703 v 0.2067 c 0.138844,0 0.253388,0.0828 0.343638,0.24807 0.07636,0.12407 0.152762,0.27562 0.229126,0.45478 0.08331,0.17915 0.145791,0.31348 0.187444,0.40306 0.04859,0.0827 0.09716,0.12406 0.145761,0.12406 0.118015,0 0.572753,-0.15848 1.364171,-0.47544 0.798356,-0.32384 1.197544,-0.55121 1.197541,-0.68213 v -1.16796 c 0,-0.41342 -0.06597,-0.75103 -0.197875,-1.01287 -0.124954,-0.26872 -0.27077,-0.4031 -0.437385,-0.4031 -0.0833,0 -0.326258,0.0896 -0.728908,0.26873 -0.402651,0.17915 -0.617878,0.26875 -0.645647,0.26875 -0.124967,0 -0.187441,-0.13784 -0.187441,-0.41344 v -1.27129 c 0,-0.20671 0.06248,-0.31007 0.187441,-0.31007 0.09719,0 0.204803,0.16881 0.322823,0.50644 0.124954,0.33762 0.239504,0.50643 0.343638,0.50643 0.03472,0 0.274224,-0.12062 0.718527,-0.36174 0.180496,-0.0965 0.326309,-0.16879 0.437386,-0.21702 v -0.20675 c -0.138845,0 -0.253392,-0.0826 -0.343639,-0.24803 -0.04166,-0.0688 -0.09377,-0.15505 -0.156246,-0.25841 -0.05553,-0.11029 -0.09718,-0.18602 -0.124941,-0.22736 -0.02777,-0.0482 -0.06597,-0.10685 -0.11456,-0.17574 -0.04859,-0.0759 -0.104099,-0.11361 -0.166576,-0.11361 z m 8.757585,0 c -0.131906,0 -0.735893,0.18945 -1.811939,0.56843 v 0.31007 c 0.597032,0 0.999709,0.0793 1.207976,0.23774 0.208266,0.1516 0.31239,0.42375 0.31239,0.81651 l -0.551898,0.1757 c -0.360997,0.11029 -0.721985,0.25152 -1.08298,0.42378 -0.360997,0.17225 -0.541515,0.31353 -0.541515,0.42378 v 1.69505 c 0,0.28939 0.104126,0.54779 0.31239,0.77517 0.07636,0.0895 0.163182,0.17568 0.260374,0.25837 0.104139,0.0757 0.176987,0.12751 0.218643,0.15503 0.04166,0.0206 0.07292,0.0379 0.09374,0.0516 l 1.301672,-0.69247 c 0,0.11718 0.06593,0.24808 0.197826,0.39279 0.131906,0.13779 0.274221,0.23767 0.426954,0.29968 l 1.135044,-0.63048 v -0.22736 c -0.173556,-0.0413 -0.301962,-0.1103 -0.385271,-0.20669 -0.08331,-0.10341 -0.124941,-0.28255 -0.124941,-0.53749 v -2.92501 c 0,-0.31696 -0.104179,-0.62353 -0.312439,-0.91983 -0.208267,-0.29629 -0.426927,-0.44444 -0.656027,-0.44444 z m 9.038776,0 c -0.118016,0 -0.572704,0.14815 -1.364119,0.44444 -0.791418,0.28941 -1.18716,0.4582 -1.18716,0.50644 v 3.47277 c 0,0.39275 0.107609,0.73729 0.32282,1.03358 0.215215,0.28941 0.426947,0.43406 0.635215,0.43406 0.07636,0 0.683844,-0.18945 1.822369,-0.56843 v -0.29973 c -0.319342,0 -0.59356,-0.0275 -0.822654,-0.0828 -0.465132,-0.12406 -0.69771,-0.4513 -0.69771,-0.98187 0.02777,0 0.211728,-0.0551 0.551897,-0.16537 0.347112,-0.11718 0.704659,-0.26529 1.072598,-0.44444 0.36794,-0.17915 0.551898,-0.33074 0.551898,-0.45477 v -1.73639 c 0,-0.17915 -0.06941,-0.36172 -0.208259,-0.54776 -0.138845,-0.19294 -0.277677,-0.34109 -0.416519,-0.44445 -0.138847,-0.11029 -0.225665,-0.16536 -0.260376,-0.16536 z m 2.509649,0 -1.145478,0.62013 v 0.22738 c 0.124954,0 0.239505,0.0759 0.343639,0.22741 0.111077,0.15158 0.166627,0.37895 0.166627,0.68213 v 3.43144 c 0,0.12407 0.06593,0.25841 0.197827,0.40312 0.131906,0.1378 0.274224,0.23768 0.426953,0.29968 l 1.051729,-0.5891 v -0.22741 c -0.284635,-0.0551 -0.426953,-0.29281 -0.426953,-0.71312 v -3.29708 c 0.24992,0 0.43737,0.0447 0.562332,0.13432 0.111077,0.0828 0.166629,0.41346 0.166629,0.99226 l 0.177009,0.1447 1.072598,-0.59947 v -0.50644 c 0,-0.24116 -0.09719,-0.50644 -0.291573,-0.79584 -0.194381,-0.2894 -0.402677,-0.43411 -0.624829,-0.43411 -0.08331,0 -0.274201,0.10341 -0.572715,0.31007 -0.291575,0.19982 -0.454738,0.30662 -0.489451,0.3204 0,-0.13781 -0.05899,-0.26186 -0.17701,-0.37212 -0.111078,-0.11029 -0.201333,-0.17569 -0.270758,-0.19636 -0.06248,-0.0275 -0.117976,-0.0482 -0.166576,-0.062 z m -17.65065,0.0106 c -0.70811,0.41343 -1.086452,0.62359 -1.135046,0.63048 v 0.22736 c 0.159673,0.0207 0.28115,0.10685 0.364456,0.2584 0.09025,0.1516 0.135379,0.30664 0.135379,0.46512 v 5.43657 c 0,0.12407 0.06597,0.25492 0.197875,0.39273 0.131905,0.14469 0.274226,0.24805 0.426951,0.31007 l 1.051732,-0.5891 v -0.22741 c -0.284631,-0.0551 -0.426951,-0.29286 -0.426951,-0.71318 v -0.38239 c 0.236036,-0.062 0.659504,-0.21018 1.270424,-0.44445 0.617857,-0.24117 0.926783,-0.38588 0.926783,-0.43411 v -3.67994 c 0,-0.21362 -0.06941,-0.42032 -0.208259,-0.62015 -0.131905,-0.20672 -0.267238,-0.36175 -0.406085,-0.4651 -0.131905,-0.11029 -0.222163,-0.16538 -0.270758,-0.16538 -0.124954,0 -0.558849,0.22738 -1.301673,0.68215 0,-0.11718 -0.06598,-0.24116 -0.197876,-0.37207 -0.124968,-0.13781 -0.267283,-0.24117 -0.426952,-0.31008 z m 8.747253,0 c -0.70811,0.41343 -1.0865,0.62359 -1.135095,0.63048 v 0.22736 c 0.159672,0.0207 0.2812,0.10685 0.364505,0.2584 0.09025,0.1516 0.135328,0.30664 0.135328,0.46512 v 5.43657 c 0,0.12407 0.06598,0.25492 0.197876,0.39273 0.131906,0.14469 0.274222,0.24805 0.426953,0.31007 l 1.051732,-0.5891 v -0.22741 c -0.284632,-0.0551 -0.426956,-0.29286 -0.426956,-0.71318 v -0.38239 c 0.23604,-0.062 0.659559,-0.21018 1.270476,-0.44445 0.61786,-0.24117 0.926785,-0.38588 0.926785,-0.43411 v -3.67994 c 0,-0.21362 -0.06946,-0.42032 -0.208312,-0.62015 -0.131905,-0.20672 -0.26724,-0.36175 -0.406085,-0.4651 -0.131905,-0.11029 -0.222163,-0.16538 -0.270757,-0.16538 -0.124967,0 -0.55885,0.22738 -1.301673,0.68215 0,-0.11718 -0.06597,-0.24116 -0.197875,-0.37207 -0.124954,-0.13781 -0.267232,-0.24117 -0.426902,-0.31008 z m -37.831663,0.94055 c 0.138844,0 0.253385,0.0688 0.343637,0.20669 0.09025,0.13095 0.13538,0.29285 0.13538,0.48578 v 0.73385 c 0,0.5719 -0.312419,0.94398 -0.937219,1.11624 v -2.38752 c 0.166611,-0.10341 0.319357,-0.15504 0.458202,-0.15504 z m 14.838993,0 c 0.138843,0 0.253387,0.0688 0.34364,0.20669 0.09025,0.13095 0.135377,0.29285 0.13538,0.48578 v 0.73385 c 0,0.5719 -0.31242,0.94398 -0.93722,1.11624 v -2.38752 c 0.166614,-0.10341 0.319363,-0.15504 0.4582,-0.15504 z m 28.542948,0 c 0.138845,0 0.25339,0.0688 0.343638,0.20669 0.09025,0.13095 0.135379,0.29285 0.135379,0.48578 v 0.73385 c 0,0.5719 -0.312418,0.94398 -0.93722,1.11624 v -2.38752 c 0.166615,-0.10341 0.319358,-0.15504 0.458203,-0.15504 z m -13.266566,0.0106 c 0.354056,0 0.53108,0.25496 0.53108,0.76485 v 2.95601 c 0,0.13095 -0.111104,0.25492 -0.333254,0.37207 -0.22215,0.11718 -0.423462,0.17569 -0.603963,0.17569 v -4.10325 c 0.138848,-0.1103 0.274234,-0.16537 0.406137,-0.16537 z m 8.747202,0 c 0.354054,0 0.531083,0.25496 0.531083,0.76485 v 2.95601 c 0,0.13095 -0.111104,0.25492 -0.333257,0.37207 -0.222153,0.11718 -0.423465,0.17569 -0.603963,0.17569 v -4.10325 c 0.138848,-0.1103 0.274234,-0.16537 0.406137,-0.16537 z m -17.85891,0.0207 c 0.326283,0.007 0.562359,0.0723 0.708143,0.19636 0.145786,0.11718 0.218642,0.35488 0.218642,0.71318 v 2.89396 c -0.138843,0.062 -0.284607,0.0931 -0.437334,0.0931 -0.152731,0 -0.274204,-0.0931 -0.364454,-0.27907 -0.08331,-0.19294 -0.124993,-0.39965 -0.124993,-0.62015 z m -25.606396,0.0207 c 0.40265,0 0.604014,0.29286 0.604014,0.87854 v 0.46511 l -0.187444,0.093 c -0.360999,0.17227 -0.61093,0.25841 -0.749775,0.25841 v -1.6434 z m -8.080741,1.3953 v 2.33588 c -0.145787,0.10341 -0.284618,0.15503 -0.416519,0.15503 -0.131906,0 -0.25338,-0.0551 -0.364455,-0.16537 -0.104139,-0.11719 -0.156245,-0.26528 -0.156245,-0.44445 v -0.6718 c 0,-0.40653 0.09026,-0.69251 0.270757,-0.85789 0.09719,-0.0896 0.187451,-0.15501 0.270757,-0.19636 0.09025,-0.0413 0.222148,-0.093 0.395705,-0.15504 z m 47.588964,0 v 2.33588 c -0.145788,0.10341 -0.284666,0.15503 -0.416569,0.15503 -0.131905,0 -0.253376,-0.0551 -0.364453,-0.16537 -0.104126,-0.11719 -0.156195,-0.26528 -0.156195,-0.44445 v -0.6718 c 0,-0.40653 0.09026,-0.69251 0.270756,-0.85789 0.09719,-0.0896 0.187449,-0.15501 0.270758,-0.19636 0.09025,-0.0413 0.222147,-0.093 0.395703,-0.15504 z"
       id="path1017"
       inkscape:connector-curvature="0" />
  </g>
</svg>
