<svg xmlns="http://www.w3.org/2000/svg" width="573.57" height="335.625" viewBox="0 0 573.57 335.625"><path d="M188.872 301.974c-29.59 5.41-30.867-1.547-33.436-7.347-3.511-7.924 13.132-28.747 13.132-28.747-41.23-10.112-65.544-31.808-97.899-54.392-25.444-28.3-27.354-55.253-49.35-85.445C25.044 104.64 7.744 77.097 2.388 49.227-15.27 1.707 70.72 32.6 72.844 9.44c35.764 9.614 50.119-2.693 83.082 7.783 4.322-31.523 46.458 27.243 52.755-2.781 21.793 10.902 32.954 27.521 46.305 21.214 20.795 32.135 46.678 19.653 64.18 60.778 23.955-8.034 17.907-69.668 40.856-20.588 15.092 2.464 29.714 35.03 33.36-4.632 23.139-30.004 57.16-38.596 84.465-51.723 20.751-.89 40.106-8.314 70.528-15.081 39.536-20.843 11.508 38.025 24.177 55.019 4.037 44.338-3.736 90.161-26.836 128.86-3.527 36.421-54.956 45.706-31.273 64.225-25.81 30.475-92.292 27.945-101.99 24.588-22.102-4.84-56.759-13.884-30.186 20.973 5.898 14.22-.558 33.57-2.895 37.268-32.011 3.836-78.237-33.176-89.596-17.193-24.32-9.634-31.453-24.259-100.904-16.177zm188.248 29.675c27.813-45.27-71.852-96.76-68.41-32.823-12.951 11.282 18.704-45.462-17.498-31.342-38.977-3.994-107.84 16-124.78 21.766 17.13-17.81 111.62-24.375 50.77-26.08-47.713-5.703-1.646.308 17.61-2.756-65.524-18.275 63.553 17.213 4.053-7.881-19.446-8.925-61.749-.53-15.503-9.043 26.098 6.615 30.231 6.36 32.855 2.446 17.693 9.26 36.051 9.452 13.472-1.468 32.75 10.09-34.853-19.69 5.254-4.245 43.453 16.638-42.975-28.24-57.13-13.238 30.066-17.31 80.981 20.435 88.396 16.195-19.273-10.83-18.562-11.242-11.09-8.18 15.325 6.28 59.097 27.175 17.173 2.752-17.777-18.938-47.483-30.175-73.348-28.974 27.35-18.66 113.903 51.092 65.575 3.26-33.481-30.194-43.928-16.855-83.666-12.664-4.333 14.303-29.786 23.827-27.584 38.716-15.053 19.803-65.05 74.411-5.456 58.657 40.664-5.115 67.265-5.4 102.033 14.025 15.722-9.796 57.21 22.088 87.274 20.877zm-14.307-6.714c11.858-12.432-7.797 12.346 0 0zm-16.345-4.177c11.215-16.22 17.2-49.088 9.033-11.27l-5.372 8.948zm20.358-.573c5.89-25.843 7.565-8.86 0 0zm-4.543-8.356c7.667-46.772 4.475 4.958 0 0zm-24.378-12.805c3.734-41.014 18.005-3.612-2.112 6.182zm9.947 7.411c1.845-19.409 10.17-25.911 1.923-1.996zm-20.98-2.75c7.707-22.076 7.09-4.814 0 0zm-4.798-5.75c5.265-27.67 8.535-10.354 0 0zm-3.297-9.75c4.322-27.987-1.539 28.978 0 0zm-18.323-1.25c4.599-21.49-.163 11.669 0 0zm-7.606.95c7.46-28.106 1.287 8.684 0 0zm-23.89-3.015c.419-28.372 3.791 13.276 0 0zm17.931 3.015c7.7-25.309 1.249 3.71 0 0zm45.94-3.64c2.714-10.641 1.16 7.27 0 0zm-139.016-10.88c25.104-6.161-33.602-1.373 2.369-6.017 13.355-.652 30.36.492 6.986 4.391zm68.25-29.96c-8.145-6.009 10.87 3.404 0 0zm-19-8.675c-8.894-4.75 13.823 1.698 0 0zm29.25-9.24c-10.452-6.872 14.13 5.653 0 0zm-13.75-4.713c-14.367-8.12 20.749 6.238 0 0zm-21.983-3.509c9.445-1.854.72 3.687 0 0zm209.706 55.211c-60.258-16.407 93.529 8.328 52.794-32.527-26.853-16.507-30.486-25.048-50.767-33.016-27.735-13.377-16.295 32.373 7.603 34.458 21.726 6.606 56.92 15.194 15.272 21.452-44.451.988 51.243-6.626-3.061-11.922-18.89-11.345-79.336-23.234-28.974-4.708 30.457 8.885 33.156 15.333.452 2.869-18.652-7.04-71.67-12.668-45.015 1.979-36.362-27.898-27.898 20.434 1.391 20.372-23.397-22.483 40.45 15.778 7.16-7.825 13.965 3.294 28.689 10.798 43.145 8.868zm-33.473-19.543c-1.975-5.539 8.607 5.573 0 0zm-32.357-2.643c-11.559-12.428 14.49 8.586 0 0zm102.526-3.81c-28.939-10.773 37.717 7.562 0 0zm1.109-4.297c-6.926-9.25 7.029 3.9 0 0zm-40.052-10.324c7.403-4.732-4.418 4.825 0 0zm-4.767-15.493c1.979-4.167 10.84 5.074 0 0zm-70.783 51.54c-9.666-20.032-11.45 4.774 0 0zm-16.676-7.927c-11.76-45.486-17.7 3.56 0 0zm-60.536 1.462c40.967-5.423-58.708-3.373-10.625.144zm20.536-.95c-3.148-7.114-5.932 5.13 0 0zm14.41.088c-20.132-19.5-12.703 1.003 0 0zm10.59-3.986c-8.14-10.106-20.436-.222-.75 1.737zm30-1.587c-13.4-21.087-9.506 9.076 0 0zm-207.535.483c-16.511-15.047-43.18-12.094-12.744-17.404-24.79-3.732-5.685-19.585 18.665-6.976-15.735-20.687 28.366-11.105 38.614-20.686-27.533-2.994-53.7-3.991-78.323 9.932 7.114 23.244-26.669-13.42-24.274 7.24 22.705 5.997 29.75 26.557 58.062 27.894zm110.05-.08c-5.683-9.677-23.852-.506-5.582.986zm-102.015-1.976c-22.822-11.07 6.872 8.396 0 0zm128.445.434c-19.39-14.035-3.44 6.855 0 0zm9.055.68c-8.931-13.226-6.239 5.137 0 0zm-132.57-7.001c-2.145-8.021-19.693-.203-4.461.812zm-15.43-1.613c-22.451-7.507 1.344 5.904 0 0zm24.87-2.417c-.39-7.326-16.49 8.873 0 0zm222.13-1.56c-9.645-13.114-11.21 4.486 0 0zm-74.18-1.35c-6.962-11.93-10.017 6.52 0 0zm-165.82.03c38.843-.849-49.264-16.188-4.879.797zm246.696-3.832c11.695-9.805-20.814 3.984 0 0zm-45.08-3.93c-7.066-5.043 2.56 10.76 0 0zm-11.651 1.624c4.944-18.942-40.06-35.61-2.276-17.422-10.144-22.342-38.34-65.424-8.837-22.359 37.094 10.337-5.634-72.535-6.558-80.784 23.393 68.832 7.326-100.67-1.294-17.926-13.638 16.386-18.669 42.418-10.32 69.215-28.695-10.034 12.899 31.86-5.562 39.224 4.165 13.992 18.5 35.197 34.847 30.052zm-12.965-10.223c-8.794-8.724 19.22 8.022 0 0zm-.541-35.909c-.478-5.53 5.23 3.903 0 0zm8.356-14.683c-15.573-7.448-31.385-55.021-11.12-14.748-.92.98 26.936 24.82 11.12 14.748zM508.66 231.25c27.9-10.738 31.264-48.816 10.573-14.188-7.11 9.28-40.282 20.586-10.573 14.188zm-318.846 2.633c-2.985-20.307-41.236 2.577 0 0zm181.03-3.027c1.73-15.844-9.244 10.56 0 0zm14.786-4.7c-8.195-8.205.426 13.84 0 0zm46.184 4.28c-9.805-3.574-2.581 3.836 0 0zm-126.587-1.365c-7.7-8.747-6.937 4.013 0 0zm90.984.532c-16.689-27.275 19.346 8.608 2.003-20.94 6.044-44.159-48.441-16.946-28.721-3.681-7.28 22.326 20.55-22.51 14.556 7.886 5.744 3.466 3.128 20.863 12.162 16.735zm-23.397-35.62c4.15-14.915 5.368 1.723 0 0zm46.65 35.395c6.594-9.678-16.01 3.916 0 0zm-237.857-7.435c-9.596-12.458-28.234 15.126 0 0zm186.207-.699c-4.928-9.89-2.908 16.789 0 0zm68.559 4.66c7.763 9.989 3.845 3.783 0 0zm56.44.55c-8.293-6.82-7.274 4.353 0 0zm-79.5-4.032c-3.744-5.138-4.18 6.728 0 0zm11 1.014c-7.825-4.129-6.13 3.278 0 0zm79.379.096c-.337-11.96-15.471 6.344 0 0zm-383.08-3.243c-10.192-3.135 1.969 7.421 0 0zm72.298 1.43c9.466-8.799-12.146 5.733 0 0zm181.748-1.844c-6.517-8.356.103 10.445 0 0zm8.156-3.085c-6.249-.637-3.378 11.268 0 0zm48 2.517c-9.265-9.065-10.974 6.486 0 0zm62.758-.647c-8.743-4.62-12.818 5.85 0 0zm-393.025-.907c-12-5.337-51.188-32.25-17.714-3.308 4.974 1.495 12.56 7.281 17.714 3.308zm257.335-6.65c-3.829 7.732 3.78 9.949 0 0zM512.88 218.4c4.847-8.492-13.904 3.512 0 0zm-94.066-.897c-6.137-6.43-8.475 4.46 0 0zm63.035-.61c1.632-9.647 7.494-5.395 0 0zm-359.365-1.859c47.68-2.139-56.064-38.287-12.186-22.342 21.304 14.59 97.764 18.655 86.57 1.744-17.318-11.075 24.096 9.495 12.01-5.641 25.742 13.838-15.5-14.382 21.74-6.764-17.904-10.445-3.859-1.22 4.081-13.612-28.801 5.023-56.747 6.689-11.736-.994-1.681-7.524-56.313-3.383-64.352 20.374-36.532 9.843 31.935-17.655-9.855-12.386-47.143-1.073-97.508-9.813-113.933-49.954 3.51 16.09 43.5 32.998 34.491 26.31 18.68 24.681 86.156 23.746 124.165 11.358 25.458-2.71 43.954-13.419 7.683-6.808-24.513 6.52-47.36 6.272-9.09-.409 7.743-8.324 19.656-11.244 38.505-6.685-21.082-17.41-42.79 3.171-44.263-15.022-44.504 10.266-97.728 18.884-135.717-12.753-14.395-18.92-43.775-39.613-5.086-13.166 4.602 24.114 79.847 40.102 122.063 25.513 17.247-11.3-60.852 7.104-4.87-6.918-55.137-17.201 65.344 14.736 2.734-8.493-35.013-14.429-3.46 8.24-35.657-3.42-34.623 9.298-101.015-12.979-101.661-36.955 19.82 2.647 70.048 7.678 74.93 21.955-27.325-10.248-88.007-9.496-30.96 9.023 27.886 5.274 90.531 3.48 32.783-16.046-22.877-12.298-83.06-49.37-88.695-33.536 21.64-3.231 76.675 28.068 24.733 14.966-48.088-18.15-8.377 45.948-1.688 69.806 19.708 19.919 8.886 53.126 50.99 58.42-16.483-15.144 13.284-8.093 9.11-.576 7.561 1.57 36.222 8.556 5.668 11.903 2.374 6.78 14.417 1.77 17.493 1.108zm22.33-15.657c-29.604-6.605 80.068 2.728 15.677.833l-6.393-.183zm-69.069-10.679c-29.057-6.89-25.61-29.283 4.04-17.762-41.946-2.264-8.655 9.185 14.454 8.621-15.985-1.44-49.572.287-11.475 6.879 25.16-.73-3.475 5.666-7.019 2.262zm39.069-.195c16.272-5.75 5.491 3.979 0 0zm-6.5-7.067c9.283-3.886 14.96 3.798 0 0zm90.031.15c8.466-5.265 7.104 2.16 0 0zm-77.531-15.133c-33.704-1.18-15.023-6.604 3.028-16.413-39.518 25.472 72.572 11.59 4.083 16.976zm-57.834-2.894c-1.163-4.828 7.401 2.188 0 0zm28.646-3.807c4.384-1.432.434 1.925 0 0zm.188-6.14c11.325-4.394 8.955 1.346 0 0zm-12.736-.894c10.972-1.42 2.298 1.477 0 0zm102.161-1.162c10.714-6.564.728 4.451 0 0zm-104.925-6.12c3.72-3.756 5.465 3.66 0 0zm-20.114-6c-25.61-7.019 22.404 2.944 0 0zm65.614-5c6.164-3.7 4.178 2.65 0 0zm-32-3.607c-44.183-12.07 46.68 5.717 0 0zm-41.75-2.614c-8.743-6.138 12.401 4.02 0 0zm-8.27-6.304c-3.166-6.988 6.785 5.98 0 0zm26.463-1.894c-3.254-8.796 15.749 6.872 0 0zm-31.693-7.784c-14.397-10.202 14.79 4.062 0 0zm43.89-8.837c10.831-4.46 8.003 4.007 0 0zm-20.59-3.166c-11.854-7.176 30.652 4.741 0 0zm447.95 113.057c-14.872-5.145-11.168 9.531 0 0zM380.187 210.1c6.296-29.194-12.648 17.432 0 0zm143.626.783c-6.988-9.1-12.104 11.257 0 0zm-98.315.38c8.653-14.884-20.14 9.05 0 0zm67.794 1.001c2.095-9.7-19.446 3.815 0 0zM105.23 210.57c-11.446-13.674-29.794 2.916 0 0zm408.001-.74c4.196-9.19-13.84 3.484 0 0zM208.88 208.4c4.907-8.411-12.142 2.98 0 0zm268.598-1.532c-1.84-10.404-8.68 5.971 0 0zm-58.874-1.326c20.108-20.819 24.312-73.84-19.724-36.079-15.271-13.503-19.718 24.429 1.907 9.022 1.209 12.966 15.889-13.548 1.267 12.573 54.172-49.21-29.536 18.682 16.55 14.484zm86.895.819c5.065-8.667-17.761 3.018 0 0zm-22.685-2.367c-2.418-6.825-3.483 5.138 0 0zm39.105-.28c7.925-11.966-13.244 5.821 0 0zm-159.284-4.324c.824-24.874-12.827 15.113 0 0zm134.648 2.96c-6.124-13.834-18.908 8.156 0 0zm-192.47-.343c-3.495-10.617-7.264 5.036 0 0zm161.445.519c-1.228-12.334-11.748 4.355 0 0zm48.927-1.997c5.394-10.019-16.875 5.794 0 0zm-41.371-1.125c-5.33-12.546-8.466 10.522 0 0zm56.32-1.903c12.856-14.719 17.462-20.148 25.038-37.93-17.308 30.858-42.103 27.008-10.251 2.499-34.278 42.977 34.597-30.02 3.41-10.084-24.72 21.036 9.993-10.82-13.933 3.09 21.78-4.806 50.29-59.29 20.169-30.773 19.153-29.44 11.825-32.575 12.181-70.868-8.013 6.434 2.969-65.941-9.252-39.15-8.827 21.322-8.64-22-10.558 11.699-9.02 5.89-.612-34.91-8.141 4.931 10.932 14.525-16.388 11.439-11.78 24.763 1.71 6.59-52.917 61.344-67.71 89.71-21.085 22.013-23.15 41.845.136 8.127 26.498-44.346 64.28-79.635 93.823-121.555 9.085 5.298-58.484 70.722-49.925 77.18 9.418-8.532-44.914 38.707-2.403 20.595 21.08-6.27 75.452-56.685 30.4-13.431-8.297 12.564-89.035 34.813-45.944 35.379-41.943 7.478-3.046 35.1-3.788 20.95-15.452-11.312 57.337-22.276 14.851-8.275 14.998 4.544 33.625-16.05 5.357 6.577-46.674-4.904 25.324 13.212 29.447-20.318 33.802-48.777 11.321 7.57-21.954 24.471-21.095 14.614-50.56 26.295-10.233 22.839 13.086-2.881 25.539-10.28 12.374-12.419 20.085.717 37.703-5.721 14.274 14.739l4.411-2.746zm-11.32-23.87c6.35-6.561 8.445-1.173 0 0zm11-8.16c5.17-6.753 3.4 1.28 0 0zm-8.694-16.586c12.662-8.167-7.38 7.969 0 0zm-22.306-6.991c19.792-12.306 16.493-2.788 0 0zm30.273-7.459c10.572-7.603-6.58 7.114 0 0zm25.572-2.1c12.905-9.241-8.654 10.548 0 0zm-59.295-8.787c7.959-5.435 3.635 3.312 0 0zm37.891-.557c9.153-5.637-4.765 4.277 0 0zm4.559-2.981c8.055-14.537 6.064 2.796 0 0zm12-3.457c1.65-4.668 3.47 1.724 0 0zm-28.487-8.5c47.808-43.75-1.911 8.44 0 0zm35.413-8.525c12.598-12.481-8.048 12.098 0 0zm-27.426-7.374c19.784-18.07-2.379 6.344 0 0zm28.444-8.101c23.26-22.052-18.667 21.994 0 0zm-3.944-5.51c10.08-13.69 5.232 1.79 0 0zm-5-4.608c14.405-14.894-10.038 15.713 0 0zm12-1.345c4.339-7.982 4.242 1.494 0 0zm-264.318 118.1c-10.942-2.912 7.303 13.683 0 0zm14.89-.827c-8.412-9.13 1.268 15.055 0 0zm214.928 2.572c9.129-11.636-18.865 10.267 0 0zm-82.5 1.107c-6.634-6.694-3.302 4.062 0 0zm17.482-1.077c-6.626-6.977-7.277 4.345 0 0zM230.813 187.9c-9.124-10.135-9.79 12.01 0 0zm74.105-3.508c-8.82-15.355-4.818 3.115.371 8.543l.359-2.456zm146.895 6.512c-6.035-9.386-6.264 7.071 0 0zm-198.95-2.562c1.544-22.935-9.338 10.82 0 0zm216.928 1.343c-7.313-16.287-13.306 3.681 0 0zm-231.478-3.25c-4.704-7.327-4.721 7.322 0 0zm52.468-.25c-3.604-12.568-6.354 5.251 0 0zm-43.968-1.75c-6.895-9.998-4.023 9.022 0 0zm31.504.993c-4.048-8.452-4.495 5.29 0 0zm206.467.047c3.19-8.793-18.52 1.695 0 0zm-35.53-4.422c-5.911-8.617.32 9.85 0 0zm-183.685 1.132c-6.966-5.574-5.9 4.443 0 0zm206.705-.098c2.642-11.694-14.015.162 0 0zm22.028-2.02c-.977-13-13.88 6.62 0 0zm-254.677-1.26c23.561-.042-20.332-9.54-2.197 1.512zm70.188.063c-4.18-16.055-5.468 5.812 0 0zm62.418.958c19.434-29.042-7.011-9.577 0 0zm81.581-2.891c.96-10.696-7.949 8.108 0 0zm9-1.017c-4.856-6.48-3.752 8.962 0 0zm-202.549 1.596c-9.043-13.358-16.652 3.837 0 0zm104.37-1.252c-5.207-10.525-2.072 9.885 0 0zm-97.26-2.733c-8.363-4.52-1.009 9.222 0 0zm28.44 2.39c-13.896-26.363-4.007 7.392 0 0zm-17-1.863c-3.512-8.626 4.418-4.56 0 0zm90.777-3.033c4.049-23.113-10.731 9.844 0 0zm-67.777.133c-6.445-17.344-5.555 5.825 0 0zm-52.5-1.683c-2.242-9.734-19.05 4.207 0 0zm13.5-.061c-8.5-9.415-7.347 4.952 0 0zm9-1.284c-23.675-25.776-61.654-40.467-79.699-58.144 17.282 7.462 22.897 3.976 19.684-.094 27.982 55.04-9.174-54.227-35.405-63.408-28.736-26.236 57.554 49.068 40.95 42.264 4.53-38.779-5.737 25.714 13.002 41.65 4.839-4.356-13.33-45.093 4.505-3.872 9.647 2.121-2.123-15.239 12.428 6.712 8.055-4.689-22.261-62.857-.42-19.85 4.75 21.271 26.18 60.647 13.34 14.471-2.166-23.274-48.872-93.908-10.277-37.693 11.666 18.83 21.09 73.535 23.31 47.636 34.096 54.09-3.496-61.305 11.837-15.174 33.207 31.084 14.145-.374 4.201-9.276-11.93-20.009-27.57-34.06-13.44-6.202 2.322 39.39-26.103-54.702-5.016-24.033-17.662-20.884-10.43-33.166-41.337-52.305-4.812.058 25.728 40.94.045 7.234-15.418-26.305-21.86-11.31-34.875-10.658-27.581-25.99-46.702-.226-77.849-11.703-9.466 6.377-68.397-9.771-26.213 13.552C80.902 20 22.987 22.14 47.206 34.902 32.63 21.75 11.481 24.246 13.356 35.9c-21.045 10.12 31.876 28.872-3.176 2.739 29.283 2.506 86.761 57.161 97.16 47.483-17.306-9.354-53.192-28.095-28.83-21.027-36.83-31.315 74.595 48.703 26.576-.38C91.98 45.73 41.955 26.623 90.209 46.918c14.368 24.255 39.818 20.59 16.14-4.224 12.92 5.298 18.028 59.868 28.096 42.425-20.022-21.04 35.893 19.71 6.367 5.66 22.552 15.815-23.438 3.11 12.786 18.177 33.202 16.9 27.71 4.028 1.575-6.242-.579-16.778 32.516 15.8 11.065-17.112-12.585-25.22-47.686-53.981-57.189-59.673 40.94 15.819 64.875 59.7 78.14 97.151 28.41 12.528 64.631 28.698 84.623 45.05zm5.158-39.56c-4.287-15.934 7.953 13.46 0 0zm-76.213-4.585c-32.14-13.894 23.453 4.677 0 0zm63.383-11.228c-9.292-33.306 11.993 27.12 0 0zm-30.721-5.903c-2.327-10.87 4.656 6.468 0 0zm-42.857-4.996c-3.726-6.26 3.818-3.225 0 0zm8.417-2.371c-1.807-10.466 4.318 9.54 0 0zm57.993-5.599c-7.372-19.935 8.333 9.41 0 0zm-26.103-14.59c-7.171-15.798 8.346 11.571 0 0zm-40.419-1.065c-6.68-13.708 9.956 10.506 0 0zm62.919-1.02c-4.756-10.583 6.507 8.176 0 0zm-128.557-4.278c-3.369-6.467 5.708 4.135 0 0zm42.015-.75c3.405-24.989 5.22 3.665 0 0zm10.4-11c-19.768-21.486 11.838 8.865 0 0zm73.62-1.684c-4.036-13.66 7.6 8.939 0 0zm-58.724-10.999c-12.97-12.92-43.86-37.278-9.363-12.442 10.044 6.383 31.972 38.154 9.363 12.442zm37.534 8.26c-17.576-22.289 8.331 1.303 0 0zM52.138 54.77c-28.44-18.684 3.477-3.067 0 0zm78.671-.837c-5.838-8.451 8.777 7.885 0 0zm-77.648-6.057c-5.961-10.898 13.146 8.944 0 0zm19.402.989c-9.634-9.022 11.946 5.29 0 0zm75.328-5.85c-19.638-13.83-31.142-25.18-3.051-5.63 9.388-8.446 10.645 22.83 3.05 5.63zm67.98 1.769c-6.455-10.587 10.206 9.068 0 0zm-18-2c-6.455-10.587 10.206 9.068 0 0zm-95.558-9.364c-47.8-26.301 27.39 7.842 7.795 4.697zm106.734 3.947c-7.335-9.835 11.474 7.356 0 0zm8.293-2.475c-13.556-15.721 19.528 15.31 0 0zm-184.007-.03c-18.875-12.547 26.044 11.106 0 0zm49.864.989c-29.4-9.763-22.028-14.129.032-1.281l2.501 2.667zm102.77-4.068c-22.848-20.393 26.36 17.816 0 0zm-43.739-3.178c-34.281-17.972-1.094-8.797 7.481 4.413zm13.675-.04c-13.576-14.71 16.882 12.84 0 0zM48.95 28.378c-10.003-9.123 12.532 6.871 0 0zm410.863 139.45c-3.685-4.872-4.197 6.692 0 0zm-98.015-2.143c-5.703-4.484-1.836 8.62 0 0zm-53.985.179c-7.051-18.733-4.338 9.775 0 0zm-23-.873c-5.325-14.033-7.601 2.749 0 0zm-44-1.499c-10.14-10.686-22.205 3.214 0 0zm14 .456c-11.248-12.848-13.698 2.701 0 0zm38-.825c-6.29-12.796-6.79 1.883 0 0zm75.011-4.367c9.7-48.565 9.987 28.12 20.274-8.228 6.797-28.406 6.336-15.065 2.694 4.907 7.909-17.587 3.958 4.973 10.09.233 25.409 22.264-19.513-71.838-8.86-45.922-12.053-16.346-33.877-30.992-48.375-42.01 13.025 22.727 7.328 69.721 13.78 74.302-4.672-20.056 17.445-65.369 3.475-17.603-9.539 32.266 21.025-37.65 4.568 3.26-10.895 37.178 2.892 20.738 10.01-4.089 3.039 3.757-22.263 52.708-7.656 35.15zm13.727-6.652c.794-22.587 6.758-10.13 0 0zm-.686-26.851c5.423-14.688 0 12.436 0 0zm-24.524-19.318c4.26-36.157.804 31.764 0 0zm108.492 55.976c2.466-8.231-7.14 6.575 0 0zm-90.055-2.41c5.19-22.557-9.186 8.86 0 0zm-98.965-.43c-7.226-15.83-7.635 2.802 0 0zm23-.48c-7.849-18.634-2.638 9.852 0 0zm60.526.594c-.73-18.655-9.013 2.154 0 0zm85.847.456c-2.248-22.338-10.735 3.222 0 0zm-137.31-3.782c-21.165-26.27-21.604-4.48 0 0zm-69.178-1.331c.641-7.234-16.379 2.378 0 0zm78.639-2.017c-5.306-6.925.62 8.233 0 0zM279.92 149.1c-11.027-3.788 6.573 11.33 0 0zm-62.55.867c-6.277-6.563-16.438 5.785 0 0zm92.442-2.438c-17.422-26.607-14.046 6.154 0 0zm108.505.27c4.733-16.346-22.875-12.861 0 0zm8.282-4.782c18.82-13.472-27.99-51.526-4.007-16.779-.76 3.304 2.963 39.31 4.007 16.779zm25.198 5.168c-9.769-21-11.197 6.84 0 0zm-198.024-6.51c-19.96-20.954 3.048 16.732 0 0zm204.407 1.646c1.46-17.252-12.332 5.025 0 0zm-17.561-2.539c-9.329-18.218-10.67 11.754 0 0zm-126.424-1.51c-5.397-26.172-6.668 12.216 0 0zm-73.265-4.163c-7.632-3.638 7.052 9.637 0 0zm53.882 2.155c-8.277-19.5-5.976 9.442 0 0zm154.044-3.276c-15.876-8.583 3.771 15.045 0 0zm-242.612 3.557c-7.555-10.995-31.493.365 0 0zm211.662-5.416c-4.776.491 4.29 8.078 0 0zm46.73.97c-3.755-8.687-4.144 6.667 0 0zm-24.012-.928c-10.485-23.542-10.172 9.733 0 0zm17.795.683c-6.127-22.303-10.978 4.657 0 0zm-43.607-1.977c-13.364-24.468-10.462 2.492 0 0zm34-4.885c-9.604-21.445-4.666 14.354 0 0zm19 2.026c-8.914-25.104-14.66.897 0 0zm-155.09-2.833c-13.488-21.967-3.072 12.232 0 0zm106.09 1.45c-5.276-10.623-3.401 3.879 0 0zm52.523-5.7c3.725-24.333-25.304-59.282-2.736-45.077-17.094-18.597-8.434-32.027 3.835-3.095-4.768 40.376 6.937-5.417 6.718 7.697 2.881 23.325 14.731-63.07 7.82-9.982 3.066 30.395 4.35-23.747 10.54 5.957 2.038-36.555 5.826 20.209 13.263-22.233 3.633-27.615 34-41.07 10.505-17.552-16.44 43.934 45.416-43.84-5.882-19.629-19.701 2.966-36.11 8.151-57.193 21.279-9.854-17.778-25.83 24.329-29.053 6.478-18.254 18.773-47.105 36.198-21.377 31.157-4.24 20.145 16.892 41.044 19.537 25.5 15.473 6.878-15.639-28.481 6.19-6.081-8.054-21.124 1.534-51.401 2.22-10.097 6.035-7.681 11.915-69.918 6.154-18.952-1.343 51.772 16.724-61.37 10.022-7.988 3.333 15.332-30.945 76.43-10.352 54.998-6.254-22.576 19.456 26.505 11.988-3.96 5.76-33.17 2.21-14.704 8.592 4.744 1.815-32.77 4.537 29.434 9.209 6.836zm-24.423-21.75c2.435-20.707 2.476 9.647 0 0zm-29.292-6.75c-17.45-27.85 14.347 15.028 0 0zm-.808-20.989c22.141-58.641 7.556 8.234 0 0zm59.452-14.76c1.184-25.253 35.605-23.996 0 0zm-7.539.468c-6.51-9.707 15.686-29.249 2.142 1.25zm26.393-26.25c14.452-8.583-6.908 8.566 0 0zm20.938-4.719c16.456-18.114 4.847 5.401 0 0zm-194.28 92c-15.489-33.302-15.998-5.171-1.123 4.067zm-21.148-.467c-11.64-19.025-6.756 8.391 0 0zm111.184.892c-9.622-23.729-14.186-2.89 0 0zm65.483-2.156c2.473-18.84-15.028 3.64 0 0zm-46.832-2.62c.642-15.821-11.144 6.153 0 0zm-122.651-1.499c-17.072-32.078-4.468 11.646 0 0zm105.05-.15c5.375-28.532-22.448-8.363 0 0zm68.606-7.548c-10.92-3.05 5.673 14.49 0 0zm-304.656 4.91c-20.76-12.908-22.776-2.703 0 0zm118-4.977c-23.436-33.946-21.445 5.011 0 0zm180.443-4.405c-11.117-20.198-1.456 17.712 0 0zm-75.465.961c-7.55-23.3-5.522 12.345 0 0zm-7.268-7.854c.716-25.254-8.591 31.226 0 0zm93.29 8.746c-6.967-24.99-15.117-1.163 0 0zm-171-2.835c-18.528-22.17-14.652 1.988 0 0zm-13.015-.498c-6.26-11.776-7.208 2.31 0 0zM127.813 97.38c-18.5-13.16-13.887-1.357 0 0zm275.608-1.695c3.212-25.574-15.73-4.401 0 0zm90.192-1.45c-3.444-29.323-17.853 8.839 0 0zm-407.8-1.218C72.18 78.824 2.748 82.565 60.758 91.497c8.297.89 16.689 2.25 25.055 1.52zm202.709-3.898c-25.751-20.052-9.484 8.375 0 0zm-163.71 1.438c-11.479-9.602-7.204 3.038 0 0zm169.119-5.448c-7.632-3.638 7.052 9.637 0 0zm14.388.608c-13.496-19.07-69.786-30.36-18.752-7.282 2.965-4.717 23.73 19.312 18.752 7.282zm196.452-4.234c21.836-38.994-31.751 28.326 0 0zm-400.407-.964c-26.67-20.761-29.177-7.206 0 0zm177.449-1.033c-16-18.573-15.17 1.314 0 0zm-229-6.896c-13.861-12.761-65.825-11.044-18.5-2.237 6.025-1.716 12.452 4.75 18.5 2.237zm244-1.018c-9.544-16.602-21.501-5.321 0 0zm224.397-8.446c12.752-30.483-21.491 14.642 0 0zm-248.57-3.53c-13.015-24.367-43.98-31.306 0 0zM37.813 54.55c-8.207-9.636-14.266.377 0 0zm-27-22.754c-5.72-10.443-6.737 4.067 0 0z" /></svg>
