<?xml version="1.0" encoding="UTF-8" standalone="no"?>
<!-- Created with Inkscape (http://www.inkscape.org/) -->

<svg
   xmlns:dc="http://purl.org/dc/elements/1.1/"
   xmlns:cc="http://creativecommons.org/ns#"
   xmlns:rdf="http://www.w3.org/1999/02/22-rdf-syntax-ns#"
   xmlns:svg="http://www.w3.org/2000/svg"
   xmlns="http://www.w3.org/2000/svg"
   xmlns:sodipodi="http://sodipodi.sourceforge.net/DTD/sodipodi-0.dtd"
   xmlns:inkscape="http://www.inkscape.org/namespaces/inkscape"
   width="68.800896mm"
   height="43.219288mm"
   viewBox="0 0 68.800896 43.219288"
   version="1.1"
   id="svg1000"
   inkscape:version="0.92.5 (2060ec1f9f, 2020-04-08)"
   sodipodi:docname="leaf2.svg">
  <defs
     id="defs994" />
  <sodipodi:namedview
     id="base"
     pagecolor="#ffffff"
     bordercolor="#666666"
     borderopacity="1.0"
     inkscape:pageopacity="0.0"
     inkscape:pageshadow="2"
     inkscape:zoom="0.35"
     inkscape:cx="-247.12549"
     inkscape:cy="338.81709"
     inkscape:document-units="mm"
     inkscape:current-layer="layer1"
     showgrid="false"
     fit-margin-top="0"
     fit-margin-left="0"
     fit-margin-right="0"
     fit-margin-bottom="0"
     inkscape:window-width="1920"
     inkscape:window-height="1019"
     inkscape:window-x="0"
     inkscape:window-y="30"
     inkscape:window-maximized="1" />
  <metadata
     id="metadata997">
    <rdf:RDF>
      <cc:Work
         rdf:about="">
        <dc:format>image/svg+xml</dc:format>
        <dc:type
           rdf:resource="http://purl.org/dc/dcmitype/StillImage" />
        <dc:title></dc:title>
      </cc:Work>
    </rdf:RDF>
  </metadata>
  <g
     inkscape:label="Layer 1"
     inkscape:groupmode="layer"
     id="layer1"
     transform="translate(-38.170999,-195.2594)">
    <path
       id="path408"
       style="fill:#000000;stroke-width:0.35277778"
       d="m 104.55747,202.74514 c 0.0438,-0.13881 0.29432,-0.43755 0.55673,-0.66389 0.38577,-0.33278 0.43532,-0.26548 0.25886,0.35166 -0.12008,0.41973 -0.37056,0.7185 -0.55673,0.66389 -0.18621,-0.0546 -0.30269,-0.21286 -0.25886,-0.35166 z m 1.92419,0.38058 c 0.10015,-1.22771 -0.10077,-1.59165 -0.93086,-1.68611 -0.16129,-0.0184 -0.151,-0.16118 0.0229,-0.3174 0.94688,-0.85063 1.87484,1.43984 1.12344,2.7729 -0.20886,0.37051 -0.28597,0.0951 -0.21545,-0.76939 z m -2.35139,1.0566 c 0.0819,-0.27928 0.30127,-0.4631 0.48747,-0.40848 0.18618,0.0546 0.27149,0.32778 0.18957,0.60706 -0.0819,0.27928 -0.30127,0.46309 -0.48744,0.40849 -0.1862,-0.0546 -0.27151,-0.3278 -0.1896,-0.60707 z m -27.750152,-6.91638 c 0.04515,-0.15395 0.539092,-0.14585 1.097646,0.018 0.558551,0.16383 0.99828,0.35675 0.977172,0.42871 -0.02111,0.072 -0.515046,0.0639 -1.097645,-0.018 -0.582597,-0.0819 -1.022318,-0.27479 -0.977173,-0.42871 z m 9.26705,3.26594 c 0.27305,-0.0261 0.561494,0.0716 0.640975,0.21701 0.0795,0.14548 -0.143899,0.16685 -0.496449,0.0475 -0.389572,-0.13191 -0.446275,-0.23565 -0.144523,-0.2645 z m 1.340406,0.67871 c 0.04951,-0.16875 0.371295,-0.13779 0.71511,0.0688 0.343787,0.20659 0.607957,0.43402 0.587021,0.5054 -0.02093,0.0714 -0.342731,0.0404 -0.715084,-0.0688 -0.372375,-0.10922 -0.636543,-0.33666 -0.587047,-0.50541 z m -5.576229,-1.66998 c -0.06046,-0.21994 0.0514,-0.35257 0.248571,-0.29473 0.197175,0.0578 0.313814,0.25748 0.259204,0.44366 -0.05461,0.18619 -0.166465,0.31882 -0.248568,0.29473 -0.0821,-0.0241 -0.198744,-0.22373 -0.259207,-0.44366 z m 5.531223,2.84179 c 0.27305,-0.0261 0.561494,0.0716 0.641004,0.21702 0.0795,0.14549 -0.143926,0.16684 -0.496457,0.0475 -0.389593,-0.13192 -0.446272,-0.23565 -0.144541,-0.2645 z m 1.180463,0.59738 c -0.06046,-0.21993 0.05141,-0.35256 0.248576,-0.29473 0.19717,0.0578 0.313809,0.25748 0.259201,0.44367 -0.05461,0.18618 -0.16647,0.31881 -0.248581,0.29473 -0.08211,-0.0241 -0.198744,-0.22374 -0.259196,-0.44367 z m -6.885808,-1.90547 c 0.350798,0.0104 0.883952,0.1668 1.184815,0.34752 0.300839,0.18071 0.01384,0.17218 -0.637826,-0.0189 -0.651637,-0.19113 -0.89779,-0.33897 -0.546989,-0.32857 z m -0.297871,1.01555 c 0.350795,0.0104 0.883949,0.1668 1.184818,0.34752 0.300836,0.18071 0.01381,0.17218 -0.637834,-0.0189 -0.651634,-0.19113 -0.897787,-0.33897 -0.546984,-0.32857 z M 67.38555,199.10307 c 1.34194,-0.0331 2.823363,0.40147 2.708135,0.79433 -0.05484,0.18698 -0.89045,0.0901 -1.866607,-0.2165 -1.390494,-0.43667 -1.569921,-0.55989 -0.841528,-0.57783 z m 25.927772,8.45307 c 0.354542,0.0108 0.809884,0.15047 1.011878,0.31039 0.202009,0.15996 -0.08809,0.15114 -0.644615,-0.0196 -0.556527,-0.17073 -0.72177,-0.30159 -0.367258,-0.29082 z M 78.705827,203.1243 c 0.04951,-0.16875 0.394661,-0.21746 0.76703,-0.10824 0.372369,0.10922 0.659902,0.25698 0.638966,0.32836 -0.02093,0.0714 -0.366099,0.12009 -0.767027,0.10824 -0.400931,-0.0119 -0.688464,-0.1596 -0.638969,-0.32836 z m -9.986076,-2.30293 c 0.02133,-0.0727 0.590203,-0.0381 1.264158,0.077 0.67396,0.11506 1.189678,0.33093 1.146029,0.47974 -0.04364,0.1488 -0.612518,0.11416 -1.264163,-0.077 -0.651639,-0.19113 -1.167352,-0.40702 -1.146024,-0.47974 z m 15.546758,4.65266 c 0.04703,-0.16037 0.466354,-0.17987 0.931804,-0.0434 0.465453,0.13653 0.829151,0.30664 0.808215,0.37802 -0.02093,0.0714 -0.440256,0.0909 -0.931807,0.0434 -0.491551,-0.0475 -0.85525,-0.21765 -0.808212,-0.37802 z m -20.336934,-5.86905 c 0.09478,-0.32313 1.992776,-0.75197 2.139525,-0.48341 0.0575,0.10521 -0.417907,0.31678 -1.056447,0.47014 -0.638534,0.15336 -1.125917,0.15933 -1.083078,0.0133 z m 26.158169,8.0294 c -0.05483,-0.19943 0.181811,-0.19344 0.52586,0.0133 0.7298,0.43854 0.762238,0.69786 0.06161,0.49236 -0.268312,-0.0787 -0.532665,-0.30624 -0.58747,-0.50566 z m -5.402061,-0.76928 c 0.35079,0.0104 0.883952,0.1668 1.184791,0.34751 0.300863,0.18072 0.01384,0.1722 -0.637807,-0.0189 -0.651651,-0.19114 -0.8978,-0.33898 -0.546984,-0.32857 z m 9.833168,3.1376 c -0.372975,-0.30855 -0.403987,-0.43445 -0.08394,-0.34057 0.279276,0.0819 0.774039,0.36922 1.099482,0.63845 0.372946,0.30855 0.403984,0.43445 0.08391,0.34057 -0.279278,-0.0819 -0.774038,-0.36922 -1.099455,-0.63844 z m -21.773742,-6.27361 c 0.354541,0.0108 0.809884,0.15046 1.011864,0.31043 0.201986,0.15995 -0.08809,0.15114 -0.644617,-0.0196 -0.556528,-0.17074 -0.721797,-0.3016 -0.367255,-0.29082 z m 12.486298,4.40894 c 0.260284,-0.0256 0.641112,0.0861 0.846283,0.24822 0.205195,0.16218 -0.0078,0.18316 -0.47321,0.0466 -0.465478,-0.13653 -0.633357,-0.26921 -0.373073,-0.29486 z m -18.00484,-5.39045 c 0.176477,-0.15855 0.7181,-0.17175 1.203603,-0.0293 1.061109,0.31124 0.890788,0.43738 -0.497599,0.36853 -0.673529,-0.0334 -0.916464,-0.15012 -0.706004,-0.33918 z m 6.344891,2.21393 c 0.169675,-0.15243 0.460835,-0.23247 0.64702,-0.17786 0.186185,0.0546 0.199692,0.22401 0.03001,0.37644 -0.169678,0.15243 -0.460838,0.23247 -0.647018,0.17786 -0.186184,-0.0546 -0.199694,-0.22401 -0.03001,-0.37644 z m 22.196644,7.04906 c -0.730345,-0.65912 -0.74427,-0.71354 -0.08559,-0.33484 0.432549,0.24869 0.891519,0.62983 1.019929,0.84697 0.318522,0.53865 0.09308,0.41507 -0.934339,-0.51213 z m -2.849964,-1.60772 c -0.317675,-0.82807 -0.385927,-1.37249 -0.151718,-1.20981 0.401043,0.27855 1.233332,2.86325 0.889493,2.7624 -0.08813,-0.0259 -0.42013,-0.72452 -0.737775,-1.55259 z m -18.455391,-4.32813 c 0.273047,-0.0261 0.561496,0.0715 0.64099,0.21701 0.07949,0.14548 -0.143912,0.16684 -0.496454,0.0475 -0.389588,-0.13191 -0.446275,-0.23565 -0.144534,-0.2645 z m 20.542739,6.65574 c 0.0529,-0.18034 0.298958,-0.17319 0.546801,0.0159 0.247838,0.18908 0.43306,0.40365 0.411597,0.47682 -0.02146,0.0732 -0.267521,0.066 -0.546796,-0.0159 -0.279279,-0.0819 -0.464495,-0.29649 -0.411602,-0.47683 z m -20.085193,-5.47385 c 0.0455,-0.15516 0.311243,-0.21507 0.590518,-0.13316 0.279279,0.0819 0.470543,0.27588 0.425032,0.43103 -0.04549,0.15516 -0.31124,0.21508 -0.590518,0.13317 -0.279273,-0.0819 -0.470538,-0.27589 -0.425032,-0.43104 z m -16.014915,-4.30993 c 0.05425,-0.18497 0.575318,-0.26935 1.157914,-0.1875 0.582597,0.0819 1.022319,0.2748 0.977173,0.42872 -0.04515,0.15394 -0.298133,0.21651 -0.562179,0.13907 -0.264052,-0.0774 -0.748168,-0.11903 -1.07582,-0.0924 -0.327652,0.0266 -0.551341,-0.10292 -0.497086,-0.28789 z m 36.364239,11.07679 c 0.26026,-0.0256 0.641091,0.0861 0.846283,0.24823 0.205195,0.16217 -0.0078,0.18316 -0.473231,0.0466 -0.465453,-0.13652 -0.633333,-0.26921 -0.373052,-0.29486 z m 1.378789,0.62619 c 0.05783,-0.19718 0.229867,-0.21967 0.382317,-0.05 0.152421,0.16967 0.257437,0.37568 0.233357,0.45778 -0.02408,0.0821 -0.196117,0.1046 -0.382296,0.05 -0.186201,-0.0546 -0.291214,-0.26062 -0.233378,-0.45779 z m -6.668942,-2.02629 c -0.118195,-0.28742 -0.344649,-1.23104 -0.50328,-2.09694 -0.411628,-2.24723 -2.245434,-5.88569 -3.957418,-7.8519 -0.807453,-0.92735 -1.353325,-1.74882 -1.213022,-1.82548 0.446005,-0.24371 3.22865,3.4852 4.25346,5.69986 0.543047,1.17358 1.199579,3.15751 1.458931,4.40872 0.447892,2.16092 0.43279,2.81226 -0.03867,1.66574 z m -1.969096,-0.48565 c 0.169699,-0.15243 0.451869,-0.2351 0.627047,-0.18373 0.17521,0.0514 0.27387,0.24577 0.21926,0.43195 -0.05461,0.1862 -0.33678,0.26887 -0.627049,0.18373 -0.290272,-0.0851 -0.388935,-0.27951 -0.21926,-0.43195 z m -27.247462,-8.00353 c 0.0529,-0.18034 0.324673,-0.26087 0.603954,-0.17894 0.279276,0.0819 0.490215,0.2088 0.468752,0.28198 -0.02146,0.0732 -0.293241,0.1537 -0.603954,0.17894 -0.310708,0.0252 -0.521647,-0.10164 -0.468752,-0.28197 z m -3.126859,-0.62016 c 0.0424,-0.14456 0.686422,-0.0841 1.431161,0.13433 0.744735,0.21844 1.336418,0.45733 1.314849,0.53087 -0.02156,0.0735 -0.665591,0.0131 -1.431158,-0.13433 -0.765569,-0.14742 -1.357254,-0.3863 -1.314852,-0.53087 z m 2.647889,1.33032 c 0.537388,0.0731 1.298438,0.2986 1.691233,0.50105 0.392787,0.20247 -0.04691,0.14264 -0.977069,-0.13294 -0.930125,-0.27577 -1.251546,-0.44126 -0.714156,-0.36813 z m -5.646766,-1.76009 c 0.169677,-0.15243 0.565412,-0.19926 0.879411,-0.10407 0.492001,0.14916 0.487424,0.19785 -0.03312,0.3523 -0.788604,0.23398 -1.236737,0.10253 -0.846291,-0.24823 z m 1.661874,1.22785 c 0.332976,-0.10116 0.97423,-0.0783 1.425012,0.0508 1.088527,0.3118 0.756692,0.42351 -0.781839,0.26318 -0.878435,-0.0915 -1.069102,-0.18463 -0.643173,-0.31402 z m 5.487617,1.9721 c 0.169677,-0.15244 0.639122,-0.16855 1.04321,-0.0358 0.708337,0.23269 0.707353,0.24465 -0.02766,0.33368 -1.0492,0.1271 -1.380445,0.0299 -1.01555,-0.29787 z m 28.568011,9.09015 c -0.06449,-0.23457 -0.02334,-0.47779 0.09142,-0.5405 0.114761,-0.0627 0.229926,0.14751 0.255897,0.46716 0.05394,0.66364 -0.171923,0.71134 -0.347318,0.0733 z m -27.98057,-7.95942 c 0.09419,-0.32112 1.154967,-0.18575 1.249876,0.15951 0.05782,0.21033 -0.208531,0.29042 -0.591886,0.17798 -0.383355,-0.11245 -0.67945,-0.26431 -0.65799,-0.33749 z m 1.116463,1.20724 c 0.780706,-0.23163 1.139953,-0.12626 1.01555,0.29787 -0.05461,0.18619 -0.441357,0.23566 -0.859433,0.10993 -0.614683,-0.18484 -0.644557,-0.26288 -0.156117,-0.4078 z m 24.949061,8.14504 c 0.121361,-0.31826 0.400251,-0.64132 0.619601,-0.71795 0.592132,-0.20692 0.73279,0.73866 0.166579,1.12004 -0.687197,0.46287 -1.046147,0.27929 -0.78618,-0.40209 z M 50.229767,206.2032 c 0.332211,-0.0986 0.90869,-0.0899 1.28106,0.0194 0.560631,0.16444 0.57318,0.22939 0.07301,0.37779 -0.332211,0.0986 -0.908691,0.0899 -1.28106,-0.0194 -0.560631,-0.16443 -0.57318,-0.22939 -0.07301,-0.37779 z m 45.123366,14.15431 c 0.05461,-0.18619 0.313973,-0.52371 0.576376,-0.75005 0.262403,-0.22633 0.432406,-0.25919 0.377793,-0.073 -0.05461,0.18618 -0.313973,0.52371 -0.576373,0.75004 -0.262406,0.22634 -0.432406,0.25919 -0.377796,0.073 z m -1.094669,-0.61267 c 0.225047,-0.29657 0.46945,-0.42892 0.543102,-0.29412 0.07365,0.13479 -0.110463,0.37744 -0.409183,0.5392 -0.431647,0.23378 -0.459116,0.1835 -0.133919,-0.24508 z m -10.115053,-2.90472 c 0.297498,-0.16399 0.601139,-0.18789 0.674812,-0.0531 0.07365,0.1348 -0.169748,0.26898 -0.540893,0.29817 -0.536347,0.0422 -0.563811,-0.008 -0.133919,-0.24508 z m -4.335282,-1.77743 c -0.147053,-0.54863 -0.381609,-1.42645 -0.521242,-1.95071 -0.40031,-1.50284 -2.810542,-6.17905 -4.191411,-8.13194 -0.895154,-1.26598 -1.610831,-1.89662 -2.483138,-2.18811 -0.849635,-0.28392 -0.966692,-0.38412 -0.381659,-0.32671 0.8338,0.0818 0.833845,0.0668 0.0035,-1.26539 l -0.840346,-1.34821 1.128726,1.16543 c 3.154109,3.2567 6.635859,9.3835 7.470397,13.14556 0.450461,2.0308 0.306342,2.73272 -0.184843,0.90008 z m -29.632644,-7.65602 c 0.273045,-0.0261 0.561488,0.0716 0.64099,0.21702 0.07949,0.14548 -0.143915,0.16684 -0.496453,0.0475 -0.389589,-0.13192 -0.446273,-0.23565 -0.144534,-0.26451 z m 44.024353,13.79153 c 0.225044,-0.29656 0.469423,-0.42892 0.543073,-0.29413 0.07367,0.1348 -0.110461,0.37744 -0.409157,0.53922 -0.431676,0.23377 -0.459139,0.18348 -0.133916,-0.24509 z M 46.914313,207.47945 c 0.09046,-0.30842 1.342644,-0.3722 2.239293,-0.11406 0.279649,0.0806 0.0054,0.24598 -0.60942,0.36769 -1.274432,0.25226 -1.756265,0.17728 -1.629873,-0.25363 z m 7.021137,2.38414 c 0.05461,-0.18618 0.515064,-0.20493 1.023231,-0.0417 0.818724,0.26306 0.837128,0.30736 0.161576,0.3892 -1.041157,0.12611 -1.301346,0.0498 -1.184807,-0.34752 z m 24.752356,8.36308 c 0.332209,-0.0986 0.756357,-0.13453 0.942531,-0.0799 0.1862,0.0546 0.06672,0.17994 -0.265491,0.27851 -0.332211,0.0986 -0.756359,0.13453 -0.94256,0.0799 -0.186174,-0.0546 -0.06669,-0.17993 0.26552,-0.2785 z M 55.330158,211.3756 c 0.05461,-0.18619 0.32779,-0.2715 0.607068,-0.18959 0.279276,0.0819 0.463093,0.30127 0.408483,0.48746 -0.05461,0.18618 -0.32779,0.27149 -0.607066,0.18958 -0.279275,-0.0819 -0.463095,-0.30127 -0.408485,-0.48745 z m 39.350306,10.74431 c 0.717751,-0.63255 1.646954,-1.55943 2.064906,-2.05973 0.417976,-0.50028 0.704533,-0.6987 0.636855,-0.4409 -0.159081,0.60629 -3.395028,3.83015 -3.742142,3.72834 -0.145553,-0.0427 0.322632,-0.59516 1.040381,-1.22771 z m -6.12317,-0.61495 c 0.976347,-0.59849 1.161238,-0.60323 0.715026,-0.0183 -0.179351,0.23507 -0.600054,0.44966 -0.934916,0.47688 -0.500211,0.0406 -0.46096,-0.0412 0.21989,-0.45854 z m -33.486938,-9.24361 c 0.08426,-0.28726 1.849255,0.0689 1.937803,0.39101 0.05236,0.19044 -0.3708,0.20957 -0.940342,0.0425 -0.56954,-0.16705 -1.018397,-0.36214 -0.997461,-0.43353 z m 12.867474,2.92495 c -0.967605,-3.87366 -2.627555,-7.19287 -5.743046,-11.48368 -1.455995,-2.00527 -0.760318,-1.81428 0.885168,0.243 1.967626,2.46006 2.709181,3.72293 3.753555,6.39235 0.91807,2.34658 2.090891,6.86316 1.756707,6.76514 -0.103016,-0.0302 -0.39659,-0.89279 -0.652381,-1.91682 z m -22.168192,-5.0099 c -1.061585,-1.03524 -1.135827,-1.20259 -0.442632,-0.99775 0.458068,0.13546 1.180023,0.75477 1.604285,1.37643 0.954908,1.39923 0.51417,1.25555 -1.161653,-0.37868 z m 47.090326,14.88259 c 0.05284,-0.18012 0.448667,-0.49796 0.879663,-0.70628 0.430998,-0.20833 1.363395,-1.03536 2.071981,-1.83784 0.708583,-0.80248 1.330955,-1.38106 1.383038,-1.28573 0.15231,0.27874 -3.035075,3.55503 -3.765016,3.87005 -0.366164,0.15801 -0.622501,0.13993 -0.569666,-0.0402 z m -4.378172,-2.05339 c 0.964544,-0.56332 1.806514,-1.00874 1.871081,-0.9898 0.328506,0.0964 -0.868519,0.87772 -2.161008,1.41058 -1.447978,0.59695 -1.444827,0.59242 0.289927,-0.42078 z M 43.585143,210.99591 c 0.260273,-0.0256 0.641106,0.0861 0.846293,0.24823 0.205182,0.16217 -0.0078,0.18316 -0.473228,0.0466 -0.46546,-0.13652 -0.633339,-0.26921 -0.373065,-0.29486 z m 50.418892,14.6643 c 2.119535,-1.80915 2.158723,-1.83343 1.979565,-1.22694 -0.07736,0.26377 -0.95182,0.98612 -1.942115,1.60556 l -1.800511,1.12627 z m -23.278049,-5.35717 c 0.05461,-0.18618 0.242631,-0.29647 0.417827,-0.24509 0.175194,0.0514 0.368004,0.27338 0.428461,0.49332 0.06046,0.21993 -0.127603,0.3302 -0.417827,0.24508 -0.290264,-0.0851 -0.483071,-0.30713 -0.428461,-0.49331 z m -4.157133,-1.10283 c 0.273047,-0.0261 0.56149,0.0716 0.640987,0.21701 0.07949,0.14548 -0.143915,0.16684 -0.496448,0.0475 -0.389594,-0.13192 -0.446278,-0.23565 -0.144537,-0.26451 z m -3.328936,-0.61241 c 0.354539,0.0108 0.809882,0.15046 1.011862,0.31044 0.201988,0.15995 -0.08809,0.15113 -0.644618,-0.0196 -0.556527,-0.17074 -0.721791,-0.3016 -0.367252,-0.29082 z m -7.486179,-1.44922 c 0.260276,-0.0256 0.641106,0.0861 0.846291,0.24823 0.205187,0.16217 -0.0078,0.18316 -0.473226,0.0466 -0.465463,-0.13653 -0.633341,-0.26922 -0.373065,-0.29486 z m 37.072256,10.52427 c 1.895827,-1.22806 1.999607,-1.25737 0.896903,-0.25319 -0.584922,0.53269 -1.279808,0.97195 -1.544169,0.97616 -0.264337,0.004 0.02691,-0.32113 0.647266,-0.72297 z m -2.619158,-0.0834 c -0.01931,-0.15731 0.323765,-1.17339 0.762603,-2.25788 l 0.797687,-1.97187 -0.613293,2.30168 c -0.558716,2.09682 -0.85276,2.69547 -0.946997,1.92807 z m -14.491084,-3.60703 c 0.169701,-0.15243 0.717765,-0.15458 1.217949,-0.005 0.711292,0.21304 0.777817,0.31141 0.305377,0.45158 -0.795624,0.23608 -1.917248,-0.0929 -1.523326,-0.44681 z M 41.601479,214.3483 c -0.223078,-0.25354 -0.312486,-0.51186 -0.198686,-0.57405 0.113803,-0.0622 0.439002,0.18965 0.722667,0.55962 0.567309,0.73992 0.125058,0.7521 -0.523981,0.0144 z m 27.219695,8.45363 c 0.273044,-0.0261 0.561491,0.0716 0.640993,0.21702 0.07949,0.14548 -0.143918,0.16684 -0.496457,0.0475 -0.389591,-0.13192 -0.446272,-0.23565 -0.144531,-0.26451 z m -13.280497,-3.99691 c -1.638755,-0.61731 -4.042876,-1.7274 -5.342496,-2.46687 -1.29962,-0.73947 -3.275023,-1.84173 -4.38979,-2.44948 -2.077587,-1.13265 -2.465686,-1.45868 -2.023816,-1.70012 0.139017,-0.076 1.280155,0.49877 2.535865,1.27719 3.210597,1.99027 7.189441,3.91465 11.020324,5.33003 2.741226,1.01278 3.256643,1.12169 3.137268,0.66288 -0.429461,-1.65057 -2.541206,-6.30462 -3.867594,-8.52375 -1.364158,-2.28231 -1.644915,-2.56256 -2.674729,-2.66989 -1.101725,-0.11483 -1.115131,-0.13435 -0.31569,-0.45955 0.459192,-0.18679 0.684151,-0.38972 0.499909,-0.45094 -0.552347,-0.18355 -2.224495,-2.15625 -1.953337,-2.30442 0.138187,-0.0755 1.161725,0.88394 2.274536,2.13211 2.244291,2.51727 4.400941,6.41397 5.698289,10.29583 l 0.853032,2.55242 2.2899,0.46119 c 11.02708,2.22086 14.591238,2.20361 20.836748,-0.10087 1.58718,-0.58565 4.340537,-1.51226 6.118564,-2.05914 1.778032,-0.54688 3.961122,-1.37272 4.85131,-1.83521 0.890188,-0.46249 1.675842,-0.736 1.745888,-0.60781 0.291975,0.53431 -2.003214,1.64634 -6.10144,2.95622 -2.400287,0.76719 -5.411613,1.86375 -6.6918,2.43682 -3.996624,1.78903 -6.694485,2.00134 -13.73591,1.08092 -5.053062,-0.6605 -10.661868,-2.01192 -14.765031,-3.55756 z m 23.895014,8.15251 c 0.05017,-0.17102 0.41924,-0.30125 0.820176,-0.28941 0.400913,0.0118 0.712362,0.0781 0.692092,0.14719 -0.02027,0.0691 -0.389347,0.19934 -0.820153,0.28941 -0.432768,0.0905 -0.742502,0.0246 -0.692115,-0.14719 z m 7.672125,1.33996 c 1.079244,-0.62037 1.903593,-1.23535 1.831885,-1.36661 -0.07174,-0.13127 -0.391205,-0.063 -0.709943,0.1517 -0.318767,0.21469 -0.741727,0.34278 -0.939961,0.28464 -0.19821,-0.0581 0.211476,-0.43429 0.910423,-0.83588 1.177071,-0.67629 1.249955,-1.27993 0.07717,-0.63912 -0.803582,0.43909 -0.454282,-0.24031 0.38948,-0.75753 0.449768,-0.27572 0.586753,-0.50021 0.347975,-0.57025 -0.289814,-0.085 -0.229712,-0.26162 0.227555,-0.66854 0.956635,-0.85136 1.015597,-0.60999 0.362786,1.48509 -0.755163,2.42354 -1.078286,2.80589 -2.950821,3.4918 -1.464062,0.53628 -1.450618,0.51921 0.453458,-0.57529 z m -15.77187,-3.51311 c 0.399417,-0.16606 0.656119,-0.43021 0.570447,-0.587 -0.08567,-0.15678 0.01296,-0.23557 0.219194,-0.17508 0.380394,0.11157 0.733774,0.90469 0.4602,1.03287 -0.08208,0.0384 -0.560266,0.0612 -1.062643,0.0505 -0.828284,-0.0176 -0.845728,-0.0475 -0.187198,-0.32132 z m 7.620238,3.18122 c 0.399222,0.0177 0.961612,-0.0666 1.24977,-0.18725 0.354425,-0.14844 0.491275,-0.10823 0.423069,0.12431 -0.11883,0.40514 -1.062604,0.52567 -1.845464,0.23569 -0.408334,-0.15124 -0.363104,-0.19648 0.172625,-0.17275 z m -7.419917,-2.27796 c 1.049205,-0.12709 1.380448,-0.0299 1.015553,0.29787 -0.16968,0.15244 -0.639122,0.16855 -1.043215,0.0358 -0.708335,-0.23268 -0.707348,-0.24464 0.02766,-0.33368 z m 6.885308,3.23896 c 0.27305,-0.0261 0.561493,0.0715 0.640974,0.21702 0.0795,0.14548 -0.143899,0.16684 -0.496451,0.0475 -0.389572,-0.13191 -0.446275,-0.23565 -0.144521,-0.26451 z M 43.748586,218.27249 c -0.547002,-0.54789 -0.870862,-0.96683 -0.71969,-0.93096 0.364244,0.0864 1.982494,1.63927 1.922272,1.84459 -0.06499,0.22156 -0.08257,0.2082 -1.202582,-0.91363 z m 5.697501,2.28654 c -1.358667,-1.00975 -1.465837,-1.40045 -0.189651,-0.6914 1.255506,0.69757 2.446237,1.82815 1.652217,1.56876 -0.276783,-0.0904 -0.934934,-0.48523 -1.462563,-0.87736 z m 31.157858,9.44267 c 0.227579,-0.33765 0.703138,-1.31487 1.056781,-2.17161 0.353623,-0.85673 0.792876,-1.51372 0.976079,-1.45999 0.416171,0.12207 -0.585308,2.14725 -1.662141,3.36114 -0.431467,0.4864 -0.598303,0.60811 -0.370719,0.27046 z M 47.022742,219.95722 c -1.287434,-1.09196 -1.678599,-1.82255 -0.475036,-0.88725 1.72139,1.33772 2.690426,2.25341 2.230882,2.10808 -0.277556,-0.0878 -1.067686,-0.63715 -1.755846,-1.22083 z m 31.534405,9.99559 c 0.788609,-0.23399 1.236726,-0.10254 0.846286,0.24822 -0.169675,0.15244 -0.565407,0.19927 -0.879417,0.10407 -0.491993,-0.14916 -0.487418,-0.19785 0.03313,-0.35229 z M 76.41021,229.752 c 0.0455,-0.15516 0.311239,-0.21508 0.590518,-0.13316 0.279275,0.0819 0.470537,0.27588 0.425029,0.43103 -0.0455,0.15516 -0.31124,0.21508 -0.590516,0.13316 -0.279275,-0.0819 -0.47054,-0.27588 -0.425031,-0.43103 z m -29.731437,-8.65734 c -1.389272,-1.27685 -0.836226,-1.24328 0.679931,0.0413 0.71192,0.60316 1.063763,1.03693 0.781873,0.96392 -0.28189,-0.073 -0.939702,-0.52533 -1.461804,-1.00518 z m 11.330096,4.04689 c 0.354539,0.0108 0.809882,0.15046 1.011862,0.31043 0.201988,0.15996 -0.08809,0.15114 -0.644618,-0.0196 -0.556527,-0.17073 -0.721791,-0.3016 -0.367252,-0.29081 z m 26.015747,7.38393 c 0.595299,-0.35834 1.226804,-0.60916 1.403337,-0.55739 0.454332,0.13326 -0.703559,0.85952 -1.67349,1.04968 -0.724797,0.14208 -0.695687,0.0891 0.270153,-0.49229 z M 50.04645,223.27596 c 0.152112,-0.0895 1.826959,-0.4413 3.721878,-0.78176 3.379563,-0.6072 3.073808,-0.16821 -0.395295,0.56756 -1.790917,0.37984 -3.831328,0.51122 -3.326583,0.2142 z m 34.840165,9.86879 c 0.567992,-0.41322 0.985407,-0.92343 0.927579,-1.13379 -0.05783,-0.21037 0.290042,-0.62656 0.773049,-0.92488 2.047185,-1.26438 1.546045,-1.30113 -1.100717,-0.0807 -1.563819,0.72108 -2.827194,1.25601 -2.807462,1.18874 0.01974,-0.0673 1.618271,-1.00497 3.552325,-2.08379 1.934054,-1.07882 3.480925,-1.84036 3.437504,-1.69232 -0.04342,0.14805 -0.352274,0.38712 -0.686337,0.53129 -0.355436,0.15339 -0.674883,0.68194 -0.770102,1.2742 -0.166676,1.0366 -1.919467,2.68266 -3.569829,3.35248 -0.630235,0.25578 -0.581189,0.16913 0.24399,-0.4312 z m -9.84854,-1.22153 c 0.03979,-0.13568 0.579951,-0.28515 1.200346,-0.33215 0.620387,-0.047 1.091552,0.0387 1.047028,0.19054 -0.04453,0.1518 -0.584679,0.30126 -1.200341,0.33215 -0.615664,0.0309 -1.086826,-0.0549 -1.047033,-0.19054 z m -8.566549,-2.08905 c 0.05854,-0.22152 -0.216943,-0.5693 -0.612191,-0.77286 -0.601908,-0.31 -0.56161,-0.33219 0.248063,-0.13664 0.531688,0.12841 1.3076,0.16222 1.72426,0.0751 0.522206,-0.10916 0.725631,-0.0495 0.654778,0.19206 -0.05654,0.19273 -0.276405,0.2995 -0.488611,0.23726 -0.212201,-0.0622 -0.66638,0.0941 -1.009282,0.34733 -0.342903,0.25328 -0.575557,0.27926 -0.517017,0.0577 z m -2.46682,-0.71685 c 0.260273,-0.0256 0.641105,0.0861 0.846292,0.24823 0.205187,0.16217 -0.0078,0.18316 -0.47323,0.0466 -0.465458,-0.13652 -0.633338,-0.26921 -0.373062,-0.29486 z m -9.021787,-2.77035 c 0.05461,-0.18619 -0.154596,-0.41299 -0.464904,-0.504 -0.310306,-0.091 -0.452986,-0.22626 -0.317059,-0.30052 0.135925,-0.0743 0.799259,0.14594 1.474079,0.48937 1.013587,0.51583 1.096814,0.63576 0.478631,0.68971 -1.046615,0.0913 -1.285028,0.0151 -1.170747,-0.37456 z m -2.200359,-0.64539 c -0.37296,-0.30855 -0.403985,-0.43446 -0.08392,-0.34058 0.279279,0.0819 0.774042,0.36922 1.099474,0.63845 0.372962,0.30855 0.403987,0.43446 0.08393,0.34058 -0.279279,-0.0819 -0.774042,-0.36922 -1.099476,-0.63845 z m -3.215905,-0.94327 c -0.501507,-0.58139 0.03297,-0.42462 0.846291,0.24823 0.390149,0.32277 0.416877,0.44512 0.07847,0.35918 -0.282276,-0.0717 -0.69842,-0.34501 -0.924758,-0.60741 z m 1.83687,1.02292 c 0.273047,-0.0261 0.561493,0.0716 0.640993,0.21702 0.07949,0.14548 -0.143915,0.16684 -0.496454,0.0475 -0.389588,-0.13192 -0.446275,-0.23565 -0.144534,-0.26451 z m 23.070757,7.02596 c 0.541462,-0.004 1.217287,-0.0523 1.50182,-0.10662 0.284536,-0.0544 0.151326,0.0542 -0.296047,0.24131 -0.447374,0.18707 -1.123199,0.23505 -1.501849,0.10661 -0.552411,-0.1874 -0.493932,-0.23506 0.296076,-0.2413 z m -12.022225,-3.41 c 0.260273,-0.0256 0.641106,0.0861 0.846293,0.24823 0.205184,0.16217 -0.0078,0.18315 -0.473228,0.0466 -0.465461,-0.13653 -0.633336,-0.26921 -0.373065,-0.29486 z m 1.772041,0.87611 c 0.354542,0.0108 0.809885,0.15047 1.011866,0.31044 0.201988,0.15996 -0.08809,0.15113 -0.644619,-0.0196 -0.556527,-0.17073 -0.721794,-0.3016 -0.367252,-0.29081 z m -9.503259,-2.87717 c 0.713377,0.0663 1.878134,-0.0461 2.588347,-0.24964 l 1.291297,-0.3701 -1.733064,-0.78622 c -0.953177,-0.43243 -1.534062,-0.80127 -1.290849,-0.81967 0.243213,-0.0184 1.203471,0.34858 2.133907,0.8155 1.688804,0.84747 1.69576,0.84734 4.068281,-0.0743 1.307126,-0.50781 2.910883,-1.30313 3.563907,-1.76739 0.653029,-0.46425 1.139957,-0.67637 1.082074,-0.47138 -0.169894,0.60169 -4.951096,2.92091 -7.708612,3.73923 -1.992913,0.59142 -2.840035,0.65826 -3.917548,0.30907 l -1.374796,-0.44552 z m 24.248669,7.32302 c 0.595299,-0.35834 1.22681,-0.60916 1.403334,-0.55738 0.454332,0.13326 -0.703556,0.85952 -1.673489,1.04967 -0.724795,0.14208 -0.695682,0.0891 0.270155,-0.49229 z m -6.669966,-0.9798 c 2.24517,-0.14876 3.338515,-0.10144 3.267287,0.1414 -0.08939,0.30476 -2.506377,0.35532 -3.329183,0.0696 -0.444876,-0.15445 -0.437992,-0.17791 0.06189,-0.21104 z m -9.88726,-2.63978 c 0.464579,-0.13784 0.370276,-0.25037 -0.408485,-0.48746 -0.556885,-0.16952 -1.196377,-0.52742 -1.421104,-0.79531 -0.287332,-0.34252 0.0259,-0.29444 1.055397,0.16202 0.805193,0.357 1.645764,0.77017 1.867926,0.91814 0.607976,0.40496 -0.111477,0.85916 -0.957598,0.60455 -0.601739,-0.18108 -0.6272,-0.25625 -0.136136,-0.40194 z m 11.071763,3.61511 c 0.332211,-0.0986 0.822113,-0.11778 1.088668,-0.0427 0.266517,0.0752 1.069795,-0.22951 1.784982,-0.6769 l 1.300366,-0.81341 -0.947703,0.95572 c -0.926534,0.93442 -2.121244,1.27471 -3.261503,0.92898 -0.490672,-0.14878 -0.485809,-0.19711 0.03519,-0.35169 z m -3.414501,-0.26622 c 0.16968,-0.15243 0.866309,-0.0971 1.548069,0.12307 1.113433,0.35949 1.14536,0.40255 0.313764,0.42303 -1.337527,0.0329 -2.21869,-0.22551 -1.861833,-0.5461 z m -4.248002,-1.18472 c 0.0455,-0.15516 0.304541,-0.21704 0.575622,-0.13753 0.27109,0.0795 0.377198,0.2485 0.235797,0.37553 -0.141393,0.12702 -0.400426,0.18891 -0.575622,0.13752 -0.175197,-0.0514 -0.281303,-0.22037 -0.235794,-0.37553 z m -7.029226,-2.16824 c -0.947473,-0.45771 -1.926844,-1.06695 -2.176373,-1.35386 -0.371194,-0.42681 -0.308678,-0.44629 0.343816,-0.10711 0.438626,0.22801 1.49225,0.73202 2.341393,1.12002 0.849135,0.38801 1.587646,0.86465 1.641123,1.05921 0.05349,0.19455 -0.02077,0.29978 -0.165015,0.23384 -0.144243,-0.0659 -1.037463,-0.49439 -1.984944,-0.9521 z m 3.873762,1.6456 c 0.04411,-0.15039 0.718061,-0.40852 1.497663,-0.57362 0.779604,-0.1651 2.528645,-0.97185 3.886765,-1.79278 1.4747,-0.89139 1.880521,-1.05701 1.007533,-0.41116 -2.348846,1.73771 -6.632996,3.59934 -6.391961,2.77756 z m 2.459234,2.89632 c -0.634099,-0.25095 -1.244852,-0.61957 -1.357234,-0.81914 -0.112382,-0.19957 1.060009,0.0952 2.605316,0.65516 1.677194,0.60769 2.931621,0.90843 3.112275,0.74613 0.170969,-0.15359 -0.145486,-0.41727 -0.72736,-0.60606 -0.5665,-0.18381 -1.092089,-0.44781 -1.167974,-0.58669 -0.07589,-0.13888 1.019622,0.1305 2.434471,0.59863 1.41484,0.46813 2.544262,0.94902 2.509834,1.06865 -0.14846,0.51649 -5.285575,-0.21617 -7.409328,-1.05668 z m -5.495214,-1.31949 c -1.977022,-1.18747 -4.641035,-3.10361 -5.920026,-4.25811 -1.278985,-1.15449 -2.672278,-2.32663 -3.096204,-2.60477 -1.302938,-0.85486 -4.08201,-3.56866 -4.571101,-4.46375 -0.254828,-0.46636 -1.132818,-1.47707 -1.951095,-2.24602 -1.939671,-1.82276 -6.246146,-9.92225 -5.901103,-11.09863 0.05629,-0.19191 2.325695,-1.14493 5.019278,-2.10781 0.106402,-0.038 0.0381,-0.24209 -0.151791,-0.45346 -0.412515,-0.45918 3.978809,-2.8428 5.939097,-3.22375 0.690644,-0.13421 1.31763,-0.42842 1.393301,-0.65378 0.173172,-0.51567 3.836929,-2.03042 6.779106,-2.80272 1.230784,-0.32308 2.765349,-0.93757 3.410143,-1.36556 1.519971,-1.00888 4.4335,-1.85132 7.15561,-2.06902 1.190591,-0.0952 2.219428,-0.35968 2.286304,-0.58769 0.12005,-0.40928 3.13481,-0.95287 6.202059,-1.11828 0.968078,-0.0522 2.907128,0.29341 5.021249,0.89498 3.683992,1.04828 5.825569,2.3068 8.228512,4.8356 0.648664,0.68264 1.466417,1.21848 1.878074,1.23065 0.939927,0.0278 4.146555,4.51925 5.80613,8.1326 0.658762,1.43429 1.299001,2.63749 1.422797,2.6738 0.623927,0.183 2.533942,-2.70545 4.332452,-6.55181 0.33631,-0.71924 0.68827,-1.09091 0.85612,-0.90406 0.66473,0.73991 -3.02666,7.09123 -4.549116,7.82715 -0.851773,0.4117 -0.905275,0.34565 -3.309181,-4.08555 -2.902744,-5.35072 -3.434046,-6.05887 -4.273873,-5.69644 -0.475213,0.20509 -0.823952,-0.0343 -1.700667,-1.16721 -1.484654,-1.91861 -4.884606,-4.45739 -6.52144,-4.86963 -0.732237,-0.18441 -2.236528,-0.63717 -3.342873,-1.00612 -3.244239,-1.08192 -8.765907,-0.77349 -9.022,0.50394 -0.08022,0.40016 -0.614585,0.56857 -1.764173,0.55601 -3.808026,-0.0416 -8.419696,1.13062 -8.73966,2.22147 -0.07923,0.27011 -0.977752,0.64602 -1.996718,0.83536 -2.785864,0.51764 -6.98065,2.19655 -7.179172,2.87339 -0.09582,0.3267 -0.638085,0.66041 -1.205024,0.74159 -1.356114,0.19417 -4.140864,1.26657 -5.394362,2.07736 -0.685654,0.44349 -0.931592,0.80216 -0.784217,1.14365 0.153093,0.35475 -0.274955,0.62762 -1.491485,0.95081 -0.938411,0.2493 -2.163644,0.65839 -2.722743,0.9091 -0.936524,0.41995 -0.999773,0.53692 -0.80347,1.48591 0.117189,0.56653 0.979908,2.179 1.917152,3.58326 0.937244,1.40426 1.662078,2.74028 1.610741,2.96895 -0.104894,0.46716 3.166147,4.10332 4.63763,5.1553 0.526497,0.3764 0.948923,0.96679 0.938723,1.31199 -0.01886,0.63853 4.313322,4.26223 5.517968,4.61557 0.337663,0.099 0.737629,0.46669 0.888812,0.81701 0.15118,0.35031 0.450852,0.66677 0.665937,0.70322 0.995172,0.1687 1.34774,0.49404 0.612397,0.5651 -0.644821,0.0623 -0.572545,0.18662 0.488762,0.84046 0.685022,0.42203 2.130348,1.13476 3.211833,1.58386 1.109691,0.46081 2.076156,1.08446 2.218412,1.43152 0.381363,0.93041 6.260736,2.89329 8.647061,2.88689 4.612449,-0.0124 6.984687,-0.5197 9.523701,-2.03679 1.412946,-0.84425 2.485548,-1.28265 2.495126,-1.01985 0.05244,1.4387 3.666173,0.0908 5.75537,-2.14664 2.899416,-3.10521 2.839908,-3.06102 3.267089,-2.42682 0.443751,0.65881 0.551883,0.59445 2.629019,-1.56498 2.575329,-2.67734 3.367466,-4.5137 4.498213,-10.42791 0.463978,-2.42678 0.652415,-2.85048 2.024938,-4.55301 1.55724,-1.93164 4.31869,-6.3757 4.63782,-7.46373 0.0989,-0.3373 0.33221,-0.5686 0.51839,-0.51399 0.53149,0.15589 0.21978,0.80077 -2.28145,4.71995 -3.614871,5.66422 -3.874811,6.2124 -4.298539,9.06505 -0.532603,3.58558 -1.964467,6.61106 -4.444682,9.39127 -1.095648,1.22822 -2.664989,2.61479 -3.487362,3.08128 -0.822378,0.46649 -2.362697,1.39747 -3.422949,2.06882 -1.06023,0.67136 -2.752286,1.48089 -3.760089,1.79895 -1.007832,0.31807 -2.511771,0.92025 -3.342052,1.33821 -1.500836,0.75547 -2.507465,0.9978 -6.922495,1.66642 -2.057517,0.3116 -2.7529,0.23065 -6.398993,-0.74497 -3.63717,-0.97323 -4.489099,-1.33391 -7.685221,-3.25359 z"
       inkscape:connector-curvature="0" />
  </g>
</svg>
