<?xml version="1.0" encoding="UTF-8" standalone="no"?>
<!-- Created with Inkscape (http://www.inkscape.org/) -->

<svg
   xmlns:dc="http://purl.org/dc/elements/1.1/"
   xmlns:cc="http://creativecommons.org/ns#"
   xmlns:rdf="http://www.w3.org/1999/02/22-rdf-syntax-ns#"
   xmlns:svg="http://www.w3.org/2000/svg"
   xmlns="http://www.w3.org/2000/svg"
   xmlns:sodipodi="http://sodipodi.sourceforge.net/DTD/sodipodi-0.dtd"
   xmlns:inkscape="http://www.inkscape.org/namespaces/inkscape"
   width="79.148331mm"
   height="48.629829mm"
   viewBox="0 0 79.148331 48.629829"
   version="1.1"
   id="svg958"
   inkscape:version="0.92.5 (2060ec1f9f, 2020-04-08)"
   sodipodi:docname="leaf1.svg">
  <defs
     id="defs952" />
  <sodipodi:namedview
     id="base"
     pagecolor="#ffffff"
     bordercolor="#666666"
     borderopacity="1.0"
     inkscape:pageopacity="0.0"
     inkscape:pageshadow="2"
     inkscape:zoom="0.35"
     inkscape:cx="472.42879"
     inkscape:cy="-439.52968"
     inkscape:document-units="mm"
     inkscape:current-layer="layer1"
     showgrid="false"
     fit-margin-top="0"
     fit-margin-left="0"
     fit-margin-right="0"
     fit-margin-bottom="0"
     inkscape:window-width="1920"
     inkscape:window-height="1019"
     inkscape:window-x="0"
     inkscape:window-y="30"
     inkscape:window-maximized="1" />
  <metadata
     id="metadata955">
    <rdf:RDF>
      <cc:Work
         rdf:about="">
        <dc:format>image/svg+xml</dc:format>
        <dc:type
           rdf:resource="http://purl.org/dc/dcmitype/StillImage" />
        <dc:title></dc:title>
      </cc:Work>
    </rdf:RDF>
  </metadata>
  <g
     inkscape:label="Layer 1"
     inkscape:groupmode="layer"
     id="layer1"
     transform="translate(152.21107,16.088724)">
    <path
       id="path792"
       style="fill:#000000;stroke-width:0.35277778"
       d="m -85.013062,15.174028 c 0.875194,0.05765 6.443223,1.814185 6.259947,1.974808 -0.239647,0.210024 -5.967492,-1.412095 -6.291438,-1.781728 -0.09983,-0.113911 -0.08566,-0.200795 0.03148,-0.19308 z m 1.526908,1.41427 c 0.874588,0.126748 1.695535,0.357174 1.824326,0.512045 0.128791,0.154863 -0.483796,0.171987 -1.361297,0.03804 -0.877502,-0.133948 -1.698451,-0.364366 -1.824329,-0.512046 -0.125754,-0.147785 0.486704,-0.164798 1.3613,-0.03804 z m 0.07233,5.590518 c 0.111305,-0.09378 0.483053,-0.211539 0.8259,-0.261911 0.504073,-0.07407 0.509807,0.0093 0.02998,0.435632 -0.326456,0.289866 -0.698018,0.407831 -0.825899,0.261913 -0.127887,-0.145917 -0.141373,-0.341955 -0.02998,-0.435634 z m -8.787745,-8.019954 c 0.22496,-0.0377 0.30438,-0.187936 0.176496,-0.333857 -0.127884,-0.145923 -0.416571,-0.234463 -0.641527,-0.196763 -0.224954,0.0377 -0.304377,0.187939 -0.176493,0.33386 0.127883,0.145917 0.416568,0.234458 0.641524,0.19676 z m -2.332368,-0.535882 c 0.642623,0.0818 1.279078,0.0031 1.414341,-0.174964 0.232942,-0.306583 4.203163,0.647213 5.452959,1.310016 1.217076,0.645443 0.182571,0.558496 -1.853742,-0.155803 -1.165863,-0.408964 -2.12529,-0.659558 -2.132052,-0.556876 -0.0067,0.102679 0.947692,0.542332 2.121016,0.977006 4.487722,1.662525 0.632587,0.78406 -4.935836,-1.124726 l -1.235094,-0.423378 z m 6.687714,8.208446 c 0.869381,0.139412 1.573797,0.358167 1.565368,0.486122 -0.01953,0.296513 -2.597878,-0.125423 -2.911147,-0.476401 -0.129276,-0.144698 0.476393,-0.149135 1.345779,-0.0097 z m -8.8603,-7.711649 c 0.128383,-0.112516 3.732072,0.880976 5.204407,1.434796 1.62878,0.612667 0.579358,0.480867 -2.233181,-0.280471 -2.77853,-0.752131 -3.23001,-0.927529 -2.971226,-1.154325 z m -6.592697,-5.0111275 c 0.26469,-0.23197 4.295269,1.4210285 4.273428,1.7525935 -0.0087,0.131996 -1.021898,-0.166169 -2.251548,-0.662587 -1.22966,-0.4964195 -2.1395,-0.9869205 -2.02188,-1.0900065 z m 4.896278,6.0287765 c 0.307504,-0.269499 4.94342,0.786871 5.272879,1.201515 0.131395,0.165341 -0.222705,0.18283 -0.786871,0.03883 -0.564155,-0.143999 -1.860317,-0.432892 -2.880355,-0.64199 -1.020037,-0.209092 -1.74258,-0.478353 -1.605653,-0.598355 z m 6.790984,8.927121 c 0.55871,-0.210974 0.538993,-0.246073 -0.209418,-0.372766 -0.797774,-0.135049 -0.78309,-0.150524 0.426726,-0.449763 1.393237,-0.344606 1.87561,-0.184623 0.826629,0.274156 -0.978995,0.428173 -0.608274,0.621263 0.64728,0.337135 0.592066,-0.133983 0.920011,-0.09802 0.72876,0.07997 -0.433112,0.402976 -2.624323,0.834832 -2.86168,0.563999 -0.0963,-0.109882 0.102465,-0.304586 0.441684,-0.432689 z M -104.7106,9.6419535 c 0.27101,0.02047 1.34161,0.348735 2.37911,0.7294585 1.0375,0.380722 2.1436,0.73574 2.457999,0.788935 0.508281,0.086 0.824315,0.768429 0.33106,0.714875 -0.484939,-0.0526 -5.608219,-2.2665235 -5.168169,-2.2332685 z M -90.726757,25.26593 c 0.763172,-0.127897 1.996114,-0.467299 2.739874,-0.754214 1.060754,-0.409209 1.22057,-0.399108 0.741304,0.04684 -0.685628,0.63799 -4.322146,1.563624 -4.654232,1.184698 -0.117991,-0.134633 0.409895,-0.349419 1.173054,-0.477329 z m -8.685523,-9.478463 c 2.190158,0.339506 3.024458,0.817317 0.971125,0.556165 -1.028306,-0.130789 -1.974465,-0.357013 -2.102585,-0.502729 -0.12808,-0.145743 0.38104,-0.169762 1.13146,-0.05344 z m -9.07828,-8.6963205 c 0.20022,-0.175483 3.00869,1.010377 3.32681,1.404732 0.15725,0.194961 -0.52275,0.02116 -1.51116,-0.386184 -1.91303,-0.788407 -2.01377,-0.844923 -1.81565,-1.018548 z m 5.67739,7.2400785 c 0.0758,-0.07714 0.80967,-0.196827 1.6309,-0.265962 0.82122,-0.06914 2.065287,-0.406744 2.76457,-0.750237 1.527704,-0.750416 1.669201,-0.329438 0.184475,0.548836 -0.861306,0.5095 -5.040165,0.935929 -4.579945,0.467363 z m -3.73173,-4.254411 c 2.03529,0.529921 5.94348,1.934105 5.93053,2.130796 -0.0175,0.266184 -6.02455,-1.672283 -6.34148,-2.046405 -0.11452,-0.134962 0.0705,-0.1730295 0.41095,-0.08439 z m -2.71347,0.501743 c 0.11052,-0.09686 5.8581,1.552774 7.66076,2.198743 0.48747,0.174681 0.46098,0.208375 -0.1833,0.233087 -0.41423,0.01588 -2.17734,-0.444267 -3.91801,-1.022574 -3.5939,-1.194002 -3.73935,-1.251588 -3.55945,-1.409256 z m 15.897371,18.002382 c 0.32023,-0.258135 0.438189,-0.250367 0.300765,0.01982 -0.124352,0.244485 -0.36144,0.43561 -0.526852,0.424722 -0.165423,-0.0109 -0.06368,-0.210931 0.226095,-0.444518 z M -114.93094,4.9955725 c 0.61495,0.23505 1.48515,0.476375 1.93378,0.536277 0.44862,0.05991 0.80724,0.236979 0.79692,0.393496 -0.0257,0.390047 -3.0815,-0.433596 -3.50648,-0.945118 -0.18828,-0.226597 0.16083,-0.2197 0.77578,0.01535 z m 13.06841,16.9265165 c 0.34779,0.08219 0.77873,0.312761 0.95764,0.512392 0.1788,0.19972 1.830163,0.964816 3.669467,1.700408 1.839307,0.735595 3.048918,1.345388 2.688027,1.355095 -0.959586,0.02582 -5.878474,-2.046406 -6.991744,-2.945474 -0.72209,-0.583149 -0.80115,-0.735322 -0.32339,-0.622421 z m -9.17472,-10.500016 c 0.42481,-0.07119 7.16232,1.727631 7.37353,1.968634 0.36707,0.418844 -0.39712,0.44032 -1.26916,0.03567 -0.5481,-0.254331 -2.14623,-0.700755 -3.55141,-0.99205 -2.4601,-0.509985 -3.3781,-0.873977 -2.55296,-1.012256 z m -5.61842,-5.8687015 c 0.58207,-0.09755 3.41174,1.035814 3.39052,1.358004 -0.009,0.137597 -0.87524,-0.09504 -1.92485,-0.516818 -1.0496,-0.421849 -1.70916,-0.80038 -1.46567,-0.841186 z m -3.02067,-3.200663 c 0.13389,-0.117345 2.50652,0.976798 2.76079,1.273146 0.0793,0.09249 -0.40686,0.01783 -1.08043,-0.165845 -1.151,-0.313869 -1.96994,-0.853518 -1.68036,-1.107301 z m 19.60196,23.1621805 c 0.145917,-0.127886 0.376112,-0.106082 0.511542,0.04844 0.135435,0.154533 0.06218,0.311814 -0.162772,0.349512 -0.224956,0.0377 -0.45515,0.0159 -0.51155,-0.04845 -0.0564,-0.06435 0.0169,-0.221626 0.16278,-0.34951 z m 2.051409,2.297825 c 0.440971,-0.220594 0.666631,-0.205727 0.525976,0.03465 -0.135491,0.231545 -0.483029,0.405413 -0.772319,0.38635 -0.369422,-0.02434 -0.296095,-0.149643 0.246343,-0.420997 z M -116.34254,6.6250435 c 1.26538,0.380659 2.29274,0.812648 2.28304,0.959978 -0.0192,0.291103 -3.98359,-0.980547 -4.35599,-1.39725 -0.12528,-0.140134 0.80758,0.05662 2.07295,0.437272 z m 14.89094,18.9241205 c 0.22496,-0.0377 0.51365,0.05083 0.64153,0.196762 0.12788,0.145918 0.0485,0.296156 -0.1765,0.333854 -0.22496,0.0377 -0.51364,-0.05083 -0.64152,-0.19676 -0.12789,-0.14592 -0.0485,-0.296153 0.17649,-0.333856 z m -10.46158,-11.705762 c 0.0555,-0.04869 0.64165,0.12369 1.30245,0.383055 1.01573,0.39868 1.09192,0.474557 0.4929,0.490832 -0.64309,0.01746 -2.0378,-0.661406 -1.79535,-0.873887 z m -1.35698,-1.619195 c 0.18499,-0.156919 2.32981,0.373512 7.64925,1.891718 0.67872,0.193712 0.99895,0.391605 0.71163,0.439761 -0.28734,0.04816 -2.1046,-0.345969 -4.03837,-0.875829 -4.66034,-1.27694 -4.56933,-1.24629 -4.32251,-1.45565 z m 12.48993,14.862374 c 0.15044,-0.140052 0.6589,-0.282462 1.129905,-0.316461 0.471006,-0.034 0.733287,0.05277 0.582848,0.192823 -0.150448,0.140052 -0.658905,0.282462 -1.129913,0.316461 -0.471,0.034 -0.73329,-0.05277 -0.58284,-0.192823 z M -117.72562,9.5557095 c 0.0923,-0.08091 1.23858,-0.452392 2.54723,-0.825503 1.30866,-0.373108 2.70072,-0.95985 3.09349,-1.303868 0.39276,-0.34402 0.89254,-0.570765 1.11061,-0.503883 0.77507,0.237723 -1.29821,1.597011 -3.18248,2.086494 -1.97492,0.513036 -3.85988,0.801818 -3.56885,0.54676 z m -2.73254,-3.23422 c 0.15529,-0.136095 3.50856,1.006782 3.72967,1.27116 0.19354,0.23144 -3.51432,-0.808679 -3.72017,-1.043561 -0.0643,-0.07339 -0.0686,-0.175809 -0.01,-0.227599 z m 5.55473,6.8589645 c 0.063,-0.05523 0.72275,0.05262 1.46606,0.239675 l 1.35146,0.340101 -1.27406,-0.02061 c -1.13616,-0.01839 -1.86091,-0.280945 -1.54346,-0.559166 z M -125.62896,1.2603855 c 0.90952,0.117605 4.85777,1.663116 4.43128,1.734593 -0.51801,0.08681 -4.32247,-1.174551 -4.65101,-1.542028 -0.1411,-0.157789 -0.0601,-0.228753 0.21973,-0.192565 z m 22.58551,25.6838735 c 0.52331,0.0083 1.0561,0.134569 1.18398,0.280482 0.12789,0.14592 -0.19564,0.258482 -0.71895,0.250137 -0.5233,-0.0083 -1.0561,-0.13457 -1.18398,-0.28048 -0.12788,-0.14592 0.19564,-0.258482 0.71895,-0.250139 z M -103.173,28.6996 c 0.17481,-0.153205 2.86691,-0.454435 3.868533,-0.432864 0.262961,0.0057 -0.220409,0.19281 -1.074493,0.415494 -1.43794,0.375272 -3.21503,0.386321 -2.79404,0.01738 z M -122.25835,6.9777565 c 1.12156,0.123458 4.35831,1.323564 4.12387,1.529026 -0.22765,0.199518 -4.31363,-1.027693 -4.63229,-1.391297 -0.10333,-0.117903 0.12546,-0.179881 0.50842,-0.137729 z m -5.40454,-5.131012 c 0.19001,-0.16652 4.65338,1.243552 4.90547,1.549743 0.12725,0.154547 -0.16272,0.204195 -0.64437,0.110314 -1.06212,-0.207024 -4.42442,-1.51692 -4.2611,-1.660057 z m 2.49052,5.322672 c 0.1167,-0.102275 1.2875,0.259883 2.60176,0.804803 1.31426,0.544918 2.19617,1.023174 1.95978,1.06279 -0.58902,0.09871 -4.82586,-1.635941 -4.56154,-1.867593 z m 10.60744,12.5161045 c 0.0669,-0.218065 0.22624,-0.277096 0.35412,-0.131175 0.12789,0.145923 0.1778,0.443724 0.11091,0.661794 -0.0669,0.218064 -0.22623,0.277095 -0.35412,0.131172 -0.12788,-0.145917 -0.17779,-0.443722 -0.11091,-0.661791 z M -130.16371,2.1621165 c 0.15195,-0.13316 4.42341,1.560472 4.68318,1.856875 0.0979,0.111654 -0.78375,-0.05127 -1.9591,-0.362052 -1.88942,-0.499588 -3.10103,-1.164458 -2.72408,-1.494823 z m 16.14196,18.6891585 c 0.23674,-0.207468 0.50573,-0.0021 0.90439,0.690644 0.3195,0.555149 1.91706,2.043481 3.65629,3.406307 1.69888,1.331206 3.21933,2.655869 3.37877,2.943699 0.38189,0.689374 -4.34409,-2.98671 -6.54827,-5.093544 -1.30672,-1.249008 -1.64596,-1.723814 -1.39118,-1.947106 z M -126.57869,7.9033645 c 0.43978,-0.01463 1.63066,0.313753 2.6464,0.729754 2.24265,0.918471 1.13238,0.892502 -1.53123,-0.03582 -1.29098,-0.44993 -1.65428,-0.676 -1.11517,-0.693932 z m -2.73921,-2.260741 c 0.15992,-0.140156 0.46923,-0.200093 0.68735,-0.133193 0.21812,0.0669 1.78371,-0.148009 3.47909,-0.477576 3.69512,-0.718292 3.69348,-0.446219 -0.003,0.441835 -2.53801,0.609786 -4.77015,0.700351 -4.16378,0.168934 z m -6.09355,-6.85583 c 0.20521,-0.179847 1.3698,0.0071 2.48807,0.39942602 0.76335,0.267806 0.76292,0.268182 -0.29177,0.260943 -1.14979,-0.0079 -2.48331,-0.408842 -2.1963,-0.66037702 z m 3.40099,4.52473 c 0.0585,-0.05131 0.69056,0.09906 1.40446,0.334162 0.71391,0.235101 1.78508,0.562853 2.38039,0.728335 0.59532,0.165486 0.95803,0.409871 0.80604,0.543077 -0.15199,0.133205 -1.20533,-0.07756 -2.34076,-0.46836 -1.98064,-0.68172 -2.4812,-0.934703 -2.25013,-1.137214 z m 18.39706,21.8727295 c 0.14592,-0.127886 0.57088,-0.183687 0.94436,-0.12401 0.37879,0.06053 0.56174,0.211317 0.41375,0.341021 -0.14592,0.127884 -0.57089,0.183687 -0.94437,0.12401 -0.37879,-0.06053 -0.56174,-0.211317 -0.41374,-0.341021 z m 1.3583,1.153274 c 0.6641,0.02297 1.20023,0.151505 1.19139,0.285657 -0.0218,0.330483 -1.86484,0.281911 -2.16184,-0.05697 -0.13036,-0.14874 0.30636,-0.25164 0.97045,-0.228684 z m 1.5028,1.311206 c 1.3928,0.04373 2.46968,0.211497 2.39305,0.372811 -0.1639,0.345078 -4.3856,0.16365 -4.70627,-0.20225 -0.12054,-0.137536 0.92041,-0.214291 2.31322,-0.170561 z M -135.67117,3.7052535 c 0.23116,-0.202582 4.06478,0.994626 4.93279,1.540475 0.50676,0.318665 0.50485,0.36418 -0.0102,0.243459 -1.63732,-0.383779 -5.09179,-1.635662 -4.92261,-1.783933 z m -1.80448,-2.653368 c 1.08761,0.07164 3.15853,-0.15459598 4.60206,-0.50274698 1.44354,-0.348155 2.25919,-0.44781 1.81257,-0.221454 -2.3063,1.16888498 -7.34965,1.78338298 -8.05271,0.98116898 -0.19942,-0.227549 0.47607,-0.33351098 1.63808,-0.256968 z m -4.3176,-2.770197 c 0.15417,-0.135115 0.36503,-0.148982 0.46859,-0.03082 0.10355,0.11816 1.2873,0.374878 2.63054,0.570484 2.2405,0.32625802 4.72558,1.04629502 4.44868,1.28897902 -0.0633,0.05548 -0.92504,-0.138814 -1.91497,-0.431766 -0.98993,-0.292957 -1.89317,-0.451255 -2.00721,-0.351774 -0.11398,0.09954 0.36899,0.306453 1.07339,0.459928 0.7044,0.153487 1.27261,0.402344 1.26268,0.553021 -0.01,0.150683 -0.86709,0.0074 -1.90482,-0.318455 -3.29564,-1.03478802 -4.34679,-1.48552202 -4.05688,-1.73959302 z m 29.13779,30.7708865 c 1.84711,0.06754 3.93801,0.08505 4.64646,0.03892 0.70844,-0.04613 1.27994,0.0396 1.27,0.190529 -0.0263,0.400066 -6.30795,0.392388 -7.90988,-0.0097 -0.90786,-0.227856 -0.24031,-0.301456 1.99342,-0.219781 z M -137.7496,4.1195375 c 0.13344,-0.11695 1.31959,0.584985 2.6359,1.559852 4.25597,3.152004 5.67936,3.952787 10.35,5.8227225 4.93538,1.97594 13.13713,4.716581 16.32909,5.456428 6.34745,1.471234 20.197584,2.335974 25.323453,1.581081 2.484776,-0.36594 3.553499,-0.159851 1.633135,0.314923 -4.281332,1.058481 -18.08588,0.733541 -24.161118,-0.568725 -11.71514,-2.511202 -26.00475,-8.3850925 -30.94869,-12.7217605 -0.80539,-0.706465 -1.30091,-1.322583 -1.16177,-1.444521 z m 11.5186,14.2975315 c 0.37808,-0.01016 0.79205,0.10089 0.91993,0.246816 0.12971,0.147995 -0.0714,0.273487 -0.4549,0.283803 -0.37808,0.01019 -0.79205,-0.100891 -0.91994,-0.246814 -0.1297,-0.147998 0.0715,-0.273487 0.45491,-0.283805 z m -18.24019,-18.98693548 c 0.0469,-0.152969 0.32242,-0.153252 0.61222,-5.29e-4 0.79097,0.416597 1.68401,1.532126 1.41517,1.76773798 -0.28572,0.250406 -2.14828,-1.37302498 -2.02739,-1.76711398 z m 18.97301,21.93688848 c 0.44719,-0.164875 0.39237,-0.31654 -0.29379,-0.812697 -0.80742,-0.583835 -0.80615,-0.601953 0.0295,-0.422547 0.51709,0.111005 1.07471,0.530902 1.36747,1.02971 0.54326,0.925648 0.43748,1.180227 -0.4657,1.12073 -0.86289,-0.05684 -1.29259,-0.673692 -0.63752,-0.915196 z m -10.14749,-9.709674 c 0.15454,-0.135432 0.31182,-0.06218 0.34952,0.162772 0.0377,0.224956 0.0159,0.455152 -0.0485,0.511548 -0.0643,0.0564 -0.22163,-0.01688 -0.34951,-0.162772 -0.12788,-0.145923 -0.10608,-0.376116 0.0484,-0.511548 z m 10.99235,13.351489 c 0.0701,-0.06143 0.82048,-0.03303 1.66753,0.06311 2.00122,0.227131 1.43922,-0.568571 -0.8888,-1.258412 -0.89177,-0.26425 -1.69408,-0.665128 -1.78291,-0.890844 -0.0888,-0.225711 0.44835,-0.153281 1.19373,0.160957 0.74538,0.31424 1.43305,0.503145 1.52817,0.419788 0.0951,-0.08336 -0.44272,-1.435217 -1.19518,-3.00414 -1.2961,-2.702447 -2.06635,-5.288222 -1.56542,-5.255226 0.12609,0.0083 0.50269,0.930455 0.8369,2.049222 0.52657,1.762733 3.43775,6.912636 5.82194,10.299086 0.47463,0.674148 0.25966,0.524745 -0.63972,-0.444603 -0.8859,-0.954829 -1.51994,-1.398955 -1.83259,-1.283687 -0.46216,0.170386 -3.40149,-0.629274 -3.14365,-0.855247 z M -135.7597,13.164544 c 0.79587,0.22665 1.33455,0.841304 0.8138,0.928579 -0.22495,0.0377 -0.63643,-0.194638 -0.91438,-0.516302 -0.41087,-0.47547 -0.39206,-0.552572 0.10058,-0.412277 z m 9.03536,12.268825 c 1.28834,0.14265 6.12494,1.73609 6.10677,2.012029 -0.0268,0.406302 -1.90577,0.02944 -4.30087,-0.862618 -2.25914,-0.841412 -2.94024,-1.274924 -1.8059,-1.149411 z m -8.69638,-10.020184 c 0.89033,0.183724 1.09178,0.545854 0.37086,0.666673 -0.23992,0.04021 -0.60935,-0.132106 -0.82096,-0.38292 -0.33781,-0.400376 -0.28287,-0.435007 0.4501,-0.283753 z m 3.26692,5.145564 c -1.23878,-2.638745 -2.29104,-7.145647 -2.1013,-9.000011 l 0.15226,-1.488054 0.24423,1.896843 c 0.41367,3.212854 1.42706,6.583048 2.87972,9.576924 1.01335,2.088492 1.16929,2.613142 0.57558,1.936483 -0.44779,-0.510542 -1.23561,-1.825437 -1.75048,-2.922185 z m -4.24778,-3.508981 c 0.68501,0.08346 2.54339,1.015479 2.35465,1.180891 -0.24829,0.217601 -1.86576,-0.423503 -2.29012,-0.907711 -0.14318,-0.163373 -0.17221,-0.286301 -0.0645,-0.27318 z m -0.0496,1.882479 c 0.27544,-0.238927 3.30929,1.298016 3.28516,1.664266 -0.0107,0.16256 -0.75557,-0.0566 -1.65526,-0.486998 -1.83224,-0.87654 -1.91097,-0.93341 -1.6299,-1.177268 z M -146.97661,6.9581805 c 0.24448,0.124352 0.43561,0.36144 0.42471,0.526856 -0.0109,0.165422 -0.21092,0.06368 -0.4445,-0.226097 -0.25815,-0.320229 -0.25037,-0.43819 0.0198,-0.300766 z m 10.71255,13.8395665 c 0.45174,0.02975 3.62295,1.829874 3.46598,1.967442 -0.18559,0.162652 -3.07035,-1.186297 -3.4611,-1.618457 -0.18437,-0.203911 -0.18657,-0.360952 -0.005,-0.348985 z m 2.20449,2.568549 c 0.65479,0.309684 1.25458,0.733922 1.33287,0.942758 0.17309,0.46169 -1.60813,-0.411203 -2.142,-1.049695 -0.20976,-0.250865 0.15435,-0.202742 0.80913,0.106926 z m -9.36075,-9.674056 c 0.24449,0.124351 0.4356,0.361439 0.42472,0.526851 -0.0109,0.165423 -0.21093,0.06368 -0.44452,-0.226094 -0.25814,-0.32023 -0.25036,-0.43819 0.0198,-0.30077 z m 2.0843,1.768454 c -0.37958,-1.221346 -0.81337,-2.952052 -0.96398,-3.846018 -0.31077,-1.8446125 -0.14723,-7.5999135 0.22523,-7.9263365 0.13497,-0.118288 0.20394,1.449138 0.15325,3.483164 -0.0675,2.707851 0.18039,4.7204005 0.92554,7.5151175 1.07211,4.020968 0.83607,4.558302 -0.34003,0.774065 z m -4.26145,-3.450098 c -0.41351,-0.757283 -0.65238,-1.370328 -0.5308,-1.362319 0.25712,0.01693 2.08269,3.210801 1.91783,3.35528 -0.15113,0.13245 -0.50054,-0.369613 -1.38703,-1.992961 z m 2.40616,3.914312 -0.61834,-1.099881 1.00939,1.081296 c 0.55516,0.594718 0.95467,1.259713 0.88779,1.477778 -0.13382,0.436311 -0.3552,0.183703 -1.27884,-1.459193 z m -1.136,2.402848 c -0.4531,-0.763887 -1.4756,-2.356705 -2.27224,-3.539596 -1.54853,-2.299338 -1.74286,-3.073667 -2.19157,-8.7317565 -0.31975,-4.031811 -0.97374,-6.98897898 -2.05039,-9.271159 -1.12821,-2.391447 -1.49262,-4.8213377 -1.33445,-8.8980355 0.11234,-2.89602 0.22881,-3.331347 0.99666,-3.724976 0.47818,-0.245147 0.9757,-0.324469 1.10559,-0.176276 0.12985,0.148196 0.25561,1.880995 0.27942,3.850669 0.0512,4.2422078 0.63299,6.8248055 1.85016,8.2136015 0.75668,0.863401 1.07944,0.975029 2.18752,0.756525 2.35387,-0.464169 6.5931,-0.323651 10.63456,0.352513 8.7941,1.471292 15.07133,2.88574402 15.62858,3.52158502 0.18172,0.207345 1.35232,0.69106998 2.60133,1.07494498 1.24901,0.383871 3.21996,1.23506 4.37989,1.891529 1.15993,0.656466 4.58443,2.071199 7.61002,3.14385 6.886345,2.441396 9.383207,3.4497335 10.056966,4.0614245 0.756007,0.686359 4.401801,1.828673 6.855206,2.147896 1.151599,0.149849 3.421864,0.703135 5.045022,1.229548 4.475866,1.451565 6.928786,1.915599 7.978113,1.509262 0.522359,-0.202276 1.18032,-0.459216 1.462135,-0.570973 1.056236,-0.418881 0.180063,0.899662 -2.205323,3.318748 -1.307229,1.3257 -2.420567,2.65884 -2.474079,2.962532 -0.111879,0.634904 -1.642533,1.629476 -4.112924,2.672453 -0.941589,0.397531 -1.794597,0.851069 -1.895581,1.007853 -0.544824,0.845921 -5.234974,2.934557 -6.031312,2.685883 -0.284049,-0.0887 -0.749305,0.04279 -1.033896,0.292206 -0.284589,0.249415 -0.622062,0.334087 -0.749946,0.188169 -0.37547,-0.428424 0.409131,-0.90606 2.629607,-1.600808 1.261835,-0.394804 2.499042,-1.043866 3.142234,-1.648474 0.583504,-0.548486 1.789938,-1.249277 2.68098,-1.557292 1.249543,-0.431943 2.467322,-1.276496 5.324555,-3.692663 2.037463,-1.722948 3.632086,-3.215237 3.543628,-3.316171 -0.08847,-0.100946 -0.511853,-0.126396 -0.940848,-0.05656 -1.296151,0.211 -5.979935,-0.867079 -7.451651,-1.715158 -0.758976,-0.437373 -2.685314,-0.971148 -4.28076,-1.186183 -3.738181,-0.503833 -8.473368,-1.851448 -8.704043,-2.47714 -0.151233,-0.410202 -12.384753,-5.0856335 -14.951563,-5.7142175 -0.45466,-0.111341 -1.09374,-0.501898 -1.42018,-0.867901 -0.79688,-0.893501 -3.02108,-1.86746 -6.08685,-2.665395 -1.39077,-0.361977 -2.52053,-0.781375 -2.51061,-0.93200098 0.0248,-0.376018 -2.96185,-1.100643 -7.16631,-1.738723 -1.93221,-0.29324302 -3.83269,-0.69529502 -4.22329,-0.89345802 -1.18645,-0.60194 -11.47872,-1.201213 -13.16827,-0.766731 -1.01598,0.261271 -1.84896,0.221705 -2.32929,-0.110632 -1.35406,-0.936874 -2.49946,-4.8082125 -2.59291,-8.7637865 -0.07,-2.963738 -0.36547,-2.63635 -0.4462,0.494406 -0.0785,3.0429173 0.7774,6.8428765 1.96787,8.7372375 0.55139,0.877419 0.85868,2.50391602 1.10037,5.824489 0.22225,3.052941 0.52036,4.718975 0.88371,4.938688 0.3016,0.182362 0.5987,0.661115 0.66022,1.063904 0.0994,0.6508125 0.0677,0.6535875 -0.28525,0.02491 -0.21839,-0.389094 -0.44318,-0.667044 -0.49951,-0.617666 -0.22802,0.199834 0.71644,3.2340535 1.06971,3.4365835 0.20916,0.119912 0.6128,0.964134 0.89702,1.876042 0.38235,1.226814 1.05415,2.284981 2.58316,4.068767 2.55257,2.97791 4.2076,4.34471 7.027,5.803215 5.82461,3.013136 15.50471,6.233152 15.57404,5.180592 0.0275,-0.416891 -0.3032,-0.596593 -1.28337,-0.697484 -1.95392,-0.201107 -4.91137,-1.298443 -5.25655,-1.950381 -0.2328,-0.43969 -0.072,-0.449824 0.70482,-0.04442 1.66796,0.870447 3.18645,1.349973 4.76069,1.503381 0.82112,0.08003 1.55752,0.27899 1.63646,0.442164 0.28591,0.59101 1.79244,1.235183 4.09568,1.751263 4.93809,1.106451 8.30341,1.27553 8.15834,0.409888 -0.0618,-0.368544 0.26997,-0.511003 1.24756,-0.535745 0.73243,-0.01855 3.07093,-0.216902 5.19666,-0.440817 2.125733,-0.223916 4.158125,-0.390895 4.516429,-0.371064 0.799055,0.04422 0.829328,0.01857 1.121629,-0.950627 0.185891,-0.616337 0.364186,-0.772594 0.845389,-0.740897 0.481203,0.03169 0.48019,0.153773 -0.0048,0.578824 -0.484003,0.424177 -0.486304,0.625573 -0.01082,0.94766 0.332089,0.224954 0.480851,0.516755 0.330592,0.648439 -0.409408,0.358806 -6.187559,1.329989 -8.395259,1.411062 -1.29653,0.04762 -2.05025,0.267123 -2.29243,0.667642 -0.48662,0.80477 -7.2578,0.56778 -10.5282,-0.36848 -1.32926,-0.380553 -2.60662,-0.527421 -2.83859,-0.326387 -0.80525,0.697875 -7.06439,-1.099662 -10.22459,-2.936357 -0.36271,-0.210809 -0.69953,-0.151246 -0.85921,0.151937 -0.14446,0.274267 -0.29632,0.460245 -0.33748,0.413285 -0.0412,-0.04696 -1.09699,-0.645385 -2.34631,-1.329836 -1.24932,-0.684451 -3.50282,-2.054995 -5.00778,-3.045656 -1.50496,-0.990661 -3.0058,-1.743919 -3.33521,-1.67391 -0.67099,0.142608 -2.78265,-2.153391 -4.23969,-4.609788 z"
       inkscape:connector-curvature="0" />
  </g>
</svg>
