<?xml version="1.0" encoding="UTF-8" standalone="no"?>
<!-- Created with Inkscape (http://www.inkscape.org/) -->

<svg
   xmlns:dc="http://purl.org/dc/elements/1.1/"
   xmlns:cc="http://creativecommons.org/ns#"
   xmlns:rdf="http://www.w3.org/1999/02/22-rdf-syntax-ns#"
   xmlns:svg="http://www.w3.org/2000/svg"
   xmlns="http://www.w3.org/2000/svg"
   xmlns:sodipodi="http://sodipodi.sourceforge.net/DTD/sodipodi-0.dtd"
   xmlns:inkscape="http://www.inkscape.org/namespaces/inkscape"
   version="1.1"
   id="svg392"
   width="320.40201"
   height="171.22652"
   viewBox="0 0 320.40201 171.22652"
   sodipodi:docname="leaf3.svg"
   inkscape:version="0.92.5 (2060ec1f9f, 2020-04-08)">
  <metadata
     id="metadata398">
    <rdf:RDF>
      <cc:Work
         rdf:about="">
        <dc:format>image/svg+xml</dc:format>
        <dc:type
           rdf:resource="http://purl.org/dc/dcmitype/StillImage" />
        <dc:title></dc:title>
      </cc:Work>
    </rdf:RDF>
  </metadata>
  <defs
     id="defs396" />
  <sodipodi:namedview
     pagecolor="#ffffff"
     bordercolor="#666666"
     borderopacity="1"
     objecttolerance="10"
     gridtolerance="10"
     guidetolerance="10"
     inkscape:pageopacity="0"
     inkscape:pageshadow="2"
     inkscape:window-width="1920"
     inkscape:window-height="1019"
     id="namedview394"
     showgrid="false"
     fit-margin-top="0"
     fit-margin-left="0"
     fit-margin-right="0"
     fit-margin-bottom="0"
     inkscape:zoom="0.28991378"
     inkscape:cx="-854.7855"
     inkscape:cy="937.77242"
     inkscape:window-x="0"
     inkscape:window-y="30"
     inkscape:window-maximized="1"
     inkscape:current-layer="svg392" />
  <path
     id="path402"
     style="fill:#000000;stroke-width:1.33333337"
     d="m 306.40263,49.144909 c 2.64723,-3.07714 4.46689,-3.76367 3.73973,-1.41099 -0.33496,1.08377 -1.69852,2.29222 -3.03017,2.68551 -2.33522,0.68967 -2.36038,0.64441 -0.70956,-1.27452 z m -29.87378,-21.37518 c 7.2118,0.64571 7.13961,0.62734 5.61432,1.43238 -0.72045,0.38025 -3.5246,0.10196 -6.23136,-0.61849 l -4.92148,-1.30982 z m 9.65977,28.06161 c 1.40353,-0.66842 1.83038,-0.53649 1.08839,0.3364 -0.6714,0.78987 -1.71059,1.28483 -2.30917,1.09983 -0.59869,-0.18499 -0.0493,-0.83129 1.2208,-1.4362 z m 0.39461,13.48284 c 0.99903,-0.65996 3.44871,-2.4459 5.44359,-3.96858 2.9694,-2.26609 3.37554,-2.32723 2.24038,-0.33556 -0.76277,1.33821 -3.21238,3.12407 -5.44367,3.96865 -2.23128,0.84457 -3.2394,0.99553 -2.2403,0.33549 z m 0.0735,-6.31068 c 3.82564,-2.01916 7.86876,-5.17914 9.34956,-7.30731 1.43505,-2.06238 3.06363,-3.6093 3.61907,-3.43758 0.55552,0.17164 -0.40185,2.02491 -2.12747,4.11834 -3.40072,4.12566 -14.32387,11.19113 -16.33866,10.5684 -0.68365,-0.21133 1.79016,-1.98512 5.4975,-3.94185 z m -9.46861,1.30838 c 1.49367,-1.34088 3.55699,-2.16544 4.60666,-1.84101 1.33397,0.41232 0.59953,1.27467 -2.46163,2.89034 -5.1354,2.71047 -5.91073,2.33113 -2.14503,-1.04933 z m -25.0434,-41.86835 c 1.82698,-0.95161 4.38925,-1.63588 5.69387,-1.52065 1.76816,0.15618 1.26639,0.79895 -1.97068,2.5247 -2.38875,1.27285 -4.95076,1.95762 -5.69388,1.52063 -0.77981,-0.45847 0.0538,-1.52619 1.97069,-2.52468 z m 18.28346,40.18542 c 1.15899,-0.55346 3.40919,-1.11033 5.00049,-1.23755 2.32092,-0.18558 2.02718,0.24672 -1.4849,2.18538 -2.40802,1.32932 -4.65824,1.88616 -5.00056,1.23762 -0.34231,-0.64852 0.32596,-1.63202 1.48497,-2.18545 z m -8.61608,-1.56593 c 1.24802,-0.64661 3.34981,-1.05628 4.67014,-0.91145 1.75305,0.19239 1.33379,0.55352 -1.55472,1.33924 -4.84758,1.31853 -6.14494,1.14034 -3.11542,-0.42779 z m 14.35475,30.29197 c 5.72289,-2.91607 5.8089,-2.91222 2.34613,0.10412 -1.99391,1.73685 -4.63923,3.08473 -5.94063,3.0269 -1.57989,-0.0701 -0.40594,-1.0927 3.59447,-3.13106 z m -52.13243,-78.20569 c 3.41722,-1.82745 24.05335,-1.12015 23.45866,0.80398 -0.14175,0.45856 -2.42501,0.54339 -5.07402,0.18863 -2.649,-0.35477 -8.34526,-0.4687 -12.65849,-0.25304 -4.31317,0.21558 -6.8899,-0.11725 -5.72615,-0.73956 z m 22.50106,47.3435 c 0.73266,0.0531 6.52215,2.33728 12.86547,5.07588 11.47317,4.9533 27.88191,9.16556 30.44155,7.81459 0.73784,-0.38944 1.79382,0.14891 2.34664,1.19632 0.90525,1.71526 0.57498,1.86974 -3.32508,1.55544 -10.20598,-0.82237 -15.91535,-2.34205 -26.87564,-7.1538 -11.40889,-5.00868 -18.09212,-8.67983 -15.45294,-8.48843 z m -32.31675,-42.17747 c 2.05174,-1.08291 12.34882,-0.94574 15.12033,0.20141 3.74956,1.55195 1.61128,2.02058 -4.52768,0.99226 -2.9814,-0.49947 -6.26799,-0.46092 -7.30349,0.0856 -1.03543,0.54648 -2.49061,0.63607 -3.23374,0.19907 -0.74313,-0.437 -0.76824,-1.10215 -0.0553,-1.47844 z m -2.21164,4.1826 c 1.96574,-1.0375 10.04084,-0.82968 10.62301,0.27342 0.29056,0.55053 -2.14841,1.07105 -5.42007,1.15679 -6.01499,0.15755 -7.45905,-0.23939 -5.20293,-1.43019 z m 39.93652,78.664671 c 1.62143,-0.8558 2.42593,-0.9382 1.78793,-0.18319 -0.63803,0.75499 -1.96455,1.45516 -2.94797,1.55594 -0.98331,0.10076 -0.46168,-0.51668 1.16006,-1.37273 z M 220.97298,46.530169 c 1.40354,-0.66842 1.83042,-0.53645 1.08841,0.33642 -0.67149,0.78992 -1.7106,1.28483 -2.30918,1.09982 -0.59862,-0.18505 -0.0493,-0.8313 1.22071,-1.43615 z m 20.21123,41.38818 c 10.23815,-3.12398 16.70781,-5.62299 17.80538,-6.87757 0.66323,-0.75807 1.55194,-0.72242 1.97497,0.079 0.93653,1.77447 -8.24442,5.42293 -17.52846,6.96569 -3.3811,0.56186 -4.39443,0.48667 -2.25189,-0.16706 z m -1.16196,4.93963 c 1.7693,-0.57541 7.51883,-2.53617 12.77679,-4.35719 11.69098,-4.04902 14.12254,-3.80169 3.98293,0.40509 -6.66961,2.76715 -6.9335,2.99001 -2.60705,2.20165 2.64758,-0.48242 5.60593,-0.40418 6.57423,0.17392 1.14724,0.68506 4.75997,-0.42921 10.37266,-3.19913 l 8.6123,-4.25026 -7.87893,4.68996 c -5.69177,3.38804 -8.66189,4.50071 -10.69949,4.00836 -1.55122,-0.37493 -5.26773,0.1379 -8.25887,1.1396 -5.1892,1.73775 -9.56179,1.37289 -6.40976,-0.53491 0.82258,-0.49791 -1.01926,-0.5285 -4.09299,-0.0681 -3.07381,0.46049 -4.14111,0.36641 -2.37182,-0.20901 z m -36.85891,-65.69234 c 1.29184,-0.68183 9.77817,-0.39956 9.5564,0.31789 -0.34977,1.13175 -9.16748,1.98899 -9.71859,0.9448 -0.26741,-0.50625 -0.19431,-1.07453 0.16219,-1.26269 z m -2.60984,5.90043 c 2.12997,-1.12417 8.75503,-1.25672 9.31995,-0.1864 0.2798,0.5307 -1.27735,1.11474 -3.46079,1.29822 -4.89326,0.41126 -7.72633,-0.12633 -5.85916,-1.11182 z m -2.09244,-10.80935 c 3.67107,-3.94275 15.42357,-10.34218 16.22049,-8.83234 0.31423,0.59531 -2.90334,3.1758 -7.15004,5.73437 -4.24678,2.55862 -8.42408,5.57007 -9.28293,6.69219 -0.93111,1.21646 -1.81523,1.55977 -2.18969,0.85025 -0.34539,-0.65453 0.73558,-2.65452 2.40217,-4.44447 z m 29.76068,63.23985 c 2.01599,-0.50084 4.49754,-0.61955 5.51449,-0.26365 1.2919,0.45195 1.07685,0.76045 -0.71371,1.02383 -1.40951,0.20729 -3.58059,0.9141 -4.82463,1.57069 -1.24402,0.65661 -2.57235,0.6057 -2.9517,-0.11319 -0.44014,-0.8338 0.63708,-1.63666 2.97556,-2.21768 z m -6.17936,-3.89691 c 1.48755,-0.34807 3.3427,-0.25774 4.12242,0.20078 0.89139,0.52425 0.49876,0.94376 -1.05796,1.13022 -1.36157,0.16313 -2.96276,0.55372 -3.55828,0.86802 -0.59551,0.31432 -1.33662,0.0906 -1.64689,-0.49727 -0.31017,-0.58788 0.65309,-1.3536 2.14072,-1.70173 z m -5.47015,-4.65112 c 2.8899,-0.67622 5.85046,0.35813 3.92849,1.37255 -2.01103,1.0614 -5.61961,1.18079 -6.13573,0.20296 -0.27319,-0.51876 0.7196,-1.2274 2.20726,-1.57549 z M 177.41199,6.0811486 c 0.55166,-0.29117 7.00305,-0.60068 14.33655,-0.6879 15.18848,-0.18069 12.43961,0.98002 -3.96421,1.67388 -10.33612,0.43715 -12.6517,0.21706 -10.37234,-0.98598 z m 0.0824,6.0846904 c 1.76365,-1.04846 22.68377,-1.57493 22.37097,-0.56293 -0.1208,0.39095 -5.53294,0.87329 -12.0269,1.0718 -6.49394,0.19853 -11.14882,-0.0304 -10.34407,-0.50887 z m -7.27043,0.74753 c 0.52996,-0.26702 2.03096,-0.39119 3.33558,-0.27595 2.04421,0.18056 2.09784,0.35742 0.38761,1.27999 -1.0914,0.58869 -2.59237,0.71288 -3.33559,0.27594 -0.74312,-0.43699 -0.91748,-1.01303 -0.3876,-1.27998 z m 18.42809,41.51078 c 0.9729,-0.51352 2.37679,-0.57602 3.11991,-0.13902 0.74313,0.43699 0.55517,1.21464 -0.41758,1.72802 -0.97282,0.51346 -2.37678,0.57604 -3.1199,0.13904 -0.74312,-0.43698 -0.55516,-1.21464 0.41757,-1.72804 z m -2.34058,-4.79136 c 5.93782,-0.72992 12.82878,-0.56272 12.56066,0.30486 -0.26949,0.87172 -15.40169,1.47314 -15.8468,0.62987 -0.14429,-0.27438 1.33397,-0.69504 3.28608,-0.93464 z m -18.11756,-32.01291 c 4.76099,-1.62956 14.86396,-2.72162 14.50748,-1.56819 -0.13439,0.43476 -4.37205,1.27983 -9.41702,1.87794 -5.41,0.64139 -7.49814,0.51434 -5.09046,-0.30975 z m -10e-4,3.50308 c 1.76309,-0.53907 4.15243,-0.58838 5.30951,-0.10944 1.72268,0.71301 1.22004,1.03882 -2.77408,1.79808 -5.53272,1.05174 -7.40954,-0.19816 -2.53543,-1.68864 z m 42.38989,88.796821 c 2.76235,-1.05053 6.59091,-2.73046 8.50781,-3.73307 2.36455,-1.23782 3.30318,-1.23336 2.91854,0.0112 -0.38463,1.24455 -3.11965,2.44463 -8.50789,3.73313 -5.63887,1.34842 -6.48493,1.34517 -2.91846,-0.0112 z M 186.39363,67.736959 c 24.338,19.0118 43.39433,28.98181 59.76205,31.26688 0.37298,0.0521 0.54351,0.53037 0.37889,1.062921 -0.78168,2.52917 -9.08234,0.96437 -17.83312,-3.361821 -18.56874,-9.18001 -43.18477,-25.60149 -48.25151,-32.18888 -1.80536,-2.34528 0.22543,-1.246 5.94369,3.2209 z m -23.02057,-39.16958 c 5.05363,-2.66728 5.17114,-2.02994 0.33722,1.82925 -1.98083,1.5814 -3.7054,2.26306 -4.05406,1.60245 -0.33371,-0.63234 1.33882,-2.17658 3.71684,-3.4317 z m -8.13915,-4.23296 c 2.44995,-5.09099 7.0496,-11.77614 8.70268,-12.64864 2.71614,-1.43357 2.03884,1.44407 -1.17017,4.97136 -1.87148,2.05707 -4.38031,6.30158 -5.57522,9.43225 -1.39712,3.66016 -2.48725,5.09638 -3.05369,4.02309 -0.48453,-0.91806 0.009,-3.51816 1.0964,-5.77806 z m 41.19835,93.053761 c 1.5645,-0.17808 8.71649,-2.05238 15.89349,-4.16516 13.26782,-3.90583 14.65644,-4.17273 14.21099,-2.73143 -0.42179,1.36455 -28.98626,8.64348 -31.03374,7.90817 -1.394,-0.50071 -1.14118,-0.77594 0.92926,-1.01158 z M 136.06501,13.010179 c 0.96225,-0.53355 3.72611,-1.08138 6.14195,-1.21738 5.65457,-0.31833 3.55256,0.83022 -2.92545,1.59842 -2.73133,0.32396 -4.17869,0.15242 -3.21652,-0.38107 z m 47.63588,94.538701 c 10.50855,-3.52671 18.21054,-5.37046 16.98965,-4.06709 -1.66324,1.77557 -16.85743,6.43219 -19.80556,6.06995 -1.60716,-0.1975 -0.75282,-0.80518 2.81591,-2.00286 z M 131.38756,13.907599 c 1.40354,-0.66841 1.83042,-0.53645 1.08842,0.33643 -0.67141,0.78986 -1.71052,1.28477 -2.30923,1.09976 -0.59861,-0.18504 -0.0492,-0.83135 1.22081,-1.43619 z m 48.83309,98.473371 c 1.56562,-0.1758 7.9968,-1.48787 14.29146,-2.91564 6.29467,-1.42776 10.623,-2.10926 9.61845,-1.51447 -3.13881,1.85856 -22.80372,6.16818 -24.8292,5.44139 -1.40964,-0.50586 -1.16274,-0.77746 0.91929,-1.01128 z m -6.99118,-3.07961 c 0.61023,-0.32207 1.71067,-0.23223 2.44521,0.1998 0.76594,0.45037 0.39696,0.89785 -0.86498,1.04907 -2.45657,0.2943 -3.27637,-0.35365 -1.58023,-1.24887 z m 0.40391,-3.68811 c 2.15515,-0.62983 6.40306,-1.57938 9.43978,-2.11013 l 5.52134,-0.96503 -5.0758,1.80919 c -2.79161,0.99499 -7.03951,1.94455 -9.43979,2.11013 l -4.3641,0.3011 z m 9.51917,32.1253 c 0.81054,-0.92647 2.39212,-1.40067 3.51447,-1.05378 1.52,0.46978 1.22832,1.05954 -1.14298,2.3111 -3.54778,1.87253 -4.61473,1.30682 -2.37148,-1.25731 z M 118.99591,18.517689 c 0.98625,-0.88088 3.32085,-1.9206 5.18809,-2.31058 2.76622,-0.57768 2.4784,-0.19742 -1.55454,2.05361 -5.16603,2.88347 -6.69536,2.99165 -3.63355,0.25697 z m 1.81829,4.15914 c 3.65608,-1.93306 18.2749,-5.84017 15.19458,-4.0612 -0.9533,0.55052 -5.55771,2.1101 -10.23204,3.46576 -4.67432,1.35565 -6.90747,1.62361 -4.96254,0.59544 z m 22.77017,33.14406 c 5.5094,-2.91576 11.30303,-5.43565 12.87409,-5.60105 2.65721,-0.2798 -18.42432,10.19284 -21.50048,10.68072 -0.76514,0.12138 3.11678,-2.16451 8.62639,-5.07967 z m 12.00783,46.316941 c 0.51179,-0.20862 3.59889,-0.4655 6.86015,-0.57077 3.26126,-0.10527 4.70218,0.0541 3.20214,0.35402 -1.50014,0.3 -4.34211,1.02112 -6.31554,1.6025 -1.9735,0.58145 -3.83322,0.59283 -4.13271,0.0253 -0.29949,-0.56748 -0.12584,-1.20248 0.38596,-1.41109 z M 117.87408,29.124269 c 0.66852,-0.76416 3.57501,-2.00585 6.45879,-2.75923 l 5.24327,-1.3698 -6.12817,3.38588 c -5.96011,3.29303 -8.04822,3.57142 -5.57389,0.74315 z m 32.19119,68.28058 c 0.55713,-0.29406 1.76328,-0.33416 2.68029,-0.0891 0.91708,0.24499 4.03466,0.0241 6.92791,-0.49102 2.89326,-0.51505 5.16089,-0.61425 5.03915,-0.2204 -0.33283,1.07684 -13.02627,2.88411 -14.43557,2.0553 -0.67358,-0.39607 -0.76855,-0.96095 -0.21175,-1.25477 z m -34.31722,-62.18886 c 0.35614,-0.50362 2.43638,-1.38261 4.6227,-1.9534 3.90842,-1.02038 3.90211,-0.9962 -0.37303,1.43558 -4.12873,2.3485 -5.67779,2.53725 -4.24967,0.51782 z m 56.70966,103.161101 c 2.42703,-1.29309 4.51976,-2.14849 4.65096,-1.89979 0.53934,1.02187 -5.07838,4.56917 -6.99426,4.41652 -1.31888,-0.10507 -0.46923,-1.01759 2.3433,-2.51673 z M 146.6237,93.715079 c 12.57516,-2.09473 17.05944,-2.59955 17.4139,-1.96049 0.61288,1.10491 -8.72442,3.41117 -14.32032,3.53703 -5.15044,0.11583 -7.1466,-0.90142 -3.09358,-1.57654 z m -8.60393,-9.91684 c 1.79542,-0.54897 3.79989,-0.68336 4.45428,-0.29856 1.3849,0.81435 0.44194,1.40655 -3.76351,2.36374 -4.14936,0.94444 -4.74178,-0.82643 -0.69078,-2.06519 z m -5.02022,-4.47041 c 0.49858,-0.23381 2.66253,-0.31139 4.80881,-0.17248 2.14637,0.13884 2.77106,0.46354 1.38831,0.72148 -1.38285,0.25798 -3.26676,0.86623 -4.1865,1.35165 -0.91973,0.48543 -1.95239,0.35203 -2.2947,-0.29651 -0.34232,-0.64853 -0.21444,-1.37042 0.28408,-1.60414 z m -18.99863,-35.75812 c 0.55651,-1.8007 6.96825,-4.88855 7.61328,-3.66651 0.30802,0.58375 -1.29707,2.04151 -3.56702,3.23958 -4.36358,2.30308 -4.63498,2.3317 -4.04626,0.42693 z m 17.58866,31.98461 c 5.11423,-1.07048 7.97318,-0.39957 3.20792,0.75281 -1.83843,0.44463 -4.00961,1.15115 -4.825,1.5702 -0.81565,0.4184 -1.74293,0.26824 -2.06134,-0.33503 -0.3529,-0.66864 1.08323,-1.44476 3.67839,-1.98802 z m -8.12213,-8.33563 c 0.58286,-1.88594 5.8041,-4.23779 6.49639,-2.92624 0.34223,0.64858 -0.96958,2.01941 -2.91515,3.04625 -3.66357,1.93364 -4.21028,1.91529 -3.58124,-0.11952 z m 14.69405,22.24605 c 3.0941,-0.22564 9.56248,-1.2279 14.37432,-2.22747 9.82053,-2.04 15.16975,-1.59478 6.98846,0.5816 -2.81457,0.74873 -8.81358,1.89952 -13.33126,2.55742 -4.5176,0.65784 -8.32333,1.55041 -8.45715,1.98345 -0.41134,1.33081 13.15484,12.161271 20.27954,16.190121 3.70515,2.09503 10.86906,4.83022 15.92,6.07805 7.85888,1.94158 10.72927,1.87066 19.90091,-0.49161 5.89459,-1.51825 10.6282,-2.47179 10.51923,-2.11904 -0.10906,0.3528 -4.91711,2.17289 -10.68448,4.04461 -12.49283,4.05438 -17.43584,3.55058 -31.76687,-3.23769 -9.19292,-4.35445 -20.41825,-12.74424 -26.82336,-20.047571 l -2.54482,-2.90181 z m 5.57657,24.967511 c 1.40354,-0.66842 1.83039,-0.53649 1.0884,0.3364 -0.6714,0.78987 -1.71052,1.28477 -2.30918,1.09983 -0.59861,-0.18505 -0.0493,-0.83129 1.2208,-1.4362 z M 107.64943,44.841129 c 0.27854,-7.93604 4.48566,-18.54269 7.27957,-18.35256 0.79804,0.0544 0.59016,1.66056 -0.46205,3.5694 -2.72561,4.94462 -4.46699,11.47219 -4.86027,18.21812 -0.18706,3.20825 -0.56204,5.95035 -0.83343,6.09359 -1.09812,0.57957 -1.39136,-1.90577 -1.12382,-9.52855 z m 32.08533,79.974021 c 1.39661,-0.17099 2.39902,0.14301 2.22763,0.69765 -0.17147,0.55469 -1.31417,0.69459 -2.53933,0.31085 -1.77055,-0.5545 -1.70666,-0.76137 0.3117,-1.0085 z m -2.54098,-8.26161 c 1.95836,-1.00287 2.751,-1.08335 1.76147,-0.17877 -0.98946,0.90449 -2.59175,1.72505 -3.5606,1.82331 -0.96882,0.0983 -0.15915,-0.64175 1.7991,-1.64458 z m 2.63956,3.4168 c 6.49208,-1.75356 11.99126,-2.83304 12.22044,-2.39886 0.78342,1.48442 -20.98261,7.37566 -22.95817,6.21393 -0.58628,-0.34477 4.24565,-2.06151 10.73773,-3.81507 z m -19.29917,0.58211 c 0.29681,-0.14456 3.34939,-0.72371 6.78309,-1.28789 l 6.24308,-1.0258 -4.91622,1.86499 c -2.70391,1.02573 -5.7563,1.60529 -6.78308,1.28791 -1.02688,-0.31733 -1.62395,-0.69499 -1.32687,-0.83921 z m -13.13237,-8.14507 c 1.74022,-0.93059 3.77157,-1.33526 4.51477,-0.89833 1.72523,1.01455 -2.18175,3.07665 -5.30626,2.80065 -1.85534,-0.16386 -1.68297,-0.57824 0.79149,-1.90232 z M 76.330823,60.373439 c 1.09292,-1.85856 13.84586,-10.348 13.48654,-8.9778 -0.35804,1.36529 -12.53702,10.75806 -13.54526,10.44651 -0.37462,-0.1158 -0.34826,-0.77669 0.0587,-1.4687 z m 24.265537,48.254941 c 0.96045,-0.53688 3.72287,-1.08742 6.13871,-1.22341 2.41586,-0.13598 3.60664,0.19193 2.64619,0.72881 -0.96045,0.53689 -3.72288,1.08741 -6.13872,1.22341 -2.41585,0.13598 -3.606637,-0.19193 -2.64618,-0.72881 z M 73.215353,55.333409 c 2.11612,-6.36864 11.3179,-15.65042 21.15678,-21.34067 4.76468,-2.75563 7.195937,-3.93353 5.40288,-2.6176 -13.55989,9.95149 -17.74327,13.51368 -20.80349,17.71429 -2.25999,3.10224 -2.56625,4.0375 -0.8659,2.64409 1.44713,-1.1859 5.41567,-3.95027 8.81901,-6.143 5.47848,-3.52972 5.07774,-2.97939 -3.4965,4.80128 -5.32646,4.83346 -10.11888,8.87241 -10.64984,8.97544 -0.53097,0.10302 -0.33431,-1.71215 0.43706,-4.03383 z m 24.42,49.239141 c 5.446727,-1.33136 10.892377,-1.78814 10.614877,-0.89035 -0.31121,1.007 -13.111877,3.17456 -13.574227,2.29852 -0.17584,-0.33377 1.15556,-0.96729 2.95935,-1.40817 z m 0.7016,-22.699281 c 15.635947,-9.4592 20.834217,-11.21638 6.981097,-2.35983 -4.85107,3.10137 -10.315467,6.6622 -12.142947,7.91284 -1.82758,1.25069 -4.58462,2.43184 -6.12752,2.62369 -1.66964,0.20817 2.89891,-3.10075 11.28937,-8.1767 z m -10.41673,16.67091 c 1.95999,-1.03448 2.39905,-0.82747 2.02461,0.95469 -0.26295,1.251591 0.0553,2.440501 0.70736,2.641961 0.65189,0.20156 0.30104,0.83314 -0.77994,1.40368 -1.17919,0.62238 -2.46315,0.0939 -3.20996,-1.3211 -0.85382,-1.61752 -0.45866,-2.773221 1.25793,-3.679231 z m -3.3627,-4.25577 c 0.97283,-0.51344 2.37679,-0.57601 3.11993,-0.139 0.74313,0.437 0.55516,1.21465 -0.41766,1.7281 -0.97282,0.51346 -2.37678,0.57602 -3.11984,0.13894 -0.74311,-0.43697 -0.55515,-1.21462 0.41758,-1.72803 z m -2.12767,10.168901 c 0.23438,-0.12365 4.45231,2.22956 9.37327,5.22944 14.338287,8.74076 20.130367,9.2827 38.384977,3.59151 6.53269,-2.03667 7.48347,-2.09404 4.25035,-0.25659 -2.29056,1.30201 -6.97859,2.91801 -10.41771,3.5912 -3.43913,0.67318 -7.36737,2.11139 -8.72942,3.19601 -4.18201,3.33016 -19.671457,-3.14035 -30.647217,-12.80269 -1.45219,-1.2783 -2.44854,-2.42544 -2.21428,-2.54908 z M 69.880173,71.379529 c 1.9264,-6.23283 4.28438,-9.74862 4.02994,-6.00872 -0.0818,1.20201 2.178,0.24625 7.63056,-3.22716 5.86404,-3.73552 6.88173,-4.14401 4.18737,-1.6808 -1.95758,1.78965 -5.84315,4.86559 -8.63445,6.83528 -4.24718,2.99708 -5.20584,4.55951 -5.87587,9.57673 -0.65071,4.87223 -1.04225,5.53784 -2.08998,3.55287 -0.70902,-1.34347 -0.37048,-5.41512 0.75243,-9.0482 z m 2.26428,46.899281 c 8.19806,-2.91386 8.67673,-2.4189 1.38321,1.43061 -3.50995,1.85254 -6.37235,2.68509 -6.7529,1.96415 -0.43328,-0.82089 1.41403,-1.98879 5.36969,-3.39476 z m -9.82355,-17.18393 c 10.76996,-10.817141 57.539067,-41.446731 74.225247,-48.610931 20.06588,-8.61526 39.85919,-12.23212 75.62697,-13.81935 17.42632,-0.77333 24.0079,-0.2618 42.44799,3.29928 12.00316,2.318 24.61518,4.03995 28.02668,3.8266 3.4115,-0.21336 6.47352,0.12498 6.80433,0.75188 1.31812,2.49727 -10.33061,1.82719 -34.41113,-1.97949 -21.83799,-3.45211 -28.8927,-3.84127 -51.81681,-2.85821 -30.26913,1.29809 -41.04473,3.28248 -60.39489,11.12205 -21.06133,8.53283 -63.142827,34.98769 -76.642007,48.181591 -7.50102,7.33136 -7.83044,7.57257 -8.53058,6.24598 -0.27952,-0.53031 1.81916,-3.30185 4.6642,-6.1594 z m 2.27815,11.28892 c 3.08527,-1.64243 5.02984,-2.08734 4.9651,-1.13599 -0.13495,1.98366 -4.5605,4.31945 -7.66457,4.04532 -1.73439,-0.15317 -1.00863,-0.93532 2.69947,-2.90933 z m -0.19242,4.8029 c 2.88318,-1.60712 6.30957,-2.82783 7.6142,-2.71258 1.80377,0.1593 1.5092,0.62771 -1.22955,1.95513 -1.9809,0.96004 -5.40729,2.18075 -7.6142,2.71257 -3.65948,0.88186 -3.55125,0.70977 1.22955,-1.95512 z m -7.48158,-1.32089 c 1.16982,-0.14015 2.23709,-0.0463 2.37154,0.20865 0.13446,0.25493 -0.55127,0.88347 -1.52409,1.39692 -0.97282,0.51346 -2.04007,0.4196 -2.37162,-0.20859 -0.33154,-0.62818 0.35434,-1.25684 1.52417,-1.39698 z m -2.78205,-21.209331 c 6.57153,-9.3008 7.29728,-10.08264 7.13415,-7.68517 -0.0584,0.85728 -2.12049,4.05536 -4.58261,7.10691 -2.46214,3.05152 -4.69942,6.609121 -4.9719,7.905871 -0.56096,2.66988 -2.28337,3.98339 -3.12684,2.38517 -0.30924,-0.58584 2.18716,-4.956441 5.5475,-9.712391 z m -6.58261,0.85249 c 1.3763,-4.45306 12.9623,-19.45604 14.62739,-18.94138 0.87081,0.26912 -8.59545,12.95705 -10.36307,13.89 -0.47936,0.25302 -1.53598,2.60958 -2.34803,5.23685 -0.81205,2.62726 -1.88168,4.651471 -2.37717,4.498411 -0.49541,-0.15312 -0.28803,-2.260851 0.46088,-4.683881 z m 3.89146,10.681521 c 2.66681,-4.99816 5.57312,-8.702601 6.07764,-7.746701 0.17391,0.32961 -1.02038,2.887081 -2.65408,5.683331 -1.63372,2.79622 -3.40507,5.86719 -3.93637,6.82437 -0.53129,0.9572 -1.18636,1.31413 -1.4556,0.79314 -0.26933,-0.52095 0.61646,-3.0203 1.96843,-5.55412 z M 0.07662299,167.52262 C -1.079637,158.89914 10.868183,143.94109 34.705583,124.16895 c 5.89523,-4.88985 8.61679,-7.95883 8.31942,-9.38142 -0.24304,-1.16283 -0.52728,-4.78295 -0.63162,-8.04471 -0.10424,-3.26182 -0.47708,-6.47142 -0.82825,-7.132531 -0.3521,-0.66067 1.56545,-8.27507 4.25936,-16.91993 4.21397,-13.52274 5.7587,-16.6244 11.06063,-22.20855 4.68754,-4.93705 6.5565,-6.25907 7.80816,-5.52303 1.20031,0.70592 3.88133,-2.04955 9.91011,-10.18537 4.54554,-6.13417 10.77294,-13.21252 13.8385,-15.72956 6.69831,-5.4997 15.484517,-10.30574 17.101827,-9.35466 0.64386,0.37861 8.08461,-2.63135 16.53498,-6.68886 16.62446,-7.9823004 31.25917,-12.06539044 33.47492,-9.3395104 0.8065,0.99247 7.02687,0.64025 16.54317,-0.93657 18.4064,-3.04985004 41.00926,-3.67712004 42.39192,-1.17645 0.56827,1.02779 7.7681,1.97827 17.00898,2.24532 19.51073,0.56406 34.66282,3.92819 33.62925,7.4667104 -0.56798,1.94475 -1.05202,1.96228 -2.75753,0.0997 -2.55344,-2.7884304 -20.85816,-5.7240504 -34.60471,-5.5496704 -5.63684,0.0715 -12.81955,-0.82335 -15.96141,-1.98867 -6.3163,-2.34247 -20.80523,-1.74936 -43.75357,1.79116 -7.90124,1.219 -15.67595,1.6625 -17.27707,0.98552 -5.34233,-2.25885 -22.18795,4.1789204 -53.947597,20.6167104 -8.28377,4.28748 -18.43032,14.54885 -23.59123,23.85835 -4.33018,7.81092 -9.00258,12.26753 -11.5559,11.02214 -1.81687,-0.88612 -2.56178,-0.42688 -5.24379,3.23276 -3.84015,5.23991 -7.07669,11.70941 -6.482,12.95684 0.24324,0.51035 1.90613,-1.11912 3.69524,-3.62099 1.78903,-2.50183 4.67162,-5.71697 6.40568,-7.14466 1.73403,-1.42773 0.36534,1.12076 -3.04151,5.66324 -3.40694,4.54251 -6.46355,9.5639 -6.79245,11.15865 -0.38517,1.86741 -1.10991,2.59855 -2.03598,2.05396 -2.23644,-1.31513 -4.46751,17.057481 -2.86849,23.621331 0.79034,3.24417 0.70771,6.89942 -0.18592,8.22336 -0.88489,1.31085 -8.92287,8.89332 -17.86221,16.8499 -16.14391,14.36912 -23.17929,22.06288 -22.07979,24.14606 0.31552,0.59781 1.10736,0.49129 1.75962,-0.23671 15.11766,-16.8729 23.36941,-24.51031 32.30413,-29.89912 9.26968,-5.59082 10.05469,-5.84758 12.60861,-4.12356 5.34357,3.60691 26.08402,10.98595 33.23681,11.82484 4.00251,0.46939 10.01297,1.46349 13.35667,2.20902 3.343647,0.74562 9.658447,0.74547 14.032837,-2.5e-4 4.37432,-0.74567 8.21793,-0.85463 8.54122,-0.24201 0.32329,0.61261 -0.37807,1.21181 -1.55866,1.33161 -7.40331,0.7512 -7.35458,0.7224 -3.63007,2.14608 5.06736,1.937 12.49495,1.27751 18.44878,-1.63811 l 5.20997,-2.55135 -3.72545,2.9393 c -3.62969,2.86385 -3.63707,2.94145 -0.28925,3.02253 1.88985,0.0458 3.23313,-0.34231 2.98496,-0.8624 -0.24818,-0.52012 0.78821,-0.36751 2.30309,0.33926 2.89737,1.35165 14.84767,-0.82381 20.37017,-3.7081 1.78769,-0.93337 3.56289,-1.10505 3.94503,-0.38086 0.40572,0.76852 -0.65597,1.72969 -2.55043,2.30899 -4.70734,1.43942 -3.147,2.79037 2.92418,2.53179 15.09732,-0.64311 30.86315,-4.84157 31.13669,-8.29169 0.13539,-1.70728 0.37566,-1.75654 1.19213,-0.24434 1.02455,1.89719 8.11591,0.0674 16.1288,-4.16179 1.85507,-0.97909 3.65301,-1.24962 3.99534,-0.60107 0.34223,0.64858 -0.27973,1.65528 -1.38224,2.23718 -1.53747,0.8115 -1.51045,1.21075 0.1159,1.71344 1.62631,0.50263 3.36881,-0.42301 7.47676,-3.97189 5.67902,-4.90593 8.66638,-5.82118 4.8907,-1.49842 -1.9044,2.18031 -1.8814,2.53972 0.14935,2.33417 1.33851,-0.1355 4.29049,-2.63515 6.67325,-5.65088 2.35016,-2.97441 4.65776,-5.28903 5.12811,-5.14367 0.47035,0.14536 -0.19182,1.61995 -1.47148,3.27686 -3.59581,4.65588 -1.09174,4.55067 5.22345,-0.21939 3.14097,-2.37244 6.79339,-4.83326 8.11659,-5.46845 10.77291,-5.17131 14.90676,-7.48084 18.37049,-10.26326 4.56319,-3.66552 3.1742,-5.64015 -2.03386,-2.89135 -1.90735,1.00669 -3.70577,1.37966 -3.99647,0.82879 -0.29078,-0.55082 -8.80199,2.92587 -18.91394,7.72606 -21.99438,10.4408 -25.23328,11.46368 -26.81437,8.46811 -1.00093,-1.89659 -2.0876,-1.73773 -7.44103,1.08781 -12.74849,6.72862 -35.74458,11.33921 -37.7482,7.56827 -0.44942,-0.84495 -6.41308,-0.89738 -13.25331,-0.11613 -6.84023,0.78123 -18.85875,1.46436 -26.70788,1.51807 -7.8492,0.0538 -18.96758,0.59518 -24.70767,1.20325 -20.762597,2.19951 -37.678917,0.56791 -40.015667,-3.85947 -0.49363,-0.93524 -4.43231,-2.61323 -8.75262,-3.72889 -4.32023,-1.11572 -8.28439,-2.88485 -8.80925,-3.93142 -0.71791,-1.43166 0.008,-1.50655 2.92968,-0.30226 2.13616,0.88031 7.62052,2.18583 12.1875,2.90115 7.60706,1.19145 8.74526,0.9961 13.56935,-2.32927 3.56593,-2.45805 5.8024,-3.31428 6.92794,-2.65233 1.24626,0.73278 0.633,1.26164 -2.45002,2.113 -2.50921,0.69292 -3.86462,1.6046 -3.47716,2.33887 0.94592,1.79219 2.87045,1.62452 8.53817,-0.74377 9.03643,-3.77593 8.07956,-1.37104 -1.06862,2.68565 -4.85509,2.15294 -8.32412,4.21032 -7.70904,4.57203 1.75126,1.02982 10.5657,-1.24548 17.16883,-4.43188 l 6.008037,-2.89922 -4.799437,3.11194 c -6.74838,4.37561 -3.57884,5.30627 4.160327,1.22155 3.5287,-1.86243 6.6783,-2.889 6.99904,-2.28121 0.32082,0.60774 -1.43299,1.78385 -3.8973,2.61355 -2.63289,0.88645 -4.22246,1.99766 -3.85459,2.6946 0.69324,1.31361 6.88559,-0.23318 12.23347,-3.05579 1.90286,-1.00432 3.41681,-1.19602 3.36445,-0.42606 -0.0984,1.44674 3.3611,1.4798 5.70814,0.0546 0.73354,-0.44544 0.0316,-0.70586 -1.55941,-0.57862 -2.76067,0.22071 -2.77367,0.16336 -0.28382,-1.2519 1.58251,-0.89946 2.9767,-0.78709 3.54291,0.28557 0.51343,0.97284 1.48951,1.47533 2.16898,1.11672 0.67954,-0.35867 3.28323,0.067 5.78596,0.94609 3.5221,1.23692 5.78579,0.99855 10.01598,-1.05471 3.00597,-1.45898 5.50634,-3.25434 5.55642,-3.98959 0.11402,-1.67611 11.28075,-5.7643 13.71019,-5.01936 1.19554,0.36657 0.89828,0.76133 -0.88632,1.17708 -1.47687,0.3441 -4.98253,1.41451 -7.79045,2.37876 -6.88145,2.36307 -2.53334,2.80211 6.044,0.61018 3.51642,-0.89858 6.29093,-1.3019 6.16553,-0.89622 -0.12531,0.40564 -3.88987,1.69786 -8.36552,2.87146 -4.47564,1.17363 -7.90127,2.58172 -7.6124,3.12906 0.64575,1.22347 2.94719,0.77317 13.66539,-2.67374 11.50154,-3.69879 13.03857,-3.87396 10.66578,-1.21567 -1.83104,2.05135 -1.79057,2.10413 1.20741,1.56305 1.70407,-0.30622 3.46631,0.14041 3.91604,0.99253 0.78366,1.48474 10.13979,-0.0236 16.6731,-2.68802 1.70583,-0.69565 7.91804,-2.42261 13.80483,-3.83761 5.88685,-1.41507 12.3104,-3.01739 14.27469,-3.56083 2.33876,-0.64701 3.65295,-0.30717 3.8077,0.98483 0.33455,2.79282 21.61356,-6.56755 30.79858,-13.54788 6.88269,-5.230671 11.86213,-7.328451 12.86863,-5.421451 0.30237,0.57289 4.62901,-1.19165 9.61468,-3.92117 6.82941,-3.73888 8.0707,-4.73333 5.03326,-4.03212 -3.4194,0.78938 -3.12821,0.47214 1.91716,-2.0887 7.24737,-3.67853 10.24095,-7.72541 8.3562,-11.2964 -1.13005,-2.1409 0.008,-4.58926 5.98284,-12.87526 8.24096,-11.42805 12.40272,-21.23763 11.79159,-27.79368 -0.38319,-4.11181 -0.77907,-4.49764 -6.62386,-6.45679 -3.41896,-1.14597 -12.53696,-3.4543 -20.26225,-5.12956 -11.69442,-2.53602 -20.05992,-5.87163 -21.4817,-8.56542 -0.15887,-0.30005 4.64756,1.0898 10.68021,3.08919 6.03263,1.99939 17.81013,5.03254 26.17227,6.74034 8.36213,1.70777 15.59401,3.84426 16.0709,4.74771 2.17957,4.12955 -4.36604,26.82837 -10.0521,34.85845 -2.31396,3.26792 -3.946,7.0581 -3.62672,8.42258 0.3468,1.482 -2.35878,6.56823 -6.71967,12.63241 -6.32753,8.799 -9.59423,11.89416 -24.51896,23.231581 -22.92523,17.41483 -44.90611,29.32595 -61.92344,33.55524 -33.63249,8.35865 -79.50082,8.48374 -121.462887,0.33128 -16.07513,-3.12311 -35.25289,-8.86275 -37.81942,-11.31889 -1.80848,-1.73056 -13.98212,2.3997 -20.30224,6.88815 -9.35445,6.64342 -17.25733,14.49749 -23.90973,23.76205 -7.32918,10.20708 -8.76573001,10.96881 -9.55696001,5.06754 z"
     inkscape:connector-curvature="0" />
</svg>
