<?xml version="1.0" encoding="UTF-8" standalone="no"?>
<svg
   xmlns:dc="http://purl.org/dc/elements/1.1/"
   xmlns:cc="http://creativecommons.org/ns#"
   xmlns:rdf="http://www.w3.org/1999/02/22-rdf-syntax-ns#"
   xmlns:svg="http://www.w3.org/2000/svg"
   xmlns="http://www.w3.org/2000/svg"
   viewBox="0 0 483.30826 438.14395"
   height="438.14395"
   width="483.30826"
   id="svg6125"
   version="1.1">
  <metadata
     id="metadata6131">
    <rdf:RDF>
      <cc:Work
         rdf:about="">
        <dc:format>image/svg+xml</dc:format>
        <dc:type
           rdf:resource="http://purl.org/dc/dcmitype/StillImage" />
        <dc:title></dc:title>
      </cc:Work>
    </rdf:RDF>
  </metadata>
  <defs
     id="defs6129" />
  <path
     id="path6135"
     d="m 102.29837,437.94915 c -19.799384,-4.39791 -40.259104,2.06406 -59.413944,-3.62707 -15.62342,-3.54037 -56.74587,13.45393 -38.1499103,-16.03371 7.0436403,-14.79343 16.6785703,-32.06152 10.7600003,-41.07767 7.36311,-10.24737 13.79798,-20.04866 5.98326,-24.8666 5.25839,-12.46781 34.83093,-25.41024 29.56864,-35.57054 -24.4214,0.29476 13.55887,-21.48226 20.14602,-26.29793 7.298,-3.60578 17.10052,-9.36389 4.10593,-13.55426 11.94415,-21.5912 46.273814,-17.13949 52.275064,-34.66981 15.52564,-7.17492 52.51505,-2.09216 54.86312,-16.51278 -15.42372,-23.7404 -9.9369,-52.91796 -13.33999,-79.61284 8.78108,-14.5024 3.08449,-31.70889 2.73978,-47.121795 16.11893,6.078705 32.81862,14.536875 46.46203,25.812465 -0.0231,-24.81311 27.23571,24.34523 28.44365,-6.30465 13.14588,-14.8526 23.47296,-31.897795 34.13672,-48.696588 9.56453,11.565653 20.82192,-19.939515 32.86778,-25.59141 4.28167,-7.686365 8.49197,-12.763441 13.29461,-5.638788 12.39856,-9.53225 28.22633,-29.7665345 41.68966,-18.956154 12.54001,-5.111491 33.53846,-20.35004552 43.06587,-13.7967505 -8.74107,17.5198485 30.748,-4.83450402 43.05926,0.08441 11.57407,0.31962 35.37527,-17.2042755 26.52028,6.5989885 -5.50948,19.599021 -5.01239,35.649544 -3.98343,53.123012 -0.91076,10.134315 -7.11426,21.801485 -6.24662,31.168905 9.40522,5.430665 -2.57131,17.834815 -2.26051,26.052545 -7.12528,13.43731 -8.47983,21.67772 -4.92906,33.47969 -12.09883,20.88617 -12.11148,43.10411 -28.69082,60.80063 -7.66704,21.03749 -28.50691,33.85351 -45.359,48.19145 -20.94837,8.38725 2.93488,23.29698 5.03076,35.75448 -4.09467,11.61039 10.9211,24.23207 7.69858,33.35578 -6.88569,4.41074 -1.75722,14.93357 -3.33773,22.04327 3.15478,17.27705 -9.84057,29.63269 -5.09432,47.14546 -4.41293,12.54782 -30.60682,-9.23707 -40.59455,-12.92417 -17.65993,7.21762 -32.92517,-16.55863 -48.16313,-20.54044 -13.39223,-5.63655 -25.21729,-34.51185 -31.77908,-7.47357 -7.01444,13.56826 -15.36041,27.14651 -27.27688,28.30382 -11.76906,20.65609 -33.7539,21.85023 -51.53287,33.54997 -16.31042,9.2645 -28.22722,2.44579 -47.03956,11.52172 -15.30858,-1.80909 -29.78803,3.09162 -45.51961,1.88093 z m 5,-7.24242 c -0.71309,-6.25881 -15.824784,5.75825 -1.71236,1.5564 z m -37.500004,0 c -4.52509,-2.95013 13.15801,-18.85387 -3.79336,-7.70097 -6.41545,6.41608 -6.09683,11.20238 3.79336,7.70097 z m 54.144414,0.39733 c 12.02023,-7.209 5.7597,-14.20519 -2.91355,-4.01658 -13.03737,-5.01375 -11.84018,10.39037 2.91355,4.01658 z m -29.466274,-2.90841 c 16.510654,-13.02774 30.095044,-32.14703 44.099354,-48.74595 8.42088,-4.79464 -13.5093,21.11912 -18.07957,26.46757 -7.9965,6.14691 -24.288684,27.62724 -4.06733,12.89464 18.39557,-17.93395 42.47045,-36.03408 45.61926,-63.10518 -8.40832,1.78909 -25.25655,31.01908 -13.74062,8.57474 7.296,-9.9942 8.85739,-19.56497 -5.6311,-10.49219 -14.76754,5.87039 -36.60256,17.02571 -17.15043,13.92123 -11.37523,3.29769 -20.17077,16.53333 -2.10277,8.08204 -11.47804,4.76355 -27.543594,24.62767 -37.374834,39.13789 -10.27077,22.27054 26.330474,-19.74103 25.731964,-15.16377 -8.52748,17.68339 -24.078354,25.31495 -37.947254,29.99638 6.66056,2.04487 14.06458,-0.0159 20.64333,-1.5674 z m 26.821864,-41.20843 c 6.73197,-15.34319 8.59076,-2.85935 0,0 z m 13.0953,-19.97244 c 10.05543,-10.85122 8.43359,-3.19702 -0.49864,2.51643 -1.52915,2.33967 0.56414,-2.17306 0.49864,-2.51643 z m 15.6547,60.1936 c 5.48183,-15.46911 -11.92473,11.33368 0,0 z m -138.750044,0.99837 c 9.66746,-9.33462 26.09894,-28.43301 33.29876,-23.11374 7.0109,-5.99124 -6.19436,-4.58856 6.47535,-10.95787 10.47065,-7.81738 8.65544,-4.38118 7.11954,2.57159 14.97883,-6.57869 -2.8333,-11.41009 15.28738,-17.52025 19.10737,-12.31592 39.077204,-23.35978 58.729484,-34.55293 -7.95706,-4.33336 -32.938604,-9.55494 -9.38671,-6.67599 8.92681,5.90104 37.02106,0.0263 12.66452,-3.96957 -8.47293,-1.25365 -26.31788,-7.15193 -7.91341,-3.7519 21.75456,11.80448 40.86493,-3.10613 60.1925,-12.59331 11.88444,-7.80635 38.28118,-18.99193 34.51564,-32.64422 -11.6048,7.23185 -41.21571,33.14896 -44.69983,27.37341 18.51608,-8.9887 0.31072,-7.37086 -7.14017,0.34034 -9.87793,3.90083 -40.3367,-3.60679 -13.36089,-2.99027 11.75937,2.55451 26.31777,-6.93931 5.11547,-6.47116 5.5009,-0.9876 40.24886,-4.38955 12.60489,-5.59601 -23.48676,-2.15911 41.09596,-9.94365 14.80423,3.67531 2.32749,6.37873 42.893,-21.15042 15.53409,-18.8069 -20.47903,0.67275 -50.45004,-5.51683 -57.98068,20.00878 -4.34001,14.09037 -47.11046,6.14563 -18.04509,6.08734 13.38241,-0.22634 32.40312,-29.21314 6.58488,-17.7233 -11.54379,3.7183 -44.708984,9.75119 -16.49316,0.15084 15.23724,-8.85087 49.06572,-6.52626 54.18145,-17.81367 -4.90029,-8.11395 -36.05196,-13.75589 -11.8769,-12.51123 12.99903,4.3714 17.74097,21.38427 33.13023,16.58817 7.30057,-1.58 38.7317,9.18937 23.75445,-2.6139 -13.35262,-4.06161 -35.31749,-7.35783 -43.7411,-11.89906 10.94205,7.92749 36.46716,0.25765 19.22021,-12.09064 -9.41243,-2.51694 -19.7016,-4.59115 -4.57692,-4.90779 0.24537,-15.28642 -17.47494,-11.80502 -15.14046,-3.29596 -12.52114,-2.76786 -40.99701,-3.87097 -43.86427,5.32886 10.92761,1.44927 32.36368,-1.65028 37.49451,3.79104 -22.88251,-5.47549 -44.11901,4.82505 -66.03482,9.64031 -10.155564,3.82939 -26.148024,13.24731 -11.973174,19.77702 -7.37849,10.81885 -41.00546,21.72591 -35.91422,31.66664 19.12968,4.64571 -15.13613,23.25052 -20.66167,31.91145 -5.05758,7.91674 7.17025,10.4671 -4.42629,20.50154 -10.03363,10.22131 -4.09358,20.41443 3.29275,4.32003 11.86967,-14.79355 -9.60787,19.04036 -12.38775,25.39452 -4.66114,7.71994 -12.8556603,31.39509 0.84212,13.14695 6.47289,-8.6013 17.88361,-35.85589 9.07581,-10.58625 10.18995,-0.98413 18.36839,-31.63416 14.74895,-8.68824 16.31327,-6.31267 -14.53417,11.9819 -19.27278,18.94842 -1.98328,3.38353 -30.5144503,26.46235 -13.77692,20.5516 z m 39.03331,-46.59503 c 7.5962,-15.8758 2.78774,2.56988 0,0 z m 12.03429,-5.40499 c 6.63614,-12.99198 6.01409,-2.50644 0,0 z m -7.06756,-2.25174 c 7.17628,-12.53973 7.87054,-2.61355 0,0 z m -3.32314,-9.28157 c 10.11532,-4.91272 37.52481,-9.24952 38.92196,-3.43555 -11.86759,0.0384 -25.89196,0.62929 -38.92196,3.43555 z m -5.67686,-5.62461 c 7.79885,-11.70892 6.56151,-2.33507 0,0 z m -7.48825,-6.3611 c 8.99255,-8.37788 37.80056,-11.83047 11.09506,-3.06695 -1.91962,-0.41874 -11.17996,5.99336 -11.09506,3.06695 z m 52.98825,0.019 c 3.66731,-3.67421 15.329914,3.79938 0,0 z m 13.941134,-5.4682 c -1.7292,-5.04128 14.32462,5.86787 0,0 z m -59.441134,-5.56308 c 6.42718,-5.61089 24.60722,-2.21468 0,0 z m 7,-11.84372 c 11.42865,-7.10242 7.74041,2.81071 0,0 z m 19.58807,-1.49391 c 22.81603,-16.16475 54.735064,-14.15379 79.411934,-3.50764 0.72188,6.10112 -26.11691,-4.82738 -35.08507,-2.52664 -10.66409,0.5674 -21.988184,-2.21125 -31.627234,3.67081 -2.84862,0.29032 -11.44461,6.28738 -12.69963,2.36347 z m 36.680964,-0.32408 c 8.2223,-1.24018 -1.16286,1.71608 0,0 z M 67.709266,311.85089 c 15.05361,-7.38563 19.02994,0.83072 0,0 z m 31.12687,-2.08305 c 0.9983,-4.09927 5.536194,1.62873 0,0 z m -27.51346,-5.42289 c 17.21912,-5.96989 9.93666,-0.43401 -2.52431,1.4656 0.84144,-0.48853 1.68287,-0.97707 2.52431,-1.4656 z m 11.27512,-11.69502 c 20.665604,-4.82191 8.18962,1.07593 0,0 z m 79.329684,-2.80804 c 2.26238,-6.84347 30.99292,-1.53654 7.87642,-0.13582 l -3.50553,0.48165 z m 30.37089,-2.29553 c 12.79274,-3.3934 20.86026,3.07575 2.4614,1.00375 1.23979,0.31519 -5.55368,-0.14233 -2.4614,-1.00375 z M 97.298366,272.35482 c 7.873524,-4.65229 54.921224,-4.3772 25.642374,-1.99578 -3.36248,-1.24983 -32.589464,5.70715 -25.642374,1.99578 z m 15.500004,-9.64809 c 8.59783,-2.86578 20.19174,0.92715 5,0.9144 l -4.8277,-0.24913 -0.65189,-0.27766 z m 75,-5.36084 c -8.14991,-6.28997 19.83699,4.88559 0,0 z m -51,170.36084 c 3.54502,-6.40296 -11.55812,4.65917 -1.6596,1.28407 z m 24.7336,-2.28685 c 10.40798,-15.62692 2.60019,-12.5432 -5.81031,-1.77866 -6.81158,8.33783 2.27601,6.1535 5.81031,1.77866 z m -135.233604,-4.2099 c -7.74927,-7.38752 -6.45441,15.5502 0,0 z m 29.17851,-0.50325 c 4.13692,-8.54051 17.34475,-17.90205 4.99796,-2.79169 8.4461,2.88737 15.47209,-15.87667 13.07963,-3.20831 18.75481,-4.22628 30.939634,-27.53732 34.684644,-45.62367 -9.868474,-3.59191 -19.070244,30.31683 -25.395604,27.15353 10.52617,-10.90785 3.67082,-17.19408 -3.87316,-3.7657 -3.06601,6.65113 -17.95371,21.45559 -7.13767,4.77207 3.48337,-14.95941 -17.58317,13.24124 -21.85804,19.28377 -10.48408,12.07982 -2.99701,16.08728 5.50224,4.18 z m 20.82149,-15.19002 c 8.70311,-16.18548 1.52709,5.50108 0,0 z m -14.6087,18.6127 c -3.5176,-4.76017 -8.41528,6.66671 0,0 z m 107.537184,0.11431 c 12.45926,-12.054 -13.08378,4.42112 0,0 z m 18.19963,-2.78699 c 8.12589,-11.91653 18.16957,-30.11703 25.87189,-36.83873 -2.90264,15.23236 -7.23121,16.68609 -17.14034,31.08873 16.59746,-12.50163 33.33775,-20.49206 41.57295,-40.16721 6.94636,-8.22508 11.67693,-32.55824 -0.30367,-11.33427 -2.91935,9.28704 -19.15475,36.55985 -20.9474,29.4504 13.27904,-16.68797 19.57421,-36.38119 34.49148,-51.21753 5.41457,-18.57714 -19.10818,-10.56856 -17.494,5.56316 -2.0483,7.48231 -20.22399,37.74595 -9.02454,13.28553 4.37987,-11.46153 15.54309,-30.5007 12.44253,-38.85219 -6.3402,4.81116 -12.4058,33.11301 -10.35547,10.40858 -11.83065,14.25586 -14.43735,37.48464 -30.80281,48.76439 -3.58153,11.02568 -32.3366,27.50155 -21.05048,34.50698 7.46334,-15.43652 11.325,-2.00878 10.0957,7.59216 l 1.37307,-0.66094 z m 5.12189,-19.96482 c 15.1864,-26.19993 -2.12181,11.89004 0,0 z m 15.83376,-23.28518 c 2.96246,-9.78496 18.84028,-38.67666 8.4764,-13.65475 -1.03434,1.72146 -8.02108,19.24129 -8.4764,13.65475 z m 32.91624,-32.9652 c 8.11904,-19.87205 8.33547,-1.54703 0,0 z M 46.588606,418.04869 c 9.3056,-14.45204 -20.89488,8.6949 -2.8728,3.77512 l 2.87283,-3.77512 z m 101.532614,2.56049 c 21.94172,-9.2594 -14.05497,-4.91795 -10.13588,2.02453 3.49042,0.0238 6.85748,-0.95566 10.13588,-2.02453 z m -24.22255,-0.66776 c 10.50494,-13.30242 -13.14747,3.25185 0,1e-5 z m -87.053254,-4.30501 c 12.31776,-13.9764 -16.98326,11.53037 0,0 z m 100.952954,-0.63165 c 5.17525,-6.79175 25.9232,-32.3545 11,-10.8363 -18.29483,22.90462 22.57749,1.93365 28,-7.87994 16.32967,-13.01013 40.94508,-40.49849 36.62711,-56.47626 -6.79359,6.42739 -16.95459,32.38987 -9.53942,9.30286 0.47475,-9.31978 -13.113,11.83933 -5.01969,-6.22538 11.49823,-0.74305 13.02769,-13.83611 12.27902,-22.86101 -6.20169,-0.5709 -8.10439,23.38199 -10.31521,12.23687 1.14271,-18.61717 -10.14671,10.91088 -9.96826,17.69113 -6.19647,16.38518 2.99279,-18.8808 -11.82629,-0.56458 -10.93551,22.79025 2.13821,-5.57414 1.46159,-13.4759 -16.19286,10.10177 -13.76637,34.89244 -27.35984,48.51327 -3.5508,4.47727 -35.42355,44.79684 -15.33901,30.57524 z m 20.82062,-11.65027 c 5.17403,-9.43191 25.43648,-41.14528 11.28872,-14.03507 -2.41399,2.99556 -9.95311,17.38035 -11.28872,14.03507 z m 18.47395,-14.21466 c 11.0407,-16.70067 -2.46578,8.94564 -0.878,1.73399 l 0.59063,-1.16645 z M 53.992606,405.2918 c 6.82171,-10.63593 -15.69063,8.68702 0,0 z m 172.690754,-2.04989 c 3.94621,-11.76196 -13.97008,9.3132 0,0 z m 163.30052,-5.08574 c -8.05865,-6.35874 -6.26785,-44.04214 -1.47411,-15.32333 11.74732,-10.58912 -20.59406,-40.4711 3.57275,-20.24163 7.43894,-9.91039 -0.59568,-31.53634 5.14364,-38.03574 -3.35976,-12.29813 -19.73393,-20.99794 -7.1944,-25.90702 -3.23466,-14.53658 -26.53309,-19.7999 -17.98339,-30.70795 -11.08784,-5.17954 -39.55569,-19.22456 -43.24879,-10.72647 9.95175,1.00796 25.42414,8.24747 6.49349,3.55043 -22.62955,-4.52258 4.98493,8.04556 3.31624,7.18147 -7.68578,-4.06084 -30.38328,-1.33357 -10.55971,2.3092 8.93942,1.21352 40.18219,10.31272 14.71187,5.68983 -8.97841,-4.99607 -46.86287,-7.91305 -20.97428,4.51742 10.77394,0.71155 35.25235,11.92529 9.75951,5.20488 -20.14801,2.0516 36.17544,17.05825 4.90327,11.29555 0.56269,13.38957 -32.12007,-34.09634 -28.70198,-15.75694 16.36835,11.41743 29.01908,34.83318 44.66725,35.37353 10.11062,12.32402 24.44734,-5.25057 32.40291,4.02731 -28.52314,-2.96416 -2.01816,15.76159 3.78253,24.09659 -13.4044,-9.82594 -29.06108,-25.37523 -44.30231,-24.61388 12.46503,17.87139 23.49,36.52671 32.10933,56.60536 5.18621,8.89627 15.91009,29.41804 1.86533,10.94271 -7.4019,-12.55272 -6.58739,-5.99414 -5.69039,3.39355 -14.66879,-17.51474 0.3341,14.46666 5.25266,1.48296 -0.10444,4.15619 13.26079,14.62403 12.14858,5.64217 z M 377.75725,372.6402 c -1.22162,-5.01547 3.25477,3.80848 0,0 z m 6.24529,-22.65803 c -18.45855,-17.92953 7.37563,-0.47418 9.56455,8.72456 -3.54709,-2.49542 -6.47478,-5.71708 -9.56455,-8.72456 z m -17.08063,-0.8141 c -2.62237,-7.3194 3.68408,4.68468 0,0 z m 0.57646,-12.66134 c -4.87059,-8.34602 7.83914,4.74662 0,0 z m 9.28519,-27.90556 c -6.42693,-4.51872 -36.04756,-14.53475 -12.92044,-8.42625 2.89454,-0.45756 25.40251,13.61491 12.92044,8.42625 z m -8.48519,-10.89395 c -7.49852,-2.49299 -34.03566,-12.29104 -10.81304,-7.16667 1.72817,-1.20314 21.166,9.41173 10.81304,7.16667 z m -0.25,-17.08059 c -5.7453,-6.97985 10.49283,2.76223 0,0 z m -126.80786,104.8301 c 3.8082,-7.68887 18.81669,-33.55461 1.89409,-14.98498 -2.93617,8.75814 -18.92466,33.89545 -1.89409,14.98498 z m -163.953184,0.75571 c 17.17629,-11.88679 -8.54963,-6.24581 -2.61424,1.16888 z m 286.588134,-3.25571 c -0.11915,-20.5601 -10.5318,3.89541 0.20651,2.9787 z m -23.57709,-1.16844 c -11.02747,-12.68365 -10.55184,2.88993 0,0 z M 92.566236,378.17068 c 12.034484,-15.91273 -15.87818,8.48839 0,0 z m 277.104684,-2.71395 c -0.75351,-10.20048 -10.40036,-30.74219 -13.02421,-11.94884 -9.53489,8.06579 3.38597,17.91115 3.0527,1.85787 4.97913,-4.72473 9.13957,24.60688 9.97151,10.09097 z m -20.92188,-0.5 c 0.43109,-9.18895 16.03162,-30.07189 4.04338,-27.88023 -2.38983,4.33471 -15.54594,38.86499 -4.04338,27.88023 z m -4.00056,-13 c 0.48076,-11.22395 14.55819,-21.55375 1.69422,-29.57322 -6.92594,-12.64899 -12.52611,-5.78696 -5.67859,3.41219 -5.22516,12.23841 -6.78051,29.42437 -0.61299,40.62135 2.39818,-4.51401 3.22474,-9.59638 4.59736,-14.46032 z m -84.22929,11.91245 c 12.67352,-7.50213 4.80939,-41.36296 -3.49873,-14.3385 -10.3529,20.69312 13.05229,-9.61655 5.33211,8.88648 -3.14419,2.35948 -13.30455,6.99498 -1.83338,5.45199 z m 68.77918,1.03755 c -4.0198,-9.30151 -6.50322,4.25368 0,0 z m -7,-5.7 c -7.10655,-14.46655 -6.59362,4.93008 0,0 z m 9.31479,-3.03393 c 3.97567,-9.93269 -6.56754,-18.66479 1.81857,-21.79724 2.07135,-10.7467 -7.78817,-33.17071 -7.53038,-9.90561 -5.33248,8.98751 -9.6871,19.39488 -4.08626,3.00797 6.79288,-7.32985 -2.38408,-36.58446 -3.12897,-13.85698 -1.00957,-3.58511 -2.52966,-25.07771 -5.92067,-12.51635 -7.28416,-28.64083 -6.68515,22.73502 -1.66687,30.73264 -3.50731,10.74232 2.78155,31.3909 3.44979,13.36497 3.08832,10.17298 11.61946,7.07456 12.64947,3.30299 -0.7134,3.94279 -2.09578,17.66263 4.41532,7.66761 z m -211.90772,-4.4129 c 7.94818,-5.41418 38.91244,-13.27353 31.63852,-18.30822 -6.68636,2.09287 -51.738994,22.92102 -31.63852,18.30822 z m 133.28627,-4.30317 c 9.9606,-7.67895 4.05366,-23.16904 -2.29748,-5.65207 -1.74207,2.80606 -4.92068,12.44096 2.29748,5.65207 z m 48.16102,-2.45423 c 17.11552,-3.24296 0.49565,-36.23817 2.16813,-50.75023 -0.0778,-23.55599 -9.39345,17.59948 -11.18843,26.07571 -3.87832,7.41433 -2.41709,28.86208 9.0203,24.67452 z m -3.78024,-10.8791 c -0.17484,-16.50148 4.1686,-12.57026 1.42149,1.2618 l -0.86858,2.02784 z m -134.63922,7.60808 c 11.88297,-19.97935 -17.58625,2.4501 0,0 z m 128.81598,-30.10761 c 4.902,-7.93025 4.66214,-37.13713 -3.48957,-15.89622 -2.81766,9.81257 -8.94802,36.22827 -5.71703,11.13485 4.66573,-8.43613 4.39264,-23.6253 -3.01678,-17.00227 -1.861,-16.01139 -3.91941,11.31315 -3.45392,16.13858 2.52308,11.1503 -7.48984,25.31015 -8.04194,5.26422 -8.23077,-4.10484 3.59479,-30.60277 -7.16213,-11.9854 -4.99408,-0.5113 -8.0582,-16.1951 -8.09613,-0.0258 6.39248,6.81631 11.42496,16.23729 17.69771,27.93154 8.1872,-4.66986 12.04898,1.83332 16.17021,3.49022 2.05987,-6.24792 3.58683,-12.65518 5.10958,-19.04974 z m -102.79793,17.92234 c 10.84439,-15.74597 -13.63588,-1.31707 0,0 z m 69.57215,-2.87473 c 4.48834,-16.64602 -9.5085,10.1784 0,0 z m -79.98526,-2.98507 c 12.53016,-7.18116 -9.77708,-2.7218 -4.14556,1.88381 z m 41.96016,-7.49546 c -4.44408,-10.76132 -9.83455,21.84794 -0.70525,3.43419 z m -29.56224,1.93516 c 3.31389,-10.71787 -10.3053,6.78936 0,0 z m 39.29894,-4.60163 c 6.23631,-16.2398 -8.6144,0.72858 -1.42987,2.30019 z m 15.72959,-0.7805 c 4.68017,-12.63857 -9.22027,7.1899 0,0 z m -44.46629,-2.15969 c -5.51508,-3.61348 -3.59836,7.09608 0,0 z m 131.34994,-2.10773 c -3.65277,-18.66999 -12.94371,0.55682 0,0 z M 222.53525,314.5461 c -2.03244,-11.77504 -11.29623,15.46144 0,0 z m 51.68704,-5.02427 c -0.67816,-24.62413 -10.31906,14.37143 -1.2904,7.03991 l 0.87996,-3.45192 z m -62.92392,4.64972 c -5.08052,-4.31628 -4.88993,8.37192 0,0 z m 30.48909,-1.83318 c 2.22009,-8.21937 -10.17851,3.79124 0,0 z m 81.12687,-6.19005 c -9.10807,-6.01775 2.96141,11.39408 0,0 z m -102.52221,2.50824 c 4.92817,-7.47011 -10.29159,3.47878 0,0 z m 13.78437,-2.85334 c 2.51288,-7.2655 -8.67347,2.38093 0,0 z m 84.09008,-3.84649 c -4.08275,-17.12931 -7.41208,8.36318 0,0 z m -6.98351,-7.46482 c -9.59949,-15.15261 -2.24067,12.81849 0,0 z m -67.16707,0.80154 c 21.23141,5.06764 18.7995,-47.04533 9.13311,-13.87431 -11.00528,23.59699 7.69679,-22.34108 1.15097,-29.85503 -3.86594,12.83213 -5.64668,-11.52769 -16.71574,0.32493 -19.72379,3.10392 5.95785,9.04614 -1.65573,17.2055 -4.78583,9.61334 -13.37532,35.99386 8.08739,26.19891 z m -0.27664,-12.83672 c 3.61624,-16.47267 6.44773,0.52809 -0.23548,2.36039 z m 45.1708,11.61607 c -5.37891,-13.31001 -8.36672,6.41645 0,0 z m 9.13319,-1.38837 c -5.79129,-15.3136 -6.16746,8.94728 0,0 z m -23.93296,-9.94826 c 4.07309,-19.19974 -8.45366,2.20431 -1.69695,5.47253 l 0.79239,-1.83666 z m -10.519,3.38877 c 4.69802,-3.92729 6.4145,-26.41048 -0.77081,-6.94933 -1.17874,1.2473 -3.01044,12.30855 0.77081,6.94933 z m 35.64216,-2.87583 c -9.41353,-5.53705 1.81425,8.31579 0,0 z m -14.32317,-18.79238 c 12.32321,-4.19387 12.52731,-29.60384 -0.46104,-11.21049 -4.6158,3.45785 -12.83465,21.36719 0.46104,11.21049 z m 29.788,2.28705 c 3.16394,-5.91114 -11.06702,3.04852 0,0 z m -102.24213,-5.3592 c 5.56466,-10.28241 0.016,12.5181 7.291,-2.9813 11.65641,-6.64438 -3.8266,-34.16296 10.8712,-15.22375 7.166,10.02885 10.39138,-17.59431 -3.91149,-11.28246 -7.70327,-1.10053 -23.77956,-12.78213 -6.43345,-4.94207 12.80612,4.19096 35.83872,2.24764 37.27639,-2.6325 -0.86018,-10.92372 -41.93709,-20.44443 -13.85531,-14.34148 13.77262,1.07139 -11.51405,-21.95681 -18.9517,-9.34509 -11.80976,0.34433 -37.08083,-15.98103 -34.78293,-20.32481 5.90242,6.7389 37.67651,24.43605 26.84603,3.55971 6.45646,11.5544 22.58702,13.18494 8.27575,-1.20747 -20.88698,-21.85814 -28.82949,-51.95209 -45.95861,-76.18289 -4.00929,3.03948 -1.89567,22.15666 2.91021,29.43807 7.61114,8.16225 10.85968,15.74641 -0.50135,2.85364 -5.5949,3.02227 4.76853,20.13238 -8.2404,11.52699 -0.24187,17.19452 9.99647,33.11722 1.84997,46.46899 4.54079,15.27655 15.46923,27.09694 26.27899,38.28116 -14.43919,3.05982 1.20032,14.18017 4.12484,5.55913 -7.77148,18.57071 7.17859,1.7947 5.57808,7.09828 1.31509,7.34422 -13.03484,24.24732 1.33283,13.67785 z m 5.21666,-13.56187 c -2.53622,-9.37891 -12.19634,-19.3987 1.26004,-6.58176 8.7948,2.88556 -4.67449,14.47748 -1.26004,6.58176 z m 14.52547,-24.09521 c -14.34719,0.16494 0.92777,-10.59483 -16.2966,-10.07911 -15.18805,-5.82159 33.74559,0.62377 32.11427,9.70151 -4.98713,2.13066 -10.61933,0.79716 -15.81767,0.3776 z m 10,-2.55631 c -6.36249,-5.59831 -15.07286,-3.64084 -2.36514,0.53554 z M 199.15915,204.74 c -4.90997,-7.81078 11.01988,6.8353 0,0 z m 6.75991,-22.78327 c -5.61288,-6.49171 -30.0297,-26.16856 -8.49542,-10.96665 5.97968,-1.82541 18.42735,19.51792 8.49542,10.96665 z m -5.5073,-16.68931 c -5.97455,-6.31958 9.26259,3.01058 0,0 z m 22.68661,99.23931 c 4.89241,-12.85875 -9.97361,3.16585 0,0 z m 161.84701,-2.36695 c 13.0171,-21.33157 -21.28522,12.56689 0,0 z m -70.2288,-3.04004 c 4.951,-10.94624 22.17629,-11.48373 14.02657,-21.95658 1.90457,-6.64954 19.57753,-27.19718 3.88729,-26.2795 -11.8994,-2.64307 -25.47897,5.30001 -31.88671,-1.65007 -10.30214,6.18465 -30.46276,9.377 -25.36028,24.25573 15.71559,1.05109 26.31119,2.44054 40.69577,-7.00579 15.17793,5.00039 -22.44842,6.38627 -1.58347,10.37679 1.87724,2.3844 -27.08579,-0.95664 -6.76508,5.45044 0.6098,3.0597 -12.01628,0.44519 -4.14112,6.77002 -15.27624,5.67775 1.76448,14.39433 11.12703,10.03896 z M 295.7395,230.25851 c 13.68154,-5.88028 -3.98067,4.4615 0,0 z m 28.55887,-8.35178 c 4.76568,-9.00665 5.46192,3.06681 0,0 z m 52.5,34.8 c -3.91505,-4.37751 -11.64996,4.47037 0,0 z m -116.21051,-3.001 c -3.16534,-6.19312 0.1185,7.5055 0,0 z m 17.64078,-7.57382 c 2.27584,-20.97241 -22.33769,11.60382 -5.79157,7.9 2.44026,-2.19545 4.24017,-5.04219 5.79157,-7.9 z m 97.67957,2.0337 c 20.97832,-17.59353 -10.94118,-2.03277 -10.80252,4.4768 4.05189,0.41622 7.63396,-2.38907 10.80252,-4.4768 z m 11.02972,2.01156 c 12.91626,-1.482 12.45403,-22.2903 3.4427,-7.87132 -3.36551,3.95085 -25.40335,14.0299 -3.4427,7.87132 z m -35.64326,-2.9665 c 6.20812,-9.2344 -19.40151,5.02845 -2.6565,1.8203 z m 16.91282,-2.25662 c 11.24142,-10.45082 -29.05336,8.15332 -3.91452,2.17561 z m 36.09088,-0.24732 c 5.50301,-7.64314 -10.838,6.56188 0,0 z m -58.58179,-2.60699 c 5.64028,-7.18684 -10.21274,0.25529 0,0 z m 13.43745,-1.82329 c 22.0558,-2.28634 43.76311,-7.12121 61.53442,-21.27215 8.35467,-2.64782 28.98461,-26.52221 9.40997,-10.61455 -11.22302,8.58176 -32.08362,20.34288 -25.99052,10.31698 -18.44675,6.87438 -44.70562,7.41157 -59.05128,16.44243 11.51457,2.99627 50.73735,-12.3482 46.765,-6.78637 -4.11283,2.7678 -57.13688,12.60273 -32.66759,11.91366 z m -99.85566,-3.06972 c -2.4929,-10.555 -2.35153,10.52134 0,0 z m 154.02749,1.78762 c 9.32441,-4.3129 13.57611,-19.60466 1.62473,-6.36186 -2.27816,1.51479 -10.14244,12.55069 -1.62473,6.36186 z m -167.02749,-1.78762 c -4.94551,-8.95903 -3.88812,8.52701 0,0 z m 159.17126,-0.15499 c 7.40462,-11.21255 -12.24208,4.88343 0,0 z m 9.24529,-6.98814 c -0.28209,-7.54432 -7.95558,6.44501 0,0 z m -64.83064,-4.42817 c 1.16886,-9.0113 -17.35379,8.58715 0,0 z m 26.60749,-3.38211 c 12.52295,-0.57066 47.42842,-13.18646 41.35191,-20.38662 -18.66018,13.32634 -41.05163,15.40119 -62.53888,21.34272 0.39081,6.24534 16.30801,-1.45639 21.18697,-0.9561 z m -104.1934,-8.1787 c -7.05011,-14.99931 -4.42053,18.68378 0,0 z m 98,2.68485 c 8.38958,0.29478 41.7747,-9.00131 31.57509,-14.07752 -11.44214,2.00333 18.70763,-9.14715 17.21263,-18.84624 12.52096,-1.90248 21.53704,-23.45703 4.44481,-7.95058 -7.8757,4.54176 -24.25867,25.25173 -26.39742,19.70825 12.65931,-14.67158 28.79575,-22.94345 42.93062,-37.87673 3.33417,-7.391 28.35376,-26.06921 18.20166,-27.44499 -15.2812,17.64676 -29.76356,37.00817 -50.74126,48.8633 -13.93081,8.08308 -36.14046,10.66801 -54.90545,13.5267 -27.66261,4.68717 10.73201,3.41142 20.17932,2.11269 -7.89692,0.89467 -41.07209,8.0765 -16.3063,7.95733 9.26855,-0.55363 49.83029,-8.40766 21.26509,-1.40505 -8.69793,1.36099 -46.13329,4.97923 -25.85723,10.13814 7.7159,-1.88694 30.10476,-4.13911 9.84199,0.725 -12.90628,0.93252 -19.2152,13.25155 -1.68171,6.32058 3.41163,-0.58996 6.82445,-1.17309 10.23816,-1.75088 z m -90,-8.20773 c -4.40405,-13.15998 -9.6318,-25.9263 -2.11304,-40.03511 -1.47786,-12.36287 -15.48386,22.61287 -6.60273,28.10616 5.61766,3.90658 2.63074,29.79401 8.71577,11.92895 z m -17.60699,3.5732 c 3.47219,-15.39776 -5.37995,-9.29355 -0.86669,1.51881 z m 162.77219,-3.03269 c 6.7543,-4.39127 23.98732,-25.45675 7.98531,-13.09697 -2.30647,-2.43281 -10.77984,6.78998 -13.68839,15.70568 l 1.28396,-0.18058 z M 294.9376,205.20449 c 1.18012,-18.23036 -6.26325,6.9208 0,0 z m -25.63923,-2.47499 c -0.40019,-9.60068 -4.28404,-1.40003 -0.94688,2.33667 l 0.65967,-0.38391 z m 56.41821,1.37024 c 5.39237,-6.53229 -9.47289,2.41941 0,0 z m 13.01036,-0.96444 c 5.16015,-11.4434 -16.59572,7.15136 0,0 z m -19.1353,-5.41549 c 7.48119,-11.35071 1.26237,-33.40286 -2.93107,-45.11191 -12.98344,-2.47612 -22.16828,-35.57912 -8.22344,-11.97801 17.0407,19.50032 8.44433,-24.8418 15.04599,-33.61491 3.53751,-23.470485 16.47805,-44.917406 34.53037,-58.058256 3.10227,-10.509079 29.96495,-40.8711005 11.695,-15.079315 -6.37552,5.710662 -16.32915,37.454388 -16.88147,30.444929 -9.64558,-7.539675 -20.8613,28.077457 -24.11485,41.325862 -7.13653,25.09068 -7.01332,52.412 -2.12024,77.88049 9.82094,10.60195 0.21149,-23.62033 8.53997,-3.10893 11.53471,-1.78354 11.55123,-23.99418 14.8767,-21.71303 18.90603,1.92374 2.60544,-22.77219 4.37724,-33.2558 3.27171,-12.36545 -9.89671,-17.69805 -10.04329,-29.237605 -0.3326,-6.42729 11.32389,21.759685 12.45489,-0.14707 5.53978,-20.608236 18.64348,-38.728568 34.83094,-52.338601 -2.88444,11.457056 -34.22159,35.190261 -17.14534,40.788641 8.6248,-2.66271 12.96505,-27.090694 9.66175,-4.56315 -3.95021,8.45706 -27.65613,5.70035 -22.4149,24.753585 -4.40407,11.24962 -4.03996,58.55711 11.05801,30.93635 30.8112,-38.199085 50.71839,-85.27173 89.86895,-116.437065 22.18267,-22.2310715 -28.21766,-4.694414 -32.0285,10.792598 -5.57235,7.294146 -21.42474,24.409627 -7.94529,5.643084 6.58711,-6.208511 28.99433,-33.7835155 7.90774,-17.16654 -4.6416,7.015159 -24.57033,27.647047 -10.88643,9.004515 8.49527,-7.913158 17.75085,-21.3789015 -1.42267,-12.929793 -19.35695,1.39434 -27.02227,17.481118 -40.54904,29.922725 C 380.70219,31.991965 405.70888,17.0764 401.95723,9.7889605 377.9416,13.264527 359.81876,30.092089 345.53249,48.506429 c -7.73787,5.749684 -18.73861,32.888376 -21.25467,29.391476 6.06907,-21.313136 28.40441,-35.254958 34.95793,-54.455821 -11.62722,-7.852851 -27.26559,21.386486 -36.73056,25.77458 -16.51324,-4.720564 -30.35686,24.166617 -35.15423,39.583041 -2.78904,1.00653 -12.29991,-17.953482 -9.87228,-0.11501 -1.13947,18.926015 -18.11295,47.360415 -5.34032,61.521815 9.0222,5.30437 15.85525,20.00805 16.10185,-0.77413 2.17095,-22.50814 4.38806,-47.18094 18.72633,-65.493985 -10.96502,25.544595 -15.07867,54.029725 -16.41145,81.839115 13.15173,3.34627 6.1893,44.298 18.10215,31.74491 -2.88339,-8.95227 -8.4128,-50.05989 -1.93703,-21.34398 3.81324,6.54278 3.7673,36.2554 12.87143,21.54137 z m -3.64454,-1.77242 c -2.74667,-10.84892 -1.12454,-25.03262 2.42703,-5.19902 1.00733,0.85816 -0.11519,8.28145 -2.42703,5.19902 z m 18.36492,-21.49066 c 0.67277,-13.1825 5.88775,4.34176 0,0 z m 17.15992,-25.95945 c -4.93381,-9.41066 -4.32833,-23.16774 0.69977,-5.93292 1.24659,2.36071 3.1144,15.17901 -0.69977,5.93292 z m -38.17357,-14.16811 c 4.67463,-17.7846 2.9608,12.74777 0,0 z m -31,0.82038 c 2.79006,-23.04779 7.26953,2.23896 0,0 z m 86.07805,-8.60254 c -6.92307,-14.57718 -0.15343,-12.18561 2.96719,-0.29346 2.07409,2.64682 2.65199,10.24537 -1.04979,3.77325 z m -26.49043,-3.34719 c -0.46683,-18.02391 5.75645,6.90472 0,0 z m -65.58762,-5.91384 c 1.60318,-18.997135 6.8718,-6.04094 12.37423,2.96093 -7.12898,-3.95579 -11.93373,-1.23638 -12.37423,-2.96093 z m 38,-4.95242 c 10.01577,-39.226779 0.85008,15.08496 0,0 z m -28,0.49888 c 6.21535,-22.166245 15.6273,-44.833522 31.76667,-61.325706 -12.51016,18.6846 -23.43256,43.321711 -31.76667,61.325706 z m 64.00374,-21.875715 c 5.71959,-22.545403 6.01413,2.67988 0,0 z m -9.33707,0.0833 c -2.19352,-10.52734 6.73586,-0.72902 0,0 z m -25.31303,-11.35155 c 5.93138,-19.205532 18.47337,-40.246188 34.16712,-50.53842 -13.39182,16.460878 -26.81445,33.590376 -34.15359,53.62039 l -0.26026,-0.33641 z m -7.35364,0.0182 c 6.41012,-6.790505 -1.95157,6.55193 0,0 z m 97.01078,-5.716621 c 8.33266,-15.926812 14.30832,-9.282951 0,0 z m -45.01078,-8.2642 c 7.41665,-19.877711 9.31958,-5.948215 0,0 z m 35.98152,-1.47056 c 15.09495,-30.652961 4.52946,4.849054 0,0 z m 19.01848,-3.30373 c 4.16527,-7.724785 3.33235,1.158763 0,0 z m -25,-4.78473 c 6.12846,-13.115627 14.38579,-28.518092 28,-33.17703 -8.77351,11.077656 -20.21724,22.969569 -28,33.17703 z m -21,-12.63454 c 4.42816,-10.553085 28.27135,-36.1864495 10.34387,-11.78715 -2.96404,2.540991 -7.75901,13.346478 -10.34387,11.78715 z m 58,0.38699 c 3.55842,-10.55759 22.39656,-21.592697 6.14687,-5.703091 -2.01496,1.929283 -3.7731,4.176566 -6.14687,5.703091 z m 16,-17.106 c 6.20244,-10.921428 7.99134,1.292906 0,0 z m 7,-5.91644 c 7.07674,-11.4725105 7.47711,-0.08601 0,0 z M 285.75963,196.52523 c 4.63177,-12.2591 -2.91483,-14.35604 -5.61306,-20.96566 -4.40302,9.34378 2.01786,18.72165 3.79637,25.3944 z m 135.45569,0.58271 c 13.21564,-13.09953 27.79408,-17.1517 36.47819,-34.36005 0.62161,-15.8165 -14.46693,21.11336 -23.8394,16.23054 -4.0452,5.33478 -13.19866,20.18072 -8.42356,4.98579 -6.18165,2.47544 -21.19687,25.03426 -4.21523,13.14372 z m -161.07747,-0.94826 c 1.81841,-12.82568 -9.60274,7.91381 0,0 z m 73.93801,-0.01 c 6.79829,-10.71721 -12.60023,4.41268 0,0 z m -40.23351,-10.11832 c -0.77849,-25.19393 -8.04802,6.66242 -2.75754,8.97683 1.3337,-2.84286 2.24327,-5.87908 2.75754,-8.97683 z m -40.74572,3.00919 c -5.06645,-12.92883 -5.65893,8.3484 0,0 z m -7.89609,-1.48339 c 2.55073,-32.24612 -9.8368,12.3141 0,0 z m 15.55168,-3.60043 c 3.1496,-7.49386 -12.50253,-38.43656 -4.98496,-31.06615 4.64531,8.36018 9.60128,21.33903 10.05517,3.53249 -4.09484,-10.776 -15.09568,-25.89191 -22.95299,-15.83186 -8.32881,-12.61752 -19.72211,-21.8247 -24.90006,-7.74798 -4.00082,-9.0516 -15.60471,-12.44086 -17.65226,-9.77358 -4.29039,-16.40052 -4.87505,7.37686 1.62048,12.54466 4.90941,14.22892 5.57956,-7.92709 9.33894,9.15607 11.04537,14.8633 5.0609,1.40403 9.6167,-4.40748 9.03433,-7.8462 2.78648,43.256 10.55403,26.34575 -0.65816,-9.01094 9.19335,25.93311 7.00702,2.40798 -5.49414,-10.48507 -9.05793,-41.1297 -0.081,-14.70565 -2.34493,9.85078 13.00341,31.07346 8.41527,10.10045 -10.13691,-23.53346 11.16774,4.62686 7.07717,8.1953 -10.4188,-1.30482 11.6672,27.33361 6.88647,11.25 z m 107.37486,2.65084 c 21.05387,-5.91051 46.55691,-10.43162 59.17129,-30.14317 0.14866,-5.94441 25.73491,-19.64418 28.31943,-32.83824 -7.63705,2.59752 -31.90789,20.95783 -30.78685,14.39161 10.37383,-3.84817 37.50558,-21.56102 31.34847,-27.05115 -6.25016,8.74466 -42.98871,25.39282 -16.57434,9.17173 8.21397,-4.32094 17.91796,-16.02789 1.84333,-6.72765 8.09009,-5.476 27.53453,-29.021775 6.76349,-13.604565 -16.02806,17.141155 -38.1412,26.021065 -57.99021,37.190715 16.95757,-0.94322 -14.10734,5.88022 -12.613,16.23703 -2.66995,9.87379 -18.00313,18.92425 -15.98588,24.57527 28.49797,-3.67306 -26.36924,7.65978 -3.41495,10.16517 3.32029,-0.35118 6.62075,-0.85643 9.91922,-1.36675 z m 29.17129,-15.90084 c 7.97018,-5.38339 5.14097,1.44537 0,0 z m -21,-3 c 14.11584,-3.43785 4.22062,3.79202 0,0 z m 6.5,-9 c 9.5823,-3.27687 4.98999,2.21048 -1.10982,0.7162 z m 31,0 c 13.83683,-4.04636 -3.68729,3.54297 0,0 z m -18,-3 c 13.83683,-4.04636 -3.68729,3.54297 0,0 z m 22.94447,-4.91015 c 8.79296,-7.66545 21.18003,-9.40507 4.24076,-0.18133 2.41539,-0.81435 -5.91443,2.80716 -4.24076,0.18133 z m -5.44447,-13.58985 c 10.94492,-4.88038 -5.50834,4.81622 0,0 z m -67.4427,49.08176 c -0.19699,-9.62265 -18.57179,5.586 0,0 z m -76.32158,-10.66294 c 10.19189,-23.55333 -13.6257,-4.44327 -3.87273,7.79352 1.88145,-2.27241 2.77665,-5.11431 3.87273,-7.79352 z m 79.9848,4.03674 c 21.35,-15.57882 -18.90958,2.52862 0,0 z m 95.69216,-13.69366 c 8.51751,-6.94965 8.18335,-24.39947 -1.23865,-7.94814 -5.89378,5.96785 -9.46962,21.91779 1.23865,7.94814 z m -83.83576,1.81502 c 10.03692,-16.3156 -22.86885,12.05942 0,0 z m -136.55327,-5.11518 c 1.18243,-12.60055 -5.71087,-27.66718 -2.71755,-6.1169 0.10449,0.15965 -0.36403,10.43213 2.71755,6.1169 z m -5.52365,-2.27996 c -10.39829,-22.86497 -7.5039,4.07465 0,0 z m 151.60386,-3.88262 c 3.54432,-11.27626 -20.39449,9.82838 -2.02971,2.47664 l 2.02971,-2.47662 z m 6.17363,-8.35586 c 8.25893,-11.14191 -15.14728,6.24986 0,0 z m 5.66581,-7.66581 c 3.27652,-12.17721 -10.24682,6.51368 0,0 z M 268.23091,118.20673 c -0.58143,-8.96907 10.32277,-29.145865 5.81057,-32.515535 -9.07189,9.23939 -7.51857,34.905765 -14.1776,37.996295 2.76888,-22.9773 -16.8141,-5.24074 -9.76384,5.70803 10.36847,-23.47602 -0.93762,9.23889 13.91723,9.55342 1.46483,-6.9015 2.81877,-13.82633 4.21364,-20.74221 z m 122.16317,10.78439 c 10.57103,-14.21833 -15.13949,5.89083 0,0 z m 18.72637,-6.78439 c 11.383,-0.63661 43.82582,-27.478175 16.36698,-15.41361 -8.38323,-0.0767 34.98311,-12.945045 24.72788,-20.588695 -12.4936,6.87558 -38.78557,7.03167 -38.49778,21.790605 15.30158,-0.83797 -26.07074,12.97136 -6.0989,-1.23192 9.05324,-13.727175 29.25602,-21.157435 29.13356,-38.854863 -12.79362,2.68055 -11.31833,23.755938 -22.36309,21.273528 -3.63229,7.51926 -23.8803,29.891605 -15.6496,30.993155 12.08191,-3.97216 17.23735,-3.50288 2.36259,2.58379 -11.89503,7.56633 3.24966,3.74548 7.55724,0.55284 z m 54.10179,-0.22381 c 16.11533,-31.226605 -18.94612,15.09573 0,0 z m -269.38425,-5.40104 c -5.30136,-15.47976 -4.83804,9.74678 0,0 z M 434.53068,87.996485 c 16.4884,1.3796 25.20158,-15.813451 33.02655,-26.856027 6.86411,-11.777428 -16.21206,8.621648 -16.9027,13.199079 2.70072,-17.410512 -10.67811,11.095228 -19.46699,8.183288 -7.03712,3.86928 -2.24422,10.38049 3.34314,5.47366 z m 31.023,-4.28976 c 14.62736,-16.338326 -8.51404,-3.14427 -4.50144,3.51482 1.28996,-1.41206 2.3528,-3.08352 4.50144,-3.51482 z M 444.81306,69.376234 c 7.78913,-4.91667 34.80574,-28.760905 10.1239,-14.113207 -19.14937,10.496764 27.5047,-24.21555 1.9325,-12.728276 4.19327,-21.134732 -7.52425,16.635741 -20.9743,13.308981 -12.47221,12.292543 4.47712,7.039703 10.36217,3.607733 -8.39336,1.62851 -10.53047,23.92409 -1.44427,9.924769 z m 25.12077,-1.2359 c 3.17054,-11.194275 -12.7962,13.232201 0,0 z m -19.26927,-25.20071 c 0.0319,-13.090437 -10.25285,13.062084 0,0 z m 21.14534,-4.2552 c 3.15767,-15.634345 -7.95532,8.650863 0,0 z m -5.71153,-5.1777 c 6.14714,-14.8468 -8.80494,4.05711 0,0 z"
     style="fill:#000000" />
</svg>
