<?xml version="1.0" encoding="UTF-8" standalone="no"?>
<svg
   xmlns:dc="http://purl.org/dc/elements/1.1/"
   xmlns:cc="http://creativecommons.org/ns#"
   xmlns:rdf="http://www.w3.org/1999/02/22-rdf-syntax-ns#"
   xmlns:svg="http://www.w3.org/2000/svg"
   xmlns="http://www.w3.org/2000/svg"
   xmlns:sodipodi="http://sodipodi.sourceforge.net/DTD/sodipodi-0.dtd"
   xmlns:inkscape="http://www.inkscape.org/namespaces/inkscape"
   width="112.0911"
   height="24.538334"
   viewBox="0 0 112.09111 161.953"
   version="1.1"
   id="svg5973"
   sodipodi:docname="logo.svg"
   inkscape:version="0.92.5 (2060ec1f9f, 2020-04-08)">
  <metadata
     id="metadata5979">
    <rdf:RDF>
      <cc:Work
         rdf:about="">
        <dc:format>image/svg+xml</dc:format>
        <dc:type
           rdf:resource="http://purl.org/dc/dcmitype/StillImage" />
        <dc:title></dc:title>
      </cc:Work>
    </rdf:RDF>
  </metadata>
  <defs
     id="defs5977" />
  <sodipodi:namedview
     pagecolor="#ffffff"
     bordercolor="#666666"
     borderopacity="1"
     objecttolerance="10"
     gridtolerance="10"
     guidetolerance="10"
     inkscape:pageopacity="0"
     inkscape:pageshadow="2"
     inkscape:window-width="1920"
     inkscape:window-height="1019"
     id="namedview5975"
     showgrid="false"
     inkscape:zoom="6.4188913"
     inkscape:cx="48.160101"
     inkscape:cy="9.4009219"
     inkscape:window-x="0"
     inkscape:window-y="30"
     inkscape:window-maximized="1"
     inkscape:current-layer="svg5973"
     fit-margin-top="0"
     fit-margin-left="0"
     fit-margin-right="0"
     fit-margin-bottom="0" />
  <path
     d="m -63.741433,41.062608 c -12.391294,2.950041 -23.363084,4.829916 -34.490074,5.834071 -11.176133,1.008591 -30.221723,12.349611 -30.221723,12.349611 0,0 5.07135,-5.709204 21.01882,-13.275183 -5.78314,-0.151836 -11.2672,-0.641447 -16.49942,-1.3894 -10.81429,13.150633 -17.43143,26.371292 -22.94174,39.365255 22.99779,-6.411526 45.62347,-14.915523 64.298893,-26.021161 -20.166313,14.80277 -43.488523,25.17729 -66.986063,32.567993 -8.59227,21.486096 -15.24758,42.616126 -34.18421,58.976076 l -2.21843,1.918 c 18.1092,-6.27681 45.68241,-20.28367 75.23746,-49.89061 -16.29141,6.12573 -32.87065,5.45035 -32.87065,5.45035 0,0 29.07737,-6.04034 48.233293,-22.221207 12.3438,-10.426723 21.077383,-26.736735 31.623844,-43.663795 z M -167.37107,0.5876183 c -6.63979,0.081467 -18.36801,1.3489689 -25.92868,4.3566432 -19.24789,7.6569215 -26.23449,25.5131095 -26.23449,25.5131095 0,0 1.67074,-16.874953 20.13046,-27.095146 -15.51026,2.5471908 -28.71008,6.909593 -38.46497,13.549891 -10.04621,6.838611 -17.50114,19.187212 -17.68725,26.092064 -1.70106,-8.505059 1.69369,-19.718361 10.34735,-27.032304 -13.37689,6.137621 -26.56184,15.690066 -34.48772,28.100881 -8.92984,13.982897 -10.819,28.477684 -10.819,28.477684 0,0 -3.87378,-10.704506 9.53487,-35.03005 -13.94355,13.961141 -24.0585,34.37859 -24.54868,47.761488 -0.75596,20.638951 10.03576,35.322131 18.64758,27.800611 25.16256,-21.66293 62.96425,-74.458921 135.35447,-93.399155 -65.71106,17.790146 -112.06924,80.222425 -124.23963,95.921285 -12.1692,15.69887 1.92742,41.4696 30.77545,45.48243 28.84683,4.01522 45.04262,-6.6762 56.73235,-16.77536 7.98193,-6.89647 13.62142,-14.82152 18.23733,-23.48681 -10.92043,9.09472 -49.3753,5.82664 -49.3753,5.82664 0,0 46.96541,0.58631 54.17009,-15.79064 3.53296,-8.03074 9.66151,-27.254773 20.11411,-46.273125 -5.0409,4.288894 -44.10843,10.369169 -44.10843,10.369169 0,0 42.96922,-8.251039 48.80089,-17.530266 5.83168,-9.279228 26.01125,-35.137723 48.224403,-49.80084 C -118.48681,2.75033 -142.95807,0.2881032 -167.37107,0.5876183 Z"
     id="path5969"
     inkscape:connector-curvature="0"
     sodipodi:nodetypes="csccccccccccscssccsccsccscccccccscczcs"
     style="stroke-width:1.18979049" />
  <path
     d="m 264.07848,53.625 c -3.094,0 -6.187,0.79 -9.281,2.372 -1.513,0.825 -2.75,1.787 -3.713,2.887 -0.893,1.1 -1.34,2.269 -1.34,3.507 0,1.168 0.344,1.993 1.031,2.475 l 2.063,1.443 c 2.062,1.513 3.093,3.85 3.093,7.013 0,5.912 -4.056,19.01 -12.168,39.29 l -5.775,14.129 c -1.65,3.85 -3.094,7.012 -4.332,9.487 l -3.918,8.353 c -1.513,3.025 -2.27,5.053 -2.27,6.085 0,2.612 1.307,5.018 3.92,7.218 1.237,1.032 2.68,1.857 4.33,2.475 a 14.047,14.047 0 0 0 5.26,1.032 c 1.856,0 3.3,-0.585 4.331,-1.754 1.1,-1.237 2.372,-3.334 3.816,-6.29 l 5.569,-11.963 c 2.269,-5.018 5.397,-11.31 9.384,-18.872 l 16.913,-21.553 8.765,-10.518 c 2.888,-3.37 6.291,-7.082 10.21,-11.138 3.918,-4.125 6.943,-6.187 9.075,-6.187 3.781,0 5.672,1.271 5.672,3.815 0,2.544 -1.066,6.016 -3.197,10.416 l -3.507,7.322 c -1.512,3.025 -4.09,8.628 -7.734,16.81 -5.019,11.962 -7.528,21.93 -7.528,29.905 0,6.532 2.028,11.62 6.084,15.263 a 16.638,16.638 0 0 0 6.085,3.61 c 2.337,0.755 5.26,1.134 8.765,1.134 3.507,0 7.357,-1.41 11.55,-4.229 6.257,-4.125 9.385,-9.246 9.385,-15.365 0,-1.444 -0.722,-2.166 -2.166,-2.166 -0.687,0 -2.234,0.619 -4.64,1.856 -2.338,1.238 -4.95,1.857 -7.838,1.857 -3.713,0 -5.569,-1.17 -5.569,-3.507 0,-5.225 2.578,-13.578 7.735,-25.059 a 275.089,275.089 0 0 1 5.156,-11.137 c 1.856,-3.713 4.022,-8.525 6.497,-14.438 2.475,-5.912 3.712,-11.584 3.712,-17.016 0,-5.43 -1.89,-9.9 -5.672,-13.406 -1.787,-1.65 -3.884,-2.922 -6.29,-3.815 -2.407,-0.894 -5.363,-1.341 -8.869,-1.341 -3.506,0 -8.319,2.062 -14.438,6.187 -3.025,1.994 -7.184,6.085 -12.478,12.272 l -7.218,8.663 c -2.407,3.025 -7.425,9.831 -15.057,20.419 -0.275,0.412 -0.137,0.068 0.413,-1.032 l 2.062,-4.434 c 0.894,-1.925 1.891,-4.194 2.991,-6.806 a 158.19,158.19 0 0 0 3.094,-7.941 66.759,66.759 0 0 0 2.475,-8.044 c 0.687,-2.681 1.031,-5.328 1.031,-7.94 0,-2.613 -1.272,-5.122 -3.816,-7.528 -1.168,-1.17 -2.612,-2.097 -4.33,-2.785 -1.72,-0.687 -4.16,-1.031 -7.323,-1.031 z m -58.884,0 c -4.125,0 -7.735,0.79 -10.828,2.372 -1.513,0.825 -2.75,1.787 -3.713,2.887 -0.894,1.1 -1.34,2.269 -1.34,3.507 0,1.168 0.343,1.993 1.03,2.475 l 2.063,1.443 c 0.757,0.55 1.444,1.34 2.063,2.372 0.687,0.963 1.031,2.99 1.031,6.085 0,3.093 -1.994,9.487 -5.981,19.18 l -5.466,12.995 a 305.237,305.237 0 0 0 -5.569,13.303 c -1.65,4.33 -3.059,8.49 -4.228,12.478 -1.1,3.919 -1.65,7.494 -1.65,10.725 0,3.231 0.55,5.981 1.65,8.25 2.957,6.462 8.422,9.694 16.397,9.694 6.944,0 12.478,-2.407 16.603,-7.22 2.82,-3.3 4.228,-6.496 4.228,-9.59 0,-2.337 -0.893,-3.506 -2.68,-3.506 -0.688,0 -1.788,0.378 -3.3,1.134 -1.513,0.757 -3.748,1.135 -6.704,1.135 -3.025,0 -4.537,-1.513 -4.537,-4.538 0,-4.606 2.268,-12.134 6.806,-22.584 l 6.187,-14.231 c 2.27,-4.882 5.02,-11.275 8.25,-19.182 3.232,-7.975 4.847,-15.056 4.847,-21.243 0,-5.294 -5.053,-7.941 -15.16,-7.941 z m 200.165,-27.638 c -1.856,0 -3.54,0.55 -5.053,1.65 -3.162,2.407 -8.456,12.307 -15.88,29.7 h -8.148 c -2.475,0 -4.915,0.997 -7.322,2.991 -1.03,0.894 -1.89,1.822 -2.578,2.784 -0.619,0.963 -0.928,1.822 -0.928,2.579 0,0.687 0.103,1.34 0.31,1.959 0.687,2.062 4.984,3.437 12.89,4.125 -14.025,38.087 -19.284,63.01 -15.778,74.766 2.956,9.9 9.969,14.85 21.037,14.85 6.394,0 12.754,-2.029 19.079,-6.085 5.568,-3.575 9.28,-7.356 11.137,-11.344 1.375,-2.13 2.063,-4.33 2.063,-6.6 0,-2.68 -0.997,-4.021 -2.991,-4.021 -0.963,0 -2.131,0.515 -3.506,1.546 a 109.048,109.048 0 0 1 -4.744,3.507 c -1.856,1.237 -4.022,2.372 -6.497,3.403 -2.475,1.031 -5.225,1.547 -8.25,1.547 -3.025,0 -5.087,-0.653 -6.187,-1.96 -1.1,-1.375 -1.65,-3.265 -1.65,-5.672 0,-8.593 3.953,-23.615 11.859,-45.065 l 7.012,-18.15 h 0.825 c 21.45,0 32.175,-4.538 32.175,-13.613 0,-1.443 -0.996,-2.165 -2.99,-2.165 -1.925,0 -3.54,0.034 -4.847,0.103 l -5.878,0.103 c -2.613,0.069 -6.05,0.103 -10.313,0.103 h -2.475 l 7.632,-16.603 c 0.825,-1.788 1.237,-3.369 1.237,-4.744 0,-2.544 -1.1,-4.847 -3.3,-6.91 a 10.28,10.28 0 0 0 -3.3,-2.062 c -1.237,-0.481 -2.784,-0.722 -4.64,-0.722 z M 218.60048,4.641 c -2.887,0 -5.981,1.065 -9.281,3.196 -1.719,1.1 -3.163,2.544 -4.331,4.332 -1.1,1.718 -1.65,4.33 -1.65,7.837 0,3.506 1.478,6.978 4.434,10.416 1.375,1.65 2.99,2.922 4.847,3.815 a 11.554,11.554 0 0 0 6.084,1.032 18.927,18.927 0 0 0 6.085,-1.857 20.466,20.466 0 0 0 5.156,-3.918 19.45,19.45 0 0 0 3.61,-5.672 c 0.962,-2.2 1.443,-4.916 1.443,-8.147 0,-3.3 -1.684,-6.084 -5.053,-8.353 a 13.591,13.591 0 0 0 -4.538,-2.063 c -1.58,-0.412 -3.85,-0.618 -6.806,-0.618 z M 78.350483,0 c -1.375,0 -2.887,0.172 -4.537,0.516 -5.982,1.1 -11.241,3.265 -15.779,6.496 -4.537,2.75 -9.143,6.635 -13.818,11.654 -13.2,14.093 -25.85,32.827 -37.9499998,56.203 l -13.097,24.13 c -4.1940002,7.632 -8.2160002,14.542 -12.0660002,20.729 -3.85,6.119 -7.425,11.378 -10.725,15.778 -3.3,4.331 -5.81,7.185 -7.528,8.56 l -5.156,3.918 c -1.788,1.238 -4.813,2.44 -9.075,3.61 -0.619,0.206 -0.928,0.825 -0.928,1.856 0,1.031 0.412,2.166 1.237,3.403 2.131,3.025 5.603,4.538 10.416,4.538 5.637,0 10.897,-1.72 15.778,-5.157 6.737,-4.743 15.6400002,-17.187 26.7100002,-37.331 L 28.437483,69.919 c 2.75,-5.157 7.493,-13.338 14.23,-24.544 8.8,-14.025 16.81,-23.066 24.029,-27.122 -7.425,16.844 -13.475,33.825 -18.15,50.944 A 318.358,318.358 0 0 0 41.843483,99 c -1.719,10.106 -2.578,20.694 -2.578,31.762 0,11 0.928,18.804 2.784,23.41 2.063,4.812 5.878,7.219 11.447,7.219 5.706,0 15.228,-12.444 28.566,-37.332 L 107.01848,76.828 c 15.606,-29.287 28.497,-48.503 38.672,-57.647 l -9.282,23.616 c -3.368,8.319 -6.668,17.084 -9.9,26.297 -3.162,9.143 -6.462,20.178 -9.9,33.103 -3.437,12.856 -5.156,23.753 -5.156,32.69 0,8.388 2.131,14.954 6.394,19.697 1.994,2.269 4.331,3.988 7.012,5.157 2.75,1.1 6.429,1.65 11.035,1.65 4.675,0 9.11,-1.375 13.303,-4.125 1.787,-1.17 3.266,-2.407 4.434,-3.713 a 24.687,24.687 0 0 0 3.094,-4.331 c 0.894,-1.581 1.34,-3.575 1.34,-5.981 0,-2.475 -0.859,-3.713 -2.577,-3.713 -0.62,0 -1.307,0.206 -2.063,0.619 l -2.681,1.237 c -1.031,0.482 -2.269,0.928 -3.713,1.34 -1.375,0.345 -3.3,0.517 -5.775,0.517 -2.475,0 -4.434,-1.238 -5.878,-3.713 -1.375,-2.544 -1.856,-6.05 -1.444,-10.519 1.1,-10.587 4.607,-25.78 10.52,-45.58 l 5.362,-17.12 14.953,-43.622 a 838.41,838.41 0 0 0 2.99,-8.765 c 0.757,-2.338 -0.068,-4.606 -2.475,-6.806 a 13.036,13.036 0 0 0 -3.506,-2.166 c -1.306,-0.619 -3.094,-0.928 -5.362,-0.928 -2.269,0 -5.088,0.55 -8.457,1.65 -16.225,5.087 -33.79,25.162 -52.695997,60.225 l -12.272,23.41 -11.653,22.996 c -3.713,7.425 -7.391,14.266 -11.035,20.522 1.238,-29.425 8.353,-62.081 21.347,-97.969 l 5.569,-14.747 c 1.581,-4.125 2.647,-7.218 3.197,-9.28 1.237,-3.438 0.343,-6.188 -2.682,-8.25 -1.306,-0.895 -2.853,-1.548 -4.64,-1.96 -1.719,-0.413 -3.3,-0.619 -4.744,-0.619 z"
     id="path5971"
     inkscape:connector-curvature="0" />
</svg>
