<?xml version="1.0" encoding="UTF-8" standalone="no"?>
<svg
   xmlns:dc="http://purl.org/dc/elements/1.1/"
   xmlns:cc="http://creativecommons.org/ns#"
   xmlns:rdf="http://www.w3.org/1999/02/22-rdf-syntax-ns#"
   xmlns:svg="http://www.w3.org/2000/svg"
   xmlns="http://www.w3.org/2000/svg"
   xmlns:sodipodi="http://sodipodi.sourceforge.net/DTD/sodipodi-0.dtd"
   xmlns:inkscape="http://www.inkscape.org/namespaces/inkscape"
   id="svg5973"
   version="1.1"
   viewBox="0 0 107.99535 158.4"
   height="24"
   width="107.99534"
   sodipodi:docname="logo.svg"
   inkscape:version="0.92.5 (2060ec1f9f, 2020-04-08)"
   inkscape:export-filename="/home/gus/Projects/mint-lang/mint-website/assets/logo.png"
   inkscape:export-xdpi="355.57001"
   inkscape:export-ydpi="355.57001">
  <sodipodi:namedview
     pagecolor="#ffffff"
     bordercolor="#666666"
     borderopacity="1"
     objecttolerance="10"
     gridtolerance="10"
     guidetolerance="10"
     inkscape:pageopacity="0"
     inkscape:pageshadow="2"
     inkscape:window-width="3840"
     inkscape:window-height="2038"
     id="namedview911"
     showgrid="false"
     inkscape:zoom="32"
     inkscape:cx="82.691958"
     inkscape:cy="21.13357"
     inkscape:window-x="0"
     inkscape:window-y="60"
     inkscape:window-maximized="1"
     inkscape:current-layer="svg5973" />
  <metadata
     id="metadata5979">
    <rdf:RDF>
      <cc:Work
         rdf:about="">
        <dc:format>image/svg+xml</dc:format>
        <dc:type
           rdf:resource="http://purl.org/dc/dcmitype/StillImage" />
        <dc:title />
      </cc:Work>
    </rdf:RDF>
  </metadata>
  <defs
     id="defs5977">
    <meshgradient
       gradientTransform="translate(478.9411,-372.76902)"
       y="-3.3395451e-09"
       x="-302.38693"
       gradientUnits="userSpaceOnUse"
       id="meshgradient2285">
      <meshrow
         id="meshrow2287">
        <meshpatch
           id="meshpatch2289">
          <stop
             id="stop2291"
             style="stop-color:#a5d277;stop-opacity:1"
             path="c 79.2,0  158.4,0  237.6,0" />
          <stop
             id="stop2293"
             style="stop-color:#7bbb5e;stop-opacity:1"
             path="c 0,52.8  0,105.6  0,158.4" />
          <stop
             id="stop2295"
             style="stop-color:#9ccc66;stop-opacity:1"
             path="c -79.2,0  -158.4,0  -237.6,0" />
          <stop
             id="stop2297"
             style="stop-color:#245129;stop-opacity:1"
             path="c 0,-52.8  0,-105.6  0,-158.4" />
        </meshpatch>
      </meshrow>
    </meshgradient>
    <meshgradient
       y="-3.3395451e-09"
       x="-302.38693"
       gradientTransform="translate(6.7174088e-6,1.4019086e-5)"
       gradientUnits="userSpaceOnUse"
       id="meshgradient3715">
      <meshrow
         id="meshrow3727">
        <meshpatch
           id="meshpatch3725">
          <stop
             path="c 79.2,0  158.4,0  237.6,0"
             style="stop-color:#a6d28f;stop-opacity:1"
             id="stop3717" />
          <stop
             path="c 0,52.8  0,105.6  0,158.4"
             style="stop-color:#8dc774;stop-opacity:1"
             id="stop3719" />
          <stop
             path="c -79.2,0  -158.4,0  -237.6,0"
             style="stop-color:#79c26b;stop-opacity:1"
             id="stop3721" />
          <stop
             path="c 0,-52.8  0,-105.6  0,-158.4"
             style="stop-color:#2a672c;stop-opacity:1"
             id="stop3723" />
        </meshpatch>
      </meshrow>
    </meshgradient>
  </defs>
  <path
     id="path856"
     d="M -5.3867188,0 V 1.9414062 6.140625 h 3.1015626 c 0.5501896,0 1.0194383,0.1676733 1.67773432,0.8066406 l 0.0625,0.060547 0.0683594,0.054687 c 0.70270232,0.5683908 1.3142345,1.322705 1.82812498,2.3203125 0.5434113,1.0548959 0.9499967,2.1806609 1.2265625,3.3886719 0.285911,1.248935 0.4160156,2.311638 0.4160156,3.177735 V 136.41602 c 0,1.0343 -0.1380224,2.26816 -0.4238281,3.6621 -0.2764176,1.19994 -0.6785056,2.31843 -1.21875,3.36719 -0.5276492,1.02429 -1.17769778,1.89791 -1.95898436,2.65625 -0.65829204,0.63897 -1.12753614,0.80469 -1.67773434,0.80469 h -3.1015626 v 6.14258 H 23.882812 v -6.14258 h -3.115234 c -0.772467,0 -1.290155,-0.2029 -1.910156,-0.80469 -0.790692,-0.76747 -1.519225,-1.68181 -2.208984,-2.74023 -0.526525,-1.0375 -0.935967,-2.12871 -1.203126,-3.29102 -0.284527,-1.39022 -0.419921,-2.62223 -0.419921,-3.65429 V 33.736328 L 70.132812,158.40234 128.26953,26.742188 V 136.41602 c 0,1.03151 -0.13572,2.263 -0.41992,3.65234 -0.25878,1.12486 -0.71183,2.18796 -1.37305,3.21484 l -0.0508,0.0781 -0.043,0.084 c -0.53266,1.03402 -1.17045,1.90415 -1.94531,2.65625 -0.6583,0.63897 -1.12754,0.80469 -1.67773,0.80469 h -3.10157 v 6.14258 h 36.93946 v -6.14258 h -3.10157 c -0.77247,0 -1.29012,-0.20288 -1.91015,-0.80469 -0.7907,-0.76748 -1.51925,-1.68183 -2.20899,-2.74023 -0.52652,-1.03749 -0.93595,-2.12869 -1.20312,-3.29102 -0.28453,-1.39021 -0.41992,-2.62222 -0.41992,-3.65429 V 15.949219 c 0,-0.86611 0.1301,-1.928814 0.41601,-3.177735 0.26652,-1.164184 0.67845,-2.257766 1.20508,-3.2968746 0.67065,-1.0253585 1.36443,-1.8332391 2.08008,-2.4121094 l 0.0684,-0.054687 0.0625,-0.060547 c 0.62002,-0.6018077 1.13767,-0.8066406 1.91015,-0.8066406 h 3.10157 V 0 H 127.08398 L 74.322266,120.71875 21.574219,0 Z M 384.33203,13.310547 381.8125,14.09375 357.16211,21.753906 v 5.556641 l 1.86719,0.07227 c 1.753,0.06806 3.01098,0.389991 3.75781,0.791016 0.74683,0.401025 1.02623,0.769419 1.20117,1.40625 l 0.0215,0.08008 0.0273,0.07617 c 0.6877,1.868941 1.04102,3.966663 1.04101,6.333984 v 18.177735 h -13.0332 v 11.558594 h 13.0332 v 49.365234 c 0,4.39233 0.0777,8.71294 0.23438,12.95703 l 0.002,0.0352 0.002,0.0352 c 0.32312,4.39415 1.2209,8.44329 2.70117,12.11522 1.53319,3.80297 4.06481,6.92812 7.46484,9.23828 3.55289,2.414 8.29505,3.4961 14.12696,3.4961 4.66495,0 8.26833,-0.56729 10.93945,-2.04297 2.39262,-1.24075 4.2757,-2.41981 5.68555,-3.61718 l 0.0488,-0.041 0.0469,-0.0449 c 0.58166,-0.56459 1.16079,-0.80664 2.14062,-0.80664 h 1.94141 v -20.38085 h -5.64649 l -0.29296,1.5918 c -0.71149,3.86728 -2.38077,7.08792 -5.07422,9.83985 l -0.0176,0.0176 -0.0176,0.0195 c -2.53998,2.73935 -4.99359,3.90625 -7.65234,3.90625 -1.82598,0 -3.01057,-0.42573 -3.82422,-1.09765 -0.92365,-0.91648 -1.68604,-2.23134 -2.22852,-4.07421 -0.56077,-1.90451 -0.94783,-4.39807 -1.09765,-7.45313 -0.15321,-3.12509 -0.22852,-6.62745 -0.22852,-10.51953 V 65.806641 h 26.08008 V 54.248047 h -26.08008 z m -191.7207,5.673828 c -3.54283,0 -6.76385,1.27687 -9.26953,3.708984 l -0.0254,0.02539 -0.0234,0.02539 c -2.34027,2.446267 -3.55664,5.58857 -3.55664,9.03125 0,3.442679 1.22866,6.540665 3.60547,8.847656 l 0.0273,0.02539 0.0254,0.02344 c 2.5141,2.265986 5.70257,3.441406 9.2168,3.441406 3.51422,0 6.70268,-1.175421 9.21679,-3.441406 2.53996,-2.289284 3.9043,-5.415247 3.9043,-8.896484 0,-3.481238 -1.34641,-6.650432 -3.85156,-9.082032 -2.50569,-2.432113 -5.72671,-3.708984 -9.26953,-3.708984 z m 12.65625,31.847656 -2.51953,0.78125 -24.64844,7.660157 v 5.333984 l 1.86328,0.07617 c 1.65639,0.067 2.84702,0.392995 3.60156,0.822265 0.75455,0.429271 1.13201,0.896775 1.38282,1.675782 l 0.006,0.01758 0.008,0.01758 c 0.70287,2.046691 1.05468,4.224459 1.05468,6.591797 v 62.607424 c 0,1.03206 -0.13538,2.26407 -0.41992,3.65429 -0.27645,1.20324 -0.67915,2.32371 -1.2207,3.375 -0.52763,1.02427 -1.17964,1.89791 -1.96094,2.65625 -0.61997,0.60178 -1.1357,0.80469 -1.9082,0.80469 h -1.94336 v 6.14258 h 34.15625 v -6.14258 h -1.94141 c -0.77247,0 -1.29016,-0.20291 -1.91015,-0.80469 -0.77486,-0.75211 -1.41266,-1.62224 -1.94531,-2.65625 -0.54522,-1.0584 -0.9584,-2.17835 -1.23243,-3.36719 -0.28579,-1.39395 -0.42187,-2.6278 -0.42187,-3.6621 z m 55.42383,0.232422 -2.51758,0.78125 -24.65039,7.660156 v 5.320313 l 1.86328,0.07617 c 1.65631,0.067 2.84317,0.392069 3.59375,0.820312 0.75058,0.428243 1.12714,0.89574 1.37891,1.677735 l 0.006,0.01758 0.006,0.01758 c 0.70428,2.050791 1.06836,4.244646 1.06836,6.605469 v 62.375002 c 0,1.03321 -0.13669,2.26606 -0.42187,3.6582 -0.25904,1.12238 -0.70924,2.18411 -1.36914,3.20898 l -0.0508,0.0781 -0.043,0.084 c -0.53267,1.03401 -1.17239,1.90413 -1.94727,2.65625 -0.65829,0.63897 -1.12753,0.80469 -1.67773,0.80469 h -1.94141 v 6.14258 h 34.15625 v -6.14258 h -1.94336 c -0.75744,0 -1.26695,-0.21408 -1.87109,-0.78906 -0.66272,-0.78121 -1.34004,-1.69099 -2.02149,-2.74024 -0.52381,-1.03014 -0.92253,-2.12326 -1.19336,-3.29883 -0.28585,-1.39383 -0.42382,-2.62773 -0.42382,-3.6621 V 86.242188 c 0,-2.844878 0.67703,-5.509112 2.08007,-8.101563 1.6018,-2.822076 3.54919,-5.194369 5.84766,-7.146484 l 0.004,-0.002 0.002,-0.0039 c 2.47992,-2.123908 5.24041,-3.80935 8.31445,-5.089843 3.20416,-1.270273 6.364,-1.896485 9.51563,-1.896485 3.15669,0 6.23306,0.624723 9.27148,1.888672 l 0.0508,0.01953 0.0488,0.01758 c 3.12996,1.104752 5.88307,2.887416 8.33203,5.404297 2.43523,2.502751 4.39695,5.643718 5.86914,9.501953 1.44907,3.797581 2.19336,8.305865 2.19336,13.546875 v 42.03516 c 0,1.03322 -0.13864,2.26607 -0.42382,3.6582 -0.26151,1.13357 -0.7028,2.1923 -1.35743,3.20898 l -0.0488,0.0781 -0.043,0.084 c -0.52766,1.02429 -1.17964,1.89789 -1.96094,2.65625 -0.65828,0.63896 -1.12558,0.80469 -1.67578,0.80469 h -1.94336 v 6.14258 h 33.92383 V 146.9062 H 336.75 c -0.75679,0 -1.26762,-0.21522 -1.87109,-0.78906 -0.65611,-0.77434 -1.32425,-1.68368 -2.00977,-2.74024 -0.52893,-1.03933 -0.93859,-2.13418 -1.20703,-3.29883 -0.28581,-1.39395 -0.42188,-2.62781 -0.42188,-3.6621 V 92.794922 c 0,-4.581388 -0.81008,-9.219763 -2.41406,-13.90625 -1.47405,-4.914366 -3.93928,-9.384302 -7.35742,-13.337891 -3.45245,-4.144561 -7.88225,-7.482842 -13.22266,-9.996093 -5.44524,-2.562594 -11.94788,-3.794922 -19.45703,-3.794922 -4.47045,10e-7 -8.43322,0.458814 -11.90234,1.417968 -3.22227,0.784789 -6.16755,1.883566 -8.80469,3.320313 -2.43754,1.263086 -4.56854,2.705684 -6.39844,4.316406 -0.3953,0.314812 -0.62677,0.601031 -0.99218,0.910156 z"
     style="color:#000000;font-style:normal;font-variant:normal;font-weight:normal;font-stretch:normal;font-size:231.52407837px;line-height:1.25;font-family:forum;-inkscape-font-specification:forum;font-variant-ligatures:normal;font-variant-position:normal;font-variant-caps:normal;font-variant-numeric:normal;font-variant-alternates:normal;font-feature-settings:normal;text-indent:0;text-align:start;text-decoration:none;text-decoration-line:none;text-decoration-style:solid;text-decoration-color:#000000;letter-spacing:0px;word-spacing:0px;text-transform:none;writing-mode:lr-tb;direction:ltr;text-orientation:mixed;dominant-baseline:auto;baseline-shift:baseline;text-anchor:start;white-space:normal;shape-padding:0;clip-rule:nonzero;display:inline;overflow:visible;visibility:visible;opacity:1;isolation:auto;mix-blend-mode:normal;color-interpolation:sRGB;color-interpolation-filters:linearRGB;solid-color:#000000;solid-opacity:1;vector-effect:none;fill:#333333;fill-opacity:1;fill-rule:nonzero;stroke:none;stroke-width:3.88442039;stroke-linecap:butt;stroke-linejoin:miter;stroke-miterlimit:4;stroke-dasharray:none;stroke-dashoffset:0;stroke-opacity:1;color-rendering:auto;image-rendering:auto;shape-rendering:auto;text-rendering:auto;enable-background:accumulate" />
  <metadata
     id="metadata845">
    <rdf:RDF>
      <cc:Work
         rdf:about="">
        <dc:title />
      </cc:Work>
    </rdf:RDF>
  </metadata>
  <g
     transform="matrix(0.07595304,-0.39195714,0.39195714,0.07595304,-129.52866,211.17748)"
     id="g3690">
    <g
       transform="matrix(1.3360919,8.6280861e-5,8.6280861e-5,1.3365205,-196.60622,18.369845)"
       id="g3713">
      <path
         style="fill:#cce3a5;stroke-width:2.11199999"
         d="m 485.51413,33.877719 c -9.00694,-2.122011 -24.04993,-9.294194 -29.45653,-14.04425 -4.51976,-3.970919 -10.11067,-2.046951 -10.11067,3.479287 0,6.181824 -2.11506,6.597318 -17.35327,3.409085 -16.96893,-3.550357 -29.85092,-9.903527 -37.85918,-18.6714314 l -6.04374,-6.6170649 -2.62317,6.949557 C 379.62348,14.858019 378.94561,15.238876 372.1379,13.961728 360.7517,11.825673 350.76862,5.7764403 339.37032,-5.8937323 327.75105,-17.790142 323.45093,-19.26246 323.45093,-11.344318 c 0,7.756235 -6.20364,6.772571 -18.29034,-2.900178 -16.08398,-12.871668 -21.09233,-19.179789 -29.25549,-36.847873 -7.33109,-15.867181 -7.85311,-16.448615 -13.62892,-15.180042 -5.09199,1.118389 -6.78636,0.255869 -11.13512,-5.668397 -8.51261,-11.596632 -14.44023,-29.161392 -16.61293,-49.227512 -2.51018,-23.183 -2.86627,-24.288 -7.82683,-24.288 -5.98206,0 -9.23224,-18.27391 -8.54957,-48.06922 0.53484,-23.34267 0.26723,-25.28275 -4.08825,-29.63822 -5.58486,-5.58487 -5.54888,-3.28571 -0.43655,-27.89255 7.70002,-37.06195 5.19216,-59.78757 -13.33595,-86.71725 6.79117,-2.69219 -1.91462,-3.34544 3.18013,-13.62045 27.91424,27.08137 27.20965,24.49678 67.89093,18.65475 4.70807,-0.6761 9.08824,-0.17851 10.4544,1.18765 3.37348,3.37348 8.41043,2.94188 25.207,-2.15992 11.88961,-3.61136 17.85299,-4.24831 29.89584,-3.19315 23.45087,2.05468 30.49033,4.63452 31.27737,11.46256 0.56674,4.91694 1.72863,5.81726 8.05428,6.24116 22.73564,1.52356 37.26162,5.33505 48.048,12.60737 6.6637,4.49274 11.088,9.02943 11.088,11.36965 0,4.03621 11.0156,16.71163 14.52327,16.71163 5.38738,0 20.84027,13.12762 32.07201,27.24598 13.08393,16.44656 14.7701,20.60708 9.21561,22.73855 -4.59768,1.7643 -2.29537,9.84716 6.21101,21.80537 7.49561,10.53729 16.83338,26.47742 18.91579,32.29034 0.96512,2.69411 -0.13812,4.43695 -3.89132,6.147 -7.12113,3.24462 -6.591,7.77786 2.26614,19.37768 14.49966,18.98963 20.45248,39.35507 11.50349,39.35507 -3.09376,0 -4.224,1.40801 -4.224,5.26211 0,2.9748 1.83607,6.408742 4.224,7.900025 2.3232,1.450859 4.224,3.420616 4.224,4.377225 0,0.956631 2.376,6.933781 5.28,13.282558 2.904,6.348799 5.28,14.389816 5.28,17.868956 0,4.804061 -1.27007,6.80856 -5.28,8.333128 -6.3436,2.411841 -6.32329,2.214327 -1.13328,11.010743 5.90296,10.004755 10.95005,24.251483 12.93387,36.5092565 0.93999,5.80799986 2.86742,16.0243565 4.2832,22.7030285 1.41578,6.678671 2.01689,12.700279 1.33584,13.381336 -1.05786,1.057858 -19.7501,-0.948077 -45.40363,-4.872469 -6.25862,-0.957412 -6.864,-0.563967 -6.864,4.46103 0,6.048873 -1.75157,6.415643 -15.3448,3.213112 z"
         id="path3704" />
      <path
         style="fill:#a6d28f;stroke-width:2.11199999"
         d="m 495.61568,27.84344 c -0.855,-2.693814 -2.16343,-4.006169 -2.90763,-2.916334 -2.04797,2.999082 -17.89477,3.53251 -16.04535,0.540101 1.03255,-1.670739 0.0887,-1.970263 -3.05989,-0.970971 -3.08736,0.979905 -7.6013,-0.341278 -14.02205,-4.104101 -9.23236,-5.410501 -13.60063,-5.557496 -13.66616,-0.459804 -0.0169,1.383445 -0.82561,3.76633 -1.79514,5.295291 -3.58575,5.654753 -47.552,-9.854402 -53.98918,-19.0447907 -3.61002,-5.1540191 -9.65535,-3.748652 -9.65535,2.2446125 0,2.2353622 -1.25315,4.5451932 -2.78478,5.1329412 -5.08138,1.949904 -26.47286,-9.9578051 -38.1002,-21.2087035 -10.63082,-10.2866435 -19.40949,-14.6107525 -17.15092,-8.4479995 0.53214,1.452 0.0602,4.0656 -1.04878,5.808 -1.79228,2.8159925 -2.58988,2.8159925 -7.17839,0 -14.03569,-8.613792 -30.67604,-27.412873 -38.08493,-43.025643 -7.20505,-15.183167 -7.89776,-15.942811 -13.5142,-14.819523 -5.08034,1.016083 -6.71053,0.03506 -11.49482,-6.917434 -9.03387,-13.127938 -16.12064,-35.898822 -16.32458,-52.453402 -0.15456,-12.5454 -2.08293,-17.63961 -6.95056,-18.36132 -6.8088,-1.00952 -10.54828,-22.36574 -8.87454,-50.68264 1.26108,-21.33523 1.09244,-22.7312 -3.05932,-25.32402 -5.26124,-3.2857 -5.44768,-7.83368 -1.22561,-29.89781 3.50582,-18.32109 4.27222,-53.26625 1.20972,-55.15898 -1.07686,-0.66553 -3.11848,-4.76082 -4.53695,-9.10064 -4.18319,-15.66494 -6.36723,-19.67959 -9.86602,-37.56332 25.21435,24.77928 30.56489,26.55796 46.81147,25.05939 7.06498,-0.65166 15.04567,-2.01865 17.73491,-3.03775 7.53827,-2.85668 13.38984,-2.21257 16.32143,1.79659 2.51235,3.43586 3.52382,3.37404 17.27867,-1.056 16.54144,-5.32753 44.23252,-6.18966 58.6624,-1.82638 6.85902,2.07402 8.45504,3.53315 8.48536,7.75769 0.0353,4.91855 0.89824,5.28923 15.77379,6.77582 20.43675,2.04234 28.24762,4.5998 41.74085,13.66691 8.16058,5.4837 11.088,8.77224 11.088,12.45576 0,2.7527 1.9008,6.19198 4.224,7.64284 2.3232,1.45087 4.224,3.77179 4.224,5.15762 0,1.38582 2.6136,2.82041 5.808,3.18796 3.89136,0.44775 5.72039,1.83285 5.5425,4.19727 -0.16938,2.25061 0.83238,3.10769 2.76522,2.36599 1.8453,-0.70811 6.69914,2.77626 12.4095,8.90825 9.6624,10.37579 11.7283,14.4778 6.22858,12.36736 -1.81127,-0.69504 -3.71276,0.25718 -4.47378,2.24037 -1.20418,3.13805 -1.56765,3.11539 -4.02951,-0.25139 -2.27479,-3.11096 -3.49688,-3.29603 -7.67021,-1.16165 -2.73037,1.39642 -7.63509,3.50715 -10.89938,4.69054 -3.26431,1.1834 -5.34661,3.10382 -4.62737,4.2676 0.72304,1.1699 -0.7829,2.11595 -3.36824,2.11595 -4.54219,0 -4.56661,0.1208 -0.85331,4.224 3.70893,4.09831 17.952,6.16623 17.952,2.60641 0,-0.88968 5.58924,-1.74607 12.42052,-1.9031 6.83131,-0.15713 14.43451,-1.36338 16.896,-2.68074 7.48328,-4.00492 5.49315,2.41123 -3.11053,10.02837 -5.71798,5.06229 -8.84415,6.40037 -12.69517,5.43382 -2.81003,-0.70526 -11.32779,-0.10898 -18.92835,1.32519 -13.73799,2.59216 -13.81544,2.6463 -13.17683,9.21077 0.50631,5.20469 1.60366,6.57261 5.18103,6.4585 2.92398,-0.0934 4.15848,0.84594 3.47003,2.64 -0.58774,1.53162 -1.91733,2.78477 -2.95466,2.78477 -4.04212,0 -1.60726,5.78501 3.39396,8.06373 3.02103,1.37647 5.28,4.17893 5.28,6.55034 0,2.27957 0.98905,4.75591 2.19792,5.50303 1.20884,0.74712 1.62001,3.17919 0.91367,5.40465 -1.14585,3.61023 -0.18776,4.03916 8.89008,3.98034 7.03201,-0.0456 12.78347,-1.67294 18.62233,-5.26919 5.02071,-3.09232 11.66109,-5.20764 16.368,-5.21408 4.356,-0.006 7.92,-0.96122 7.92,-2.12282 0,-1.1616 -2.376,-2.112 -5.28,-2.112 -6.21701,0 -7.05864,-3.26622 -1.23411,-4.78938 4.64345,-1.21427 8.62611,1.97208 8.62611,6.90138 0,1.85856 1.188,4.65912 2.64,6.22343 2.112,2.27541 2.112,2.54615 0,1.35378 -1.452,-0.81978 -2.64,-0.48401 -2.64,0.74614 0,1.23016 -1.4256,2.23665 -3.168,2.23665 -2.73996,0 -4.45596,6.62687 -3.4181,13.2 0.6077,3.84887 -6.60212,1.12219 -7.65237,-2.89403 -1.07518,-4.11143 -2.13728,-4.36445 -12.97385,-3.09082 -11.88868,1.39727 -16.08368,3.53667 -16.08368,8.20245 0,1.39392 -2.66995,2.84056 -5.93322,3.21476 -7.74092,0.88768 -6.18286,5.65564 1.84817,5.65564 9.00565,0 9.3384,6.2515 0.49689,9.33528 -5.20124,1.8141 -6.22428,2.89409 -4.02822,4.25249 1.68369,1.04147 5.46155,0.94307 8.8263,-0.22989 4.04178,-1.40898 7.29154,-1.29673 10.38473,0.3587 6.77996,3.62852 3.89203,7.47557 -5.18887,6.91215 -7.02098,-0.43562 -7.60238,-0.11088 -5.13186,2.86586 2.18847,2.63696 5.06905,3.06024 13.42811,1.97322 32.76481,-4.26077 37.44701,-4.13071 41.43083,1.15076 3.68394,4.8839 3.64905,5.01898 -1.90204,7.36432 -3.57074,1.50864 -7.03535,1.68191 -9.40068,0.47015 -2.6233,-1.34393 -4.74702,-0.91788 -7.08655,1.42165 -1.83737,1.83738 -5.04119,2.80098 -7.11959,2.14131 -2.08786,-0.66266 -5.29618,0.3179 -7.16946,2.19116 -1.92965,1.92967 -3.39054,2.36185 -3.39054,1.00305 0,-1.31311 -0.99203,-1.77439 -2.20451,-1.02503 -1.21249,0.74935 -3.35089,0.44656 -4.752,-0.67287 -4.97278,-3.97305 -11.3475,-4.89675 -11.3475,-1.64425 0,1.69471 0.5544,3.03129 1.23202,2.97019 3.69887,-0.33351 10.73599,3.31332 10.73599,5.563681 0,1.437301 -2.376,5.177019 -5.28,8.310488 -2.904,3.133469 -5.28,4.697848 -5.28,3.476394 0,-1.221454 -1.48169,-2.22081 -3.29265,-2.22081 -6.02547,0 -1.01667,3.856195 9.58083,7.376118 7.61001,2.527641 11.49,2.877093 14.23117,1.281709 3.56545,-2.075124 3.22418,-2.34244 -3.97536,-3.113827 -1.35518,-0.145095 -2.7095,-1.47576 -3.0096,-2.9568 -0.30007,-1.48104 -0.0456,-1.668269 0.56532,-0.416064 0.69455,1.423446 2.06402,0.973315 3.65389,-1.200989 3.08829,-4.223472 19.6099,-4.438642 23.73939,-0.309176 2.21407,2.214095 9.19501,1.727954 9.19501,-0.640295 0,-3.993052 8.78797,5.305387 12.83072,13.576021 4.1076,8.403288 5.61202,21.400536 2.23555,19.313754 -1.00637,-0.621963 -3.45811,0.66849 -5.44835,2.867652 -2.88174,3.184305 -3.13913,4.894412 -1.26395,8.398199 1.29506,2.419845 1.70059,4.399697 0.90117,4.399697 -0.79939,0 0.73819,1.9008 3.41686,4.224 2.77272,2.404765 3.68054,4.224 2.10782,4.224 -2.04577,0 -1.88828,0.966008 0.60703,3.723266 1.85324,2.047816 4.45928,8.463016 5.79121,14.256 2.2414,9.7485267 5.73026,22.2272785 7.7031,27.552074 0.45551,1.229458 -1.10441,4.46367 -3.46647,7.187157 -2.36208,2.723508 -4.29469,4.020593 -4.29469,2.882436 0,-2.425484 -12.20892,-1.034837 -13.82148,1.574327 -1.32118,2.137703 -7.29852,0.153332 -7.29852,-2.422928 0,-1.000877 1.6632,-1.222975 3.696,-0.493554 2.0328,0.729422 3.00014,0.558139 2.14966,-0.380624 -4.39786,-4.854326 -22.95377,-0.239818 -28.28203,7.033234 -2.04264,2.788178 -2.58842,2.557506 -3.92688,-1.65963 z m 45.33891,-41.952409 c -0.0279,-3.077754 -0.3153,-3.133511 -2.07966,-0.403349 -2.67295,4.136077 -2.67295,6.9319637 0,5.2799995 1.1616,-0.717911 2.09745,-2.9124055 2.07966,-4.8766505 z M 458.46287,-123.09229 c 1.90505,-2.29544 1.84317,-3.37299 -0.26938,-4.69089 -4.11551,-2.56746 -10.13456,-3.12372 -10.13456,-0.93661 0,1.05929 -0.57687,3.42934 -1.28196,5.26673 -1.671,4.35452 8.12051,4.65682 11.6859,0.36077 z m 13.55687,-131.22311 c -0.68786,-1.7925 -1.7036,-2.80613 -2.2572,-2.25252 -0.55362,0.55362 -0.38012,2.02022 0.38555,3.25909 2.08253,3.36962 3.29974,2.715 1.87165,-1.00657 z m 43.22719,278.488353 c 1.52459,-0.610094 3.34619,-0.535076 4.04801,0.166636 0.70179,0.701797 -0.54562,1.200968 -2.772,1.109265 -2.46038,-0.101376 -2.96082,-0.601793 -1.27601,-1.275986 z m -5.94,-118.94127 c 0,-1.1616 1.00649,-2.112 2.23665,-2.112 1.23016,0 1.64926,0.9504 0.93135,2.112 -0.71791,1.1616 -1.72441,2.112 -2.23665,2.112 -0.51224,0 -0.93135,-0.9504 -0.93135,-2.112 z m -5.28,-6.336003 c -0.71791,-1.1616 -0.29881,-2.112 0.93135,-2.112 1.23016,0 2.23665,0.9504 2.23665,2.112 0,1.161603 -0.41911,2.112003 -0.93135,2.112003 -0.51224,0 -1.51874,-0.9504 -2.23665,-2.112003 z"
         id="path3702" />
      <path
         style="fill:#8dc774;stroke-width:2.11199999"
         d="m 498.74693,22.588763 c 0,-1.96944 -4.09168,-3.369232 -12.8043,-4.380436 -10.90438,-1.265595 -13.21077,-0.930231 -15.54358,2.260072 -2.60257,3.559227 -3.10453,3.520451 -10.05831,-0.777216 -4.24343,-2.622597 -10.13502,-4.325101 -14.02022,-4.051471 -6.89716,0.48576 -8.72076,2.451293 -4.06959,4.386265 1.452,0.604053 0.4887,0.86045 -2.14066,0.569733 -2.62935,-0.290695 -5.90823,-1.656124 -7.2864,-3.034289 -1.37816,-1.378164 -4.21646,-2.50574 -6.30734,-2.50574 -2.11439,0 -3.8016,-1.536205 -3.8016,-3.461336 0,-2.962882 -1.88711,-3.2902209 -13.1046,-2.2730395 -12.10584,1.0977125 -13.60517,0.7487885 -19.67218,-4.5781189 -3.61218,-3.171527 -6.18949,-6.9006642 -5.72741,-8.2869599 0.46211,-1.3862956 0.0482,-2.5997452 -0.91982,-2.6965382 -0.96799,-0.09673 -3.97833,-0.419063 -6.68965,-0.7161369 -4.36498,-0.4782624 -14.85745,-10.4376516 -15.05839,-14.2933396 -0.0634,-1.214928 -4.58788,-1.160164 -13.27595,0.160723 -0.8712,0.132422 -1.584,1.136636 -1.584,2.231539 0,1.094903 2.06799,1.59249 4.5955,1.105716 4.34443,-0.836647 10.1885,2.115718 10.1885,5.147134 0,2.062643 -12.99385,6.590792 -15.12794,5.2718481 -1.01034,-0.6244128 -1.40773,-1.8297946 -0.88313,-2.6786491 0.52462,-0.848834 -1.02048,-2.77633 -3.43354,-4.283305 -4.01358,-2.506522 -4.28331,-2.341997 -3.16587,1.931086 l 1.2215,4.6710466 -5.14551,-4.8339456 c -6.24951,-5.871127 -6.44204,-10.141929 -0.92151,-20.442048 4.71743,-8.801675 5.80262,-15.647026 1.85463,-11.699043 -1.30314,1.303146 -3.67914,1.866733 -5.28,1.252437 -1.60083,-0.614381 -2.91063,-0.0649 -2.91063,1.220968 0,1.285891 1.4256,2.337963 3.168,2.337963 1.7424,0 3.168,0.76032 3.168,1.6896 0,0.92928 -2.31264,1.6896 -5.13919,1.6896 -2.82657,0 -5.09003,-0.52272 -5.0299,-1.1616 0.3782,-4.019094 -0.76921,-4.94962 -2.73449,-2.2176 -1.82709,2.539955 -1.9762,2.330613 -0.75206,-1.056 0.83975,-2.3232 1.9906,-6.3624 2.55744,-8.976 1.03174,-4.75709 4.7622,-6.727501 4.7622,-2.515349 0,1.230155 1.00728,1.614117 2.23838,0.853248 1.42119,-0.878339 0.84288,-2.523207 -1.584,-4.505403 -3.60461,-2.944149 -3.55149,-3.064132 0.93254,-2.106213 2.6152,0.558687 4.22231,0.153964 3.57135,-0.899248 -0.65096,-1.053275 -4.04115,-1.915035 -7.53376,-1.915035 -3.49261,0 -8.42612,-1.066728 -10.96335,-2.370529 -3.80257,-1.953981 -4.14928,-1.879765 -1.97316,0.4224 1.452,1.536121 2.64,4.144821 2.64,5.797123 0,2.452116 -0.59157,2.513259 -3.21904,0.33264 -1.77047,-1.469361 -3.88135,-2.009251 -4.69084,-1.199764 -0.80949,0.809487 -0.0737,2.336146 1.63505,3.39259 2.6815,1.657835 2.60084,2.426899 -0.58917,5.61773 -3.46095,3.461863 -3.696,3.466721 -3.696,0.07645 0,-4.355767 -2.81603,-4.693856 -6.10344,-0.732801 -1.82452,2.198402 -1.62261,3.530166 0.84575,5.578722 2.75436,2.285923 3.05215,2.089676 1.97858,-1.30378 -1.19774,-3.785802 -1.13579,-3.794715 1.18439,-0.170439 3.47641,5.430438 1.04582,9.944395 -5.08166,9.437261 -4.60159,-0.380836 -5.06986,-1.180904 -4.00714,-6.846386 0.66181,-3.528328 2.49847,-7.915586 4.08142,-9.749456 4.07916,-4.725727 3.58324,-7.176534 -0.60475,-2.988565 -1.97432,1.974319 -5.30778,3.005609 -7.69624,2.381027 -3.16259,-0.827038 -3.61078,-0.499235 -1.79714,1.314403 1.32893,1.328934 2.40022,3.889354 2.38065,5.689834 -0.019,1.838643 -1.96173,0.265943 -4.4298,-3.587866 -2.4168,-3.773785 -5.25199,-6.331311 -6.30041,-5.68335 -1.04842,0.647899 -1.90621,-0.303642 -1.90621,-2.114597 0,-1.810956 -0.9504,-3.292651 -2.112,-3.292651 -1.1616,0 -2.112,-2.375999 -2.112,-5.279999 0,-3.550547 -1.16988,-5.28 -3.57166,-5.28 -3.18543,0 -3.14832,-0.309556 0.34316,-2.862584 4.44901,-3.253198 3.12216,-9.809416 -1.98522,-9.809416 -4.34455,0 -4.09718,-4.136056 0.46172,-7.719571 3.35922,-2.640507 3.21491,-2.797492 -1.584,-1.722927 -2.904,0.650263 -7.4418,1.344034 -10.08399,1.541759 -2.95847,0.221359 -4.4038,1.402326 -3.76228,3.074101 0.57295,1.493057 0.12113,2.714638 -1.004,2.714638 -1.12515,0 -2.04573,-1.323928 -2.04573,-2.942037 0,-1.61813 -1.50463,-3.519416 -3.34363,-4.225119 -1.83898,-0.705683 -2.9081,-2.470576 -2.37579,-3.921963 0.53233,-1.451388 -0.89176,-5.72768 -3.16461,-9.50288 -2.27286,-3.7752 -3.19353,-6.864 -2.04594,-6.864 1.14759,0 1.58945,-1.9008 0.98192,-4.224 -0.60753,-2.3232 -1.94415,-4.224 -2.97027,-4.224 -1.02612,0 -1.88023,-4.5144 -1.89802,-10.032 -0.037,-11.47876 -1.44675,-14.50308 -7.27568,-15.60844 -6.00761,-1.13921 -7.72785,-11.10354 -7.73713,-44.81649 -0.007,-27.17189 -0.30157,-29.34968 -4.09745,-30.34232 -4.60607,-1.20452 -5.71079,-10.78256 -1.7056,-14.78774 2.5237,-2.52371 3.91558,-19.67264 3.97319,-48.95244 0.0272,-13.80382 -0.97555,-19.91438 -4.50537,-27.456 -17.68101,-35.44039 -20.18913,-22.62398 -13.04276,-37.44375 7.14637,-14.81978 34.90109,28.13391 63.77226,21.32837 12.41273,-2.92594 13.82753,-2.8962 17.43272,0.36645 3.51141,3.17779 5.15334,3.25581 15.62931,0.74266 6.43813,-1.54448 12.1927,-3.59613 12.78792,-4.55922 1.62576,-2.63053 36.56791,-1.79385 46.24093,1.10723 6.85049,2.05456 8.57438,3.62137 9.11628,8.28569 0.6079,5.23227 1.46666,5.75483 9.504,5.78322 10.8835,0.0385 33.46523,5.21725 41.14843,9.43682 13.3006,7.30458 18.10371,13.11318 18.24247,22.06136 0.117,7.54185 1.00204,9.03059 7.41227,12.46789 7.26465,3.89546 10.95765,8.80272 6.62454,8.80272 -1.25839,0 -2.28799,1.21723 -2.28799,2.70496 0,1.48774 -2.8512,3.78118 -6.336,5.09655 -5.20289,1.96387 -6.38073,3.6519 -6.5861,9.43904 -0.13749,3.87609 -0.0838,7.92112 0.11911,8.98894 0.20318,1.06783 -1.28789,0.59263 -3.31332,-1.056 -3.2758,-2.66637 -3.5262,-2.5804 -2.26677,0.77844 0.90138,2.40395 0.27767,4.21273 -1.71657,4.97797 -1.79043,0.68705 -3.13239,3.87512 -3.13239,7.44146 0,6.22339 0.0258,6.236 10.032,4.90119 5.5176,-0.73603 12.408,-2.183 15.312,-3.21548 2.904,-1.03249 12.48458,-2.83255 21.29018,-4.00014 8.80559,-1.16758 17.59679,-2.73173 19.536,-3.47587 5.84494,-2.2429 3.99567,1.412 -4.39418,8.68473 -5.67214,4.91689 -8.87729,6.35714 -11.29287,5.07446 -2.05877,-1.09321 -11.11011,-0.0986 -23.232,2.55265 -10.92252,2.38901 -23.00196,4.83091 -26.84316,5.42645 -6.75132,1.04673 -6.83916,1.18428 -2.6363,4.12807 2.39125,1.6749 5.29647,2.45894 6.45602,1.74229 1.15958,-0.71666 2.10831,-0.29652 2.10831,0.93363 0,1.23016 -2.6136,2.30346 -5.808,2.38511 -3.1944,0.0815 -7.60852,0.85504 -9.80914,1.71866 -3.7197,1.45979 -3.60721,1.88012 1.59912,5.97542 3.59908,2.83105 5.13676,5.61302 4.30318,7.78531 -1.62888,4.24481 -5.92412,4.3355 -10.04744,0.21215 -1.7424,-1.7424 -5.28399,-3.168 -7.8702,-3.168 -4.46377,0 -4.5205,0.20086 -1.11875,3.95967 1.9709,2.17781 3.30621,5.24405 2.96734,6.81386 -0.34377,1.59251 1.48446,3.17469 4.13589,3.57923 2.6136,0.39876 4.752,2.08452 4.752,3.74613 0,1.81453 2.10877,3.02111 5.28,3.02111 2.904,0 5.28,1.01444 5.28,2.25433 0,2.6041 8.79219,0.39421 10.79188,-2.71248 1.30549,-2.02822 16.2176,1.07598 23.52812,4.89777 2.26007,1.18151 3.696,1.16639 3.696,-0.0389 0,-1.08409 3.45557,-1.64994 7.67904,-1.2574 4.63576,0.43085 10.70406,-0.85264 15.312,-3.23859 8.89581,-4.60616 25.58496,-7.73057 25.58496,-4.7898 0,3.41903 -15.27595,9.46508 -26.96175,10.67115 -6.14795,0.63451 -11.68152,1.96824 -12.2968,2.96382 -0.61527,0.99551 -2.96342,1.81006 -5.21806,1.81006 -2.25464,0 -4.09935,0.92664 -4.09935,2.0592 0,1.16587 -2.7746,1.50428 -6.39566,0.78007 -3.5176,-0.70353 -12.0712,-0.0748 -19.008,1.39739 -9.93844,2.10908 -12.61234,3.51086 -12.61234,6.61193 0,2.78978 -1.53707,3.93541 -5.28,3.93541 -7.20259,0 -6.72655,4.13403 0.528,4.58526 3.1944,0.19874 7.42056,0.46483 9.39143,0.59145 5.81531,0.37352 7.17309,3.33919 2.13234,4.65738 -5.52451,1.44469 -6.27993,7.03247 -0.96377,7.12908 3.46113,0.0629 3.4531,0.25134 -0.1263,2.96524 -5.41983,4.10926 -1.34317,5.90676 11.84562,5.22298 15.65066,-0.81139 52.16868,2.45602 52.16868,4.66777 0,1.02346 -1.00649,1.86084 -2.23665,1.86084 -1.23016,0 -1.64926,0.9504 -0.93135,2.112 1.65,2.66974 -12.11872,2.84466 -14.8896,0.18924 -1.20743,-1.15717 -6.63195,-1.03461 -13.6224,0.30778 -6.3888,1.22684 -14.9424,2.46156 -19.008,2.74378 -4.0656,0.28225 -8.22117,0.61895 -9.23459,0.74824 -3.33272,0.42506 3.32904,6.570959 7.12259,6.570959 4.88216,0 10.64275,6.639642 6.864,7.911446 -4.55301,1.532404 -2.87033,5.313433 1.8189,4.087185 3.49933,-0.915108 4.9625,0.168115 6.79903,5.033656 2.56317,6.790587 4.82066,7.443892 12.93961,3.74464 6.43523,-2.932069 9.17637,-1.074776 5.3026,3.592849 -2.46031,2.964488 -2.10279,3.181412 3.09372,1.877167 3.96271,-0.994562 6.44386,-0.555034 7.6213,1.350075 1.24739,2.018333 6.91055,2.792085 19.8373,2.710393 15.9204,-0.100531 18.09154,0.332788 18.09154,3.611478 0,2.714532 -2.34443,4.121926 -8.6374,5.185107 -7.28693,1.231127 -8.46528,2.117555 -7.53647,5.669347 1.41177,5.398568 -0.52679,10.508679 -3.32944,8.776543 -1.20255,-0.743234 -1.73484,-0.03379 -1.19758,1.596123 0.59936,1.818389 4.76862,3.180798 10.96489,3.58305 l 9.99782,0.649081 -5.41092,4.256208 c -6.80205,5.350519 -6.88915,8.173651 -0.25217,8.173651 4.0219,0 4.97948,0.930864 4.34527,4.224 -0.57996,3.011501 0.32337,4.224 3.14694,4.224 2.21074,0 4.60399,2.027731 5.41716,4.589777 2.19825,6.9260926 5.4856,9.5469789 10.71973,8.546419 3.89022,-0.7436775 4.52456,-0.1423488 3.59589,3.4088524 -0.62015,2.37148026 0.3934,6.4832696 2.25236,9.1373144 4.7856,6.8324042 4.19693,10.2216362 -1.77543,10.2216362 -2.83545,0 -5.77127,0.996547 -6.52403,2.214559 -0.94164,1.523597 -2.26548,1.470269 -4.24299,-0.170861 -3.50702,-2.910568 -17.36909,-2.250568 -23.14963,1.102189 -7.88707,4.574571 -11.616,5.304964 -11.616,2.275258 z M 400.38047,4.7681504 c -4.56623,-4.43817783 -6.25915,-4.17132663 -4.39273,0.6924403 0.68784,1.7924966 2.87234,3.2590905 4.85443,3.2590905 3.23257,0 3.185,-0.4070669 -0.4617,-3.9515308 z M 380.17241,-14.280653 c 1.79756,-1.138981 2.06537,-2.310169 0.71859,-3.142508 -2.64727,-1.636124 -8.86407,0.563883 -8.86407,3.136806 0,2.381301 4.39142,2.384384 8.14548,0.0063 z m 90.54653,-7.843672 c -0.70182,-0.701797 -2.52342,-0.776815 -4.04801,-0.166637 -1.68481,0.674193 -1.18437,1.174652 1.27601,1.275986 2.22638,0.09166 3.47379,-0.407468 2.772,-1.109265 z m -54.64253,-21.724328 c 2.01305,-1.275542 2.16531,-2.248392 0.5118,-3.270326 -1.29453,-0.800047 -3.83987,0.03147 -5.65634,1.848 -2.47307,2.473089 -2.60162,3.29453 -0.5118,3.270326 1.53498,-0.0169 4.08032,-0.849383 5.65634,-1.848 z M 291.77093,-63.088317 c 0,-1.1616 -0.4191,-2.112 -0.93135,-2.112 -0.51224,0 -1.51874,0.9504 -2.23665,2.112 -0.71791,1.161599 -0.2988,2.111999 0.93135,2.111999 1.23016,0 2.23665,-0.9504 2.23665,-2.111999 z m 16.83484,-16.978495 c -3.92298,-2.480966 -12.61084,-2.625892 -12.61084,-0.210376 0,1.000518 2.2646,1.386211 5.03243,0.857113 2.76784,-0.52912 5.71421,0.141081 6.5475,1.489382 0.83327,1.34828 2.10516,1.861306 2.82641,1.140058 0.72122,-0.721248 -0.0868,-2.19553 -1.7955,-3.276177 z m 59.19716,-109.741508 c 0,-1.1616 -1.4256,-2.112 -3.168,-2.112 -1.7424,0 -3.168,0.9504 -3.168,2.112 0,1.1616 1.4256,2.112 3.168,2.112 1.7424,0 3.168,-0.9504 3.168,-2.112 z m 53.77228,-47.19762 c 2.6965,-1.97172 3.14477,-3.3072 1.45967,-4.34863 -1.33757,-0.82668 -2.43195,-0.49655 -2.43195,0.73361 0,1.23015 -1.4256,2.23665 -3.168,2.23665 -1.7424,0 -3.168,0.9504 -3.168,2.112 0,2.91268 2.69111,2.64253 7.30828,-0.73363 z m -8.3084,-30.53849 c -0.65026,-0.65025 -2.35443,-0.001 -3.78709,1.44204 -2.0703,2.08585 -1.82772,2.32844 1.1823,1.1823 2.0829,-0.79312 3.25506,-1.97408 2.60479,-2.62434 z m -94.41053,214.327981 c -0.78577,-3.85402 -0.49142,-5.242745 0.83098,-3.920337 1.12629,1.126287 1.67387,3.811949 1.21683,5.968132 -0.61548,2.903619 -1.14656,2.372536 -2.04781,-2.047795 z m -61.93335,-33.103868 c 0.71792,-1.1616 1.72441,-2.112 2.23665,-2.112 0.51225,0 0.93135,0.9504 0.93135,2.112 0,1.1616 -1.00649,2.112 -2.23665,2.112 -1.23015,0 -1.64926,-0.9504 -0.93135,-2.112 z m 251.328,-31.680003 c -0.71791,-1.1616 0.12038,-2.112 1.86272,-2.112 1.7424,0 3.75537,0.9504 4.47328,2.112 0.71791,1.1616 -0.12038,2.112 -1.86272,2.112 -1.7424,0 -3.75537,-0.9504 -4.47328,-2.112 z m -59.12105,-156.2638 c -0.73991,-1.19721 0.10793,-1.55128 1.98735,-0.83004 3.65887,1.40404 4.32832,2.91785 1.29035,2.91785 -1.09304,0 -2.56802,-0.93952 -3.2777,-2.08781 z m -11.63095,-6.36019 c -1.90352,-1.23016 -2.16402,-2.06023 -0.65265,-2.07966 1.38345,-0.0177 3.10274,0.91806 3.82065,2.07966 1.62054,2.6221 0.88941,2.6221 -3.168,0 z"
         id="path3700" />
      <path
         style="fill:#79c26b;stroke-width:2.11199999"
         d="m 498.74693,17.426274 c 0,-3.342556 -1.59042,-7.381756 -3.53424,-8.9759995 -3.14842,-2.5821523 -3.40049,-2.3794848 -2.30897,1.8563215 0.6739,2.615205 0.36352,4.22231 -0.68976,3.571349 -1.05327,-0.65096 -1.91503,-0.176985 -1.91503,1.053086 0,5.232564 -6.52971,1.796129 -7.69932,-4.051978 -2.07134,-10.35669835 -6.42793,-12.3284826 -12.58,-5.6937404 -2.8796,3.1055059 -6.62277,5.6463684 -8.31815,5.6463684 -1.69539,0 -3.08253,0.9504 -3.08253,2.112 0,1.1616 -3.3264,2.112 -7.392,2.112 -5.30391,0 -7.392,-0.935088 -7.392,-3.310328 0,-2.3007278 -1.23404,-2.9186567 -4.04625,-2.0260833 -6.12615,1.9443703 -7.19331,-2.2661126 -1.68253,-6.6384805 2.67931,-2.12581248 5.53589,-4.9563993 6.34793,-6.2901906 2.03701,-3.3457248 -17.41128,-15.5269166 -24.79002,-15.5269166 -4.46586,0 -5.5459,-0.790015 -4.56709,-3.340741 0.70509,-1.837397 1.28196,-3.738197 1.28196,-4.224 0,-0.485781 1.9008,-0.883259 4.224,-0.883259 5.20456,0 5.57281,-3.343528 0.528,-4.794071 -2.0328,-0.584475 -5.3592,-1.747405 -7.392,-2.584285 -2.79168,-1.149266 -3.696,-0.493047 -3.696,2.682071 0,2.427427 -1.78481,4.670371 -4.224,5.308237 -2.94846,0.771028 -4.2466,2.918171 -4.29885,7.110322 -0.0412,3.303147 -1.43307,8.381726 -3.09315,11.2857255 -1.66007,2.904 -3.05201,7.41839989 -3.09315,10.0319998 -0.0923,5.8594483 -2.47581,6.0430233 -7.42699,0.5720352 -3.4395,-3.8005861 -3.47032,-4.299884 -0.33947,-5.5013163 1.89383,-0.7267181 2.79293,-2.373719 1.99798,-3.6599904 -1.92032,-3.1071532 -0.9768,-15.8795368 1.51734,-20.5398548 1.44311,-2.696495 1.12126,-4.044817 -1.1759,-4.926324 -2.38485,-0.915151 -2.84467,-3.203291 -1.86937,-9.302409 1.25337,-7.838097 1.02791,-8.208436 -7.27673,-11.953308 -6.00492,-2.707837 -11.47065,-3.537684 -18.26026,-2.772401 -11.34311,1.278542 -11.10268,1.113932 -12.05914,8.256146 -0.40779,3.044976 -1.94142,6.982187 -3.40807,8.749403 -1.46664,1.767216 -3.22442,6.861909 -3.90617,11.321566 -1.57551,10.30637 -6.48604,16.447601 -10.49265,13.122384 -3.89039,-3.22872 -3.58241,-6.8259 1.37658,-16.078318 5.13083,-9.57302 5.67518,-17.871913 1.056,-16.099374 -3.51031,1.347033 -4.39828,-2.450596 -1.056,-4.516238 4.48048,-2.769085 2.17551,-9.410121 -3.696,-10.648788 -3.1944,-0.673897 -8.82119,-2.54137 -12.50399,-4.149953 -6.31678,-2.759054 -6.88765,-2.632143 -10.08068,2.241022 -4.35059,6.639853 -7.51133,6.591763 -7.51133,-0.114259 0,-4.130946 -1.07781,-5.28 -4.95266,-5.28 -2.72397,0 -6.54946,1.764428 -8.50109,3.92097 -2.17661,2.405124 -5.42009,3.563197 -8.38969,2.995513 -4.35773,-0.833036 -4.77935,-1.939576 -4.22172,-11.079932 0.54342,-8.90736 0.0566,-10.30166 -3.96306,-11.352845 -4.47643,-1.170618 -4.49212,-1.298288 -0.67783,-5.513038 3.8317,-4.233989 3.80739,-4.314689 -1.29894,-4.314689 -2.86201,0 -7.04853,-1.496077 -9.30334,-3.324626 -2.25481,-1.828527 -2.95536,-2.749867 -1.5568,-2.047377 1.39859,0.702477 5.20019,0.598228 8.448,-0.23166 5.53205,-1.41354 5.23795,-1.66865 -4.65487,-4.03772 -5.808,-1.39086 -8.8968,-2.64173 -6.864,-2.77973 3.86655,-0.26246 5.30336,-4.47489 1.52635,-4.47489 -1.19333,0 -6.34213,-4.47982 -11.44183,-9.95516 -8.74848,-9.39291 -9.04843,-10.11186 -5.3108,-12.72979 2.21511,-1.55151 3.43069,-4.15753 2.75754,-5.91174 -0.6621,-1.7254 0.0905,-4.73303 1.67245,-6.68361 1.94549,-2.39883 2.02767,-3.0368 0.25399,-1.97141 -1.56634,0.94086 -4.79423,-0.59683 -8.01599,-3.81858 -2.96654,-2.96653 -7.14962,-5.39371 -9.29575,-5.39371 -5.86822,0 -6.72682,-4.70481 -6.59868,-36.15836 0.11033,-27.08267 -0.13743,-28.89164 -4.09892,-29.92759 -5.43832,-1.42214 -5.43437,-8.18909 0.008,-13.11404 4.65757,-4.21505 5.51052,-8.72318 1.87945,-9.93352 -1.71151,-0.57052 -1.68019,-5.0375 0.11601,-16.54399 2.88146,-18.45878 0.99777,-45.80699 -3.4623,-50.26706 -1.65004,-1.65004 -2.51172,-4.27269 -1.91485,-5.82812 0.59687,-1.55542 0.17633,-3.38977 -0.93454,-4.07632 -1.11087,-0.68655 -2.01977,-2.98214 -2.01977,-5.10131 0,-2.11917 -1.9008,-4.3501 -4.22399,-4.95763 -2.3232,-0.60753 -4.224,-2.67527 -4.224,-4.59497 0,-2.0002 0.99165,-2.87749 2.32271,-2.05486 1.63247,1.00892 1.61038,0.10453 -0.0743,-3.04335 -0.65664,-1.1416 -0.89819,-1.8973 -0.44019,-4.61994 15.90545,-4.70775 17.92679,5.50916 46.18086,20.48155 7.87322,-0.69457 18.35412,-1.85354 23.29092,-2.5755 5.93671,-0.86819 8.976,-0.52241 8.976,1.02118 0,3.61814 10.4989,2.76395 23.232,-1.89016 13.43211,-4.90961 33.84075,-5.49247 49.632,-1.41747 9.01871,2.32732 10.65654,3.5441 11.22146,8.3366 0.71831,6.09369 1.70994,6.42265 26.79454,8.88869 7.5288,0.74015 13.95781,2.62129 15.84,4.63482 2.84305,3.04142 2.7629,3.24679 -0.78142,2.00224 -2.62705,-0.92247 -5.23769,0.0986 -7.79702,3.04951 -2.74836,3.1689 -5.24033,4.04883 -8.72258,3.08001 -4.5877,-1.27639 -4.52578,-1.03817 1.05079,4.04264 3.25917,2.96943 7.18975,5.39896 8.7346,5.39896 1.54484,0 5.24927,1.26612 8.23204,2.81361 5.11873,2.65563 5.22123,3.02002 1.8254,6.49005 -3.40821,3.48271 -3.20113,3.60418 3.92963,2.30499 9.52229,-1.73491 14.68387,2.83832 9.29061,8.23159 -1.86547,1.86546 -5.01321,3.39176 -6.99497,3.39176 -1.98177,0 -5.79136,1.53263 -8.46576,3.40585 l -4.86254,3.40585 7.56062,5.37946 c 9.53298,6.78281 9.58286,8.99144 0.16854,7.46372 -7.37865,-1.1974 -8.51043,-0.10412 -7.54605,7.28881 0.1905,1.46064 -2.31047,3.67004 -5.55777,4.90979 -5.69693,2.17493 -5.76027,2.35973 -1.80452,5.26428 5.05637,3.71269 8.97066,3.85432 10.23239,0.37024 0.76068,-2.10047 1.89328,-2.08584 5.54191,0.0716 2.52224,1.49135 5.4976,2.14805 6.61195,1.45935 1.12906,-0.6978 2.02609,1.68248 2.02609,5.37627 0,7.44347 -0.70771,7.42 26.04258,0.86326 6.77302,-1.66014 15.80182,-3.06014 20.064,-3.11113 4.26219,-0.0509 11.32425,-1.36832 15.69347,-2.9274 4.38832,-1.5659 8.46175,-1.99706 9.10065,-0.9633 0.63612,1.02926 0.29792,1.8714 -0.75155,1.8714 -1.0495,0 -4.66957,2.40495 -8.04465,5.34435 -3.84969,3.35276 -7.7106,4.94347 -10.3605,4.26863 -5.07484,-1.29242 -29.5589,2.393 -36.96,5.56334 -2.904,1.24395 -10.5072,2.85258 -16.896,3.57471 -7.38005,0.83418 -11.616,2.30377 -11.616,4.02999 0,3.64386 -5.19026,6.715 -11.41534,6.75464 -5.01837,0.0319 -5.0314,-0.0211 -1.0854,-4.3809 l 3.99392,-4.41323 -8.41858,1.52541 c -10.48213,1.89932 -11.11907,2.46492 -6.54346,5.8107 3.4282,2.50674 3.30511,3.0932 -1.80682,8.60906 l -5.48562,5.91907 6.25779,-1.37444 c 5.15227,-1.13163 6.71781,-0.51098 8.86164,3.51312 3.50619,6.58135 8.31388,10.01939 14.12414,10.10039 2.65008,0.037 5.36535,1.49276 6.03397,3.23516 0.66863,1.7424 2.22716,3.168 3.46342,3.168 1.23626,0 4.00822,1.59323 6.15995,3.54049 2.99916,2.71422 4.49203,2.96066 6.39669,1.056 3.76336,-3.76335 7.35198,-2.98569 8.62131,1.86825 0.81228,3.10616 -0.12059,4.81847 -3.25765,5.97891 -5.07579,1.87763 -14.2839,0.56975 -14.2839,-2.0289 0,-0.97061 -4.5144,-0.29903 -10.032,1.49243 -5.5176,1.79144 -11.72192,3.22863 -13.78737,3.19376 -3.12388,-0.0528 -2.7897,0.9597 1.98746,6.0211 3.15854,3.34649 6.74925,5.51306 7.97937,4.8146 1.23797,-0.70291 1.46277,-0.42351 0.50348,0.62577 -0.95319,1.04261 -3.31365,1.90779 -5.24545,1.92262 -1.93183,0.0148 -3.83522,1.69012 -4.22981,3.72292 -0.43826,2.25788 0.57554,3.696 2.60547,3.696 1.82756,0 3.32285,1.32393 3.32285,2.94204 0,3.84697 6.42673,6.26003 9.22357,3.4632 3.16661,-3.16661 9.78443,-2.67411 9.78443,0.72817 0,1.60016 1.188,3.88456 2.64,5.07645 2.11859,1.73906 31.95828,3.93131 62.3783,4.58278 4.16343,0.0891 4.51584,0.68351 2.5657,4.32736 -2.30009,4.29775 -9.36767,5.74986 -11.46539,2.35569 -0.63508,-1.02756 -5.93006,-1.8683 -11.76661,-1.8683 -5.83655,0 -11.13153,0.84074 -11.76661,1.8683 -0.63507,1.02757 -5.85059,1.86831 -11.59004,1.86831 -13.21033,0 -14.20157,4.86326 -1.98735,9.750431 7.89666,3.159616 11.33284,7.145572 6.16001,7.145572 -1.25842,0 -1.88287,1.188 -1.38769,2.64 0.49518,1.452 2.97148,2.339082 5.5029,1.971298 2.53142,-0.367783 4.46893,0.107501 4.30559,1.056 -1.18997,6.909957 0.54624,9.116702 7.17279,9.116702 3.83328,0 8.21691,-1.188 9.74137,-2.64 2.26446,-2.156796 2.49231,-1.717605 1.24481,2.399591 -1.38634,4.575415 -1.03524,4.916165 3.81182,3.699632 3.41376,-0.856796 5.65887,-0.389347 6.22645,1.296409 0.48819,1.449994 3.18044,2.711407 5.98279,2.803131 2.80233,0.09166 11.03516,0.329303 18.29516,0.528 9.74261,0.266619 13.2,1.1367 13.2,3.321859 0,2.048154 -4.06835,3.467925 -13.2,4.606547 -7.26,0.905245 -11.61771,2.003063 -9.68382,2.439592 4.85659,1.096255 6.39525,6.180092 2.92175,9.653593 -3.6989,3.698914 -1.72984,6.623506 6.23407,9.259282 4.8124,1.592744 6.17711,3.192499 5.67524,6.652673 -0.4246,2.927422 0.4665,4.55569 2.49311,4.55569 1.73463,0 3.45758,2.1384 3.82876,4.752 0.40322,2.83914 1.96169,4.54834 3.87159,4.24607 3.27219,-0.517862 14.7553,16.2033694 14.7553,21.4860516 0,3.0810066 -4.46599,5.4198776 -10.34908,5.4198776 -2.01719,0 -7.40427,3.3256608 -11.97128,7.3903528 -10.3945,9.251235 -15.69564,9.69579 -15.69564,1.31624 z m -7.68424,-32.994592 c 0.87828,-2.288754 -0.23132,-3.168 -3.99803,-3.168 -2.86755,0 -5.10118,-0.7128 -4.96363,-1.584 0.68786,-4.356423 -0.56084,-6.864 -3.4181,-6.864 -1.7424,0 -3.168,1.053423 -3.168,2.340962 0,1.465411 -2.05035,1.826352 -5.48201,0.965057 -3.12236,-0.783658 -6.7587,-0.316356 -8.448,1.085652 -5.49008,4.556345 -3.1449,6.453977 6.23733,5.047026 7.3314,-1.099423 9.46579,-0.696158 10.49372,1.982597 1.63475,4.260073 11.13102,4.405125 12.74672,0.194727 z M 418.21282,-43.21142 c 4.27904,-3.813575 0.98776,-7.204898 -6.99232,-7.204898 -5.97874,0 -7.18564,0.860514 -8.12911,5.795962 -0.6094,3.187789 -0.68625,6.478348 -0.17086,7.312356 1.07832,1.744787 11.0145,-2.090985 15.29223,-5.90342 z m -50.76677,-21.065552 c 0.38451,-0.308859 -0.42939,-2.670202 -1.80866,-5.247391 l -2.50776,-4.68581 -4.9794,6.088917 c -2.73866,3.348914 -5.01357,6.752297 -5.05535,7.563072 -0.0634,1.229248 12.12225,-1.928382 14.35117,-3.718788 z m -69.31046,-11.991387 c 3.30849,-2.066169 5.06756,-2.075314 8.32143,-0.0433 5.02952,3.141009 8.02746,-0.263789 4.24514,-4.82121 -3.41793,-4.118358 -12.40907,-3.898625 -17.18093,0.419844 -7.01969,6.352727 -3.64537,9.602926 4.61436,4.44462 z m 80.88882,-1.79332 c 0.87382,-3.341501 2.21597,-4.07635 5.52632,-3.025672 2.54228,0.806889 4.3722,0.45182 4.3722,-0.848349 0,-1.317148 -4.12258,-2.067352 -10.032,-1.82557 -5.5176,0.22573 -12.6456,-0.194726 -15.84,-0.934454 -3.1944,-0.739686 -5.808,-0.457417 -5.808,0.627264 0,1.08468 -1.0692,1.734543 -2.376,1.444143 -1.3068,-0.2904 -2.81143,0.659493 -3.34363,2.11088 -1.39658,3.808739 5.76441,5.977932 7.99176,2.42088 1.55674,-2.486077 2.76383,-2.399126 7.70686,0.55514 7.98013,4.769424 10.4468,4.659853 11.80249,-0.524262 z m -49.23748,-20.856338 c 0,-3.122213 -7.48425,-6.430023 -14.11715,-6.239333 -5.71453,0.16431 -5.61683,0.32713 2.50115,4.1686 9.67013,4.575988 11.616,4.922863 11.616,2.070733 z m 39.9872,-90.131853 c 0.50337,-0.45588 -0.14552,-1.88961 -1.44204,-3.18608 -3.0863,-3.08631 -8.97716,-0.75044 -8.97716,3.55967 0,2.52648 1.19643,3.00884 4.752,1.91592 2.6136,-0.80338 5.16384,-1.83366 5.6672,-2.28951 z m 41.80881,-33.71445 c -0.70182,-0.7018 -2.52342,-0.77682 -4.04801,-0.16664 -1.6848,0.67419 -1.18437,1.17465 1.27601,1.27599 2.22638,0.0917 3.47379,-0.40745 2.772,-1.10927 z m -33.52253,-44.95633 c 1.99755,-1.26571 2.15747,-2.25324 0.528,-3.26031 -1.28562,-0.79455 -2.33748,-0.50784 -2.33748,0.63714 0,1.14498 -1.6632,2.51642 -3.696,3.04765 -2.61884,0.68437 -2.77272,1.02784 -0.528,1.17852 1.7424,0.11696 4.45746,-0.60439 6.03348,-1.603 z m 18.25452,-5.0394 c 3.33221,-0.81907 3.04548,-1.09 -1.35804,-1.28327 -3.39497,-0.149 -6.10325,1.11329 -6.91234,3.22174 -1.00254,2.61257 -0.66794,2.92875 1.35804,1.28326 1.47859,-1.2009 4.58914,-2.65068 6.91234,-3.22173 z m -24.288,-0.82426 c 0,-1.5488 -1.4256,-2.816 -3.168,-2.816 -1.7424,0 -3.168,1.2672 -3.168,2.816 0,1.5488 1.4256,2.816 3.168,2.816 1.7424,0 3.168,-1.2672 3.168,-2.816 z m 13.728,-0.704 c -0.71791,-1.1616 -2.25568,-2.112 -3.41728,-2.112 -1.1616,0 -1.52463,0.9504 -0.80672,2.112 0.71791,1.1616 2.25568,2.112 3.41728,2.112 1.1616,0 1.52463,-0.9504 0.80672,-2.112 z m -167.904,-49.3734 c 0,-0.43857 -1.6632,-2.10177 -3.696,-3.696 -3.34975,-2.62705 -3.42445,-2.55235 -0.79739,0.7974 2.75905,3.51806 4.49339,4.63685 4.49339,2.8986 z m 183.744,318.8171771 c 0,-4.2559334 21.3901,-11.0554331 25.93745,-8.2450151 2.81821,1.741745 -12.77012,9.1947392 -16.35446,7.8192992 -1.55084,-0.5951193 -3.44714,-0.066739 -4.21401,1.1739552 -2.00621,3.24612283 -5.36898,2.7774912 -5.36898,-0.7482393 z m 22.176,0.8922144 c 0.71791,-1.1616 3.15001,-2.112 5.40465,-2.112 2.25465,0 4.09935,0.9504 4.09935,2.112 0,1.1615999 -2.43209,2.1119999 -5.40465,2.1119999 -3.06527,0 -4.83965,-0.9141581 -4.09935,-2.1119999 z m -134.112,-53.8559995 c 0,-1.936007 1.02168,-3.179447 2.2704,-2.763192 1.24872,0.416232 2.2704,1.659672 2.2704,2.763192 0,1.10352 -1.02168,2.34696 -2.2704,2.763193 -1.24872,0.416254 -2.2704,-0.827186 -2.2704,-2.763193 z m 118.272,-77.088002 c -2.73016,-1.76436 -2.6744,-2.05178 0.40335,-2.07966 1.96425,-0.0169 4.15874,0.91806 4.87665,2.07966 1.65197,2.67295 -1.14392,2.67295 -5.28,0 z m -176.43884,-12.81251 c -2.16704,-3.50636 -0.222,-3.99259 2.81011,-0.70247 1.4978,1.62525 1.79149,2.95498 0.65265,2.95498 -1.13885,0 -2.69709,-1.01363 -3.46276,-2.25251 z m -7.30516,-6.26176 c 0,-1.12515 1.4256,-2.04573 3.168,-2.04573 1.7424,0 3.168,0.37353 3.168,0.83004 0,0.45653 -1.4256,1.37709 -3.168,2.04573 -1.7424,0.66861 -3.168,0.29509 -3.168,-0.83004 z m 218.4204,-3.71761 c -1.23668,-0.82285 -2.90079,-3.25997 -3.69801,-5.41582 -1.31408,-3.55346 -0.60901,-3.78996 7.54605,-2.53123 4.94755,0.76366 12.55956,1.36129 16.91556,1.32809 4.356,-0.0332 7.92,0.85016 7.92,1.96302 0,2.07176 -6.97429,4.1181 -12.70976,3.7292 -1.76316,-0.11954 -5.57266,0.37667 -8.46555,1.10274 -2.89287,0.72608 -6.27161,0.64688 -7.50829,-0.17593 z m -20.9484,-103.78429 c -2.3232,-0.9192 -5.412,-1.22593 -6.864,-0.6816 -1.452,0.54434 -2.64,-0.0623 -2.64,-1.34826 0,-1.28589 1.6632,-2.325 3.696,-2.30914 6.07263,0.0473 13.2,2.4456 13.2,4.4415 0,2.19568 -1.64111,2.17293 -7.392,-0.10243 z"
         id="path3698" />
      <path
         style="fill:#61a956;stroke-width:2.11199999"
         d="m 500.85893,20.599681 c 0,-1.5972 -0.594,-5.874 -1.32,-9.504 -1.21691,-6.0846084 -0.87595,-6.5999997 4.36633,-6.5999997 4.83656,0 5.47346,0.6706233 4.26199,4.4876831 -0.89386,2.8162886 -0.36075,5.1450006 1.43139,6.2525966 2.27344,1.405072 1.99656,2.414185 -1.358,4.949156 -5.29495,4.001289 -7.38171,4.118484 -7.38171,0.414564 z m -54.912,-9.996962 c 0,-3.7727286 -0.8629,-4.236376 -5.64882,-3.0351971 -4.94964,1.2422784 -5.30976,1.0092192 -2.9094,-1.8830381 1.50668,-1.8154329 4.52386,-3.3008025 6.70481,-3.3008025 4.59962,0 5.6891,-9.4036164 1.32541,-11.4400068 -2.112,-0.9855855 -2.112,-1.4783995 0,-2.4639855 1.452,-0.677614 2.64,-4.864211 2.64,-9.303593 0,-7.578827 -0.52834,-8.244994 -8.65438,-10.912006 -4.75992,-1.562226 -8.32392,-3.790808 -7.92,-4.952408 0.4039,-1.1616 2.15998,-1.78124 3.90238,-1.376982 1.7424,0.404237 6.4944,0.908731 10.56,1.12105 12.74191,0.665449 23.232,3.748082 23.232,6.826976 0,3.480281 -6.62934,3.90682 -9.89922,0.636937 -3.96205,-3.962048 -5.12496,1.334763 -3.14815,14.339234 1.02373,6.7346188 1.42717,16.2839844 0.89651,21.2207843 -0.83764,7.7928577 -1.63154,8.9759997 -6.02298,8.9759997 -3.73685,0 -5.05816,-1.163205 -5.05816,-4.452962 z M 388.1285,1.2477422 c -0.7143,-1.86141121 0.11384,-3.76992 1.93994,-4.4706604 2.25885,-0.8667859 2.55719,-1.9807392 1.02495,-3.8269651 -1.41772,-1.7082278 -1.49648,-6.1631327 -0.22896,-12.9478687 1.25273,-6.705579 1.18542,-11.243655 -0.19135,-12.902588 -1.16806,-1.407437 -1.56617,-5.211487 -0.88469,-8.45347 0.6815,-3.241984 0.42719,-7.15478 -0.56509,-8.695125 -1.05435,-1.636674 -0.69276,-6.025388 0.87006,-10.56 1.8382,-5.333581 1.99954,-8.576156 0.51607,-10.371947 -1.18699,-1.436921 -1.55872,-5.000921 -0.82609,-7.92 1.00449,-4.002261 0.50601,-5.307435 -2.02703,-5.307435 -1.8475,0 -4.79342,-1.434344 -6.54651,-3.187409 -1.75306,-1.753087 -4.15601,-2.588784 -5.33985,-1.857124 -1.32015,0.815887 -1.24993,-0.356104 0.18163,-3.030974 1.28374,-2.398682 3.23784,-4.919819 4.34246,-5.602502 3.92896,-2.428234 -0.43744,-7.441994 -6.48107,-7.441994 -3.36051,0 -6.11004,-0.9504 -6.11004,-2.112 0,-1.1616 0.9504,-2.112 2.112,-2.112 1.1616,0 2.112,-1.05207 2.112,-2.33796 0,-1.43673 -1.42471,-1.71251 -3.696,-0.71544 -2.0328,0.89238 -5.72745,1.57648 -8.21031,1.52018 -3.53792,-0.0803 -4.7697,1.4713 -5.69499,7.17323 -0.64936,4.001569 -0.65464,8.646364 -0.0127,10.321771 1.83102,4.771578 5.14563,3.566661 4.69248,-1.705778 -0.77223,-8.985483 0.25642,-12.143933 3.94454,-12.111663 3.1586,0.0277 3.23537,0.33002 0.528,2.07966 -2.112,1.36488 -2.28799,2.05811 -0.528,2.07967 1.452,0.0169 2.64,1.03883 2.64,2.26898 0,1.230159 -0.88474,1.689857 -1.96606,1.021557 -3.45506,-2.135357 -4.44929,2.494736 -1.12764,5.251445 3.49576,2.901234 3.52537,2.887463 6.942,-3.229649 1.62655,-2.912193 2.35834,-3.240143 2.35631,-1.056 -0.004,4.126193 -5.75748,11.711146 -7.53513,9.933475 -0.7558,-0.7558 -4.11432,0.244464 -7.46338,2.222817 -5.58375,3.298395 -6.07506,4.564834 -5.91865,15.256348 0.0938,6.412645 -1.3517,17.361759 -3.21229,24.331359 -1.86059,6.9696 -4.2211,15.894532 -5.24561,19.833179 -2.34772,9.025569 -7.5915,14.665665 -10.72337,11.533801 -2.34079,-2.341743 -0.60038,-13.41498 2.10943,-13.41498 2.57395,0 6.39689,-15.553845 5.07002,-20.627777 -0.68156,-2.606292 -0.37095,-5.921668 0.69029,-7.36748 1.06121,-1.445811 2.22425,-14.284638 2.58451,-28.530711 0.72805,-28.788984 -0.77235,-33.524304 -12.55241,-39.616034 -6.0531,-3.13017 -6.84293,-8.83703 -0.90785,-6.55951 3.06555,1.17636 8.73452,-4.31274 6.62879,-6.41849 -0.71827,-0.71825 -2.69375,-0.15418 -4.38996,1.2536 -3.34068,2.77252 -11.80205,-0.19843 -11.80205,-4.1439 0,-1.12073 -1.9008,-2.0377 -4.224,-2.0377 -5.20671,0 -5.55242,-5.37656 -0.528,-8.21152 2.92375,-1.64968 3.15453,-2.63231 1.10447,-4.70287 -4.13107,-4.1724 -10.01687,11.38262 -6.4613,17.07598 2.16459,3.46607 2.01259,4.64235 -0.88827,6.87402 -1.92483,1.48082 -5.10633,8.39479 -7.06996,15.36439 -1.96363,6.9696 -4.15208,13.6224 -4.86324,14.784 -0.71117,1.1616 -1.30758,2.625874 -1.32536,3.25394 -0.0346,1.224538 -8.98967,20.008687 -12.0413,25.258063 -1.01291,1.7424 -2.40011,4.8312 -3.08267,6.864 -1.70624,5.081535 -5.7251,4.690604 -4.3869,-0.42673 0.59297,-2.267507 -0.008,-4.48895 -1.33768,-4.936546 -1.75435,-0.591001 -1.68299,-1.701956 0.26065,-4.057575 3.24884,-3.937507 1.27634,-10.115149 -3.22974,-10.115149 -2.77821,0 -2.70108,-0.627961 0.51345,-4.179965 3.38146,-3.736466 3.42691,-4.316548 0.42848,-5.467144 -1.84489,-0.707964 -4.35027,-0.671679 -5.56748,0.08068 -1.21723,0.752295 -2.21315,0.427406 -2.21315,-0.721945 0,-1.149371 2.1384,-2.393466 4.752,-2.76465 6.17722,-0.877309 4.17781,-4.874519 -2.4911,-4.980229 -2.82212,-0.0448 -5.56601,-1.47033 -6.09753,-3.168 -1.20682,-3.85452 -6.61679,-9.1427 -12.66442,-12.37929 -2.54042,-1.3596 -4.61895,-3.78494 -4.61895,-5.38968 0,-1.60474 -1.188,-3.35328 -2.64,-3.8857 -2.112,-0.77438 -2.112,-1.52767 0,-3.76639 1.452,-1.53912 2.64,-4.79424 2.64,-7.2336 0,-2.43936 1.14048,-5.57568 2.5344,-6.9696 1.9712,-1.97119 1.58823,-2.5344 -1.72339,-2.5344 -2.34179,0 -7.04627,-3.0888 -10.4544,-6.864 -3.40813,-3.77529 -7.62221,-6.86409 -9.36461,-6.86409 -2.59187,0 -3.23383,-4.03288 -3.53001,-22.176 -0.1991,-12.1968 -0.43671,-25.62916 -0.528,-29.84967 -0.12583,-5.81717 -1.1879,-7.94091 -4.38999,-8.77828 -2.3232,-0.60753 -4.224,-2.47188 -4.224,-4.14298 0,-1.67112 1.9008,-4.75859 4.224,-6.86106 4.3133,-3.90349 6.10866,-15.14207 2.01475,-12.6119 -1.50992,0.93319 -1.67705,-2.20296 -0.528,-9.90735 0.92469,-6.20003 1.54866,-19.86961 1.3866,-30.37689 -0.27308,-17.70528 0.015,-19.12746 3.93472,-19.42272 2.32616,-0.17523 4.76538,-0.85458 5.42048,-1.50969 1.88293,-1.88293 -6.47028,-7.12918 -9.50007,-5.96655 -1.50066,0.57586 -2.72848,-0.0611 -2.72848,-1.41559 0,-1.35443 -1.188,-1.8873 -2.64,-1.18415 -1.452,0.70315 -0.57827,-0.25617 1.94161,-2.13182 l 4.58161,-3.41028 -5.63761,-5.66353 c -21.3299,-35.238 23.85277,1.95324 30.67211,5.19217 -0.89638,-2.33592 1.19742,-3.35589 8.71113,-4.24352 5.44014,-0.64267 13.69275,-1.74384 18.33915,-2.44704 7.03372,-1.0645 8.88479,-0.56093 11.05711,3.00802 2.26807,3.72629 2.13909,4.1062 -0.98684,2.90667 -3.07988,-1.18187 -3.18067,-0.93538 -0.70228,1.71775 1.5915,1.7037 5.11748,3.00029 7.83554,2.8813 6.35072,-0.278 9.27162,-3.06288 3.21248,-3.06288 -6.0135,0 -5.88997,-3.41712 0.17593,-4.86884 2.6136,-0.62549 10.4544,-2.60323 17.424,-4.39498 14.85389,-3.81864 32.736,-4.43502 32.736,-1.12837 0,1.41726 -2.59694,1.81285 -6.864,1.04559 -5.87784,-1.0569 -6.16227,-0.93204 -1.97964,0.86909 3.06022,1.3178 8.02311,1.39808 13.28885,0.21495 7.10606,-1.59663 8.02452,-1.43054 5.94505,1.07509 -1.35272,1.62991 -1.8679,3.08227 -1.14485,3.22747 0.72302,0.1452 2.02739,0.51065 2.89859,0.81211 0.8712,0.30146 3.7224,1.2439 6.336,2.09432 2.6136,0.85042 4.752,2.32173 4.752,3.26957 0,0.94784 1.96952,2.34846 4.37674,3.11248 2.80932,0.89164 3.93529,2.53955 3.14405,4.60147 -0.82385,2.14693 -0.2636,2.84047 1.68924,2.0911 7.30545,-2.80336 22.3831,-3.82725 25.97591,-1.76397 3.18088,1.82673 2.54468,2.10496 -3.50594,1.53329 -4.0656,-0.38412 -5.7288,-0.27679 -3.696,0.23851 6.44451,1.63361 3.98904,4.86712 -3.69594,4.86712 -4.0656,0 -7.392,1.01828 -7.392,2.26285 0,1.24457 -1.4867,3.74956 -3.30378,5.56663 -2.4657,2.46571 -3.91222,2.69532 -5.7024,0.90514 -1.79015,-1.79017 -1.48784,-2.39862 1.19178,-2.39862 1.97472,0 3.5904,-0.9504 3.5904,-2.112 0,-3.66963 -5.21083,-2.28669 -7.95787,2.112 -1.45086,2.3232 -4.53066,4.224 -6.84402,4.224 -5.56478,0 -5.40881,4.30493 0.2093,5.77408 4.24008,1.1088 4.17925,1.35749 -1.53242,6.26538 -4.12763,3.54677 -8.22561,5.00923 -13.39133,4.779 -4.09396,-0.18245 -8.39397,-0.13445 -9.55557,0.10668 -1.1616,0.24113 -4.2504,0.2652 -6.864,0.0535 -2.6136,-0.21171 -4.752,0.57293 -4.752,1.74363 0,1.2549 4.00471,1.75316 9.75695,1.21395 8.44496,-0.79163 9.40698,-0.4929 7.15415,2.22159 -3.19242,3.84662 -1.97797,4.3838 16.35712,7.2353 10.22827,1.59072 15.94026,1.34129 25.344,-1.1067 13.19595,-3.43521 19.18665,-7.16641 11.50609,-7.16641 -2.55552,0 -4.6464,-0.9504 -4.6464,-2.112 0,-1.1616 -2.376,-2.112 -5.28,-2.112 -5.81509,0 -7.14779,-3.63984 -2.04906,-5.5964 1.97297,-0.7571 2.76184,-2.71787 2.02608,-5.03598 -0.66266,-2.08788 -0.21578,-4.40742 0.99307,-5.15453 1.20886,-0.74711 2.19791,0.18736 2.19791,2.07659 0,2.30153 1.21958,3.05546 3.696,2.28485 2.0328,-0.63256 5.1216,-0.15914 6.864,1.05203 2.47024,1.7171 2.12134,1.90773 -1.584,0.86546 -7.89455,-2.22062 -5.40902,2.84077 3.15151,6.41758 5.74054,2.39856 9.1646,2.7277 12.51161,1.2027 3.4079,-1.55275 5.24733,-1.3294 7.06232,0.85753 2.79314,3.36554 1.11095,7.36617 -3.09733,7.36617 -1.55465,0 -8.61749,2.87314 -15.69521,6.38476 -7.07771,3.51162 -15.64466,6.93999 -19.03767,7.6186 -3.42178,0.68435 -6.60631,2.90579 -7.15089,4.98829 -0.71173,2.72159 -2.43818,3.47608 -6.27551,2.74254 -2.91154,-0.55658 -5.93639,0.0279 -6.72191,1.29892 -0.83937,1.35814 0.19832,2.31089 2.51677,2.31089 2.16974,0 5.78983,1.36684 8.04465,3.03741 4.05609,3.00512 4.05571,3.06998 -0.0359,6.10106 -2.27454,1.685 -5.52833,2.52916 -7.23066,1.87592 -2.2183,-0.85124 -2.71088,-0.18628 -1.73875,2.34694 0.97638,2.54441 0.22649,3.53467 -2.67671,3.53467 -5.05809,0 -7.61194,3.85121 -4.57064,6.89251 1.65932,1.65931 3.49169,1.22247 6.57438,-1.56736 3.78954,-3.42947 5.16122,-3.03638 4.59774,1.31763 -0.0969,0.74953 3.30932,2.01671 7.5696,2.81593 5.85438,1.09831 8.34306,0.63656 10.1911,-1.89079 2.93813,-4.01814 7.56146,-4.30962 11.16532,-0.70392 1.69465,1.69551 9.02293,2.64 20.48372,2.64 9.8148,0 17.84629,0.67936 17.84775,1.5097 0.006,3.01441 -8.5272,5.95562 -21.08551,7.26821 -7.05917,0.73785 -13.33667,2.15344 -13.95,3.1458 -0.61326,0.99235 -0.0525,1.80429 1.24623,1.80429 1.29871,0 1.77391,0.9504 1.056,2.112 -2.17489,3.51905 -9.54516,2.56474 -8.15576,-1.056 0.69863,-1.82059 -0.004,-3.25901 -1.65028,-3.38199 -4.29709,-0.32084 -17.56622,0.5269 -18.22767,1.16451 -1.49678,1.44284 2.4029,7.49748 4.82896,7.49748 2.15886,0 2.22921,1.08943 0.33021,5.11338 -1.32723,2.81236 -2.901,5.07581 -3.49731,5.0299 -4.23582,-0.3262 -6.41082,0.74456 -5.2681,2.59351 0.76921,1.2446 4.35276,1.61262 8.36791,0.85937 5.90673,-1.1081 7.24667,-0.61134 8.43298,3.12636 1.43206,4.51199 11.06568,10.73347 16.62022,10.73347 1.67581,0 3.59397,1.4256 4.2626,3.168 0.66862,1.7424 3.09022,3.168 5.38132,3.168 2.29109,0 4.78739,1.00606 5.54733,2.23566 0.81481,1.31838 4.02892,1.65423 7.83373,0.81855 5.49156,-1.20616 6.24761,-0.88446 5.07894,2.16108 -0.75519,1.96801 -1.37308,3.99375 -1.37308,4.50169 0,1.40995 -11.29293,-1.5983 -14.01956,-3.73457 -1.48294,-1.16187 -6.74108,-0.17339 -13.728,2.58051 -6.22844,2.45503 -11.56204,4.3839 -11.85244,4.28639 -4.18649,-1.40581 -4.49583,0.87912 -0.6703,4.95122 4.4616,4.74915 4.57642,5.47344 1.55232,9.79098 -3.109,4.43866 -2.902,4.90926 4.31289,9.80542 5.38621,3.65518 9.13385,4.75264 12.95465,3.79368 4.11559,-1.03293 6.2402,-0.20359 9.06187,3.53714 2.79969,3.71163 5.87447,4.92977 12.7892,5.06667 33.20184,0.65738 37.77635,1.03646 36.54518,3.02856 -0.72573,1.17423 -3.8706,1.95086 -6.98865,1.72587 -3.11803,-0.22502 -7.74509,0.71503 -10.28232,2.08902 -2.53723,1.37398 -8.9218,2.49813 -14.18793,2.49813 -9.04121,0 -9.47703,0.26483 -7.8205,4.752 0.96487,2.6136 3.54784,5.045256 5.73995,5.403663 8.65308,1.414786 9.89445,2.381892 7.20967,5.616821 -3.12261,3.762528 -1.23619,7.115371 5.42913,9.649517 2.79116,1.061196 5.07484,3.502942 5.07484,5.426066 0,2.847314 1.43897,3.263103 7.7491,2.2391 4.26201,-0.691617 8.52426,-2.479171 9.47166,-3.972334 0.9474,-1.493163 1.73712,-1.716908 1.75491,-0.497228 0.0169,1.21968 -1.14773,3.397659 -2.59001,4.839943 -2.08848,2.088473 -1.98097,3.020646 0.528,4.578711 1.96361,1.219426 3.41554,1.186289 3.85433,-0.08786 1.17979,-3.425897 5.52012,-2.287423 8.30988,2.179689 1.45086,2.3232 4.17183,4.224 6.04663,4.224 2.7905,0 2.93186,0.574548 0.7795,3.168 -2.18801,2.636409 -1.9204,3.168 1.59479,3.168 5.85349,0 10.43438,5.711629 7.1861,8.959906 -3.9487,3.948701 -2.89962,5.849628 5.06483,9.1774 6.08233,2.541349 7.25063,3.954045 6.14664,7.432424 -1.01524,3.198708 -0.2671,4.581287 2.9316,5.417766 2.36207,0.617696 4.58568,3.164599 4.94137,5.659801 0.42423,2.976272 1.91792,4.323242 4.34267,3.916112 2.0328,-0.34132 3.696,0.45917 3.696,1.778874 0,1.319705 1.9008,4.8159516 4.224,7.7694145 2.3232,2.953463 4.224,6.66737272 4.224,8.2531256 0,4.1739667 -5.88995,3.5400921 -8.68446,-0.93462329 -2.14562,-3.43567481 -3.57426,-3.58005111 -14.27389,-1.44243262 -6.5393,1.30646206 -13.59384,3.14187451 -15.67674,4.07871541 -5.43984,2.4467098 -6.51863,0.2652039 -3.25309,-6.5784363 2.37386,-4.9749427 4.35541,-6.0769209 11.90804,-6.622366 l 9.06032,-0.6543403 -4.85209,-5.054586 c -3.37802,-3.519014 -6.29575,-4.694321 -9.60409,-3.868719 -3.80042,0.948415 -4.752,0.294181 -4.752,-3.267074 0,-3.126837 -1.33138,-4.453046 -4.47032,-4.453046 -3.4361,0 -4.21382,-0.980919 -3.36159,-4.23984 1.20699,-4.61548 -5.21419,-10.54416 -11.42007,-10.54416 -1.94046,0 -4.01206,-1.26116 -4.60355,-2.80256 -0.59148,-1.541423 -7.24851,-5.751272 -14.79337,-9.355252 -7.54487,-3.60398 -14.37058,-7.608691 -15.16826,-8.899355 -0.79768,-1.290665 -3.27113,-1.768758 -5.49658,-1.062421 -2.8595,0.907569 -4.04626,0.272617 -4.04626,-2.164927 0,-1.89704 -1.01667,-5.348851 -2.25929,-7.670699 -1.7518,-3.273283 -2.90746,-3.68356 -5.145,-1.826584 -2.1187,1.758366 -4.04431,1.774861 -7.24471,0.06209 -3.14282,-1.681997 -4.359,-1.688101 -4.359,-0.02196 0,1.271022 -0.9504,1.723582 -2.112,1.005671 -1.1616,-0.717911 -2.112,-0.298806 -2.112,0.931349 0,1.230156 -1.31983,2.236651 -2.93295,2.236651 -4.15059,0 -5.71715,11.503937 -3.59501,26.399999 1.02829,7.217929 1.00358,14.20301 -0.0574,16.229157 -1.02441,1.95643 -1.8626,6.201466 -1.8626,9.433396 0,6.737089 -6.11734,23.9694463 -8.50897,23.9694463 -0.8795,0 -2.15997,-1.4615673 -2.84546,-3.2479391 z m 95.83443,-49.4777602 c 0,-1.120732 -1.9008,-3.054965 -4.224,-4.2983 -5.07205,-2.714469 -5.43314,-1.510861 -0.90514,3.01714 3.82563,3.825635 5.12914,4.151242 5.12914,1.28116 z M 369.31812,-189.18734 c 2.03422,-5.3011 -2.89447,-8.06288 -8.77379,-4.91636 -4.10729,2.19815 -4.80341,3.60083 -3.23833,6.52523 2.29261,4.2838 10.15498,3.23073 12.01212,-1.60887 z m -24.99218,-9.82294 c -0.19325,-3.57008 -0.44899,-3.7454 -1.21087,-0.83004 -0.53121,2.0328 -2.37786,3.696 -4.10364,3.696 -1.72578,0 -2.57607,0.9089 -1.8895,2.01977 2.14499,3.47067 7.46119,-0.13474 7.20401,-4.88573 z m 4.46899,-5.58203 c 0,-1.1616 -1.00649,-2.112 -2.23665,-2.112 -1.23015,0 -1.64926,0.9504 -0.93135,2.112 0.71791,1.1616 1.72441,2.112 2.23665,2.112 0.51225,0 0.93135,-0.9504 0.93135,-2.112 z m -45.70023,-70.752 c -1.28537,-3.34958 -4.98777,-4.39474 -4.98777,-1.408 0,2.23347 2.30861,4.576 4.50971,4.576 0.93154,0 1.14667,-1.4256 0.47806,-3.168 z m 22.28791,-4.39568 c 2.38308,-2.38309 -1.56446,-2.07543 -7.21168,0.56205 l -6.336,2.95918 6.33167,-1.31845 c 3.48242,-0.72514 6.72962,-1.71639 7.21601,-2.20278 z m -16.19876,-4.05232 c -0.67185,-3.51457 -0.0444,-5.32477 1.87687,-5.41387 1.58742,-0.0736 0.68676,-1.01599 -2.00146,-2.09414 -2.68824,-1.07815 -4.29534,-2.9187 -3.57137,-4.09013 1.61382,-2.61122 -9.36491,-2.81544 -13.41443,-0.24952 -1.99755,1.2657 -2.15747,2.25323 -0.528,3.2603 1.28561,0.79455 3.3295,0.83154 4.54198,0.0822 2.58027,-1.59469 8.37013,2.6652 8.32316,6.12378 -0.0178,1.30977 -0.95363,0.9558 -2.07967,-0.7866 -1.12603,-1.7424 -2.06188,-2.29244 -2.07966,-1.2223 -0.0391,2.35056 6.35708,9.6703 8.45013,9.6703 0.82047,0 1.03758,-2.376 0.48245,-5.28 z m 37.34303,-6.14798 c 3.14726,-3.79221 -1.16251,-7.10626 -4.67437,-3.5944 -1.29271,1.29271 -4.5363,2.35038 -7.20798,2.35038 -2.67168,0 -4.8576,0.9504 -4.8576,2.112 0,3.23291 13.93622,2.51031 16.73995,-0.86798 z m -76.62737,-4.41351 c 0.34685,-6.01093 -2.66934,-7.16701 -4.12871,-1.58251 -0.72685,2.78131 -1.02652,2.51997 -1.21087,-1.056 -0.13475,-2.6136 -1.58804,-4.752 -3.22955,-4.752 -2.43961,0 -2.54787,1.15684 -0.59296,6.336 2.93587,7.77802 8.73561,8.44554 9.16209,1.05451 z m 51.43942,3.16949 c 0,-1.1616 -1.4256,-2.112 -3.168,-2.112 -1.7424,0 -3.168,0.9504 -3.168,2.112 0,1.1616 1.4256,2.112 3.168,2.112 1.7424,0 3.168,-0.9504 3.168,-2.112 z m 41.66801,-16.06 c -0.70182,-0.7018 -2.52342,-0.77684 -4.04801,-0.16675 -1.6848,0.67421 -1.18436,1.17466 1.27601,1.276 2.22639,0.0917 3.4738,-0.40746 2.772,-1.10926 z m -109.69673,-14.34233 c -2.80945,-3.03954 -5.89128,-2.53788 -5.89128,0.95897 0,1.09305 1.93827,1.98736 4.30728,1.98736 3.57805,0 3.84623,-0.49881 1.584,-2.94633 z m 11.00472,-1.27767 c 0,-1.1616 -0.9504,-2.112 -2.112,-2.112 -1.1616,0 -2.112,0.9504 -2.112,2.112 0,1.1616 0.9504,2.112 2.112,2.112 1.1616,0 2.112,-0.9504 2.112,-2.112 z m 71.63201,1.51437 c -0.48401,-0.3287 -2.78081,-1.9919 -5.10401,-3.696 -3.90722,-2.866 -4.00661,-2.82118 -1.3254,0.59763 1.59424,2.0328 3.89104,3.696 5.104,3.696 1.21297,0 1.8094,-0.26893 1.32541,-0.59763 z m -62.65601,-7.13711 c -1.452,-0.58589 -3.828,-0.58589 -5.28,0 -1.452,0.5859 -0.264,1.06526 2.64,1.06526 2.904,0 4.092,-0.47936 2.64,-1.06526 z m 211.8182,307.784671 c -1.44266,-2.334246 1.88898,-4.854749 3.83922,-2.904528 2.00807,2.008068 1.63382,4.870589 -0.63677,4.870589 -1.09304,0 -2.53415,-0.884738 -3.20245,-1.966061 z m -39.1622,-25.365289 c 0,-6.394755 3.42005,-6.94622 7.20967,-1.162508 3.3603,5.128464 3.31261,5.261858 -1.88099,5.261858 -3.86667,0 -5.32868,-1.124724 -5.32868,-4.09935 z m 44.89252,-17.944248 c -2.60671,-1.441778 -4.14496,-3.215964 -3.41831,-3.942618 0.72665,-0.726634 3.24838,-0.289746 5.60388,0.970865 2.4259,1.29831 8.71521,1.767068 14.50631,1.081196 11.26697,-1.334404 14.12165,1.506553 3.6236,3.606156 -9.13905,1.827809 -14.76862,1.352398 -20.31548,-1.715599 z m -189.54956,-9.612219 c -0.73992,-1.197208 0.10792,-1.551264 1.98735,-0.830037 3.65887,1.404036 4.32831,2.917855 1.29034,2.917855 -1.09304,0 -2.56802,-0.939524 -3.27769,-2.087818 z m 72.45304,-12.02691 c 1.52459,-0.610094 3.34619,-0.535076 4.04801,0.166636 0.7018,0.701797 -0.54561,1.200968 -2.772,1.109265 -2.46038,-0.101376 -2.96081,-0.601793 -1.27601,-1.275986 z m 102.3,-25.260935 c -4.95665,-2.07341 -2.65024,-4.13891 4.85933,-4.35178 4.79059,-0.1358 7.2101,0.66659 6.69857,2.22145 -0.87864,2.67073 -7.39483,3.87178 -11.5579,2.13033 z m -34.32,-51.44034 c 0,-6.54173 10.8006,-5.13296 12.144,1.584 0.32854,1.64268 -1.86559,2.64 -5.808,2.64 -4.92799,0 -6.336,-0.93865 -6.336,-4.224 z m 18.10039,2.35212 c -1.24272,-2.01077 7.39006,-5.02166 9.20222,-3.2095 1.11112,1.11112 -3.94928,4.99061 -6.58596,5.04905 -0.80264,0.0169 -1.97996,-0.81002 -2.61626,-1.83955 z m -18.12028,-60.40814 c 1.59105,-1.91711 4.57685,-3.04525 6.6351,-2.50701 2.05825,0.53824 4.05252,0.0479 4.43171,-1.08975 0.37921,-1.13759 5.9992,-2.43716 12.48889,-2.88793 6.48967,-0.45078 14.36526,-1.79511 17.5013,-2.98744 9.48261,-3.60527 11.15966,-2.42659 3.31489,2.32983 -4.0656,2.46504 -7.8672,5.07509 -8.448,5.8001 -0.5808,0.72503 -5.808,1.31823 -11.616,1.31823 -5.808,0 -14.30415,0.78965 -18.88037,1.75481 -7.58871,1.6005 -8.06598,1.44831 -5.42752,-1.73084 z m -88.68411,-49.27642 c -3.85769,-1.74809 -5.11543,-6.53723 -1.5185,-5.78206 5.18113,1.08777 9.9665,3.79025 9.9665,5.62847 0,2.16951 -3.84498,2.23942 -8.448,0.1536 z m 5.28,-6.71555 c -0.71791,-1.1616 -0.2988,-2.112 0.93135,-2.112 1.23016,0 2.23665,0.9504 2.23665,2.112 0,1.1616 -0.4191,2.112 -0.93135,2.112 -0.51224,0 -1.51874,-0.9504 -2.23665,-2.112 z m 13.728,-5.28 c 2.86928,-3.45728 8.448,-4.30384 8.448,-1.28196 0,1.94432 -4.99967,4.44996 -8.87933,4.44996 -1.33079,0 -1.16063,-1.24982 0.43133,-3.168 z m 33.792,-5.28 c 0,-1.1616 1.0065,-2.112 2.23665,-2.112 1.23016,0 1.64926,0.9504 0.93135,2.112 -0.71791,1.1616 -1.7244,2.112 -2.23665,2.112 -0.51224,0 -0.93135,-0.9504 -0.93135,-2.112 z m -45.28698,-41.35668 c -2.253,-1.64743 -3.2019,-2.98077 -2.10868,-2.96298 2.91933,0.0475 8.36554,3.79778 7.20318,4.96014 -0.54899,0.54899 -2.84152,-0.34974 -5.0945,-1.99716 z"
         id="path3696" />
      <path
         style="fill:#47913b;stroke-width:2.11199999"
         d="m 390.33094,3.0876743 c -0.77441,-0.7743859 -1.40801,-2.39006589 -1.40801,-3.59039995 0,-1.32337915 0.98371,-1.19868675 2.49919,0.31679999 1.37458,1.37457406 2.00818,2.99025406 1.40801,3.59039996 -0.60017,0.600167 -1.72481,0.457607 -2.49919,-0.3168 z m 137.15252,-4.04847162 c -0.78932,-2.05689788 -0.31731,-3.02244088 1.22603,-2.50799998 3.15711,1.0523674 4.89539,5.8524786 2.1194,5.8524786 -1.13413,0 -2.63956,-1.50501114 -3.34543,-3.34447862 z m -9.72853,-6.57653558 c 0,-1.0946073 -2.77667,-5.1002901 -6.17038,-8.9014881 -4.45435,-4.989178 -7.31837,-6.546926 -10.29819,-5.601151 -3.05989,0.971161 -4.43615,0.130944 -5.31962,-3.247432 -0.79866,-3.054058 -2.27816,-4.140661 -4.48482,-3.293897 -2.60437,0.999399 -3.18278,-0.105388 -2.76598,-5.283252 0.35858,-4.454694 -0.48542,-6.728663 -2.64101,-7.115623 -6.434,-1.155032 -14.784,-5.167389 -14.784,-7.10405 0,-1.098071 -2.6593,-2.580547 -5.90954,-3.294424 -3.25025,-0.713878 -8.27493,-3.402982 -11.16596,-5.97582 -2.89103,-2.572817 -6.64693,-4.967677 -8.34645,-5.321923 -1.69953,-0.354225 -4.23239,-2.136626 -5.62859,-3.960887 -1.47967,-1.933346 -4.00034,-2.755885 -6.04315,-1.971974 -2.40643,0.923429 -3.16126,0.450067 -2.40886,-1.510629 1.68178,-4.382654 -0.67698,-6.577085 -13.56282,-12.617827 -7.28408,-3.414703 -12.31507,-7.228384 -13.00228,-9.85624 -0.61649,-2.357498 -2.21783,-4.286367 -3.5585,-4.286367 -1.74851,0 -2.02622,4.175128 -0.98236,14.768603 1.03663,10.520252 0.70169,15.676616 -1.16439,17.925114 -1.44082,1.736064 -1.98678,4.831792 -1.21326,6.879397 1.32102,3.496838 1.18726,3.506089 -2.20292,0.152275 -2.37946,-2.35393 -3.70561,-7.289674 -3.89184,-14.484835 -0.24054,-9.29261 -1.1415,-11.539926 -6.06391,-15.125658 -4.97716,-3.625628 -5.59414,-5.20967 -4.43525,-11.387165 1.15584,-6.161124 0.76546,-7.175734 -2.76087,-7.175734 -5.48509,0 -7.37685,-2.18841 -4.69018,-5.42564 3.40212,-4.09931 -1.53196,-5.93715 -8.35359,-3.11153 -3.22617,1.33633 -7.09301,2.14066 -8.59299,1.78743 -1.49998,-0.35325 -2.92109,1.25854 -3.15803,3.58174 -0.23693,2.3232 -1.14325,6.408 -2.014,9.077358 -0.98147,3.008671 -0.56511,6.08011 1.09545,8.080955 1.94908,2.348502 2.03069,3.6281 0.29965,4.697954 -1.30847,0.808685 -2.92637,7.151443 -3.5953,14.095023 -1.90581,19.782027 -7.81324,46.534899 -12.00518,54.367631 -1.82553,3.411007 -2.62762,3.666158 -4.11954,1.310412 -3.04232,-4.803807 -2.31351,-10.921279 1.1431,-9.594858 1.98752,0.762685 2.67092,0.159245 1.94937,-1.721006 -0.61108,-1.592469 0.0585,-5.080943 1.48818,-7.752159 1.42959,-2.671215 2.48353,-7.935333 2.34206,-11.698051 -0.1415,-3.762739 0.52467,-7.324542 1.48028,-7.915121 2.71291,-1.676674 2.84493,-51.390108 0.15798,-59.531328 -1.49031,-4.51568 -4.79147,-8.46413 -8.81703,-10.54582 l -6.43478,-3.32756 4.8599,-2.44372 c 7.89088,-3.96775 8.00102,-8.4602 0.17931,-7.3122 -4.62718,0.67911 -7.65521,-0.18692 -10.10038,-2.88882 -1.92066,-2.12226 -4.77038,-3.85869 -6.33275,-3.85869 -3.90114,0 -3.55929,-2.17141 0.85534,-5.43299 2.97234,-2.19599 3.17615,-3.25765 1.04092,-5.42231 -4.44933,-4.51062 -9.92701,2.98166 -9.88663,13.52274 0.019,4.9217 -1.08741,10.1011 -2.45837,11.50979 -1.37094,1.40866 -4.5163,9.48706 -6.98966,17.952 -2.47337,8.46491 -5.44911,16.816373 -6.61276,18.558773 -1.16365,1.7424 -4.21792,7.913115 -6.78727,13.712709 l -4.67155,10.54473 -1.38064,-8.43273 c -0.81359,-4.969283 -0.4993,-8.986306 0.76524,-9.780587 1.18023,-0.741312 1.53735,-2.332472 0.79361,-3.535911 -0.74377,-1.203417 1.03528,-6.678418 3.95341,-12.166684 2.91813,-5.48826 5.33592,-11.5003 5.37286,-13.36009 0.037,-1.85978 1.46256,-5.22629 3.168,-7.4811 4.87312,-6.44283 3.94606,-11.74034 -2.05451,-11.74034 -2.83545,0 -5.74274,-0.9504 -6.46065,-2.112 -0.71791,-1.1616 0.0712,-2.112 1.75338,-2.112 1.68227,0 5.21457,-1.74575 7.84957,-3.87944 3.87985,-3.14171 4.92208,-6.39991 5.4807,-17.13363 0.67039,-12.88132 0.55704,-13.21222 -4.02894,-11.7631 -2.59529,0.82009 -7.35624,1.98881 -10.57989,2.59713 -4.75361,0.89707 -5.39517,1.66761 -3.39504,4.0776 1.35637,1.63435 1.7254,3.66136 0.82005,4.50449 -0.90538,0.84311 -2.0704,0.34495 -2.58898,-1.10705 -1.31727,-3.68862 -4.81477,-3.30509 -4.81477,0.528 0,1.7424 0.9504,3.168 2.112,3.168 1.1616,0 2.112,1.4256 2.112,3.168 0,1.7424 -0.9504,3.168 -2.112,3.168 -1.1616,0 -2.112,-0.9504 -2.112,-2.112 0,-1.1616 -2.76222,-2.112 -6.13827,-2.112 -5.09847,0 -5.95115,0.71553 -5.03368,4.224 0.60754,2.3232 1.94416,4.224 2.97028,4.224 1.02611,0 1.86567,1.01444 1.86567,2.25433 0,1.31081 -1.8103,1.67976 -4.32535,0.88151 -2.37968,-0.75527 -5.7529,-0.18797 -7.49889,1.26099 -2.63535,2.18714 -3.37628,1.85856 -4.36899,-1.93751 -0.86974,-3.32589 -2.82055,-4.57132 -7.16044,-4.57132 -7.2364,0 -9.67276,-3.22483 -5.88471,-7.78916 2.46486,-2.96998 2.23064,-3.19776 -1.93018,-1.87716 -3.46926,1.10111 -4.73544,0.6559 -4.73544,-1.66502 0,-1.7424 -1.813,-3.74344 -4.02889,-4.44673 -4.82187,-1.5304 -7.64731,-7.45393 -3.55542,-7.45393 1.56371,0 4.01757,1.41515 5.45302,3.14475 1.43544,1.7296 3.51585,2.58484 4.62312,1.90051 1.10727,-0.68433 3.37791,0.51414 5.04588,2.66325 2.6912,3.46754 2.88774,3.49135 1.74552,0.21149 -0.72065,-2.06929 -0.25816,-3.696 1.05081,-3.696 1.28589,0 2.368,2.6136 2.4047,5.808 l 0.0667,5.808 5.19818,-5.90823 c 2.859,-3.24955 5.73759,-8.47675 6.39683,-11.616 0.65926,-3.13928 2.08087,-7.34081 3.15911,-9.33673 3.08895,-5.71786 5.91309,-20.3593 7.45715,-38.66056 0.78174,-9.26556 1.71569,-17.1818 2.07544,-17.59163 0.35978,-0.40985 -0.25601,-3.13904 -1.36842,-6.0649 -1.38622,-3.64601 -1.26243,-6.23564 0.39344,-8.23085 2.21367,-2.66731 1.19149,-3.79982 -2.85321,-3.1612 -0.8712,0.13749 -1.584,-1.14206 -1.584,-2.84359 0,-1.70154 -1.82468,-4.07023 -4.05485,-5.26378 -2.23018,-1.19355 -5.15509,-5.50379 -6.4998,-9.57831 -2.44422,-7.40606 -8.45335,-10.33164 -8.45335,-4.11557 0,1.81095 0.85082,2.76681 1.89071,2.12413 2.13895,-1.32195 4.44529,3.54729 4.44529,9.3851 0,2.14302 1.45758,4.20369 3.23907,4.57927 2.58146,0.54422 2.36707,1.22247 -1.056,3.34074 -3.96295,2.45237 -4.29507,2.15695 -4.29507,-3.82063 0,-3.78122 -0.87933,-5.93509 -2.112,-5.17325 -3.26094,2.01537 -2.50179,13.1265 0.98836,14.4658 1.7052,0.65434 3.65006,0.30029 4.32193,-0.7868 1.587,-2.56781 9.47371,2.29141 9.47371,5.83704 0,3.35738 -2.62601,3.41314 -5.9136,0.12545 -1.39392,-1.39392 -2.5344,-1.80124 -2.5344,-0.90514 0,2.76531 5.19088,6.98924 7.60164,6.18567 1.40007,-0.46669 2.42597,3.25159 2.65094,9.60816 0.31097,8.78563 -0.28271,10.53939 -3.88678,11.48187 -3.77528,0.98725 -4.23709,0.12482 -4.10534,-7.66589 0.1056,-6.24241 0.60897,-7.60265 1.74267,-4.70868 1.36744,3.49063 1.77803,3.59061 2.8862,0.70277 1.09874,-2.86318 -2.01559,-5.82825 -6.12178,-5.82825 -0.54944,0 -0.70932,4.5144 -0.35526,10.032 0.52933,8.24936 1.36198,10.032 4.68589,10.032 2.2232,0 4.29032,1.21176 4.5936,2.6928 0.30329,1.48104 0.11426,1.85676 -0.41986,0.83495 -1.15691,-2.21291 -10.95273,-0.65406 -12.59576,2.00442 -0.63221,1.0229 -5.37016,1.85983 -10.5288,1.85983 -8.65433,0 -9.37936,-0.41778 -9.37936,-5.40465 0,-3.06528 0.91417,-4.83965 2.112,-4.09935 1.1616,0.71791 2.112,0.40047 2.112,-0.70539 0,-1.10589 -1.53263,-2.59882 -3.40586,-3.31764 -2.62189,-1.00611 -2.85255,-1.97366 -1.00209,-4.20332 1.84314,-2.22085 1.65233,-3.18471 -0.81814,-4.13272 -3.41954,-1.31221 -4.5279,-7.70493 -1.33587,-7.70493 2.27023,0 5.01598,-6.47398 3.42186,-8.06812 -0.62015,-0.62015 -2.62091,0.70389 -4.44613,2.94229 -3.0591,3.75159 -3.22254,3.7673 -2.09018,0.20106 0.67563,-2.12777 1.22841,-5.69177 1.22841,-7.91997 0,-2.22819 1.05209,-4.05126 2.33797,-4.05126 1.28587,0 1.76043,1.50501 1.05456,3.34447 -0.81474,2.12318 -0.31882,3.02295 1.35804,2.46401 1.45279,-0.48426 2.64143,-1.91009 2.64143,-3.16848 0,-1.2584 0.7128,-3.0008 1.584,-3.872 3.90781,-3.90781 1.44961,-7.25257 -4.55298,-6.19507 -5.26043,0.92676 -5.98486,0.49945 -5.07189,-2.99173 0.62219,-2.37928 2.27333,-3.60927 3.97071,-2.95793 1.59809,0.61325 4.58475,-0.56415 6.63703,-2.61643 2.67262,-2.67261 2.98766,-3.97933 1.11028,-4.60513 -1.64056,-0.54685 -2.62115,-4.99849 -2.62115,-11.89941 0,-9.82811 -0.8029,-11.8039 -7.392,-18.1903 -4.0656,-3.94054 -7.392,-8.35655 -7.392,-9.81336 0,-1.45681 -1.28685,-3.40878 -2.85967,-4.3377 -3.63547,-2.14713 -7.70033,-9.8275 -7.70033,-14.54943 0,-3.26382 0.37667,-3.3103 3.696,-0.45612 7.29483,6.27257 32.59646,23.07285 37.63101,24.98698 3.84855,1.46321 5.13699,3.52509 5.13699,8.22063 0,7.49857 7.66044,21.293 11.82463,21.293 1.72485,0 2.95937,2.13805 2.95937,5.12531 0,3.63988 1.93037,6.08831 6.66049,8.448 7.44203,3.71257 26.15892,4.49302 28.2088,1.17624 1.86931,-3.0246 5.3044,-0.43007 3.9845,3.00951 -0.67689,1.76397 0.95826,3.3538 4.31625,4.19659 2.97328,0.74626 5.37435,2.52671 5.3357,3.95658 -0.1056,3.90826 -7.5753,12.10377 -11.03178,12.10377 -5.05076,0 -16.11843,-6.34169 -19.50441,-11.17586 l -3.18555,-4.548 v 4.56929 c 0,2.51311 0.9504,5.15665 2.112,5.87457 1.1616,0.71791 2.112,3.6252 2.112,6.46065 0,3.93036 1.12914,5.1617 4.752,5.1821 2.6136,0.0148 10.35073,2.8659 17.19363,6.336 6.8429,3.47008 13.82418,6.30925 15.51397,6.30925 1.68979,0 5.86219,1.98654 9.27199,4.41454 4.92297,3.50546 8.68698,4.27598 18.27803,3.74162 6.64311,-0.37013 13.02878,-0.0925 14.19038,0.61708 6.02286,3.67879 15.46086,3.97618 18.84331,0.59375 3.05946,-3.05949 4.7335,-3.18775 12.65557,-0.9697 5.02134,1.40587 14.95707,2.69011 22.07941,2.85386 7.12234,0.16368 12.94971,0.90678 12.94971,1.65126 0,1.87897 -11.47443,3.98719 -21.912,4.02592 -4.7916,0.0169 -10.10573,0.91382 -11.80916,1.99119 -1.9491,1.23274 -4.06773,1.15337 -5.7155,-0.21415 -1.48114,-1.22925 -3.80506,-1.40611 -5.35083,-0.4072 -2.96905,1.91869 -7.20133,2.4268 -31.24451,3.75113 -12.47708,0.68726 -16.28837,1.67978 -17.952,4.67493 -1.1616,2.09134 -3.5376,4.94134 -5.28,6.33334 -2.71231,2.16683 -2.36516,2.83745 2.41334,4.6622 3.06973,1.17222 7.58413,1.60759 10.032,0.96744 3.66147,-0.9575 4.45066,-0.21492 4.45066,4.18778 0,5.82696 6.47848,9.04348 29.04,14.41814 10.61156,2.52791 11.088,2.94189 11.088,9.63414 0,7.16513 -3.39595,9.49608 -5.57224,3.82472 -1.55139,-4.04283 -4.95061,-3.99372 -15.49133,0.22383 -8.4553,3.38315 -9.63891,7.16817 -2.2415,7.16817 2.85388,0 3.60679,1.12743 2.80374,4.19834 -0.70663,2.70214 0.11658,4.58382 2.30973,5.28 11.20922,3.55811 10.85863,3.30868 7.5724,5.38693 -2.63789,1.66823 -2.57186,1.97094 0.43583,1.9984 3.71501,0.034 28.45221,14.0237 30.41618,17.2015 0.62507,1.01135 -0.3452,1.83883 -2.15616,1.83883 -1.81095,0 -3.29265,1.27831 -3.29265,2.84066 0,4.48051 7.90454,10.4661 12.30259,9.31599 5.71188,-1.49369 10.92508,2.06772 10.95556,7.484298 0.0249,4.433194 13.52664,15.727684 17.44425,14.592547 0.89671,-0.259839 2.50775,1.835202 3.58007,4.65563 1.44592,3.803078 3.07104,4.834811 6.2896,3.993137 2.71359,-0.709611 4.33993,-0.119328 4.33993,1.575425 0,1.490671 0.5544,2.155909 1.23199,1.478316 0.67762,-0.677593 3.03205,0.568043 5.2321,2.768092 2.20005,2.20005 5.20965,3.556439 6.68801,3.014183 3.26779,-1.198602 6.12752,0.755674 9.30923,6.361724 1.62535,2.86383 4.17566,4.028239 7.92,3.616061 5.57936,-0.614169 7.92218,4.155677 3.41067,6.943939 -4.34605,2.686 -1.86904,7.1446 5.28,9.504 7.93383,2.618394 8.81773,4.065473 4.88533,7.997869 -1.93425,1.934254 -0.99895,3.032283 4.09559,4.808264 4.07025,1.418884 6.19213,3.370414 5.53281,5.088589 -0.58822,1.532869 0.91591,4.177642 3.34249,5.877274 3.89157,2.725768 4.03286,3.404924 1.19788,5.7577341 -1.76776,1.4671219 -3.2141,1.7718835 -3.2141,0.677255 z m -31.68,-39.3301071 c 0,-1.532932 -2.30157,-4.788326 -5.11459,-7.234212 -4.16911,-3.625016 -5.33153,-3.881771 -6.2881,-1.388978 -1.20679,3.144852 5.52326,11.410312 9.29069,11.410312 1.1616,0 2.112,-1.254211 2.112,-2.787122 z m -21.78927,-18.728877 c -0.67419,-1.684806 -1.17465,-1.184368 -1.27599,1.276007 -0.0917,2.226385 0.40745,3.473796 1.10927,2.772 0.70179,-0.701818 0.77681,-2.523418 0.16663,-4.048007 z m -16.22673,-6.512585 c 1.84775,-0.70338 0.74754,-1.275436 -2.64,-1.372673 -5.59843,-0.160723 -7.3739,1.787365 -4.36827,4.792994 0.79187,0.791852 1.97987,0.61757 2.64,-0.38732 0.66015,-1.004868 2.62587,-2.369727 4.36827,-3.033001 z m -187.968,-80.929088 c 0,-1.84674 2.6136,-6.12679 5.808,-9.51127 3.1944,-3.38448 5.85119,-7.33831 5.90399,-8.78632 0.0528,-1.44801 1.14334,-2.42762 2.4234,-2.17694 1.30935,0.25643 1.87218,-1.28497 1.28671,-3.52381 -0.57239,-2.1888 -0.11447,-5.63469 1.01756,-7.65752 1.89497,-3.38613 2.25192,-3.31601 4.4996,0.88383 1.34274,2.50893 3.54839,4.5617 4.90144,4.5617 1.81928,0 1.84247,-0.61763 0.0891,-2.37107 -1.7213,-1.72131 -1.74415,-3.74701 -0.0834,-7.392 2.60935,-5.72692 2.47066,-5.69056 11.6556,-3.05636 3.76753,1.08052 6.85006,1.23307 6.85006,0.33901 0,-3.08818 -9.52719,-5.94982 -16.4313,-4.9354 -5.8635,0.86153 -6.73861,1.70932 -5.69864,5.52083 1.19761,4.38924 1.14641,4.40018 -2.02689,0.43317 -3.88084,-4.85154 -4.48686,-4.36288 -10.77823,8.69094 -3.01929,6.26464 -4.06281,10.61206 -2.74302,11.42772 1.22054,0.75434 0.0249,3.05347 -2.7999,5.38418 -4.50133,3.71396 -10.21002,11.78904 -10.21002,14.44232 0,0.59656 1.4256,1.08466 3.168,1.08466 1.7424,0 3.168,-1.51094 3.168,-3.35767 z m -14.784,-1.79768 c 0,-0.51224 -0.9504,-1.51873 -2.112,-2.23665 -1.1616,-0.71791 -2.112,-0.2988 -2.112,0.93135 0,1.23016 0.9504,2.23665 2.112,2.23665 1.1616,0 2.112,-0.4191 2.112,-0.93135 z m 75.36273,-22.69665 c -0.67419,-1.6848 -1.17465,-1.18436 -1.27598,1.27601 -0.0917,2.22639 0.40744,3.4738 1.10926,2.772 0.7018,-0.70182 0.77681,-2.52342 0.16664,-4.04801 z m -76.56711,-41.60388 c 1.41438,-2.28854 -7.13961,-4.77768 -10.10995,-2.94191 -1.18197,0.7305 -0.31216,2.03162 1.95052,2.91768 5.5934,2.19038 6.81841,2.19403 8.15943,0.0243 z m -0.37962,-7.97485 c -1.452,-0.58589 -3.828,-0.58589 -5.28,0 -1.452,0.58589 -0.264,1.06527 2.64,1.06527 2.904,0 4.092,-0.47938 2.64,-1.06527 z m 2.448,-8.10526 c 2.904,-2.904 4.44069,-5.28 3.41485,-5.28 -1.02582,0 -3.29073,1.4256 -5.03313,3.168 -1.7424,1.7424 -4.18629,3.168 -5.43086,3.168 -1.24457,0 -2.26286,0.9504 -2.26286,2.112 0,3.62556 3.81701,2.327 9.312,-3.168 z m 4.50285,3.02748 c 2.16704,-3.50636 0.22199,-3.99258 -2.81012,-0.70247 -1.49779,1.62525 -1.79148,2.95499 -0.65263,2.95499 1.13883,0 2.69707,-1.01364 3.46275,-2.25252 z m -2.72685,-11.81822 c -1.452,-0.58589 -2.64,-2.52804 -2.64,-4.31587 0,-2.64995 0.58539,-2.76478 3.168,-0.62139 1.99772,1.65796 3.168,1.79953 3.168,0.38324 0,-3.77064 -4.22904,-5.12027 -7.51056,-2.39685 -2.35496,1.95445 -2.52463,3.26915 -0.70488,5.46183 1.31816,1.58828 3.46828,2.81274 4.77804,2.72103 1.49633,-0.10475 1.40021,-0.56265 -0.2586,-1.23199 z M 395.42567,-9.8849687 c -0.0917,-1.5205553 -0.91348,-2.3031153 -1.82616,-1.7390633 -0.9127,0.564073 -1.65944,-0.805432 -1.65944,-3.043349 0,-3.490123 0.42116,-3.647804 2.96058,-1.108357 1.62831,1.62831 2.45009,4.24191 1.82616,5.808 -0.90038,2.2600301 -1.1688,2.2771162 -1.30114,0.08279 z m -2.98858,-14.8320903 c 0.3904,-1.546997 0.70984,-3.210197 0.70984,-3.696 0,-0.485781 1.39578,-0.883259 3.10173,-0.883259 1.88407,0 2.62629,1.238899 1.89068,3.155877 -0.66606,1.735726 -1.98065,2.680191 -2.92132,2.098842 -0.94068,-0.58137 -2.11092,-0.338321 -2.60055,0.540123 -0.48964,0.878444 -0.57081,0.331436 -0.18036,-1.215583 z m -1.01444,-14.148921 c 0.36755,-2.940115 1.61868,-5.26002 2.78028,-5.15535 1.1616,0.104756 2.73006,-2.004182 3.48548,-4.686338 l 1.37347,-4.87665 0.21057,4.818275 c 0.11574,2.650074 -1.21508,5.365346 -2.95748,6.033963 -1.7424,0.668638 -3.168,2.641288 -3.168,4.383688 0,1.948299 1.21971,2.699959 3.168,1.952311 1.7424,-0.668616 3.168,-0.295088 3.168,0.830038 0,1.125146 -1.96392,2.045725 -4.36428,2.045725 -3.43755,0 -4.22237,-1.135116 -3.69599,-5.345662 z m -1.15613,-12.618461 c -0.73561,-1.916977 0.007,-3.155877 1.89069,-3.155877 3.41592,0 4.19301,3.300254 1.21102,5.143227 -1.03987,0.642682 -2.43565,-0.251624 -3.10171,-1.98735 z M 251.64293,-129.91149 c 0,-0.74313 1.6632,-2.6137 3.696,-4.15682 4.509,-3.42281 13.2,-3.81921 13.2,-0.60204 0,1.28587 -1.35611,1.81756 -3.01359,1.18153 -1.65745,-0.63602 -4.14982,0.21268 -5.53859,1.88604 -2.53087,3.04952 -8.34382,4.2278 -8.34382,1.69129 z m -8.052,-11.45283 c 0.50819,-1.52461 2.17141,-3.18781 3.696,-3.696 1.584,-0.528 2.376,0.264 1.848,1.848 -0.50819,1.52459 -2.17141,3.18779 -3.696,3.696 -1.584,0.528 -2.376,-0.264 -1.848,-1.848 z m 41.844,-18.876 c 0,-1.1616 0.9504,-2.112 2.112,-2.112 1.1616,0 2.112,0.9504 2.112,2.112 0,1.1616 -0.9504,2.112 -2.112,2.112 -1.1616,0 -2.112,-0.9504 -2.112,-2.112 z m -34.90109,-19.09391 c -0.74712,-1.20885 -3.26184,-1.59378 -5.58827,-0.8554 -5.79568,1.83948 -19.09111,-0.85486 -17.4357,-3.53338 0.73058,-1.18211 2.77233,-1.59515 4.53723,-0.9179 2.43036,0.93262 2.9253,0.147 2.03999,-3.23856 -1.05103,-4.01913 -0.4341,-4.38413 6.11751,-3.61927 4.50916,0.52644 6.9866,0.004 6.49984,-1.36946 -0.43262,-1.22105 -4.47841,-1.91295 -8.99066,-1.5375 -4.51224,0.37543 -7.4217,-0.0997 -6.46546,-1.056 0.95624,-0.95625 2.60982,-1.85742 3.67461,-2.00262 4.62085,-0.63011 4.86894,-1.18134 1.18398,-2.63066 -3.25184,-1.27896 -2.40059,-2.22696 4.994,-5.56144 8.7957,-3.9663 8.95636,-3.9649 12.10395,0.10623 3.10426,4.01504 3.15983,3.99827 2.06829,-0.62401 -0.61692,-2.61246 -0.2605,-5.28214 0.79206,-5.93265 1.05256,-0.65052 1.91372,-0.17636 1.91372,1.05388 0,1.23016 1.49348,2.23666 3.31886,2.23666 2.98688,0 2.97959,0.33927 -0.0729,3.39176 -2.49778,2.49778 -2.78885,4.11821 -1.1043,6.14797 1.42989,1.72291 1.52484,3.22754 0.25329,4.01339 -1.11879,0.69145 -2.59491,0.0634 -3.28027,-1.39597 -0.68535,-1.45924 -0.89674,-0.0312 -0.46973,3.1733 0.56314,4.22626 0.1056,5.26974 -1.66614,3.79939 -1.79074,-1.4862 -2.21544,-0.0822 -1.59158,5.26154 0.8486,7.26891 -0.25745,9.25691 -2.83232,5.0907 z m -7.82291,-6.64609 c -0.4598,-1.37941 -1.98836,-2.73373 -3.3968,-3.0096 -1.40844,-0.27589 -1.58071,-0.0169 -0.38284,0.57639 1.19788,0.5929 1.64075,1.94722 0.98416,3.0096 -0.65659,1.06238 -0.10811,1.93161 1.21884,1.93161 1.32695,0 2.03645,-1.12861 1.57664,-2.508 z m -18.524,-22.71134 c 0,-3.55336 0.9504,-6.46065 2.112,-6.46065 1.1616,0 2.112,2.3199 2.112,5.15534 0,2.83545 -0.9504,5.74274 -2.112,6.46066 -1.23218,0.76154 -2.112,-1.38607 -2.112,-5.15535 z m 0,-10.56 c 0,-1.09305 0.9504,-2.57474 2.112,-3.29265 1.1616,-0.71792 2.112,0.17635 2.112,1.98735 0,1.81095 -0.9504,3.29265 -2.112,3.29265 -1.1616,0 -2.112,-0.89431 -2.112,-1.98735 z m 129.888,-33.91665 c -0.71791,-1.1616 -6.4764,-2.112 -12.79665,-2.112 -12.93596,0 -15.21584,-3.40981 -6.22068,-9.30368 5.71657,-3.74564 11.61272,-3.17905 24.82533,2.38559 8.9417,3.7659 9.06221,3.96559 4.90286,8.12495 -3.50112,3.50112 -8.82822,3.95129 -10.71086,0.90514 z m -31.68,-2.112 c 0.71791,-1.1616 1.72441,-2.112 2.23665,-2.112 0.51225,0 0.93135,0.9504 0.93135,2.112 0,1.1616 -1.00649,2.112 -2.23665,2.112 -1.23015,0 -1.64926,-0.9504 -0.93135,-2.112 z m -100.32,-6.46065 c 0,-2.39176 0.9089,-3.78693 2.01977,-3.10036 1.11086,0.68655 1.48438,2.64345 0.83003,4.34865 -1.67529,4.36574 -2.8498,3.85128 -2.8498,-1.24829 z m 35.904,2.3613 c 0,-1.09305 0.9504,-2.57474 2.112,-3.29265 1.1616,-0.71791 2.112,0.17635 2.112,1.98735 0,1.81095 -0.9504,3.29265 -2.112,3.29265 -1.1616,0 -2.112,-0.89431 -2.112,-1.98735 z m 63.36,-12.79665 c 0,-1.1616 1.0065,-2.112 2.23665,-2.112 1.23016,0 1.64926,0.9504 0.93135,2.112 -0.71791,1.1616 -1.7244,2.112 -2.23665,2.112 -0.51224,0 -0.93135,-0.9504 -0.93135,-2.112 z m 7.32645,-10.66607 c -1.93979,-3.13864 -0.39706,-4.24977 2.99219,-2.1551 1.81575,1.1222 2.03177,2.21063 0.61278,3.08762 -1.20534,0.74494 -2.82759,0.32531 -3.60497,-0.93252 z m -15.77445,-2.00593 c 0,-1.1616 1.9569,-2.112 4.34865,-2.112 2.39176,0 3.76126,0.9504 3.04335,2.112 -0.71791,1.1616 -2.6748,2.112 -4.34865,2.112 -1.67384,0 -3.04335,-0.9504 -3.04335,-2.112 z m 31.3858,0.22652 c 2.62101,-1.66065 10.8542,-0.84462 10.8542,1.0758 0,0.44532 -3.0888,0.79512 -6.864,0.77734 -4.66676,-0.022 -5.94407,-0.6152 -3.9902,-1.85314 z m -19.56892,-4.92663 c 1.25408,-3.60633 12.02169,-10.14639 16.49161,-10.01673 3.43369,0.0996 -5.36754,6.26884 -8.94333,6.26884 -1.68271,0 -4.3546,1.6632 -5.9375,3.696 -2.67652,3.43723 -2.7893,3.44086 -1.61078,0.0519 z m 27.27008,0.5003 c -0.73992,-1.19721 0.10792,-1.55128 1.98735,-0.83004 3.65887,1.40404 4.32831,2.91785 1.29034,2.91785 -1.09304,0 -2.56802,-0.93952 -3.27769,-2.08781 z m -3.85804,-8.38652 c -3.72461,-3.76747 -3.59443,-3.88292 4.224,-3.74596 4.43689,0.0777 6.3341,0.54101 4.216,1.02953 -2.28271,0.52648 -3.38484,2.10316 -2.70628,3.87148 1.5635,4.0744 -1.09275,3.53931 -5.73372,-1.15505 z m -32.60355,-0.56976 c 0.30759,-1.52141 -1.05824,-2.41511 -3.15337,-2.06333 -2.0328,0.34132 -3.696,-0.42757 -3.696,-1.70864 0,-1.28108 0.88537,-1.78204 1.9675,-1.11325 1.08213,0.66878 3.35669,-0.76739 5.05461,-3.19151 2.03782,-2.90939 3.38558,-3.51217 3.96515,-1.7734 1.271,3.81297 5.90874,0.2541 5.90874,-4.53419 0,-2.73109 1.90021,-4.44919 5.808,-5.25138 3.1944,-0.65575 9.24467,-2.09945 13.44504,-3.20824 10.18733,-2.68919 10.31496,-2.66127 10.31496,2.25672 0,4.02826 0.29087,4.0821 5.08443,0.94124 3.37441,-2.211 5.5473,-2.58254 6.46065,-1.10469 0.75692,1.22471 0.36973,2.22676 -0.86043,2.22676 -1.23015,0 -2.23665,1.4256 -2.23665,3.168 0,1.7424 -1.51656,3.168 -3.37014,3.168 -1.85357,0 -6.1943,1.6632 -9.64607,3.696 -5.97707,3.52 -6.37474,3.52 -8.35081,0 -2.52445,-4.49686 -7.02461,-4.95657 -5.33161,-0.54466 1.2903,3.3625 -5.66145,7.82477 -16.084,10.32417 -4.14254,0.99341 -5.66606,0.62188 -5.28,-1.2876 z m 47.00663,-1.62791 c 0.71791,-1.1616 1.72441,-2.112 2.23665,-2.112 0.51225,0 0.93135,0.9504 0.93135,2.112 0,1.1616 -1.00649,2.112 -2.23665,2.112 -1.23015,0 -1.64926,-0.9504 -0.93135,-2.112 z m -89.76,-4.224 c 0,-2.64617 2.24134,-2.64617 6.336,0 2.56178,1.65554 2.25866,2.0535 -1.584,2.07966 -2.6136,0.0178 -4.752,-0.91806 -4.752,-2.07966 z m -11.616,-2.112 c -0.71791,-1.1616 -0.2988,-2.112 0.93135,-2.112 1.23016,0 2.23665,0.9504 2.23665,2.112 0,1.1616 -0.4191,2.112 -0.93135,2.112 -0.51224,0 -1.51873,-0.9504 -2.23665,-2.112 z m 29.58296,-2.08781 c -0.73992,-1.19721 0.10792,-1.55128 1.98735,-0.83004 3.65887,1.40404 4.32831,2.91785 1.29034,2.91785 -1.09304,0 -2.56802,-0.93952 -3.27769,-2.08781 z m 29.55304,-10.58419 c -0.71791,-1.1616 -0.2988,-2.112 0.93135,-2.112 1.23016,0 2.23665,0.9504 2.23665,2.112 0,1.1616 -0.4191,2.112 -0.93135,2.112 -0.51224,0 -1.51874,-0.9504 -2.23665,-2.112 z m -48.576,-4.224 c -0.71791,-1.1616 -0.2988,-2.112 0.93135,-2.112 1.23016,0 2.23665,0.9504 2.23665,2.112 0,1.1616 -0.4191,2.112 -0.93135,2.112 -0.51224,0 -1.51874,-0.9504 -2.23665,-2.112 z m 39.64019,-5.6876 c 2.05492,-0.53548 4.90612,-0.50027 6.336,0.0783 1.42989,0.57853 -0.25139,1.01665 -3.73619,0.97361 -3.4848,-0.043 -4.65472,-0.51638 -2.59981,-1.05187 z m 11.54061,-0.91048 c 1.43265,-1.44338 3.13682,-2.09229 3.78709,-1.44204 0.65026,0.65026 -0.5219,1.83121 -2.6048,2.62433 -3.01002,1.14615 -3.2526,0.90356 -1.18229,-1.18229 z"
         id="path3694" />
      <path
         style="fill:#2a672c;stroke-width:2.11199999"
         d="m 456.52193,-60.962927 c -7.30524,-6.52211 -7.26298,-8.796142 0.18458,-9.932715 3.45063,-0.526606 4.04865,0.179942 2.98603,3.527906 -1.01585,3.200651 0.3175,5.190028 5.66285,8.448992 5.69279,3.470798 6.17948,4.264107 2.61995,4.270527 -2.40438,0.0042 -7.55842,-2.837281 -11.45339,-6.31471 z m -22.0802,-18.042457 c -2.26227,-1.71091 -5.62455,-2.631066 -7.47173,-2.044796 -1.87345,0.594612 -6.59187,-1.697774 -10.6708,-5.184263 l -7.31227,-6.250211 6.336,-0.11806 c 4.37689,-0.08152 5.45,-0.679579 3.47052,-1.933832 -2.01305,-1.275542 -2.1653,-2.248393 -0.5118,-3.270326 1.29453,-0.800047 3.77199,-0.03633 5.50548,1.697139 4.21549,4.215489 3.97149,5.565522 -1.00592,5.565522 -2.82804,0 -3.76893,1.013147 -2.94204,3.168 1.4599,3.80443 7.38609,4.148876 10.90136,0.6336 1.97119,-1.971193 3.12107,-1.943399 5.1744,0.12503 2.11817,2.133817 1.80506,2.347889 -1.584,1.082949 -3.69722,-1.379938 -3.8755,-1.147809 -1.42959,1.861348 1.53694,1.890831 3.91294,3.174948 5.28,2.853565 1.36708,-0.321362 1.76688,-0.183744 0.88843,0.305945 -0.87844,0.489625 -1.05995,1.759464 -0.40335,2.821843 1.64223,2.657212 0.59508,2.331648 -4.22469,-1.313453 z m 12.5612,1.133067 c 0.71791,-1.1616 1.72441,-2.112 2.23665,-2.112 0.51225,0 0.93135,0.9504 0.93135,2.112 0,1.1616 -1.00649,2.112 -2.23665,2.112 -1.23015,0 -1.64926,-0.9504 -0.93135,-2.112 z M 412.32167,-98.11231 c 0.10138,-2.46037 0.6018,-2.96081 1.27599,-1.276007 0.61009,1.52459 0.53507,3.34619 -0.16664,4.048007 -0.70181,0.701797 -1.20096,-0.545614 -1.10926,-2.772 z m -66.66321,-2.94098 c -0.77028,-1.24636 -0.77937,-5.0941 -0.0211,-8.55056 0.93634,-4.26313 0.56021,-6.28447 -1.16943,-6.28447 -1.79953,0 -2.14495,-2.53142 -1.174,-8.60342 0.9036,-5.65078 0.63381,-8.14491 -0.78606,-7.26737 -1.20933,0.74797 -2.16092,-0.6011 -2.16092,-3.06483 0,-2.751 1.9795,-5.15353 5.28,-6.40838 6.94884,-2.64194 7.01945,-7.23049 0.0845,-5.48993 -6.28816,1.57824 -10.64784,-4.78583 -8.67185,-12.65878 0.92835,-3.69874 0.402,-5.08329 -1.93239,-5.08329 -1.76454,0 -3.20824,-1.19108 -3.20824,-2.64686 0,-2.61396 -11.08762,-14.24914 -13.57855,-14.24914 -0.70727,0 -0.72832,2.22168 -0.0469,4.93704 0.86628,3.45151 -1.02647,8.69436 -6.29034,17.424 -7.62805,12.6505 -9.19761,18.60541 -5.50533,20.88736 1.13601,0.70209 0.20297,3.08962 -2.112,5.40463 -5.23708,5.23708 -5.81401,5.19203 -6.64008,-0.51846 -0.41444,-2.86488 -2.71259,-5.22888 -5.95489,-6.12547 -3.02846,-0.83743 -3.76525,-1.54983 -1.72781,-1.67057 5.75024,-0.34079 12.65287,-11.74864 11.02745,-18.22485 -1.00375,-3.9992 -0.0866,-7.32693 3.27113,-11.86845 2.85538,-3.86211 4.1124,-7.68899 3.23941,-9.86213 -0.78459,-1.95309 -1.67556,-7.3527 -1.97994,-11.9991 -0.76482,-11.67486 -6.24003,-23.10728 -13.56423,-28.32259 -6.78861,-4.8339 -9.50462,-2.61286 -7.26723,5.94289 0.9063,3.46571 0.1867,4.42771 -3.31246,4.42771 -3.41768,0 -4.47032,1.30612 -4.47032,5.54674 0,3.0507 -2.8512,11.15753 -6.336,18.01515 -3.4848,6.85764 -6.336,13.87491 -6.336,15.59395 0,1.71902 -1.9008,4.75301 -4.224,6.7422 -2.3232,1.98919 -4.224,4.83107 -4.224,6.31533 0,3.27091 -3.44115,3.56197 -5.36224,0.45355 -0.76315,-1.2348 0.0634,-3.8484 1.83651,-5.808 5.69053,-6.28865 13.84169,-35.64554 16.08807,-57.94205 3.1777,-31.54052 2.4641,-37.23667 -5.69834,-45.48569 -3.7752,-3.81525 -6.864,-8.41735 -6.864,-10.22688 0,-1.80953 -1.82618,-5.61167 -4.05819,-8.4492 l -4.05818,-5.15914 -1.60476,4.82602 c -0.88263,2.65431 -1.36083,7.43962 -1.06266,10.63402 0.29817,3.1944 -0.28905,5.808 -1.30494,5.808 -1.0159,0 -1.47138,3.21819 -1.01219,7.15154 0.45921,3.93335 -0.32717,9.32292 -1.74749,11.9768 -2.15439,4.02551 -2.00913,5.24445 0.87643,7.35443 3.01737,2.20634 3.06445,2.85643 0.36886,5.09359 -6.96347,5.77915 -15.38276,-2.10026 -9.20637,-8.61601 1.5101,-1.593 2.84061,-4.08435 2.95677,-5.53635 0.11616,-1.452 0.35376,-4.5969 0.528,-6.98865 0.17424,-2.39176 1.27442,-3.75681 2.44483,-3.03345 1.23082,0.76068 1.08789,-0.96765 -0.33901,-4.09935 -1.35687,-2.97801 -3.97768,-5.48958 -5.82402,-5.58129 -1.84635,-0.0917 -0.7434,-1.1213 2.451,-2.288 5.84798,-2.13586 7.65928,-6.71183 3.63999,-9.19588 -1.1924,-0.73695 -2.0302,-2.45624 -1.86176,-3.82064 1.4053,-11.38363 -0.65181,-17.85902 -8.11423,-25.54194 -7.71782,-7.94589 -9.53438,-11.74807 -6.64038,-13.8988 0.78152,-0.5808 -0.0804,-2.45047 -1.91536,-4.15482 -2.95691,-2.74643 -3.17804,-2.68638 -1.94456,0.528 2.06168,5.37266 -1.61418,4.40251 -4.2633,-1.12518 -5.44943,-11.37086 -3.4426,-10.98821 14.76316,2.81493 10.59781,8.03499 20.51696,14.60907 22.04259,14.60907 1.59848,0 2.77385,2.39155 2.77385,5.64408 0,7.83583 6.63329,21.30954 11.088,22.52228 2.03787,0.55478 3.696,3.01021 3.696,5.47319 0,2.84649 2.107,5.3927 5.808,7.01874 3.1944,1.40345 6.41463,3.40578 7.15607,4.44963 0.74144,1.04384 7.05613,1.48501 14.03262,0.98038 9.84287,-0.71197 12.44741,-0.29952 11.62596,1.84109 -0.65877,1.71674 0.57502,2.75861 3.26674,2.75861 6.51345,0 7.69503,4.02655 2.58,8.79194 l -4.55586,4.24442 -9.12614,-4.28979 c -5.01938,-2.3594 -9.75427,-5.92669 -10.52201,-7.92735 -0.9897,-2.57915 -2.05208,-2.98133 -3.6512,-1.3822 -1.5991,1.5991 -1.49219,4.6208 0.36749,10.38515 1.44256,4.4714 2.88839,9.19903 3.21298,10.50583 0.3246,1.3068 2.80398,2.3813 5.50977,2.38776 7.46017,0.0169 51.38358,22.12354 51.38358,25.86024 0,4.89084 -10.81031,5.06404 -20.38551,0.32662 l -8.49746,-4.20421 1.25835,5.01363 c 2.76421,11.01351 5.43694,15.45319 11.11953,18.47064 12.29545,6.52887 20.95499,11.41845 28.06764,15.8483 4.03618,2.51381 12.58978,5.64703 19.008,6.9627 13.52134,2.77172 16.78393,4.87056 16.35813,10.52318 -0.30949,4.10863 -3.63268,5.91183 -3.63268,1.97113 0,-2.80391 -10.38614,-2.68912 -18.69285,0.20656 -7.0406,2.45435 -9.56376,10.35338 -3.30715,10.35338 1.83921,0 2.93884,1.188 2.44366,2.64 -0.4952,1.452 -3.96488,2.64 -7.71038,2.64 -9.49538,0 -11.44976,4.66687 -10.29657,24.58731 0.6797,11.7416 0.18755,17.301 -1.66823,18.84107 -1.8202,1.51065 -3.06453,1.48556 -4.03295,-0.0813 z m -91.31348,-192.32679 c -0.61957,-2.36927 -1.59842,-3.83586 -2.17519,-3.25909 -1.14259,1.14258 0.87562,7.56686 2.37714,7.56686 0.50851,0 0.41763,-1.9385 -0.2019,-4.30777 z m -5.38604,-1.19223 c -0.70182,-0.7018 -2.52342,-0.77684 -4.04801,-0.16675 -1.6848,0.67421 -1.18436,1.17466 1.27601,1.276 2.22639,0.0917 3.4738,-0.40746 2.772,-1.10926 z m 2.68399,-5.99136 c 0,-0.51225 -0.9504,-1.51873 -2.112,-2.23664 -1.1616,-0.71791 -2.112,-0.2988 -2.112,0.93135 0,1.23016 0.9504,2.23665 2.112,2.23665 1.1616,0 2.112,-0.41911 2.112,-0.93136 z m -8.448,-6.336 c 0,-0.51225 -0.9504,-1.51873 -2.112,-2.23664 -1.1616,-0.71791 -2.112,-0.2988 -2.112,0.93135 0,1.23016 0.9504,2.23665 2.112,2.23665 1.1616,0 2.112,-0.41911 2.112,-0.93136 z m -6.336,-11.74064 c 0,-1.1616 -1.00649,-2.112 -2.23664,-2.112 -1.23015,0 -1.64926,0.9504 -0.93136,2.112 0.71791,1.1616 1.7244,2.112 2.23665,2.112 0.51224,0 0.93135,-0.9504 0.93135,-2.112 z m 149.952,213.31199 c 0,-1.1616 2.1384,-2.09744 4.752,-2.07966 3.84266,0.0262 4.14577,0.42413 1.584,2.07966 -4.09466,2.64617 -6.336,2.64617 -6.336,0 z m 13.17793,-2.08672 c -1.44218,-2.3093 -4.2844,-4.05951 -6.31604,-3.88937 -9.51344,0.79675 -13.37141,-0.42931 -12.76248,-4.05591 0.36153,-2.15314 -0.70186,-3.696 -2.54741,-3.696 -3.79868,0 -11.72105,-14.39697 -8.51115,-15.46695 1.19632,-0.39877 2.17515,-2.17312 2.17515,-3.943 0,-2.06666 1.19523,-2.75931 3.34074,-1.93601 1.8374,0.70509 3.79429,1.28196 4.34863,1.28196 0.55436,0 0.5239,0.78315 -0.0676,1.74036 -0.59159,0.95717 6.48033,5.42427 15.71535,9.92686 16.06649,7.83332 20.46205,11.56478 13.62295,11.56478 -2.112,0 -3.168,2.112 -3.168,6.336 0,7.33834 -2.10096,8.10854 -5.83007,2.13728 z"
         id="path3692" />
    </g>
  </g>
</svg>
