<?xml version="1.0" encoding="UTF-8" standalone="no"?>
<svg
   xmlns:dc="http://purl.org/dc/elements/1.1/"
   xmlns:cc="http://creativecommons.org/ns#"
   xmlns:rdf="http://www.w3.org/1999/02/22-rdf-syntax-ns#"
   xmlns:svg="http://www.w3.org/2000/svg"
   xmlns="http://www.w3.org/2000/svg"
   xmlns:sodipodi="http://sodipodi.sourceforge.net/DTD/sodipodi-0.dtd"
   xmlns:inkscape="http://www.inkscape.org/namespaces/inkscape"
   width="24"
   height="24"
   viewBox="0 0 24 24"
   version="1.1"
   id="svg866"
   sodipodi:docname="logomark-16-dark.svg"
   inkscape:version="0.92.5 (2060ec1f9f, 2020-04-08)"
   inkscape:export-filename="/home/gus/Projects/mint-lang/mint-website/assets/logo.png"
   inkscape:export-xdpi="500"
   inkscape:export-ydpi="500">
  <metadata
     id="metadata872">
    <rdf:RDF>
      <cc:Work
         rdf:about="">
        <dc:format>image/svg+xml</dc:format>
        <dc:type
           rdf:resource="http://purl.org/dc/dcmitype/StillImage" />
        <dc:title />
      </cc:Work>
    </rdf:RDF>
  </metadata>
  <defs
     id="defs870" />
  <sodipodi:namedview
     pagecolor="#ffffff"
     bordercolor="#666666"
     borderopacity="1"
     objecttolerance="10"
     gridtolerance="10"
     guidetolerance="10"
     inkscape:pageopacity="0"
     inkscape:pageshadow="2"
     inkscape:window-width="3840"
     inkscape:window-height="2038"
     id="namedview868"
     showgrid="false"
     inkscape:zoom="7.8600003"
     inkscape:cx="36.090524"
     inkscape:cy="-44.159908"
     inkscape:window-x="0"
     inkscape:window-y="60"
     inkscape:window-maximized="1"
     inkscape:current-layer="g2734" />
  <rect
     style="opacity:1;fill:#000000;fill-opacity:1;stroke:none;stroke-width:0.15214933;stroke-linejoin:miter;stroke-miterlimit:4;stroke-dasharray:none;stroke-dashoffset:0;stroke-opacity:1;paint-order:stroke fill markers"
     id="rect988"
     width="23.99898"
     height="24"
     x="-5.3584077e-05"
     y="6.6613381e-16" />
  <g
     id="g2734"
     transform="translate(-15.61057,-8.8914532)">
    <path
       inkscape:connector-curvature="0"
       style="fill:#36a65d;fill-opacity:1;stroke-width:0.96074849"
       id="path876"
       d="m 38.844045,8.8952994 c -0.456442,0.1204925 -0.891256,0.3222344 -1.286714,0.597 -0.01761,-0.2993876 -0.281572,-0.5081062 -0.550131,-0.435 -0.62183,0.1743474 -1.214988,0.4519705 -1.758386,0.823 -0.06177,-0.275261 -0.328991,-0.4330019 -0.575976,-0.34 -0.823874,0.3293175 -1.577734,0.8358106 -2.216213,1.4889996 -0.03123,-0.136458 -0.1126,-0.253152 -0.225222,-0.323 -0.122874,-0.07321 -0.270554,-0.07878 -0.397829,-0.015 -0.424597,0.209 -1.452861,0.826 -2.500509,2.29 l 0.01938,0.01 c -1.186104,1.314 -2.221752,2.785 -2.915876,4.85 -0.05992,0.194119 -0.215519,0.335235 -0.402445,0.365 -0.16626,0.02425 -0.330524,-0.05753 -0.421828,-0.21 -0.07951,-0.131294 -0.166767,-0.256888 -0.26122,-0.376 -1.223025,2.659 -1.073493,8.536 0.03323,11.255 0.881025,2.667903 1.075845,3.8 1.116459,4.016 0.565825,-2.645754 1.128158,-4.629747 1.994322,-7.17431 -0.9508,-1.849737 -0.912812,-4.535067 -0.09585,-6.500522 0.3241,-0.758545 1.158887,-0.438362 1.11072,0.214726 -0.543168,1.638296 -0.78986,3.063981 -0.277578,4.59018 0.929814,-2.496684 1.917118,-5.189807 2.845786,-6.778588 -0.244516,-0.352535 -0.849122,-1.466377 -0.258401,-2.780235 0.376732,-0.637972 1.054943,-0.235924 0.880254,0.214567 -0.08209,0.477116 -0.115572,1.065414 0.193747,1.386037 0.919663,-1.413921 2.14279,-2.874056 3.150085,-4.314894 0.890482,-0.832262 1.59546,0.280971 1.113801,1.054039 -0.806636,0.843975 -2.033551,2.221637 -3.087932,4.009154 0.106738,0.0969 1.163641,-0.264639 1.518959,-0.714504 0.327163,-0.392136 0.877599,-0.128036 0.735857,0.360377 -0.423119,1.276395 -2.495847,1.600796 -2.95179,1.579834 -0.957657,1.745892 -1.992933,4.603202 -2.778156,6.630077 1.397087,-0.569083 2.703623,-1.310505 3.690442,-2.775468 0.532129,-0.659407 1.417608,0.09503 0.878214,0.959341 -1.216341,1.771014 -3.064241,2.893882 -4.955078,3.409976 -0.452288,1.266 -1.743877,5.447213 -2.04848,6.630213 0.504902,-0.61 1.309984,-1.779 4.316317,-3.097 3.807531,-1.57 5.215163,-4.046 5.648068,-5.046 0.09981,-0.240311 0.01718,-0.523503 -0.191992,-0.658 -0.146058,-0.08731 -0.301758,-0.154181 -0.463365,-0.199 0.688738,-1.014182 1.261214,-2.115246 1.704851,-3.279 0.04689,-0.128423 0.04557,-0.271621 -0.0037,-0.399 -0.04764,-0.120583 -0.13866,-0.214861 -0.25199,-0.261 -0.1429,-0.05735 -0.290692,-0.09922 -0.441212,-0.125 0.456548,-0.853773 0.743873,-1.801243 0.843657,-2.782 0.01051,-0.137794 -0.0319,-0.274185 -0.117226,-0.377 -0.08248,-0.100757 -0.19973,-0.160108 -0.323986,-0.164 h -0.01938 c 0.340474,-0.75139 0.565275,-1.558028 0.66551,-2.388 0.03253,-0.274518 -0.148604,-0.524773 -0.402444,-0.556 0.222032,-0.6041 0.37756,-1.234449 0.463365,-1.878 0.01778,-0.147714 -0.02506,-0.296454 -0.117226,-0.407 -0.08255,-0.101526 -0.200954,-0.160393 -0.325832,-0.162 0.211034,-0.444227 0.365066,-0.917603 0.457826,-1.4069996 0.02632,-0.1879187 -0.0017,-0.3800552 -0.0803,-0.55 -0.131071,-0.316 -0.581514,-0.262 -0.675664,-0.26 z"
       sodipodi:nodetypes="cccccccccccccccccccccccccccccccccccccccccccccccccccccccc"
       inkscape:export-filename="/home/gus/Projects/mint-lang/mint-website/assets/path876.png"
       inkscape:export-xdpi="860"
       inkscape:export-ydpi="860" />
    <path
       inkscape:connector-curvature="0"
       style="fill:#277944;fill-opacity:1;stroke-width:0.96074849"
       id="path864"
       d="m 18.090466,9.1792994 c -0.01108,0 -0.01846,0.003 -0.02954,0.004 -0.01389,7.554e-4 -0.02774,0.00209 -0.04154,0.004 -0.01938,0.004 -0.04061,0.006 -0.06,0.013 -0.0081,0.00295 -0.01614,0.00628 -0.024,0.01 -0.0028,0 -0.0028,0.002 -0.0055,0.003 -0.02073,0.00937 -0.04078,0.020401 -0.06,0.033 -0.0092,0.005 -0.01938,0.009 -0.02769,0.015 -0.132665,0.096994 -0.207859,0.2629689 -0.19753,0.436 -0.425026,-0.2121737 -0.879971,-0.345366 -1.345789,-0.394 -0.01902,0.00263 -0.0381,0.00463 -0.05723,0.006 l -0.08769,0.01 -0.05723,0.012 -0.03692,0.009 c -0.03367,0.00821 -0.06694,0.01822 -0.09969,0.03 -0.01938,0.006 -0.03692,0.016 -0.05631,0.025 -0.01292,0.006 -0.02769,0.01 -0.04061,0.018 -0.01938,0.01 -0.03508,0.023 -0.05354,0.037 l -0.03231,0.026 c -0.01846,0.017 -0.03692,0.032 -0.05169,0.052 -0.0074,0.008 -0.012,0.021 -0.01846,0.03 l -0.0055,0.008 c -0.01975,0.030031 -0.0353,0.063053 -0.04615,0.098 -0.05625,0.1797612 -0.05979,0.3739686 -0.01015,0.5559996 0.153874,0.469082 0.365632,0.913447 0.629512,1.321 -0.122935,0.02151 -0.232006,0.09762 -0.30091,0.21 -0.0763,0.12416 -0.09983,0.277799 -0.06461,0.422 0.16517,0.624657 0.396872,1.22637 0.690432,1.793 -0.100498,0.02521 -0.189088,0.08919 -0.24922,0.18 -0.08783,0.122785 -0.117231,0.283173 -0.07938,0.433 0.202726,0.806613 0.526745,1.571525 0.959036,2.264 h -0.02123 c -0.122299,0.02262 -0.23089,0.09804 -0.30091,0.209 -0.0711,0.115876 -0.09637,0.257788 -0.07015,0.394 0.22029,0.955704 0.622744,1.850889 1.181488,2.628 -0.14616,0.04777 -0.287488,0.111428 -0.421828,0.19 -0.106094,0.0621 -0.184375,0.168202 -0.216914,0.294 -0.03269,0.133812 -0.01614,0.276149 0.04615,0.397 0.58409,1.085787 1.288007,2.09051 2.096218,2.992 -0.155993,0.07042 -0.303526,0.161084 -0.439366,0.27 -0.1894,0.162467 -0.235541,0.453352 -0.107072,0.675 0.02769,0.047 0.05907,0.099 0.09323,0.153 0.03692,0.057 0.07754,0.115 0.120918,0.178 l 0.0074,0.01 c 0.354451,0.508003 0.762425,0.969458 1.215641,1.375 l 0.01846,0.017 c 0.09789,0.08907 0.197601,0.175757 0.299064,0.26 0.04707,0.038 0.09507,0.073 0.143071,0.11 0.06461,0.052 0.131071,0.102 0.199376,0.153 l 0.187377,0.135 c 0.05907,0.042 0.114456,0.085 0.175377,0.126 0.07015,0.048 0.143071,0.094 0.215067,0.14 l 0.173532,0.111 c 0.07938,0.048 0.161531,0.095 0.242758,0.142 l 0.173532,0.098 c 0.08861,0.048 0.180915,0.095 0.271373,0.141 0.05815,0.03 0.110764,0.06 0.169839,0.09 0.10338,0.05 0.209529,0.098 0.314755,0.146 0.03969,0.018 0.07661,0.038 0.117226,0.056 l 0.0037,0.002 0.03323,0.013 c 0.08584,0.037 0.81135,0.262 1.423324,0.41 -0.711621,-2.735894 -1.088958,-3.510475 -0.936503,-5.766088 -1.445185,-0.244676 -2.199011,-0.838806 -2.488824,-1.461872 -0.314551,-0.960214 0.697501,-1.199468 0.967437,-0.701721 0.574623,0.64618 1.159595,0.897092 1.573772,0.854109 0.06628,-0.644382 0.186707,-1.55289 0.334696,-2.334123 -2.087156,-2.734062 -4.013057,-4.698618 -6.141251,-6.946091 -0.49844,-0.52 0.273724,-1.518214 0.784163,-0.985214 1.788452,1.723629 3.972672,3.964601 5.864619,6.157375 0.0928,-0.366905 0.0022,-0.09385 0.148049,-0.452375 0.05815,-0.13 0.11538,-0.262 0.178146,-0.381 0.06318,-0.113329 0.162787,-0.197376 0.279681,-0.236 0.111695,-0.03602 0.232139,-0.02084 0.333216,0.042 0.150624,0.09742 0.286904,0.21877 0.404291,0.36 0.213337,-0.546746 0.257235,-0.833978 0.52746,-1.367686 -0.195419,-0.26494 -0.89006,-0.789406 -0.94847,-0.886238 -0.322164,-0.483735 0.208589,-1.056919 0.695668,-0.820561 0.09557,0.05527 0.770378,0.620034 0.843942,0.651281 0.344919,-0.571126 0.932594,-1.40684 1.340372,-1.902796 -0.391368,-0.511 -1.209179,-1.196 -1.239639,-1.223 -0.0092,-0.008 -0.02031,-0.01 -0.02954,-0.017 -0.102467,-0.08055 -0.230561,-0.11299 -0.355369,-0.09 -0.127169,0.02762 -0.236983,0.113742 -0.30091,0.236 -0.0689,0.137612 -0.125762,0.281908 -0.169839,0.431 l -0.04523,-0.043 c -0.106765,-0.11121 -0.216024,-0.219576 -0.327679,-0.325 l -0.04892,-0.05 c -0.118985,-0.11044 -0.240876,-0.21715 -0.365523,-0.32 l -0.05723,-0.049 c -0.122234,-0.101311 -0.247206,-0.198687 -0.374751,-0.292 l -0.04615,-0.03 c -0.17499,-0.124568 -0.355173,-0.240357 -0.539977,-0.347 -0.01661,-0.01 -0.03138,-0.022 -0.04707,-0.03 l -0.0683,-0.038 c -0.03415,-0.019 -0.06646,-0.035 -0.09969,-0.052 l -0.04338,-0.022 c -0.03877,-0.02 -0.07754,-0.043 -0.114457,-0.06 l -0.03323,-0.016 c -0.03785,-0.018 -0.07384,-0.037 -0.109841,-0.052 l -0.03323,-0.013 c -0.03323,-0.015 -0.0683,-0.028 -0.101534,-0.042 l -0.03877,-0.015 c -0.02677,-0.01 -0.05723,-0.025 -0.08307,-0.035 l -0.06554,-0.026 -0.03692,-0.011 -0.09415,-0.033 c -0.0382,-0.01173 -0.07755,-0.018443 -0.117226,-0.02 h -0.0092 c -0.0092,10e-4 -0.01846,0.005 -0.02769,0.005 -0.02492,0 -0.05169,0 -0.07569,0.006 -0.05963,0.01456 -0.115673,0.04287 -0.164301,0.083 -0.102448,0.08491 -0.168728,0.2112 -0.183684,0.35 C 22.174305,9.8928139 21.365674,9.5070101 20.510671,9.3072994 h -0.0074 c -0.03291,-0.00609 -0.06636,-0.0081 -0.09969,-0.006 -0.01477,0 -0.03046,0.004 -0.04523,0.006 -0.202208,0.029513 -0.358584,0.206817 -0.3766,0.427 -0.584135,-0.2861464 -1.20561,-0.472685 -1.842383,-0.553 l -0.0037,-0.004 c -0.01569,-0.002 -0.03138,0 -0.04615,0 z"
       sodipodi:nodetypes="cccccccccccccccsccccccccccccccccccccccccccccccccccccccccccccccccccccccccccccccccccccccccccccccsccccccccccccccscccccccccccc" />
  </g>
</svg>
