<?xml version="1.0" encoding="UTF-8" standalone="no"?>
<svg
   xmlns:dc="http://purl.org/dc/elements/1.1/"
   xmlns:cc="http://creativecommons.org/ns#"
   xmlns:rdf="http://www.w3.org/1999/02/22-rdf-syntax-ns#"
   xmlns:svg="http://www.w3.org/2000/svg"
   xmlns="http://www.w3.org/2000/svg"
   xmlns:sodipodi="http://sodipodi.sourceforge.net/DTD/sodipodi-0.dtd"
   xmlns:inkscape="http://www.inkscape.org/namespaces/inkscape"
   width="24"
   height="24"
   viewBox="0 0 24 24"
   version="1.1"
   id="svg866"
   sodipodi:docname="logomark-16.svg"
   inkscape:version="0.92.5 (2060ec1f9f, 2020-04-08)"
   inkscape:export-filename="/home/gus/Projects/mint-lang/mint-website/assets/favicon.png"
   inkscape:export-xdpi="860"
   inkscape:export-ydpi="860">
  <metadata
     id="metadata872">
    <rdf:RDF>
      <cc:Work
         rdf:about="">
        <dc:format>image/svg+xml</dc:format>
        <dc:type
           rdf:resource="http://purl.org/dc/dcmitype/StillImage" />
        <dc:title />
      </cc:Work>
    </rdf:RDF>
  </metadata>
  <defs
     id="defs870" />
  <sodipodi:namedview
     pagecolor="#ffffff"
     bordercolor="#666666"
     borderopacity="1"
     objecttolerance="10"
     gridtolerance="10"
     guidetolerance="10"
     inkscape:pageopacity="0"
     inkscape:pageshadow="2"
     inkscape:window-width="3840"
     inkscape:window-height="2038"
     id="namedview868"
     showgrid="false"
     inkscape:zoom="46.315494"
     inkscape:cx="11.910676"
     inkscape:cy="13.604757"
     inkscape:window-x="0"
     inkscape:window-y="60"
     inkscape:window-maximized="1"
     inkscape:current-layer="g818"
     inkscape:lockguides="true" />
  <g
     id="g818"
     transform="matrix(0.92303769,0,0,1,-5.3584077e-5,0)">
    <path
       inkscape:connector-curvature="0"
       style="fill:#36a65d;fill-opacity:1"
       id="path876"
       d="M 25.17,0.004 C 24.6755,0.12449246 24.204431,0.32623442 23.776,0.601 23.756919,0.30161239 23.470951,0.0928938 23.18,0.166 22.506322,0.34034735 21.863707,0.6179705 21.275,0.989 21.208079,0.71373896 20.918578,0.55599805 20.651,0.649 19.758432,0.9783175 18.941716,1.4848107 18.25,2.138 18.216164,2.0015418 18.128012,1.8848483 18.006,1.815 17.87288,1.7417921 17.712887,1.7362239 17.575,1.8 17.115,2.009 16.001,2.626 14.866,4.09 L 14.887,4.1 C 13.602,5.414 12.48,6.885 11.728,8.95 11.66308,9.1441185 11.494512,9.2852345 11.292,9.315 11.111877,9.339249 10.933917,9.257473 10.835,9.105 10.74886,8.9737063 10.654328,8.8481117 10.552,8.729 c -1.325,2.659 -1.163,8.536 0.036,11.255 0.954484,2.667903 1.165548,3.8 1.209548,4.016 0.613003,-2.645754 1.222223,-4.629747 2.160607,-7.17431 -1.030077,-1.849737 -0.988921,-4.535067 -0.103841,-6.500522 0.351124,-0.7585454 1.255515,-0.4383622 1.203332,0.214726 -0.588457,1.638296 -0.855719,3.063981 -0.300723,4.59018 1.007341,-2.496684 2.076966,-5.1898073 3.083066,-6.7785877 -0.264904,-0.3525357 -0.919921,-1.4663778 -0.279946,-2.7802349 0.408143,-0.6379727 1.142903,-0.2359243 0.953649,0.214567 -0.08894,0.4771152 -0.125209,1.0654135 0.209901,1.3860364 C 19.719937,5.7579343 21.045048,4.297799 22.13633,2.8569611 23.10106,2.024699 23.864819,3.137932 23.343,3.911 c -0.873893,0.8439753 -2.203108,2.2216366 -3.345402,4.0091542 0.115637,0.096903 1.260664,-0.2646393 1.645608,-0.7145038 0.354442,-0.392136 0.950773,-0.1280364 0.797213,0.3603761 -0.458399,1.2763951 -2.703949,1.600796 -3.197909,1.5798343 -1.037506,1.7458922 -2.159102,4.6032022 -3.009797,6.6300772 1.513576,-0.569083 2.92905,-1.310505 3.998149,-2.775468 0.576498,-0.659407 1.535808,0.09503 0.951439,0.959341 -1.317759,1.771014 -3.319735,2.893882 -5.368229,3.409976 -0.49,1.266 -1.889281,5.447213 -2.219281,6.630213 0.547,-0.61 1.419209,-1.779 4.676209,-3.097 4.125,-1.57 5.65,-4.046 6.119,-5.046 0.108129,-0.240311 0.01861,-0.523503 -0.208,-0.658 C 24.023764,15.11169 23.855082,15.044819 23.68,15 c 0.746164,-1.014182 1.366373,-2.115246 1.847,-3.279 0.0508,-0.128423 0.04937,-0.271621 -0.004,-0.399 C 25.47139,11.201417 25.372779,11.107139 25.25,11.061 25.095185,11.00365 24.93507,10.96178 24.772,10.936 25.266614,10.082227 25.577896,9.1347569 25.686,8.154 25.697391,8.0162061 25.651445,7.8798148 25.559,7.777 25.469642,7.6762424 25.342617,7.6168919 25.208,7.613 H 25.187 C 25.555862,6.8616098 25.799407,6.0549723 25.908,5.225 25.943248,4.9504815 25.747005,4.7002269 25.472,4.669 25.712545,4.0649001 25.881041,3.4345507 25.974,2.791 25.993263,2.6432855 25.946851,2.4945463 25.847,2.384 25.757564,2.2824743 25.629291,2.223607 25.494,2.222 25.72263,1.7777733 25.889506,1.3043973 25.99,0.815 26.01851,0.62708131 25.988118,0.43494476 25.903,0.265 25.761,-0.051 25.273,0.003 25.171,0.005 Z"
       sodipodi:nodetypes="cccccccccccccccccccccccccccccccccccccccccccccccccccccccc"
       inkscape:export-filename="/home/gus/Projects/mint-lang/mint-website/assets/path876.png"
       inkscape:export-xdpi="860"
       inkscape:export-ydpi="860" />
    <path
       inkscape:connector-curvature="0"
       style="fill:#277944;fill-opacity:1"
       id="path864"
       d="M 2.686,0.288 C 2.674,0.288 2.666,0.291 2.654,0.292 2.638954,0.2927554 2.623943,0.29409 2.609,0.296 2.588,0.3 2.565,0.302 2.544,0.309 2.53519,0.311946 2.526514,0.315282 2.518,0.319 2.515,0.319 2.515,0.321 2.512,0.322 2.489544,0.331371 2.467817,0.3424013 2.447,0.355 2.437,0.36 2.426,0.364 2.417,0.37 2.2732742,0.46699418 2.1918095,0.63296891 2.203,0.806 1.7425364,0.59382627 1.2496575,0.46063403 0.745,0.412 0.7243992,0.414631 0.7037229,0.416632 0.683,0.418 L 0.588,0.428 0.526,0.44 0.486,0.449 C 0.4495259,0.457207 0.4134816,0.4672196 0.378,0.479 0.357,0.485 0.338,0.495 0.317,0.504 0.303,0.51 0.287,0.514 0.273,0.522 0.252,0.532 0.235,0.545 0.215,0.559 L 0.18,0.585 C 0.16,0.602 0.14,0.617 0.124,0.637 0.116,0.645 0.111,0.658 0.104,0.667 L 0.098,0.675 C 0.07660601,0.70503087 0.05975807,0.73805284 0.048,0.773 -0.01293386,0.95276121 -0.01677611,1.1469693 0.037,1.329 0.20370353,1.7980817 0.43311849,2.242447 0.719,2.65 0.58581477,2.671506 0.46764973,2.7476246 0.393,2.86 0.31033286,2.9841603 0.28484785,3.1377985 0.323,3.282 0.50194182,3.9066571 0.75296324,4.5083702 1.071,5.075 0.9621225,5.1002094 0.86614616,5.1641936 0.801,5.255 0.70584987,5.3777845 0.67399442,5.538173 0.715,5.688 0.93462919,6.4946124 1.2856644,7.2595245 1.754,7.952 H 1.731 C 1.5985033,7.9746168 1.4808589,8.0500391 1.405,8.161 1.3279738,8.276876 1.3005999,8.418788 1.329,8.555 c 0.2386576,0.9557039 0.6746686,1.850889 1.28,2.628 -0.158347,0.04777 -0.3114588,0.111428 -0.457,0.19 -0.11494,0.0621 -0.1997475,0.168202 -0.235,0.294 -0.035417,0.133812 -0.017491,0.276149 0.05,0.397 0.6327918,1.085787 1.3954003,2.09051 2.271,2.992 -0.1690002,0.07042 -0.3288342,0.161084 -0.476,0.27 -0.2051921,0.162467 -0.2551812,0.453352 -0.116,0.675 0.03,0.047 0.064,0.099 0.101,0.153 0.04,0.057 0.084,0.115 0.131,0.178 l 0.008,0.01 c 0.3840054,0.508003 0.8259954,0.969458 1.317,1.375 l 0.02,0.017 c 0.1060501,0.08907 0.2140771,0.175757 0.324,0.26 0.051,0.038 0.103,0.073 0.155,0.11 0.07,0.052 0.142,0.102 0.216,0.153 l 0.203,0.135 c 0.064,0.042 0.124,0.085 0.19,0.126 0.076,0.048 0.155,0.094 0.233,0.14 l 0.188,0.111 c 0.086,0.048 0.175,0.095 0.263,0.142 l 0.188,0.098 c 0.096,0.048 0.196,0.095 0.294,0.141 0.063,0.03 0.12,0.06 0.184,0.09 0.112,0.05 0.227,0.098 0.341,0.146 0.043,0.018 0.083,0.038 0.127,0.056 l 0.004,0.002 0.036,0.013 c 0.093,0.037 0.879,0.262 1.542,0.41 C 8.9400356,17.131106 8.531236,16.356525 8.6964026,14.100912 7.1307189,13.856236 6.3140397,13.262106 6.0000621,12.63904 5.6592834,11.678826 6.7557205,11.439572 7.0481633,11.937319 7.6706982,12.583499 8.304445,12.834411 8.753155,12.791428 8.824967,12.147046 8.9554299,11.238538 9.1157586,10.457305 6.8545767,7.7232429 4.7680948,5.7586872 2.4624535,3.5112136 1.9224535,2.9912136 2.759,1.993 3.312,2.526 5.2495715,4.2496286 7.6159105,6.4906013 9.6656067,8.683375 9.766147,8.3164698 9.6679858,8.5895266 9.826,8.231 9.889,8.101 9.951,7.969 10.019,7.85 c 0.06845,-0.1133295 0.17636,-0.1973759 0.303,-0.236 0.121008,-0.036025 0.251495,-0.020844 0.361,0.042 0.163183,0.097419 0.310826,0.2187696 0.438,0.36 0.231125,-0.5467464 0.278683,-0.8339781 0.571439,-1.3676857 -0.211712,-0.2649405 -0.964272,-0.7894069 -1.027552,-0.886238 -0.349026,-0.483735 0.225981,-1.0569191 0.753672,-0.8205611 0.103535,0.055268 0.834612,0.6200335 0.914309,0.6512803 C 12.706547,5.0216703 13.343221,4.185956 13.785,3.69 13.361,3.179 12.475,2.494 12.442,2.467 12.432,2.459 12.42,2.457 12.41,2.45 12.298989,2.3694512 12.160214,2.3370103 12.025,2.36 11.887228,2.3876158 11.768258,2.4737415 11.699,2.596 11.624355,2.7336115 11.562753,2.8779075 11.515,3.027 L 11.466,2.984 C 11.350333,2.8727899 11.231964,2.7644242 11.111,2.659 L 11.058,2.609 C 10.929094,2.4985602 10.797039,2.3918495 10.662,2.289 L 10.6,2.24 C 10.467572,2.1386889 10.33218,2.0413131 10.194,1.948 l -0.05,-0.03 C 9.9544194,1.7934316 9.7592134,1.6776428 9.559,1.571 9.541,1.561 9.525,1.549 9.508,1.541 L 9.434,1.503 C 9.397,1.484 9.362,1.468 9.326,1.451 L 9.279,1.429 C 9.237,1.409 9.195,1.386 9.155,1.369 L 9.119,1.353 C 9.078,1.335 9.039,1.316 9,1.301 L 8.964,1.288 C 8.928,1.273 8.89,1.26 8.854,1.246 L 8.812,1.231 C 8.783,1.221 8.75,1.206 8.722,1.196 L 8.651,1.17 8.611,1.159 8.509,1.126 C 8.46762,1.114272 8.424981,1.107557 8.382,1.106 h -0.01 c -0.01,10e-4 -0.02,0.005 -0.03,0.005 -0.027,0 -0.056,0 -0.082,0.006 C 8.1953936,1.1315599 8.1346827,1.1598689 8.082,1.2 7.9710099,1.284907 7.8992034,1.4112 7.883,1.55 7.1103469,1.0015145 6.2342934,0.61571072 5.308,0.416 H 5.3 C 5.2643439,0.40991151 5.228111,0.40789857 5.192,0.41 5.176,0.41 5.159,0.414 5.143,0.416 4.9239326,0.44551297 4.754518,0.62281696 4.735,0.843 4.1021597,0.55685361 3.4288667,0.37031503 2.739,0.29 L 2.735,0.286 c -0.017,-0.002 -0.034,0 -0.05,0 z"
       sodipodi:nodetypes="cccccccccccccccsccccccccccccccccccccccccccccccccccccccccccccccccccccccccccccccccccccccccccccccsccccccccccccccscccccccccccc" />
  </g>
</svg>
