<?xml version="1.0" encoding="UTF-8" standalone="no"?>
<svg
   xmlns:dc="http://purl.org/dc/elements/1.1/"
   xmlns:cc="http://creativecommons.org/ns#"
   xmlns:rdf="http://www.w3.org/1999/02/22-rdf-syntax-ns#"
   xmlns:svg="http://www.w3.org/2000/svg"
   xmlns="http://www.w3.org/2000/svg"
   xmlns:sodipodi="http://sodipodi.sourceforge.net/DTD/sodipodi-0.dtd"
   xmlns:inkscape="http://www.inkscape.org/namespaces/inkscape"
   width="100"
   height="24"
   viewBox="0 0 100 24"
   version="1.1"
   id="svg866"
   sodipodi:docname="logo.svg"
   inkscape:version="0.92.5 (2060ec1f9f, 2020-04-08)"
   inkscape:export-filename="/home/gus/Projects/mint-lang/mint-website/assets/logo.png"
   inkscape:export-xdpi="500"
   inkscape:export-ydpi="500">
  <metadata
     id="metadata872">
    <rdf:RDF>
      <cc:Work
         rdf:about="">
        <dc:format>image/svg+xml</dc:format>
        <dc:type
           rdf:resource="http://purl.org/dc/dcmitype/StillImage" />
        <dc:title />
      </cc:Work>
    </rdf:RDF>
  </metadata>
  <defs
     id="defs870" />
  <sodipodi:namedview
     pagecolor="#ffffff"
     bordercolor="#666666"
     borderopacity="1"
     objecttolerance="10"
     gridtolerance="10"
     guidetolerance="10"
     inkscape:pageopacity="0"
     inkscape:pageshadow="2"
     inkscape:window-width="3840"
     inkscape:window-height="2038"
     id="namedview868"
     showgrid="false"
     inkscape:zoom="11.115719"
     inkscape:cx="51.765523"
     inkscape:cy="3.1085466"
     inkscape:window-x="0"
     inkscape:window-y="60"
     inkscape:window-maximized="1"
     inkscape:current-layer="svg866" />
  <path
     d="m 33,0 v 0.351 h 0.190692 c 0.175231,0 0.339123,0.071 0.489616,0.212 0.151523,0.118 0.279338,0.27 0.381384,0.457 0.101016,0.19 0.177293,0.391 0.22677,0.599 0.05051,0.21 0.07525,0.398 0.07525,0.562 v 19.53 c 0,0.186 -0.02474,0.399 -0.07628,0.633 a 2.5975385,2.52 0 0 1 -0.226769,0.598 c -0.09689,0.183 -0.22677,0.35 -0.380354,0.494 a 0.69576923,0.675 0 0 1 -0.489616,0.21 H 33 v 0.353 h 4.128231 V 23.645 H 36.938569 A 0.73906154,0.717 0 0 1 36.408754,23.436 2.8851231,2.799 0 0 1 35.991292,22.942 2.5872308,2.51 0 0 1 35.764523,22.344 3.2324923,3.136 0 0 1 35.688246,21.71 V 3.518 l 9.278985,20.48 9.771692,-21.568 v 19.28 c 0,0.187 -0.02474,0.4 -0.07628,0.634 a 1.9069231,1.85 0 0 1 -0.263877,0.598 c -0.09998,0.187 -0.225738,0.353 -0.376231,0.494 a 0.70092308,0.68 0 0 1 -0.494769,0.21 h -0.188631 v 0.353 h 5.376493 V 23.645 H 58.527 a 0.74524615,0.723 0 0 1 -0.530846,-0.209 2.8758462,2.79 0 0 1 -0.4154,-0.494 2.5872308,2.51 0 0 1 -0.226769,-0.598 3.2314615,3.135 0 0 1 -0.07628,-0.634 V 2.181 c 0,-0.164 0.02577,-0.352 0.07628,-0.563 A 2.5975385,2.52 0 0 1 57.580754,1.02 c 0.126784,-0.187 0.263877,-0.34 0.4154,-0.457 a 0.74524615,0.723 0 0 1 0.531877,-0.212 h 0.188631 V 0 H 54.436908 L 45.650631,19.25 36.862292,0 Z M 95.757354,2.181 91.970308,3.306 V 3.66 c 0.631861,0.024 0.996754,0.21 1.0988,0.563 0.124723,0.329 0.190692,0.69 0.190692,1.09 v 3.132 h -2.121323 v 1.197 h 2.120292 v 8.76 c 0,0.68 0.01031,1.348 0.03711,2.007 a 6.0609231,5.88 0 0 0 0.416431,1.794 c 0.226769,0.54 0.593723,0.972 1.0988,1.301 0.505077,0.329 1.213215,0.494 2.121323,0.494 0.732877,0 1.274031,-0.094 1.628615,-0.282 0.378292,-0.187 0.67,-0.364 0.869969,-0.529 A 0.7906,0.767 0 0 1 100,22.976 v -2.568 h -0.341185 a 3.2654769,3.168 0 0 1 -0.907077,1.689 c -0.4556,0.47 -0.948307,0.704 -1.479153,0.704 -0.353554,0 -0.6298,-0.082 -0.831831,-0.246 C 96.238723,22.368 96.0872,22.109 95.987215,21.78 a 5.4682308,5.305 0 0 1 -0.191723,-1.232 34.549323,33.518 0 0 1 -0.03814,-1.654 V 9.642 H 100 V 8.446 H 95.757354 Z M 64.890969,2.956 c -0.505077,0 -0.934907,0.165 -1.288461,0.494 A 1.7018,1.651 0 0 0 63.1098,4.645 c 0,0.47 0.164923,0.857 0.492708,1.162 0.353554,0.305 0.783384,0.458 1.28743,0.458 0.505077,0 0.935939,-0.153 1.288462,-0.458 0.353554,-0.305 0.529815,-0.693 0.529815,-1.162 0,-0.47 -0.17523,-0.867 -0.529815,-1.195 A 1.7945692,1.741 0 0 0 64.890969,2.956 Z m 1.742,5.067 -3.790138,1.127 v 0.316 c 0.608154,0.024 0.975107,0.225 1.101892,0.6 0.125754,0.352 0.188631,0.728 0.188631,1.126 V 21.71 c 0,0.187 -0.0268,0.4 -0.07628,0.634 a 2.5563077,2.48 0 0 1 -0.226769,0.598 c -0.101016,0.187 -0.22677,0.354 -0.378293,0.494 A 0.73906154,0.717 0 0 1 62.9222,23.646 V 24 h 4.922954 v -0.354 a 0.74421538,0.722 0 0 1 -0.531877,-0.209 1.9450615,1.887 0 0 1 -0.377262,-0.494 2.5872308,2.51 0 0 1 -0.226769,-0.598 3.2324923,3.136 0 0 1 -0.07628,-0.634 z m 9.014077,0.036 -3.788077,1.127 v 0.317 c 0.606093,0.023 0.972016,0.222 1.097769,0.598 0.125754,0.351 0.190693,0.727 0.190693,1.126 V 21.71 c 0,0.187 -0.02474,0.4 -0.07628,0.634 -0.05154,0.212 -0.141216,0.415 -0.265939,0.598 -0.09998,0.187 -0.226769,0.353 -0.37623,0.494 a 0.70092308,0.68 0 0 1 -0.49477,0.21 v 0.353 h 4.925016 v -0.354 a 0.73906154,0.717 0 0 1 -0.529816,-0.209 4.6446462,4.506 0 0 1 -0.379323,-0.494 c -0.102046,-0.19 -0.178323,-0.39 -0.2278,-0.598 a 3.2314615,3.135 0 0 1 -0.07628,-0.634 v -8.583 c 0,-0.492 0.126785,-0.963 0.381385,-1.409 0.276246,-0.469 0.6164,-0.865 1.020462,-1.195 A 5.4476154,5.285 0 0 1 78.487846,9.677 4.5395077,4.404 0 0 1 80.1546,9.361 c 0.554554,0 1.096738,0.105 1.628615,0.317 a 3.8076615,3.694 0 0 1 1.477093,0.915 c 0.42983,0.422 0.769984,0.95 1.022523,1.583 0.252538,0.633 0.378292,1.372 0.378292,2.218 v 7.316 c 0,0.187 -0.02474,0.4 -0.07628,0.634 -0.05154,0.212 -0.141215,0.414 -0.265938,0.598 -0.09998,0.187 -0.22677,0.353 -0.377262,0.494 a 0.70092308,0.68 0 0 1 -0.494769,0.21 v 0.353 h 4.887908 V 23.645 A 0.74421538,0.722 0 0 1 87.803938,23.435 4.6446462,4.506 0 0 1 87.424615,22.942 2.5872308,2.51 0 0 1 87.197846,22.344 3.2314615,3.135 0 0 1 87.1226,21.71 v -7.562 c 0,-0.681 -0.125754,-1.374 -0.378292,-2.077 a 5.4465846,5.284 0 0 0 -1.136939,-1.97 C 85.076523,9.491 84.396215,8.999 83.563354,8.623 82.729462,8.247 81.719308,8.059 80.532892,8.059 c -0.707107,0 -1.3266,0.071 -1.856415,0.212 C 78.1714,8.389 77.7158,8.552 77.311738,8.763 a 4.8446154,4.7 0 0 0 -0.983353,0.634 5.6537692,5.485 0 0 0 -0.68237,0.598 z"
     id="path862"
     style="fill:currentColor;fill-opacity:1;stroke-width:1.01526809"
     inkscape:connector-curvature="0" />
  <path
     d="M 23.232805,0.004 A 4.2450503,4.599 0 0 0 21.946091,0.601 0.44305809,0.48 0 0 0 21.39596,0.166 6.221274,6.74 0 0 0 19.637573,0.989 0.44305809,0.48 0 0 0 19.061598,0.649 6.5101848,7.053 0 0 0 16.845384,2.138 0.47536441,0.515 0 0 0 16.620163,1.815 0.44121202,0.478 0 0 0 16.222334,1.8 c -0.424598,0.209 -1.452862,0.826 -2.500509,2.29 l 0.01938,0.01 c -1.1861,1.314 -2.221748,2.785 -2.915873,4.85 A 0.50120947,0.543 0 0 1 10.422888,9.315 0.43382771,0.47 0 0 1 10.00106,9.105 3.3672415,3.648 0 0 0 9.7398401,8.729 c -1.2230249,2.659 -1.0734928,8.536 0.033229,11.255 1.0578019,2.69 1.3088679,3.715 1.3494819,3.931 0.204914,-0.722 0.557514,-1.954 0.630434,-2.216 a 48.307177,52.334 0 0 1 1.181489,-3.709 c -0.922115,-1.844 -1.055956,-4.452 -0.48921,-6.855 0.171685,-0.729 1.002419,-0.566 0.833503,0.142 -0.43752,1.84 -0.420906,3.86 0.131071,5.432 a 48.332099,52.36 0 0 1 2.510662,-5.563 9.6475899,10.452 0 0 1 0.12738,-3.5 3.3986248,3.682 0 0 1 0.418136,-1.198 c 0.383983,-0.613 1.054109,-0.08 0.679355,0.518 -0.01108,0.02 -0.01384,0.02 -0.01292,0.016 l -0.03323,0.085 a 3.9053725,4.231 0 0 0 -0.19753,0.658 7.3104585,7.92 0 0 0 -0.179993,1.94 47.877965,51.87 0 0 1 4.197053,-6.344 c 0.426443,-0.545 1.043032,0.06 0.627665,0.59 a 46.248803,50.104 0 0 0 -4.128747,6.245 9.7906608,10.606 0 0 0 1.505474,-0.94 4.1776686,4.526 0 0 0 0.45875,-0.415 c 0.03323,-0.035 0.05169,-0.052 0.06092,-0.06 -0.0046,0.002 -0.0046,0.001 0.0074,-0.018 0.29168,-0.603 1.085492,-0.001 0.679355,0.514 a 3.2555539,3.527 0 0 1 -0.793812,0.793 14.750142,15.98 0 0 1 -2.708193,1.58 47.447829,51.402 0 0 0 -2.458972,5.456 c 1.403017,-0.627 2.73773,-1.772 3.804761,-2.998 0.394137,-0.49 1.034726,0.224 0.586129,0.654 -1.347635,1.55 -3.052485,2.968 -4.85887,3.608 -0.452289,1.266 -1.289484,4.487 -1.594086,5.67 0.504901,-0.61 1.751925,-1.779 4.758259,-3.097 3.80753,-1.57 5.215163,-4.046 5.648068,-5.046 A 0.47813352,0.518 0 0 0 22.320844,15.199 1.9706855,2.135 0 0 0 21.857479,15 14.35139,15.548 0 0 0 23.56233,11.721 0.48828694,0.529 0 0 0 23.558637,11.322 0.44398113,0.481 0 0 0 23.306648,11.061 2.3075942,2.5 0 0 0 22.865436,10.936 6.5554137,7.102 0 0 0 23.709092,8.154 0.46336492,0.502 0 0 0 23.591867,7.777 0.45044239,0.488 0 0 0 23.26788,7.613 H 23.2485 A 7.0889295,7.68 0 0 0 23.914007,5.225 0.45782669,0.496 0 0 0 23.511562,4.669 7.6372138,8.274 0 0 0 23.974927,2.791 0.46982618,0.509 0 0 0 23.857702,2.384 0.44121202,0.478 0 0 0 23.531869,2.222 5.0637848,5.486 0 0 0 23.989696,0.815 0.84919467,0.92 0 0 0 23.909392,0.265 C 23.77832,-0.051 23.327878,0.003 23.233728,0.005 Z"
     id="path876"
     style="fill:#36a65d;fill-opacity:1;stroke-width:0.96074849"
     inkscape:connector-curvature="0" />
  <path
     d="m 2.4792256,0.288 c -0.011076,0 -0.018461,0.003 -0.029537,0.004 A 0.54182312,0.587 0 0 0 2.4081517,0.296 C 2.388768,0.3 2.3675381,0.302 2.3481543,0.309 a 0.2889108,0.313 0 0 0 -0.023999,0.01 c -0.00277,0 -0.00277,0.002 -0.00554,0.003 A 0.45228847,0.49 0 0 0 2.2586196,0.355 C 2.2493893,0.36 2.2392358,0.364 2.2309285,0.37 A 0.45044239,0.488 0 0 0 2.0333984,0.806 4.1721304,4.52 0 0 0 0.68760949,0.412 0.94149844,1.02 0 0 1 0.63038116,0.418 l -0.0876886,0.01 -0.0572283,0.012 -0.0369215,0.009 a 1.0430326,1.13 0 0 0 -0.0996881,0.03 c -0.0193838,0.006 -0.0369215,0.016 -0.0563053,0.025 -0.0129225,0.006 -0.0276911,0.01 -0.0406137,0.018 -0.0193838,0.01 -0.0350754,0.023 -0.0535362,0.037 L 0.1660932,0.585 C 0.14763245,0.602 0.12917169,0.617 0.11440309,0.637 0.10701879,0.645 0.1024036,0.658 0.09594234,0.667 L 0.09040411,0.675 A 0.34613913,0.375 0 0 0 0.04425222,0.773 0.84919467,0.92 0 0 0 0.03409881,1.329 5.093322,5.518 0 0 0 0.66361051,2.65 0.44675024,0.484 0 0 0 0.36270023,2.86 0.48090264,0.521 0 0 0 0.29808759,3.282 7.7313637,8.376 0 0 0 0.98851978,5.075 0.42459734,0.46 0 0 0 0.7392996,5.255 0.45598062,0.494 0 0 0 0.65991836,5.688 7.0243168,7.61 0 0 0 1.6189545,7.952 h -0.02123 a 0.45782669,0.496 0 0 0 -0.3009103,0.209 0.4799796,0.52 0 0 0 -0.070151,0.394 6.5166461,7.06 0 0 0 1.1814882,2.628 2.2651345,2.454 0 0 0 -0.4218282,0.19 0.44490417,0.482 0 0 0 -0.2169138,0.294 0.49290213,0.534 0 0 0 0.046152,0.397 14.294162,15.486 0 0 0 2.0962185,2.992 2.0897573,2.264 0 0 0 -0.4393659,0.27 0.47351833,0.513 0 0 0 -0.1070724,0.675 c 0.027691,0.047 0.059074,0.099 0.093227,0.153 0.036922,0.057 0.077535,0.115 0.120918,0.178 l 0.00738,0.01 a 7.5550635,8.184 0 0 0 1.2156406,1.375 l 0.018461,0.017 a 8.5833275,9.298 0 0 0 0.2990642,0.26 c 0.047075,0.038 0.095073,0.073 0.1430708,0.11 0.064613,0.052 0.1310714,0.102 0.1993762,0.153 l 0.1873766,0.135 c 0.059074,0.042 0.1144567,0.085 0.1753772,0.126 0.070151,0.048 0.1430708,0.094 0.2150678,0.14 l 0.173531,0.111 c 0.079381,0.048 0.1615316,0.095 0.242759,0.142 l 0.173531,0.098 c 0.088612,0.048 0.1809154,0.095 0.2713731,0.141 0.058151,0.03 0.1107645,0.06 0.169839,0.09 0.1033802,0.05 0.2095295,0.098 0.3147558,0.146 0.039691,0.018 0.076612,0.038 0.1172258,0.056 l 0.00369,0.002 0.033229,0.013 c 0.085843,0.037 0.8113501,0.262 1.4233241,0.41 C 8.5112769,18.731 8.2251353,17.237 8.1106786,15.655 A 17.298649,18.741 0 0 1 6.6864314,14.463 c -0.5242854,-0.406 0.096919,-1.247 0.5685913,-0.77 0.2566044,0.24 0.5316697,0.471 0.808581,0.698 A 16.658984,18.048 0 0 1 8.3257464,10.844 15.928861,17.257 0 0 1 5.403409,9.527 3.4641604,3.753 0 0 1 4.4739101,8.776 C 3.9865462,8.271 4.7831277,7.528 5.1551119,8.139 c 0.015692,0.02 0.012923,0.023 0.00831,0.02 0.010154,0.008 0.032306,0.025 0.071997,0.059 A 4.5007318,4.876 0 0 0 5.770778,8.608 10.54109,11.42 0 0 0 7.483013,9.436 49.352056,53.466 0 0 0 4.4812944,5.52 49.888341,54.047 0 0 0 2.438612,3.235 C 1.9401716,2.715 2.5466074,1.993 3.0570472,2.526 A 51.133519,55.396 0 0 1 8.1872907,8.824 7.8088988,8.46 0 0 0 7.8088453,6.767 4.1352088,4.48 0 0 0 7.5347031,6.087 l -0.044306,-0.09 c 0,0.005 -9.231e-4,0.007 -0.015692,-0.013 C 7.0141098,5.388 7.6842352,4.737 8.1559074,5.348 A 3.6321533,3.935 0 0 1 8.7226526,6.584 C 8.879569,7.122 8.9903335,7.674 9.0697147,8.231 9.1278661,8.101 9.1850945,7.969 9.247861,7.85 A 0.49567124,0.537 0 0 1 9.5275414,7.614 0.42552037,0.461 0 0 1 9.860758,7.656 1.7537716,1.9 0 0 1 10.265049,8.016 C 10.865946,6.476 11.700372,4.935 12.724021,3.69 12.332653,3.179 11.514842,2.494 11.484381,2.467 11.475151,2.459 11.464075,2.457 11.454844,2.45 A 0.47074922,0.51 0 0 0 11.099475,2.36 0.44675024,0.484 0 0 0 10.798564,2.596 2.3159016,2.509 0 0 0 10.628725,3.027 L 10.583497,2.984 A 9.087306,9.845 0 0 0 10.255818,2.659 l -0.04892,-0.05 A 8.1744218,8.856 0 0 0 9.8413743,2.289 L 9.7841459,2.24 A 7.812591,8.464 0 0 0 9.4093926,1.948 L 9.3632407,1.918 A 6.833248,7.403 0 0 0 8.8232637,1.571 C 8.806649,1.561 8.7918804,1.549 8.7761888,1.541 L 8.707884,1.503 C 8.6737316,1.484 8.6414253,1.468 8.6081959,1.451 L 8.5648131,1.429 C 8.5260455,1.409 8.487278,1.386 8.4503565,1.369 L 8.4171271,1.353 C 8.3792826,1.335 8.3432841,1.316 8.3072856,1.301 L 8.2740563,1.288 C 8.2408269,1.273 8.2057515,1.26 8.1725221,1.246 L 8.1337545,1.231 C 8.1069864,1.221 8.0765262,1.206 8.0506811,1.196 L 7.9851455,1.17 7.948224,1.159 7.8540741,1.126 A 0.49567124,0.537 0 0 0 7.7368483,1.106 h -0.00923 c -0.00923,10e-4 -0.018461,0.005 -0.027691,0.005 -0.024922,0 -0.05169,0 -0.075689,0.006 A 0.42552037,0.461 0 0 0 7.459937,1.2 0.47628745,0.516 0 0 0 7.2762525,1.55 6.4566486,6.994 0 0 0 4.8994305,0.416 h -0.00738 A 0.44028898,0.477 0 0 0 4.7923581,0.41 c -0.014769,0 -0.03046,0.004 -0.045229,0.006 A 0.43659683,0.473 0 0 0 4.3705299,0.843 6.2166588,6.735 0 0 0 2.5281466,0.29 l -0.00369,-0.004 c -0.015692,-0.002 -0.031383,0 -0.046152,0 z"
     id="path864"
     style="fill:#277944;fill-opacity:1;stroke-width:0.96074849"
     inkscape:connector-curvature="0" />
</svg>
