<?xml version="1.0" encoding="UTF-8" standalone="no"?>
<svg
   width="193"
   height="193"
   viewBox="0 0 193 193"
   fill="none"
   version="1.1"
   id="svg241"
   xmlns="http://www.w3.org/2000/svg"
   xmlns:svg="http://www.w3.org/2000/svg">
  <g
     filter="url(#filter0_i)"
     id="g161">
    <path
       d="M 0,61.6513 C 0,35.9644 4.91486e-6,23.1281 6.53993,14.1196 8.65364,11.2114 11.2114,8.65362 14.1196,6.53991 23.1191,-1.47446e-5 35.9644,0 61.6474,0 H 130.8 c 25.687,0 38.523,-1.47446e-5 47.532,6.53991 2.907,2.11291 5.464,4.67079 7.575,7.57969 6.544,9.0033 6.544,21.8448 6.544,47.5317 v 69.1497 c 0,25.687 0,38.523 -6.544,47.532 -2.11,2.908 -4.667,5.465 -7.575,7.576 -9.004,6.543 -21.845,6.543 -47.532,6.543 H 61.6474 c -25.683,0 -38.5232,0 -47.5278,-6.543 -2.9088,-2.112 -5.46676,-4.668 -7.57967,-7.576 C 4.91486e-6,169.329 0,156.488 0,130.801 Z"
       fill="url(#paint0_linear)"
       id="path159" />
  </g>
  <g
     filter="url(#filter1_di)"
     id="g165">
    <path
       d="m 130.414,93.1591 c 12.619,0 22.849,-10.2302 22.849,-22.8498 0,-12.6196 -10.23,-22.8498 -22.849,-22.8498 -12.62,0 -22.85,10.2302 -22.85,22.8498 0,12.6196 10.23,22.8498 22.85,22.8498 z"
       fill="#ffffff"
       id="path163" />
  </g>
  <path
     d="m 51.8973,69.0424 c 0,-7.2537 0,-10.8819 1.4173,-13.6571 1.2395,-2.4412 3.2217,-4.4261 5.6612,-5.669 2.7714,-1.4095 6.3995,-1.4095 13.6571,-1.4095 l 16.5524,-1.61 1.587,1.61 v 84.2162 c 0,6.036 -0.4383,8.75 -1.4252,11.128 -0.6512,1.572 -1.6057,3.001 -2.809,4.204 -1.2033,1.203 -2.6317,2.157 -4.2037,2.808 -2.3797,0.987 -4.9615,1.293 -10.9963,1.293 -6.0362,0 -9.0562,0 -11.4346,-0.987 -1.5721,-0.651 -3.0005,-1.605 -4.2038,-2.808 -1.2032,-1.203 -2.1577,-2.631 -2.809,-4.203 -0.9869,-2.38 -0.9869,-5.4 -0.9869,-11.435 z"
     fill="#000000"
     fill-opacity="0.2"
     id="path167" />
  <g
     filter="url(#filter2_i)"
     id="g171">
    <path
       d="m 50.2823,67.4218 c 0,-7.2537 1e-4,-10.8818 1.4173,-13.6571 1.2395,-2.4412 3.2217,-4.4261 5.6612,-5.6689 2.7714,-1.4095 6.3995,-1.4095 13.6571,-1.4095 h 18.1394 v 84.2167 c 0,6.036 0,9.056 -0.9869,11.434 -0.6513,1.572 -1.6058,3 -2.809,4.203 -1.2033,1.203 -2.6317,2.158 -4.2038,2.809 -2.3797,0.987 -5.3997,0.987 -11.4345,0.987 -6.0362,0 -9.0562,0 -11.4346,-0.987 -1.5721,-0.651 -3.0005,-1.606 -4.2038,-2.809 -1.2032,-1.203 -2.1577,-2.631 -2.809,-4.203 -0.9869,-2.379 -0.9869,-5.4 -0.9869,-11.434 z"
       fill="#ffffff"
       id="path169" />
  </g>
  <defs
     id="defs239">
    <filter
       id="filter0_i"
       x="0"
       y="-1.2884099"
       width="192.451"
       height="193.741"
       filterUnits="userSpaceOnUse"
       color-interpolation-filters="sRGB">
      <feFlood
         flood-opacity="0"
         result="BackgroundImageFix"
         id="feFlood173" />
      <feBlend
         mode="normal"
         in="SourceGraphic"
         in2="BackgroundImageFix"
         result="shape"
         id="feBlend175" />
      <feColorMatrix
         in="SourceAlpha"
         type="matrix"
         values="0 0 0 0 0 0 0 0 0 0 0 0 0 0 0 0 0 0 127 0"
         result="hardAlpha"
         id="feColorMatrix177" />
      <feOffset
         dy="-1.28841"
         id="feOffset179" />
      <feGaussianBlur
         stdDeviation="1.28841"
         id="feGaussianBlur181" />
      <feComposite
         in2="hardAlpha"
         operator="arithmetic"
         k2="-1"
         k3="1"
         id="feComposite183"
         k1="0"
         k4="0" />
      <feColorMatrix
         type="matrix"
         values="0 0 0 0 0 0 0 0 0 0 0 0 0 0 0 0 0 0 0.2 0"
         id="feColorMatrix185" />
      <feBlend
         mode="normal"
         in2="shape"
         result="effect1_innerShadow"
         id="feBlend187" />
    </filter>
    <filter
       id="filter1_di"
       x="104.987"
       y="43.5942"
       width="49.908401"
       height="51.1968"
       filterUnits="userSpaceOnUse"
       color-interpolation-filters="sRGB">
      <feFlood
         flood-opacity="0"
         result="BackgroundImageFix"
         id="feFlood190" />
      <feColorMatrix
         in="SourceAlpha"
         type="matrix"
         values="0 0 0 0 0 0 0 0 0 0 0 0 0 0 0 0 0 0 127 0"
         id="feColorMatrix192" />
      <feOffset
         dx="1.63199"
         dy="1.63199"
         id="feOffset194" />
      <feColorMatrix
         type="matrix"
         values="0 0 0 0 0 0 0 0 0 0 0 0 0 0 0 0 0 0 0.15 0"
         id="feColorMatrix196" />
      <feBlend
         mode="normal"
         in2="BackgroundImageFix"
         result="effect1_dropShadow"
         id="feBlend198" />
      <feBlend
         mode="normal"
         in="SourceGraphic"
         in2="effect1_dropShadow"
         result="shape"
         id="feBlend200" />
      <feColorMatrix
         in="SourceAlpha"
         type="matrix"
         values="0 0 0 0 0 0 0 0 0 0 0 0 0 0 0 0 0 0 127 0"
         result="hardAlpha"
         id="feColorMatrix202" />
      <feOffset
         dx="-2.57682"
         dy="-3.86523"
         id="feOffset204" />
      <feGaussianBlur
         stdDeviation="3.26398"
         id="feGaussianBlur206" />
      <feComposite
         in2="hardAlpha"
         operator="arithmetic"
         k2="-1"
         k3="1"
         id="feComposite208"
         k1="0"
         k4="0" />
      <feColorMatrix
         type="matrix"
         values="0 0 0 0 0.909804 0 0 0 0 0.309804 0 0 0 0 0.309804 0 0 0 0.25 0"
         id="feColorMatrix210" />
      <feBlend
         mode="normal"
         in2="shape"
         result="effect2_innerShadow"
         id="feBlend212" />
    </filter>
    <filter
       id="filter2_i"
       x="47.7038"
       y="42.820999"
       width="41.453499"
       height="107.515"
       filterUnits="userSpaceOnUse"
       color-interpolation-filters="sRGB">
      <feFlood
         flood-opacity="0"
         result="BackgroundImageFix"
         id="feFlood215" />
      <feBlend
         mode="normal"
         in="SourceGraphic"
         in2="BackgroundImageFix"
         result="shape"
         id="feBlend217" />
      <feColorMatrix
         in="SourceAlpha"
         type="matrix"
         values="0 0 0 0 0 0 0 0 0 0 0 0 0 0 0 0 0 0 127 0"
         result="hardAlpha"
         id="feColorMatrix219" />
      <feOffset
         dx="-2.57854"
         dy="-3.86523"
         id="feOffset221" />
      <feGaussianBlur
         stdDeviation="3.26398"
         id="feGaussianBlur223" />
      <feComposite
         in2="hardAlpha"
         operator="arithmetic"
         k2="-1"
         k3="1"
         id="feComposite225"
         k1="0"
         k4="0" />
      <feColorMatrix
         type="matrix"
         values="0 0 0 0 0.909804 0 0 0 0 0.309804 0 0 0 0 0.309804 0 0 0 0.25 0"
         id="feColorMatrix227" />
      <feBlend
         mode="normal"
         in2="shape"
         result="effect1_innerShadow"
         id="feBlend229" />
    </filter>
    <linearGradient
       id="paint0_linear"
       x1="96.225601"
       y1="0"
       x2="165.56"
       y2="186.175"
       gradientUnits="userSpaceOnUse">
      <stop
         stop-color="#E84F4F"
         id="stop232" />
      <stop
         offset="0.408823"
         stop-color="#DB4646"
         id="stop234" />
      <stop
         offset="0.998911"
         stop-color="#CB3939"
         id="stop236" />
    </linearGradient>
  </defs>
</svg>
